// Generated from Can_Can_Bunny_2_Superior_Select_Scenario.mid
#pragma once
#include <Arduino.h>

namespace stackchan::songs {

static const uint8_t CAN_CAN_BUNNY_2_SUPERIOR_SELECT_SCENARIO_MID[] PROGMEM = {
  0x4d, 0x54, 0x68, 0x64, 0x00, 0x00, 0x00, 0x06, 0x00, 0x01, 0x00, 0x0b,
  0x00, 0x60, 0x4d, 0x54, 0x72, 0x6b, 0x00, 0x00, 0x00, 0x0c, 0x00, 0xff,
  0x58, 0x04, 0x04, 0x02, 0x18, 0x08, 0x00, 0xff, 0x2f, 0x00, 0x4d, 0x54,
  0x72, 0x6b, 0x00, 0x00, 0x00, 0x19, 0x00, 0xff, 0x51, 0x03, 0x05, 0x16,
  0x15, 0x00, 0xff, 0x51, 0x03, 0x05, 0x16, 0x15, 0x00, 0xff, 0x51, 0x03,
  0x05, 0x16, 0x15, 0x00, 0xff, 0x2f, 0x00, 0x4d, 0x54, 0x72, 0x6b, 0x00,
  0x00, 0x14, 0xe4, 0x00, 0xff, 0x03, 0x05, 0x42, 0x65, 0x6c, 0x6c, 0x73,
  0x00, 0xb0, 0x0a, 0x40, 0x00, 0xb0, 0x07, 0x70, 0x00, 0xe0, 0x06, 0x40,
  0x00, 0xb0, 0x65, 0x00, 0x00, 0xb0, 0x64, 0x00, 0x00, 0xb0, 0x06, 0x0c,
  0x00, 0xb0, 0x0a, 0x40, 0x00, 0xb0, 0x07, 0x70, 0x00, 0xe0, 0x06, 0x40,
  0x00, 0xc0, 0x58, 0x00, 0xb0, 0x01, 0x01, 0x00, 0xb0, 0x65, 0x00, 0x00,
  0xb0, 0x64, 0x00, 0x00, 0xb0, 0x06, 0x0c, 0x00, 0xb0, 0x0a, 0x40, 0x00,
  0xb0, 0x07, 0x70, 0x00, 0xe0, 0x06, 0x40, 0x00, 0xc0, 0x58, 0x00, 0xb0,
  0x01, 0x01, 0x00, 0xe0, 0x06, 0x40, 0x00, 0xb0, 0x0a, 0x40, 0x00, 0xb0,
  0x01, 0x00, 0x00, 0xb0, 0x65, 0x00, 0x00, 0xb0, 0x64, 0x00, 0x00, 0xb0,
  0x06, 0x0c, 0x00, 0xb0, 0x0a, 0x40, 0x00, 0xb0, 0x07, 0x70, 0x00, 0xe0,
  0x06, 0x40, 0x00, 0xc0, 0x58, 0x00, 0xb0, 0x01, 0x00, 0x00, 0xe0, 0x06,
  0x40, 0x00, 0xb0, 0x0a, 0x40, 0x00, 0xb0, 0x01, 0x00, 0x00, 0x90, 0x43,
  0x68, 0x26, 0xb0, 0x01, 0x01, 0x82, 0x5a, 0x80, 0x43, 0x00, 0x60, 0xb0,
  0x01, 0x00, 0x00, 0x90, 0x45, 0x68, 0x26, 0xb0, 0x01, 0x01, 0x22, 0x80,
  0x45, 0x00, 0x00, 0xb0, 0x01, 0x00, 0x00, 0x90, 0x43, 0x68, 0x26, 0xb0,
  0x01, 0x01, 0x3a, 0x80, 0x43, 0x00, 0x00, 0xb0, 0x01, 0x00, 0x00, 0x90,
  0x40, 0x68, 0x18, 0x80, 0x40, 0x00, 0x00, 0x90, 0x3c, 0x68, 0x26, 0xb0,
  0x01, 0x01, 0x3a, 0x80, 0x3c, 0x00, 0x00, 0xb0, 0x01, 0x00, 0x00, 0x90,
  0x38, 0x68, 0x26, 0xb0, 0x01, 0x01, 0x81, 0x1a, 0x80, 0x38, 0x00, 0x00,
  0xb0, 0x01, 0x00, 0x00, 0x90, 0x37, 0x68, 0x26, 0xb0, 0x01, 0x01, 0x3a,
  0x80, 0x37, 0x00, 0x00, 0xb0, 0x01, 0x00, 0x00, 0x90, 0x3c, 0x68, 0x26,
  0xb0, 0x01, 0x01, 0x81, 0x1a, 0x80, 0x3c, 0x00, 0x00, 0xb0, 0x01, 0x00,
  0x00, 0x90, 0x38, 0x68, 0x26, 0xb0, 0x01, 0x01, 0x81, 0x1a, 0x80, 0x38,
  0x00, 0x60, 0xb0, 0x01, 0x00, 0x00, 0x90, 0x40, 0x68, 0x26, 0xb0, 0x01,
  0x01, 0x81, 0x7a, 0x80, 0x40, 0x00, 0x00, 0xb0, 0x01, 0x00, 0x00, 0x90,
  0x40, 0x68, 0x26, 0xb0, 0x01, 0x01, 0x22, 0x80, 0x40, 0x00, 0x00, 0xb0,
  0x01, 0x00, 0x00, 0x90, 0x3c, 0x68, 0x18, 0x80, 0x3c, 0x00, 0x00, 0x90,
  0x40, 0x68, 0x26, 0xb0, 0x01, 0x01, 0x3a, 0x80, 0x40, 0x00, 0x00, 0xb0,
  0x01, 0x00, 0x00, 0x90, 0x41, 0x68, 0x26, 0xb0, 0x01, 0x01, 0x3a, 0x80,
  0x41, 0x00, 0x00, 0xb0, 0x01, 0x00, 0x00, 0x90, 0x43, 0x68, 0x26, 0xb0,
  0x01, 0x01, 0x3a, 0x80, 0x43, 0x00, 0x00, 0xb0, 0x01, 0x00, 0x00, 0x90,
  0x44, 0x68, 0x26, 0xb0, 0x01, 0x01, 0x81, 0x1a, 0x80, 0x44, 0x00, 0x00,
  0xb0, 0x01, 0x00, 0x00, 0x90, 0x48, 0x68, 0x26, 0xb0, 0x01, 0x01, 0x81,
  0x02, 0x80, 0x48, 0x00, 0x00, 0xb0, 0x01, 0x00, 0x00, 0x90, 0x48, 0x68,
  0x26, 0xb0, 0x01, 0x01, 0x3a, 0x80, 0x48, 0x00, 0x00, 0xb0, 0x01, 0x00,
  0x00, 0x90, 0x48, 0x68, 0x18, 0x80, 0x48, 0x00, 0x00, 0x90, 0x48, 0x68,
  0x26, 0xb0, 0x01, 0x01, 0x3a, 0x80, 0x48, 0x00, 0x00, 0xb0, 0x01, 0x00,
  0x00, 0x90, 0x4a, 0x68, 0x26, 0xb0, 0x01, 0x01, 0x3a, 0x80, 0x4a, 0x00,
  0x00, 0xb0, 0x01, 0x00, 0x00, 0x90, 0x48, 0x68, 0x26, 0xb0, 0x01, 0x01,
  0x81, 0x1a, 0x80, 0x48, 0x00, 0x00, 0xb0, 0x01, 0x00, 0x00, 0x90, 0x43,
  0x68, 0x00, 0x90, 0x40, 0x68, 0x26, 0xb0, 0x01, 0x01, 0x82, 0x5a, 0x80,
  0x40, 0x00, 0x00, 0x80, 0x43, 0x00, 0x60, 0xb0, 0x01, 0x00, 0x00, 0x90,
  0x41, 0x68, 0x00, 0x90, 0x45, 0x68, 0x26, 0xb0, 0x01, 0x01, 0x22, 0x80,
  0x41, 0x00, 0x00, 0x80, 0x45, 0x00, 0x00, 0xb0, 0x01, 0x00, 0x00, 0x90,
  0x40, 0x68, 0x00, 0x90, 0x43, 0x68, 0x26, 0xb0, 0x01, 0x01, 0x3a, 0x80,
  0x40, 0x00, 0x00, 0x80, 0x43, 0x00, 0x00, 0xb0, 0x01, 0x00, 0x00, 0x90,
  0x40, 0x68, 0x00, 0x90, 0x3c, 0x68, 0x18, 0x80, 0x3c, 0x00, 0x00, 0x80,
  0x40, 0x00, 0x00, 0x90, 0x37, 0x68, 0x00, 0x90, 0x3c, 0x68, 0x26, 0xb0,
  0x01, 0x01, 0x3a, 0x80, 0x37, 0x00, 0x00, 0x80, 0x3c, 0x00, 0x00, 0xb0,
  0x01, 0x00, 0x00, 0x90, 0x38, 0x68, 0x00, 0x90, 0x35, 0x68, 0x26, 0xb0,
  0x01, 0x01, 0x81, 0x1a, 0x80, 0x35, 0x00, 0x00, 0x80, 0x38, 0x00, 0x00,
  0xb0, 0x01, 0x00, 0x00, 0x90, 0x34, 0x68, 0x00, 0x90, 0x37, 0x68, 0x26,
  0xb0, 0x01, 0x01, 0x3a, 0x80, 0x37, 0x00, 0x00, 0x80, 0x34, 0x00, 0x00,
  0xb0, 0x01, 0x00, 0x00, 0x90, 0x3c, 0x68, 0x00, 0x90, 0x38, 0x68, 0x26,
  0xb0, 0x01, 0x01, 0x81, 0x1a, 0x80, 0x38, 0x00, 0x00, 0x80, 0x3c, 0x00,
  0x00, 0xb0, 0x01, 0x00, 0x00, 0x90, 0x33, 0x68, 0x00, 0x90, 0x38, 0x68,
  0x26, 0xb0, 0x01, 0x01, 0x81, 0x1a, 0x80, 0x38, 0x00, 0x00, 0x80, 0x33,
  0x00, 0x60, 0xb0, 0x01, 0x00, 0x00, 0x90, 0x40, 0x68, 0x00, 0x90, 0x37,
  0x68, 0x26, 0xb0, 0x01, 0x01, 0x81, 0x7a, 0x80, 0x37, 0x00, 0x00, 0x80,
  0x40, 0x00, 0x00, 0xb0, 0x01, 0x00, 0x00, 0x90, 0x37, 0x68, 0x00, 0x90,
  0x40, 0x68, 0x26, 0xb0, 0x01, 0x01, 0x22, 0x80, 0x37, 0x00, 0x00, 0x80,
  0x40, 0x00, 0x00, 0xb0, 0x01, 0x00, 0x00, 0x90, 0x3c, 0x68, 0x00, 0x90,
  0x34, 0x68, 0x18, 0x80, 0x34, 0x00, 0x00, 0x80, 0x3c, 0x00, 0x00, 0x90,
  0x39, 0x68, 0x00, 0x90, 0x40, 0x68, 0x26, 0xb0, 0x01, 0x01, 0x3a, 0x80,
  0x39, 0x00, 0x00, 0x80, 0x40, 0x00, 0x00, 0xb0, 0x01, 0x00, 0x00, 0x90,
  0x39, 0x68, 0x00, 0x90, 0x41, 0x68, 0x26, 0xb0, 0x01, 0x01, 0x3a, 0x80,
  0x41, 0x00, 0x00, 0x80, 0x39, 0x00, 0x00, 0xb0, 0x01, 0x00, 0x00, 0x90,
  0x3c, 0x68, 0x00, 0x90, 0x43, 0x68, 0x26, 0xb0, 0x01, 0x01, 0x3a, 0x80,
  0x3c, 0x00, 0x00, 0x80, 0x43, 0x00, 0x00, 0xb0, 0x01, 0x00, 0x00, 0x90,
  0x44, 0x68, 0x00, 0x90, 0x41, 0x68, 0x26, 0xb0, 0x01, 0x01, 0x81, 0x1a,
  0x80, 0x44, 0x00, 0x00, 0x80, 0x41, 0x00, 0x00, 0xb0, 0x01, 0x00, 0x00,
  0x90, 0x44, 0x68, 0x00, 0x90, 0x48, 0x68, 0x26, 0xb0, 0x01, 0x01, 0x81,
  0x02, 0x80, 0x48, 0x00, 0x00, 0x80, 0x44, 0x00, 0x00, 0xb0, 0x01, 0x00,
  0x00, 0x90, 0x48, 0x68, 0x00, 0x90, 0x44, 0x68, 0x26, 0xb0, 0x01, 0x01,
  0x3a, 0x80, 0x44, 0x00, 0x00, 0x80, 0x48, 0x00, 0x00, 0xb0, 0x01, 0x00,
  0x00, 0x90, 0x44, 0x68, 0x00, 0x90, 0x48, 0x68, 0x18, 0x80, 0x48, 0x00,
  0x00, 0x80, 0x44, 0x00, 0x00, 0x90, 0x44, 0x68, 0x00, 0x90, 0x48, 0x68,
  0x26, 0xb0, 0x01, 0x01, 0x3a, 0x80, 0x44, 0x00, 0x00, 0x80, 0x48, 0x00,
  0x00, 0xb0, 0x01, 0x00, 0x00, 0x90, 0x46, 0x68, 0x00, 0x90, 0x4a, 0x68,
  0x26, 0xb0, 0x01, 0x01, 0x3a, 0x80, 0x4a, 0x00, 0x00, 0x80, 0x46, 0x00,
  0x00, 0xb0, 0x01, 0x00, 0x00, 0x90, 0x44, 0x68, 0x00, 0x90, 0x48, 0x68,
  0x26, 0xb0, 0x01, 0x01, 0x81, 0x1a, 0x80, 0x48, 0x00, 0x00, 0x80, 0x44,
  0x00, 0x00, 0xb0, 0x01, 0x00, 0x2e, 0xb0, 0x01, 0x05, 0x81, 0x72, 0xb0,
  0x01, 0x00, 0x2e, 0xb0, 0x01, 0x05, 0x1a, 0xb0, 0x01, 0x00, 0x2e, 0xb0,
  0x01, 0x05, 0x81, 0x2a, 0xb0, 0x01, 0x00, 0x2e, 0xb0, 0x01, 0x05, 0x81,
  0x12, 0xb0, 0x01, 0x00, 0x2e, 0xb0, 0x01, 0x05, 0x81, 0x72, 0xb0, 0x01,
  0x00, 0x2e, 0xb0, 0x01, 0x05, 0x1a, 0xb0, 0x01, 0x00, 0x2e, 0xb0, 0x01,
  0x05, 0x82, 0x6a, 0xb0, 0x01, 0x00, 0x2e, 0xb0, 0x01, 0x05, 0x81, 0x12,
  0xb0, 0x01, 0x00, 0x2e, 0xb0, 0x01, 0x05, 0x81, 0x12, 0xb0, 0x01, 0x00,
  0x2e, 0xb0, 0x01, 0x05, 0x81, 0x12, 0xb0, 0x01, 0x00, 0x2e, 0xb0, 0x01,
  0x05, 0x81, 0x12, 0xb0, 0x01, 0x00, 0x2e, 0xb0, 0x01, 0x05, 0x81, 0x5a,
  0xb0, 0x01, 0x00, 0x46, 0xb0, 0x01, 0x05, 0x1a, 0xb0, 0x01, 0x00, 0x2e,
  0xb0, 0x01, 0x05, 0x82, 0x6a, 0xb0, 0x01, 0x00, 0x2e, 0xb0, 0x01, 0x05,
  0x32, 0xb0, 0x01, 0x00, 0x2e, 0xb0, 0x01, 0x05, 0x32, 0xb0, 0x01, 0x00,
  0x2e, 0xb0, 0x01, 0x05, 0x32, 0xb0, 0x01, 0x00, 0x2e, 0xb0, 0x01, 0x05,
  0x81, 0x72, 0xb0, 0x01, 0x00, 0x2e, 0xb0, 0x01, 0x05, 0x32, 0xb0, 0x01,
  0x00, 0x2e, 0xb0, 0x01, 0x05, 0x32, 0xb0, 0x01, 0x00, 0x2e, 0xb0, 0x01,
  0x05, 0x32, 0xb0, 0x01, 0x00, 0x2e, 0xb0, 0x01, 0x05, 0x32, 0xb0, 0x01,
  0x00, 0x2e, 0xb0, 0x01, 0x05, 0x32, 0xb0, 0x01, 0x00, 0x2e, 0xb0, 0x01,
  0x05, 0x83, 0x32, 0xb0, 0x01, 0x00, 0x2e, 0xb0, 0x01, 0x05, 0x32, 0xb0,
  0x01, 0x00, 0x2e, 0xb0, 0x01, 0x05, 0x32, 0xb0, 0x01, 0x00, 0x2e, 0xb0,
  0x01, 0x05, 0x32, 0xb0, 0x01, 0x00, 0x2e, 0xb0, 0x01, 0x05, 0x81, 0x72,
  0xb0, 0x01, 0x00, 0x2e, 0xb0, 0x01, 0x05, 0x32, 0xb0, 0x01, 0x00, 0x2e,
  0xb0, 0x01, 0x05, 0x32, 0xb0, 0x01, 0x00, 0x2e, 0xb0, 0x01, 0x05, 0x81,
  0x12, 0xb0, 0x01, 0x00, 0x2e, 0xb0, 0x01, 0x05, 0x81, 0x12, 0xb0, 0x01,
  0x00, 0x2e, 0xb0, 0x01, 0x05, 0x81, 0x12, 0xb0, 0x01, 0x00, 0x2e, 0xb0,
  0x01, 0x05, 0x32, 0xb0, 0x01, 0x00, 0x2e, 0xb0, 0x01, 0x05, 0x32, 0xb0,
  0x01, 0x00, 0x60, 0x90, 0x41, 0x68, 0x00, 0x90, 0x43, 0x68, 0x26, 0xb0,
  0x01, 0x01, 0x3a, 0x80, 0x43, 0x00, 0x00, 0x80, 0x41, 0x00, 0x00, 0xb0,
  0x01, 0x00, 0x00, 0x90, 0x41, 0x68, 0x00, 0x90, 0x3c, 0x68, 0x26, 0xb0,
  0x01, 0x01, 0x3a, 0x80, 0x41, 0x00, 0x00, 0x80, 0x3c, 0x00, 0x00, 0xb0,
  0x01, 0x00, 0x00, 0x90, 0x3a, 0x68, 0x00, 0x90, 0x3c, 0x68, 0x26, 0xb0,
  0x01, 0x01, 0x3a, 0x80, 0x3c, 0x00, 0x00, 0x80, 0x3a, 0x00, 0x00, 0xb0,
  0x01, 0x00, 0x00, 0x90, 0x43, 0x68, 0x00, 0x90, 0x41, 0x68, 0x26, 0xb0,
  0x01, 0x01, 0x3a, 0x80, 0x43, 0x00, 0x00, 0x80, 0x41, 0x00, 0x00, 0xb0,
  0x01, 0x00, 0x00, 0x90, 0x3c, 0x68, 0x00, 0x90, 0x41, 0x68, 0x26, 0xb0,
  0x01, 0x01, 0x22, 0x80, 0x41, 0x00, 0x00, 0x80, 0x3c, 0x00, 0x00, 0xb0,
  0x01, 0x00, 0x00, 0x90, 0x3a, 0x68, 0x00, 0x90, 0x3c, 0x68, 0x26, 0xb0,
  0x01, 0x01, 0x3a, 0x80, 0x3c, 0x00, 0x00, 0x80, 0x3a, 0x00, 0x00, 0xb0,
  0x01, 0x00, 0x00, 0x90, 0x43, 0x68, 0x00, 0x90, 0x3f, 0x68, 0x26, 0xb0,
  0x01, 0x01, 0x52, 0x80, 0x3f, 0x00, 0x00, 0x80, 0x43, 0x00, 0x60, 0xb0,
  0x01, 0x00, 0x00, 0x90, 0x3e, 0x68, 0x00, 0x90, 0x41, 0x68, 0x26, 0xb0,
  0x01, 0x01, 0x3a, 0x80, 0x41, 0x00, 0x00, 0x80, 0x3e, 0x00, 0x00, 0xb0,
  0x01, 0x00, 0x00, 0x90, 0x3f, 0x68, 0x00, 0x90, 0x3c, 0x68, 0x26, 0xb0,
  0x01, 0x01, 0x3a, 0x80, 0x3f, 0x00, 0x00, 0x80, 0x3c, 0x00, 0x00, 0xb0,
  0x01, 0x00, 0x00, 0x90, 0x35, 0x68, 0x00, 0x90, 0x3a, 0x68, 0x26, 0xb0,
  0x01, 0x01, 0x3a, 0x80, 0x3a, 0x00, 0x00, 0x80, 0x35, 0x00, 0x00, 0xb0,
  0x01, 0x00, 0x00, 0x90, 0x41, 0x68, 0x00, 0x90, 0x3b, 0x68, 0x26, 0xb0,
  0x01, 0x01, 0x81, 0x1a, 0x80, 0x41, 0x00, 0x00, 0x80, 0x3b, 0x00, 0x00,
  0xb0, 0x01, 0x00, 0x00, 0x90, 0x43, 0x68, 0x00, 0x90, 0x3c, 0x68, 0x26,
  0xb0, 0x01, 0x01, 0x81, 0x1a, 0x80, 0x43, 0x00, 0x00, 0x80, 0x3c, 0x00,
  0x60, 0xb0, 0x01, 0x00, 0x00, 0x90, 0x43, 0x68, 0x00, 0x90, 0x3f, 0x68,
  0x26, 0xb0, 0x01, 0x01, 0x3a, 0x80, 0x3f, 0x00, 0x00, 0x80, 0x43, 0x00,
  0x00, 0xb0, 0x01, 0x00, 0x00, 0x90, 0x41, 0x68, 0x00, 0x90, 0x3e, 0x68,
  0x26, 0xb0, 0x01, 0x01, 0x3a, 0x80, 0x41, 0x00, 0x00, 0x80, 0x3e, 0x00,
  0x00, 0xb0, 0x01, 0x00, 0x00, 0x90, 0x3c, 0x68, 0x00, 0x90, 0x3c, 0x68,
  0x26, 0xb0, 0x01, 0x01, 0x3a, 0x80, 0x3c, 0x00, 0x00, 0x80, 0x3c, 0x00,
  0x00, 0xb0, 0x01, 0x00, 0x00, 0x90, 0x46, 0x68, 0x00, 0x90, 0x3f, 0x68,
  0x26, 0xb0, 0x01, 0x01, 0x6a, 0x80, 0x46, 0x00, 0x00, 0x80, 0x3f, 0x00,
  0x00, 0xb0, 0x01, 0x00, 0x00, 0x90, 0x46, 0x68, 0x00, 0x90, 0x41, 0x68,
  0x26, 0xb0, 0x01, 0x01, 0x6a, 0x80, 0x41, 0x00, 0x00, 0x80, 0x46, 0x00,
  0x00, 0xb0, 0x01, 0x00, 0x00, 0x90, 0x3f, 0x68, 0x00, 0x90, 0x3f, 0x68,
  0x26, 0xb0, 0x01, 0x01, 0x3a, 0x80, 0x3f, 0x00, 0x00, 0x80, 0x3f, 0x00,
  0x00, 0xb0, 0x01, 0x00, 0x00, 0x90, 0x3e, 0x68, 0x00, 0x90, 0x43, 0x68,
  0x26, 0xb0, 0x01, 0x01, 0x3a, 0x80, 0x43, 0x00, 0x00, 0x80, 0x3e, 0x00,
  0x00, 0xb0, 0x01, 0x00, 0x00, 0x90, 0x41, 0x68, 0x00, 0x90, 0x3f, 0x68,
  0x26, 0xb0, 0x01, 0x01, 0x3a, 0x80, 0x41, 0x00, 0x00, 0x80, 0x3f, 0x00,
  0x00, 0xb0, 0x01, 0x00, 0x00, 0x90, 0x3f, 0x68, 0x00, 0x90, 0x3f, 0x68,
  0x26, 0xb0, 0x01, 0x01, 0x3a, 0x80, 0x3f, 0x00, 0x00, 0x80, 0x3f, 0x00,
  0x00, 0xb0, 0x01, 0x00, 0x00, 0x90, 0x3e, 0x68, 0x00, 0x90, 0x41, 0x68,
  0x26, 0xb0, 0x01, 0x01, 0x3a, 0x80, 0x3e, 0x00, 0x00, 0x80, 0x41, 0x00,
  0x00, 0xb0, 0x01, 0x00, 0x00, 0x90, 0x37, 0x68, 0x20, 0x80, 0x37, 0x00,
  0x00, 0x90, 0x39, 0x68, 0x20, 0x80, 0x39, 0x00, 0x00, 0x90, 0x3c, 0x68,
  0x20, 0x80, 0x3c, 0x00, 0x00, 0x90, 0x39, 0x68, 0x20, 0x80, 0x39, 0x00,
  0x00, 0x90, 0x3c, 0x68, 0x20, 0x80, 0x3c, 0x00, 0x00, 0x90, 0x39, 0x68,
  0x20, 0x80, 0x39, 0x00, 0x00, 0x90, 0x3c, 0x68, 0x20, 0x80, 0x3c, 0x00,
  0x00, 0x90, 0x3e, 0x68, 0x20, 0x80, 0x3e, 0x00, 0x00, 0x90, 0x43, 0x68,
  0x20, 0x80, 0x43, 0x00, 0x00, 0x90, 0x3e, 0x68, 0x20, 0x80, 0x3e, 0x00,
  0x00, 0x90, 0x43, 0x68, 0x20, 0x80, 0x43, 0x00, 0x00, 0x90, 0x41, 0x68,
  0x20, 0x80, 0x41, 0x00, 0x00, 0x90, 0x48, 0x68, 0x30, 0x80, 0x48, 0x00,
  0x30, 0x90, 0x41, 0x68, 0x00, 0x90, 0x43, 0x68, 0x26, 0xb0, 0x01, 0x01,
  0x3a, 0x80, 0x41, 0x00, 0x00, 0x80, 0x43, 0x00, 0x00, 0xb0, 0x01, 0x00,
  0x00, 0x90, 0x3c, 0x68, 0x00, 0x90, 0x41, 0x68, 0x26, 0xb0, 0x01, 0x01,
  0x3a, 0x80, 0x41, 0x00, 0x00, 0x80, 0x3c, 0x00, 0x00, 0xb0, 0x01, 0x00,
  0x00, 0x90, 0x3c, 0x68, 0x00, 0x90, 0x3a, 0x68, 0x26, 0xb0, 0x01, 0x01,
  0x3a, 0x80, 0x3c, 0x00, 0x00, 0x80, 0x3a, 0x00, 0x00, 0xb0, 0x01, 0x00,
  0x00, 0x90, 0x43, 0x68, 0x00, 0x90, 0x41, 0x68, 0x26, 0xb0, 0x01, 0x01,
  0x3a, 0x80, 0x43, 0x00, 0x00, 0x80, 0x41, 0x00, 0x00, 0xb0, 0x01, 0x00,
  0x00, 0x90, 0x3c, 0x68, 0x00, 0x90, 0x41, 0x68, 0x26, 0xb0, 0x01, 0x01,
  0x22, 0x80, 0x41, 0x00, 0x00, 0x80, 0x3c, 0x00, 0x00, 0xb0, 0x01, 0x00,
  0x00, 0x90, 0x3a, 0x68, 0x00, 0x90, 0x3c, 0x68, 0x26, 0xb0, 0x01, 0x01,
  0x3a, 0x80, 0x3c, 0x00, 0x00, 0x80, 0x3a, 0x00, 0x00, 0xb0, 0x01, 0x00,
  0x00, 0x90, 0x3f, 0x68, 0x00, 0x90, 0x43, 0x68, 0x26, 0xb0, 0x01, 0x01,
  0x52, 0x80, 0x43, 0x00, 0x00, 0x80, 0x3f, 0x00, 0x60, 0xb0, 0x01, 0x00,
  0x00, 0x90, 0x3e, 0x68, 0x00, 0x90, 0x41, 0x68, 0x26, 0xb0, 0x01, 0x01,
  0x3a, 0x80, 0x41, 0x00, 0x00, 0x80, 0x3e, 0x00, 0x00, 0xb0, 0x01, 0x00,
  0x00, 0x90, 0x3c, 0x68, 0x00, 0x90, 0x3f, 0x68, 0x26, 0xb0, 0x01, 0x01,
  0x3a, 0x80, 0x3f, 0x00, 0x00, 0x80, 0x3c, 0x00, 0x00, 0xb0, 0x01, 0x00,
  0x00, 0x90, 0x3a, 0x68, 0x00, 0x90, 0x35, 0x68, 0x26, 0xb0, 0x01, 0x01,
  0x3a, 0x80, 0x3a, 0x00, 0x00, 0x80, 0x35, 0x00, 0x00, 0xb0, 0x01, 0x00,
  0x00, 0x90, 0x41, 0x68, 0x00, 0x90, 0x3b, 0x68, 0x26, 0xb0, 0x01, 0x01,
  0x81, 0x1a, 0x80, 0x41, 0x00, 0x00, 0x80, 0x3b, 0x00, 0x00, 0xb0, 0x01,
  0x00, 0x00, 0x90, 0x3c, 0x68, 0x00, 0x90, 0x43, 0x68, 0x26, 0xb0, 0x01,
  0x01, 0x81, 0x1a, 0x80, 0x3c, 0x00, 0x00, 0x80, 0x43, 0x00, 0x00, 0x90,
  0x4d, 0x68, 0x00, 0x90, 0x3e, 0x68, 0x2e, 0xb0, 0x01, 0x05, 0x81, 0x72,
  0x80, 0x4d, 0x00, 0x00, 0x80, 0x3e, 0x00, 0x00, 0xb0, 0x01, 0x00, 0x00,
  0x90, 0x3f, 0x68, 0x00, 0x90, 0x4f, 0x68, 0x2e, 0xb0, 0x01, 0x05, 0x1a,
  0x80, 0x4f, 0x00, 0x00, 0x80, 0x3f, 0x00, 0x00, 0xb0, 0x01, 0x00, 0x00,
  0x90, 0x3e, 0x68, 0x00, 0x90, 0x4d, 0x68, 0x2e, 0xb0, 0x01, 0x05, 0x81,
  0x2a, 0x80, 0x4d, 0x00, 0x00, 0x80, 0x3e, 0x00, 0x81, 0x40, 0x90, 0x3e,
  0x68, 0x00, 0x90, 0x4d, 0x68, 0x82, 0x20, 0x80, 0x4d, 0x00, 0x00, 0x80,
  0x3e, 0x00, 0x00, 0xb0, 0x01, 0x00, 0x00, 0x90, 0x3f, 0x68, 0x00, 0x90,
  0x4f, 0x68, 0x2e, 0xb0, 0x01, 0x05, 0x1a, 0x80, 0x4f, 0x00, 0x00, 0x80,
  0x3f, 0x00, 0x00, 0xb0, 0x01, 0x00, 0x00, 0x90, 0x4d, 0x68, 0x00, 0x90,
  0x3e, 0x68, 0x2e, 0xb0, 0x01, 0x05, 0x81, 0x2a, 0x80, 0x3e, 0x00, 0x00,
  0x80, 0x4d, 0x00, 0x81, 0x40, 0xb0, 0x01, 0x00, 0x00, 0x90, 0x52, 0x68,
  0x2e, 0xb0, 0x01, 0x05, 0x32, 0x80, 0x52, 0x00, 0x00, 0xb0, 0x01, 0x00,
  0x00, 0x90, 0x4f, 0x68, 0x2e, 0xb0, 0x01, 0x05, 0x32, 0x80, 0x4f, 0x00,
  0x00, 0xb0, 0x01, 0x00, 0x00, 0x90, 0x54, 0x68, 0x2e, 0xb0, 0x01, 0x05,
  0x32, 0x80, 0x54, 0x00, 0x00, 0xb0, 0x01, 0x00, 0x00, 0x90, 0x52, 0x68,
  0x2e, 0xb0, 0x01, 0x05, 0x83, 0x32, 0x80, 0x52, 0x00, 0x86, 0x00, 0xb0,
  0x01, 0x00, 0x00, 0x90, 0x52, 0x68, 0x2e, 0xb0, 0x01, 0x05, 0x32, 0x80,
  0x52, 0x00, 0x00, 0xb0, 0x01, 0x00, 0x00, 0x90, 0x4f, 0x68, 0x2e, 0xb0,
  0x01, 0x05, 0x32, 0x80, 0x4f, 0x00, 0x00, 0xb0, 0x01, 0x00, 0x00, 0x90,
  0x54, 0x68, 0x2e, 0xb0, 0x01, 0x05, 0x32, 0x80, 0x54, 0x00, 0x00, 0xb0,
  0x01, 0x00, 0x00, 0x90, 0x52, 0x68, 0x2e, 0xb0, 0x01, 0x05, 0x83, 0x32,
  0x80, 0x52, 0x00, 0x86, 0x00, 0xb0, 0x01, 0x00, 0x00, 0x90, 0x52, 0x68,
  0x2e, 0xb0, 0x01, 0x05, 0x32, 0x80, 0x52, 0x00, 0x00, 0xb0, 0x01, 0x00,
  0x00, 0x90, 0x4f, 0x68, 0x2e, 0xb0, 0x01, 0x05, 0x32, 0x80, 0x4f, 0x00,
  0x00, 0xb0, 0x01, 0x00, 0x00, 0x90, 0x54, 0x68, 0x2e, 0xb0, 0x01, 0x05,
  0x32, 0x80, 0x54, 0x00, 0x00, 0xb0, 0x01, 0x00, 0x00, 0x90, 0x52, 0x68,
  0x2e, 0xb0, 0x01, 0x05, 0x32, 0xb0, 0x01, 0x00, 0x2e, 0xb0, 0x01, 0x05,
  0x32, 0x80, 0x52, 0x00, 0x00, 0xb0, 0x01, 0x00, 0x00, 0x90, 0x52, 0x68,
  0x2e, 0xb0, 0x01, 0x05, 0x32, 0x80, 0x52, 0x00, 0x00, 0xb0, 0x01, 0x00,
  0x00, 0x90, 0x54, 0x68, 0x2e, 0xb0, 0x01, 0x05, 0x32, 0x80, 0x54, 0x00,
  0x00, 0xb0, 0x01, 0x00, 0x00, 0x90, 0x57, 0x68, 0x2e, 0xb0, 0x01, 0x05,
  0x32, 0x80, 0x57, 0x00, 0x00, 0xb0, 0x01, 0x00, 0x00, 0x90, 0x3f, 0x68,
  0x00, 0x90, 0x5b, 0x68, 0x2e, 0xb0, 0x01, 0x05, 0x81, 0x12, 0x80, 0x3f,
  0x00, 0x00, 0x80, 0x5b, 0x00, 0x00, 0xb0, 0x01, 0x00, 0x00, 0x90, 0x59,
  0x68, 0x00, 0x90, 0x3e, 0x68, 0x2e, 0xb0, 0x01, 0x05, 0x81, 0x12, 0x80,
  0x59, 0x00, 0x00, 0x80, 0x3e, 0x00, 0x00, 0xb0, 0x01, 0x00, 0x00, 0x90,
  0x57, 0x68, 0x00, 0x90, 0x3c, 0x68, 0x2e, 0xb0, 0x01, 0x05, 0x32, 0x80,
  0x3c, 0x00, 0x00, 0x80, 0x57, 0x00, 0x00, 0xb0, 0x01, 0x00, 0x00, 0x90,
  0x59, 0x68, 0x00, 0x90, 0x3e, 0x68, 0x2e, 0xb0, 0x01, 0x05, 0x81, 0x72,
  0x80, 0x3e, 0x00, 0x00, 0x80, 0x59, 0x00, 0x00, 0xb0, 0x01, 0x00, 0x00,
  0x90, 0x43, 0x68, 0x26, 0xb0, 0x01, 0x01, 0x82, 0x5a, 0x80, 0x43, 0x00,
  0x60, 0xb0, 0x01, 0x00, 0x00, 0x90, 0x45, 0x68, 0x26, 0xb0, 0x01, 0x01,
  0x22, 0x80, 0x45, 0x00, 0x00, 0xb0, 0x01, 0x00, 0x00, 0x90, 0x43, 0x68,
  0x26, 0xb0, 0x01, 0x01, 0x3a, 0x80, 0x43, 0x00, 0x00, 0xb0, 0x01, 0x00,
  0x00, 0x90, 0x40, 0x68, 0x18, 0x80, 0x40, 0x00, 0x00, 0x90, 0x3c, 0x68,
  0x26, 0xb0, 0x01, 0x01, 0x3a, 0x80, 0x3c, 0x00, 0x00, 0xb0, 0x01, 0x00,
  0x00, 0x90, 0x38, 0x68, 0x26, 0xb0, 0x01, 0x01, 0x81, 0x1a, 0x80, 0x38,
  0x00, 0x00, 0xb0, 0x01, 0x00, 0x00, 0x90, 0x37, 0x68, 0x26, 0xb0, 0x01,
  0x01, 0x3a, 0x80, 0x37, 0x00, 0x00, 0xb0, 0x01, 0x00, 0x00, 0x90, 0x3c,
  0x68, 0x26, 0xb0, 0x01, 0x01, 0x81, 0x1a, 0x80, 0x3c, 0x00, 0x00, 0xb0,
  0x01, 0x00, 0x00, 0x90, 0x38, 0x68, 0x26, 0xb0, 0x01, 0x01, 0x81, 0x1a,
  0x80, 0x38, 0x00, 0x60, 0xb0, 0x01, 0x00, 0x00, 0x90, 0x40, 0x68, 0x26,
  0xb0, 0x01, 0x01, 0x81, 0x7a, 0x80, 0x40, 0x00, 0x00, 0xb0, 0x01, 0x00,
  0x00, 0x90, 0x40, 0x68, 0x26, 0xb0, 0x01, 0x01, 0x22, 0x80, 0x40, 0x00,
  0x00, 0xb0, 0x01, 0x00, 0x00, 0x90, 0x3c, 0x68, 0x18, 0x80, 0x3c, 0x00,
  0x00, 0x90, 0x40, 0x68, 0x26, 0xb0, 0x01, 0x01, 0x3a, 0x80, 0x40, 0x00,
  0x00, 0xb0, 0x01, 0x00, 0x00, 0x90, 0x41, 0x68, 0x26, 0xb0, 0x01, 0x01,
  0x3a, 0x80, 0x41, 0x00, 0x00, 0xb0, 0x01, 0x00, 0x00, 0x90, 0x43, 0x68,
  0x26, 0xb0, 0x01, 0x01, 0x3a, 0x80, 0x43, 0x00, 0x00, 0xb0, 0x01, 0x00,
  0x00, 0x90, 0x44, 0x68, 0x26, 0xb0, 0x01, 0x01, 0x81, 0x1a, 0x80, 0x44,
  0x00, 0x00, 0xb0, 0x01, 0x00, 0x00, 0x90, 0x48, 0x68, 0x26, 0xb0, 0x01,
  0x01, 0x81, 0x02, 0x80, 0x48, 0x00, 0x00, 0xb0, 0x01, 0x00, 0x00, 0x90,
  0x48, 0x68, 0x26, 0xb0, 0x01, 0x01, 0x3a, 0x80, 0x48, 0x00, 0x00, 0xb0,
  0x01, 0x00, 0x00, 0x90, 0x48, 0x68, 0x18, 0x80, 0x48, 0x00, 0x00, 0x90,
  0x48, 0x68, 0x26, 0xb0, 0x01, 0x01, 0x3a, 0x80, 0x48, 0x00, 0x00, 0xb0,
  0x01, 0x00, 0x00, 0x90, 0x4a, 0x68, 0x26, 0xb0, 0x01, 0x01, 0x3a, 0x80,
  0x4a, 0x00, 0x00, 0xb0, 0x01, 0x00, 0x00, 0x90, 0x48, 0x68, 0x26, 0xb0,
  0x01, 0x01, 0x81, 0x1a, 0x80, 0x48, 0x00, 0x00, 0xb0, 0x01, 0x00, 0x00,
  0x90, 0x43, 0x68, 0x00, 0x90, 0x40, 0x68, 0x26, 0xb0, 0x01, 0x01, 0x82,
  0x5a, 0x80, 0x40, 0x00, 0x00, 0x80, 0x43, 0x00, 0x60, 0xb0, 0x01, 0x00,
  0x00, 0x90, 0x41, 0x68, 0x00, 0x90, 0x45, 0x68, 0x26, 0xb0, 0x01, 0x01,
  0x22, 0x80, 0x41, 0x00, 0x00, 0x80, 0x45, 0x00, 0x00, 0xb0, 0x01, 0x00,
  0x00, 0x90, 0x40, 0x68, 0x00, 0x90, 0x43, 0x68, 0x26, 0xb0, 0x01, 0x01,
  0x3a, 0x80, 0x40, 0x00, 0x00, 0x80, 0x43, 0x00, 0x00, 0xb0, 0x01, 0x00,
  0x00, 0x90, 0x40, 0x68, 0x00, 0x90, 0x3c, 0x68, 0x18, 0x80, 0x3c, 0x00,
  0x00, 0x80, 0x40, 0x00, 0x00, 0x90, 0x37, 0x68, 0x00, 0x90, 0x3c, 0x68,
  0x26, 0xb0, 0x01, 0x01, 0x3a, 0x80, 0x37, 0x00, 0x00, 0x80, 0x3c, 0x00,
  0x00, 0xb0, 0x01, 0x00, 0x00, 0x90, 0x38, 0x68, 0x00, 0x90, 0x35, 0x68,
  0x26, 0xb0, 0x01, 0x01, 0x81, 0x1a, 0x80, 0x35, 0x00, 0x00, 0x80, 0x38,
  0x00, 0x00, 0xb0, 0x01, 0x00, 0x00, 0x90, 0x34, 0x68, 0x00, 0x90, 0x37,
  0x68, 0x26, 0xb0, 0x01, 0x01, 0x3a, 0x80, 0x37, 0x00, 0x00, 0x80, 0x34,
  0x00, 0x00, 0xb0, 0x01, 0x00, 0x00, 0x90, 0x3c, 0x68, 0x00, 0x90, 0x38,
  0x68, 0x26, 0xb0, 0x01, 0x01, 0x81, 0x1a, 0x80, 0x38, 0x00, 0x00, 0x80,
  0x3c, 0x00, 0x00, 0xb0, 0x01, 0x00, 0x00, 0x90, 0x33, 0x68, 0x00, 0x90,
  0x38, 0x68, 0x26, 0xb0, 0x01, 0x01, 0x81, 0x1a, 0x80, 0x38, 0x00, 0x00,
  0x80, 0x33, 0x00, 0x60, 0xb0, 0x01, 0x00, 0x00, 0x90, 0x40, 0x68, 0x00,
  0x90, 0x37, 0x68, 0x26, 0xb0, 0x01, 0x01, 0x81, 0x7a, 0x80, 0x37, 0x00,
  0x00, 0x80, 0x40, 0x00, 0x00, 0xb0, 0x01, 0x00, 0x00, 0x90, 0x37, 0x68,
  0x00, 0x90, 0x40, 0x68, 0x26, 0xb0, 0x01, 0x01, 0x22, 0x80, 0x37, 0x00,
  0x00, 0x80, 0x40, 0x00, 0x00, 0xb0, 0x01, 0x00, 0x00, 0x90, 0x3c, 0x68,
  0x00, 0x90, 0x34, 0x68, 0x18, 0x80, 0x34, 0x00, 0x00, 0x80, 0x3c, 0x00,
  0x00, 0x90, 0x39, 0x68, 0x00, 0x90, 0x40, 0x68, 0x26, 0xb0, 0x01, 0x01,
  0x3a, 0x80, 0x39, 0x00, 0x00, 0x80, 0x40, 0x00, 0x00, 0xb0, 0x01, 0x00,
  0x00, 0x90, 0x39, 0x68, 0x00, 0x90, 0x41, 0x68, 0x26, 0xb0, 0x01, 0x01,
  0x3a, 0x80, 0x41, 0x00, 0x00, 0x80, 0x39, 0x00, 0x00, 0xb0, 0x01, 0x00,
  0x00, 0x90, 0x3c, 0x68, 0x00, 0x90, 0x43, 0x68, 0x26, 0xb0, 0x01, 0x01,
  0x3a, 0x80, 0x3c, 0x00, 0x00, 0x80, 0x43, 0x00, 0x00, 0xb0, 0x01, 0x00,
  0x00, 0x90, 0x44, 0x68, 0x00, 0x90, 0x41, 0x68, 0x26, 0xb0, 0x01, 0x01,
  0x81, 0x1a, 0x80, 0x44, 0x00, 0x00, 0x80, 0x41, 0x00, 0x00, 0xb0, 0x01,
  0x00, 0x00, 0x90, 0x44, 0x68, 0x00, 0x90, 0x48, 0x68, 0x26, 0xb0, 0x01,
  0x01, 0x81, 0x02, 0x80, 0x48, 0x00, 0x00, 0x80, 0x44, 0x00, 0x00, 0xb0,
  0x01, 0x00, 0x00, 0x90, 0x48, 0x68, 0x00, 0x90, 0x44, 0x68, 0x26, 0xb0,
  0x01, 0x01, 0x3a, 0x80, 0x44, 0x00, 0x00, 0x80, 0x48, 0x00, 0x00, 0xb0,
  0x01, 0x00, 0x00, 0x90, 0x44, 0x68, 0x00, 0x90, 0x48, 0x68, 0x18, 0x80,
  0x48, 0x00, 0x00, 0x80, 0x44, 0x00, 0x00, 0x90, 0x44, 0x68, 0x00, 0x90,
  0x48, 0x68, 0x26, 0xb0, 0x01, 0x01, 0x3a, 0x80, 0x44, 0x00, 0x00, 0x80,
  0x48, 0x00, 0x00, 0xb0, 0x01, 0x00, 0x00, 0x90, 0x46, 0x68, 0x00, 0x90,
  0x4a, 0x68, 0x26, 0xb0, 0x01, 0x01, 0x3a, 0x80, 0x4a, 0x00, 0x00, 0x80,
  0x46, 0x00, 0x00, 0xb0, 0x01, 0x00, 0x00, 0x90, 0x44, 0x68, 0x00, 0x90,
  0x48, 0x68, 0x26, 0xb0, 0x01, 0x01, 0x81, 0x1a, 0x80, 0x48, 0x00, 0x00,
  0x80, 0x44, 0x00, 0x00, 0xb0, 0x01, 0x00, 0x2e, 0xb0, 0x01, 0x05, 0x81,
  0x72, 0xb0, 0x01, 0x00, 0x2e, 0xb0, 0x01, 0x05, 0x1a, 0xb0, 0x01, 0x00,
  0x2e, 0xb0, 0x01, 0x05, 0x81, 0x2a, 0xb0, 0x01, 0x00, 0x2e, 0xb0, 0x01,
  0x05, 0x81, 0x12, 0xb0, 0x01, 0x00, 0x2e, 0xb0, 0x01, 0x05, 0x81, 0x72,
  0xb0, 0x01, 0x00, 0x2e, 0xb0, 0x01, 0x05, 0x1a, 0xb0, 0x01, 0x00, 0x2e,
  0xb0, 0x01, 0x05, 0x82, 0x6a, 0xb0, 0x01, 0x00, 0x2e, 0xb0, 0x01, 0x05,
  0x81, 0x12, 0xb0, 0x01, 0x00, 0x2e, 0xb0, 0x01, 0x05, 0x81, 0x12, 0xb0,
  0x01, 0x00, 0x2e, 0xb0, 0x01, 0x05, 0x81, 0x12, 0xb0, 0x01, 0x00, 0x2e,
  0xb0, 0x01, 0x05, 0x81, 0x12, 0xb0, 0x01, 0x00, 0x2e, 0xb0, 0x01, 0x05,
  0x81, 0x5a, 0xb0, 0x01, 0x00, 0x46, 0xb0, 0x01, 0x05, 0x1a, 0xb0, 0x01,
  0x00, 0x2e, 0xb0, 0x01, 0x05, 0x82, 0x6a, 0xb0, 0x01, 0x00, 0x2e, 0xb0,
  0x01, 0x05, 0x32, 0xb0, 0x01, 0x00, 0x2e, 0xb0, 0x01, 0x05, 0x32, 0xb0,
  0x01, 0x00, 0x2e, 0xb0, 0x01, 0x05, 0x32, 0xb0, 0x01, 0x00, 0x2e, 0xb0,
  0x01, 0x05, 0x81, 0x72, 0xb0, 0x01, 0x00, 0x2e, 0xb0, 0x01, 0x05, 0x32,
  0xb0, 0x01, 0x00, 0x2e, 0xb0, 0x01, 0x05, 0x32, 0xb0, 0x01, 0x00, 0x2e,
  0xb0, 0x01, 0x05, 0x32, 0xb0, 0x01, 0x00, 0x2e, 0xb0, 0x01, 0x05, 0x32,
  0xb0, 0x01, 0x00, 0x2e, 0xb0, 0x01, 0x05, 0x32, 0xb0, 0x01, 0x00, 0x2e,
  0xb0, 0x01, 0x05, 0x83, 0x32, 0xb0, 0x01, 0x00, 0x2e, 0xb0, 0x01, 0x05,
  0x32, 0xb0, 0x01, 0x00, 0x2e, 0xb0, 0x01, 0x05, 0x32, 0xb0, 0x01, 0x00,
  0x2e, 0xb0, 0x01, 0x05, 0x32, 0xb0, 0x01, 0x00, 0x2e, 0xb0, 0x01, 0x05,
  0x81, 0x72, 0xb0, 0x01, 0x00, 0x2e, 0xb0, 0x01, 0x05, 0x32, 0xb0, 0x01,
  0x00, 0x2e, 0xb0, 0x01, 0x05, 0x32, 0xb0, 0x01, 0x00, 0x2e, 0xb0, 0x01,
  0x05, 0x81, 0x12, 0xb0, 0x01, 0x00, 0x2e, 0xb0, 0x01, 0x05, 0x81, 0x12,
  0xb0, 0x01, 0x00, 0x2e, 0xb0, 0x01, 0x05, 0x81, 0x12, 0xb0, 0x01, 0x00,
  0x2e, 0xb0, 0x01, 0x05, 0x32, 0xb0, 0x01, 0x00, 0x2e, 0xb0, 0x01, 0x05,
  0x32, 0xb0, 0x01, 0x00, 0x60, 0x90, 0x41, 0x68, 0x00, 0x90, 0x43, 0x68,
  0x26, 0xb0, 0x01, 0x01, 0x3a, 0x80, 0x43, 0x00, 0x00, 0x80, 0x41, 0x00,
  0x00, 0xb0, 0x01, 0x00, 0x00, 0x90, 0x41, 0x68, 0x00, 0x90, 0x3c, 0x68,
  0x26, 0xb0, 0x01, 0x01, 0x3a, 0x80, 0x41, 0x00, 0x00, 0x80, 0x3c, 0x00,
  0x00, 0xb0, 0x01, 0x00, 0x00, 0x90, 0x3a, 0x68, 0x00, 0x90, 0x3c, 0x68,
  0x26, 0xb0, 0x01, 0x01, 0x3a, 0x80, 0x3c, 0x00, 0x00, 0x80, 0x3a, 0x00,
  0x00, 0xb0, 0x01, 0x00, 0x00, 0x90, 0x43, 0x68, 0x00, 0x90, 0x41, 0x68,
  0x26, 0xb0, 0x01, 0x01, 0x3a, 0x80, 0x43, 0x00, 0x00, 0x80, 0x41, 0x00,
  0x00, 0xb0, 0x01, 0x00, 0x00, 0x90, 0x3c, 0x68, 0x00, 0x90, 0x41, 0x68,
  0x26, 0xb0, 0x01, 0x01, 0x22, 0x80, 0x41, 0x00, 0x00, 0x80, 0x3c, 0x00,
  0x00, 0xb0, 0x01, 0x00, 0x00, 0x90, 0x3a, 0x68, 0x00, 0x90, 0x3c, 0x68,
  0x26, 0xb0, 0x01, 0x01, 0x3a, 0x80, 0x3c, 0x00, 0x00, 0x80, 0x3a, 0x00,
  0x00, 0xb0, 0x01, 0x00, 0x00, 0x90, 0x43, 0x68, 0x00, 0x90, 0x3f, 0x68,
  0x26, 0xb0, 0x01, 0x01, 0x52, 0x80, 0x3f, 0x00, 0x00, 0x80, 0x43, 0x00,
  0x60, 0xb0, 0x01, 0x00, 0x00, 0x90, 0x3e, 0x68, 0x00, 0x90, 0x41, 0x68,
  0x26, 0xb0, 0x01, 0x01, 0x3a, 0x80, 0x41, 0x00, 0x00, 0x80, 0x3e, 0x00,
  0x00, 0xb0, 0x01, 0x00, 0x00, 0x90, 0x3f, 0x68, 0x00, 0x90, 0x3c, 0x68,
  0x26, 0xb0, 0x01, 0x01, 0x3a, 0x80, 0x3f, 0x00, 0x00, 0x80, 0x3c, 0x00,
  0x00, 0xb0, 0x01, 0x00, 0x00, 0x90, 0x35, 0x68, 0x00, 0x90, 0x3a, 0x68,
  0x26, 0xb0, 0x01, 0x01, 0x3a, 0x80, 0x3a, 0x00, 0x00, 0x80, 0x35, 0x00,
  0x00, 0xb0, 0x01, 0x00, 0x00, 0x90, 0x41, 0x68, 0x00, 0x90, 0x3b, 0x68,
  0x26, 0xb0, 0x01, 0x01, 0x81, 0x1a, 0x80, 0x41, 0x00, 0x00, 0x80, 0x3b,
  0x00, 0x00, 0xb0, 0x01, 0x00, 0x00, 0x90, 0x43, 0x68, 0x00, 0x90, 0x3c,
  0x68, 0x26, 0xb0, 0x01, 0x01, 0x81, 0x1a, 0x80, 0x43, 0x00, 0x00, 0x80,
  0x3c, 0x00, 0x60, 0xb0, 0x01, 0x00, 0x00, 0x90, 0x43, 0x68, 0x00, 0x90,
  0x3f, 0x68, 0x26, 0xb0, 0x01, 0x01, 0x3a, 0x80, 0x3f, 0x00, 0x00, 0x80,
  0x43, 0x00, 0x00, 0xb0, 0x01, 0x00, 0x00, 0x90, 0x41, 0x68, 0x00, 0x90,
  0x3e, 0x68, 0x26, 0xb0, 0x01, 0x01, 0x3a, 0x80, 0x41, 0x00, 0x00, 0x80,
  0x3e, 0x00, 0x00, 0xb0, 0x01, 0x00, 0x00, 0x90, 0x3c, 0x68, 0x00, 0x90,
  0x3c, 0x68, 0x26, 0xb0, 0x01, 0x01, 0x3a, 0x80, 0x3c, 0x00, 0x00, 0x80,
  0x3c, 0x00, 0x00, 0xb0, 0x01, 0x00, 0x00, 0x90, 0x46, 0x68, 0x00, 0x90,
  0x3f, 0x68, 0x26, 0xb0, 0x01, 0x01, 0x6a, 0x80, 0x46, 0x00, 0x00, 0x80,
  0x3f, 0x00, 0x00, 0xb0, 0x01, 0x00, 0x00, 0x90, 0x46, 0x68, 0x00, 0x90,
  0x41, 0x68, 0x26, 0xb0, 0x01, 0x01, 0x6a, 0x80, 0x41, 0x00, 0x00, 0x80,
  0x46, 0x00, 0x00, 0xb0, 0x01, 0x00, 0x00, 0x90, 0x3f, 0x68, 0x00, 0x90,
  0x3f, 0x68, 0x26, 0xb0, 0x01, 0x01, 0x3a, 0x80, 0x3f, 0x00, 0x00, 0x80,
  0x3f, 0x00, 0x00, 0xb0, 0x01, 0x00, 0x00, 0x90, 0x3e, 0x68, 0x00, 0x90,
  0x43, 0x68, 0x26, 0xb0, 0x01, 0x01, 0x3a, 0x80, 0x43, 0x00, 0x00, 0x80,
  0x3e, 0x00, 0x00, 0xb0, 0x01, 0x00, 0x00, 0x90, 0x41, 0x68, 0x00, 0x90,
  0x3f, 0x68, 0x26, 0xb0, 0x01, 0x01, 0x3a, 0x80, 0x41, 0x00, 0x00, 0x80,
  0x3f, 0x00, 0x00, 0xb0, 0x01, 0x00, 0x00, 0x90, 0x3f, 0x68, 0x00, 0x90,
  0x3f, 0x68, 0x26, 0xb0, 0x01, 0x01, 0x3a, 0x80, 0x3f, 0x00, 0x00, 0x80,
  0x3f, 0x00, 0x00, 0xb0, 0x01, 0x00, 0x00, 0x90, 0x3e, 0x68, 0x00, 0x90,
  0x41, 0x68, 0x26, 0xb0, 0x01, 0x01, 0x3a, 0x80, 0x3e, 0x00, 0x00, 0x80,
  0x41, 0x00, 0x00, 0xb0, 0x01, 0x00, 0x00, 0x90, 0x37, 0x68, 0x20, 0x80,
  0x37, 0x00, 0x00, 0x90, 0x39, 0x68, 0x20, 0x80, 0x39, 0x00, 0x00, 0x90,
  0x3c, 0x68, 0x20, 0x80, 0x3c, 0x00, 0x00, 0x90, 0x39, 0x68, 0x20, 0x80,
  0x39, 0x00, 0x00, 0x90, 0x3c, 0x68, 0x20, 0x80, 0x3c, 0x00, 0x00, 0x90,
  0x39, 0x68, 0x20, 0x80, 0x39, 0x00, 0x00, 0x90, 0x3c, 0x68, 0x20, 0x80,
  0x3c, 0x00, 0x00, 0x90, 0x3e, 0x68, 0x20, 0x80, 0x3e, 0x00, 0x00, 0x90,
  0x43, 0x68, 0x20, 0x80, 0x43, 0x00, 0x00, 0x90, 0x3e, 0x68, 0x20, 0x80,
  0x3e, 0x00, 0x00, 0x90, 0x43, 0x68, 0x20, 0x80, 0x43, 0x00, 0x00, 0x90,
  0x41, 0x68, 0x20, 0x80, 0x41, 0x00, 0x00, 0x90, 0x48, 0x68, 0x30, 0x80,
  0x48, 0x00, 0x30, 0x90, 0x41, 0x68, 0x00, 0x90, 0x43, 0x68, 0x26, 0xb0,
  0x01, 0x01, 0x3a, 0x80, 0x41, 0x00, 0x00, 0x80, 0x43, 0x00, 0x00, 0xb0,
  0x01, 0x00, 0x00, 0x90, 0x3c, 0x68, 0x00, 0x90, 0x41, 0x68, 0x26, 0xb0,
  0x01, 0x01, 0x3a, 0x80, 0x41, 0x00, 0x00, 0x80, 0x3c, 0x00, 0x00, 0xb0,
  0x01, 0x00, 0x00, 0x90, 0x3c, 0x68, 0x00, 0x90, 0x3a, 0x68, 0x26, 0xb0,
  0x01, 0x01, 0x3a, 0x80, 0x3c, 0x00, 0x00, 0x80, 0x3a, 0x00, 0x00, 0xb0,
  0x01, 0x00, 0x00, 0x90, 0x43, 0x68, 0x00, 0x90, 0x41, 0x68, 0x26, 0xb0,
  0x01, 0x01, 0x3a, 0x80, 0x43, 0x00, 0x00, 0x80, 0x41, 0x00, 0x00, 0xb0,
  0x01, 0x00, 0x00, 0x90, 0x3c, 0x68, 0x00, 0x90, 0x41, 0x68, 0x26, 0xb0,
  0x01, 0x01, 0x22, 0x80, 0x41, 0x00, 0x00, 0x80, 0x3c, 0x00, 0x00, 0xb0,
  0x01, 0x00, 0x00, 0x90, 0x3a, 0x68, 0x00, 0x90, 0x3c, 0x68, 0x26, 0xb0,
  0x01, 0x01, 0x3a, 0x80, 0x3c, 0x00, 0x00, 0x80, 0x3a, 0x00, 0x00, 0xb0,
  0x01, 0x00, 0x00, 0x90, 0x3f, 0x68, 0x00, 0x90, 0x43, 0x68, 0x26, 0xb0,
  0x01, 0x01, 0x52, 0x80, 0x43, 0x00, 0x00, 0x80, 0x3f, 0x00, 0x60, 0xb0,
  0x01, 0x00, 0x00, 0x90, 0x3e, 0x68, 0x00, 0x90, 0x41, 0x68, 0x26, 0xb0,
  0x01, 0x01, 0x3a, 0x80, 0x41, 0x00, 0x00, 0x80, 0x3e, 0x00, 0x00, 0xb0,
  0x01, 0x00, 0x00, 0x90, 0x3c, 0x68, 0x00, 0x90, 0x3f, 0x68, 0x26, 0xb0,
  0x01, 0x01, 0x3a, 0x80, 0x3f, 0x00, 0x00, 0x80, 0x3c, 0x00, 0x00, 0xb0,
  0x01, 0x00, 0x00, 0x90, 0x3a, 0x68, 0x00, 0x90, 0x35, 0x68, 0x26, 0xb0,
  0x01, 0x01, 0x3a, 0x80, 0x3a, 0x00, 0x00, 0x80, 0x35, 0x00, 0x00, 0xb0,
  0x01, 0x00, 0x00, 0x90, 0x41, 0x68, 0x00, 0x90, 0x3b, 0x68, 0x26, 0xb0,
  0x01, 0x01, 0x81, 0x1a, 0x80, 0x41, 0x00, 0x00, 0x80, 0x3b, 0x00, 0x00,
  0xb0, 0x01, 0x00, 0x00, 0x90, 0x3c, 0x68, 0x00, 0x90, 0x43, 0x68, 0x26,
  0xb0, 0x01, 0x01, 0x81, 0x1a, 0x80, 0x3c, 0x00, 0x00, 0x80, 0x43, 0x00,
  0x00, 0x90, 0x4d, 0x68, 0x00, 0x90, 0x3e, 0x68, 0x2e, 0xb0, 0x01, 0x05,
  0x81, 0x72, 0x80, 0x4d, 0x00, 0x00, 0x80, 0x3e, 0x00, 0x00, 0xb0, 0x01,
  0x00, 0x00, 0x90, 0x3f, 0x68, 0x00, 0x90, 0x4f, 0x68, 0x2e, 0xb0, 0x01,
  0x05, 0x1a, 0x80, 0x4f, 0x00, 0x00, 0x80, 0x3f, 0x00, 0x00, 0xb0, 0x01,
  0x00, 0x00, 0x90, 0x3e, 0x68, 0x00, 0x90, 0x4d, 0x68, 0x2e, 0xb0, 0x01,
  0x05, 0x81, 0x2a, 0x80, 0x4d, 0x00, 0x00, 0x80, 0x3e, 0x00, 0x81, 0x40,
  0x90, 0x3e, 0x68, 0x00, 0x90, 0x4d, 0x68, 0x82, 0x20, 0x80, 0x4d, 0x00,
  0x00, 0x80, 0x3e, 0x00, 0x00, 0xb0, 0x01, 0x00, 0x00, 0x90, 0x3f, 0x68,
  0x00, 0x90, 0x4f, 0x68, 0x2e, 0xb0, 0x01, 0x05, 0x1a, 0x80, 0x4f, 0x00,
  0x00, 0x80, 0x3f, 0x00, 0x00, 0xb0, 0x01, 0x00, 0x00, 0x90, 0x4d, 0x68,
  0x00, 0x90, 0x3e, 0x68, 0x2e, 0xb0, 0x01, 0x05, 0x81, 0x2a, 0x80, 0x3e,
  0x00, 0x00, 0x80, 0x4d, 0x00, 0x81, 0x40, 0xb0, 0x01, 0x00, 0x00, 0x90,
  0x52, 0x68, 0x2e, 0xb0, 0x01, 0x05, 0x32, 0x80, 0x52, 0x00, 0x00, 0xb0,
  0x01, 0x00, 0x00, 0x90, 0x4f, 0x68, 0x2e, 0xb0, 0x01, 0x05, 0x32, 0x80,
  0x4f, 0x00, 0x00, 0xb0, 0x01, 0x00, 0x00, 0x90, 0x54, 0x68, 0x2e, 0xb0,
  0x01, 0x05, 0x32, 0x80, 0x54, 0x00, 0x00, 0xb0, 0x01, 0x00, 0x00, 0x90,
  0x52, 0x68, 0x2e, 0xb0, 0x01, 0x05, 0x83, 0x32, 0x80, 0x52, 0x00, 0x86,
  0x00, 0xb0, 0x01, 0x00, 0x00, 0x90, 0x52, 0x68, 0x2e, 0xb0, 0x01, 0x05,
  0x32, 0x80, 0x52, 0x00, 0x00, 0xb0, 0x01, 0x00, 0x00, 0x90, 0x4f, 0x68,
  0x2e, 0xb0, 0x01, 0x05, 0x32, 0x80, 0x4f, 0x00, 0x00, 0xb0, 0x01, 0x00,
  0x00, 0x90, 0x54, 0x68, 0x2e, 0xb0, 0x01, 0x05, 0x32, 0x80, 0x54, 0x00,
  0x00, 0xb0, 0x01, 0x00, 0x00, 0x90, 0x52, 0x68, 0x2e, 0xb0, 0x01, 0x05,
  0x83, 0x32, 0x80, 0x52, 0x00, 0x86, 0x00, 0xb0, 0x01, 0x00, 0x00, 0x90,
  0x52, 0x68, 0x2e, 0xb0, 0x01, 0x05, 0x32, 0x80, 0x52, 0x00, 0x00, 0xb0,
  0x01, 0x00, 0x00, 0x90, 0x4f, 0x68, 0x2e, 0xb0, 0x01, 0x05, 0x32, 0x80,
  0x4f, 0x00, 0x00, 0xb0, 0x01, 0x00, 0x00, 0x90, 0x54, 0x68, 0x2e, 0xb0,
  0x01, 0x05, 0x32, 0x80, 0x54, 0x00, 0x00, 0xb0, 0x01, 0x00, 0x00, 0x90,
  0x52, 0x68, 0x2e, 0xb0, 0x01, 0x05, 0x32, 0xb0, 0x01, 0x00, 0x2e, 0xb0,
  0x01, 0x05, 0x32, 0x80, 0x52, 0x00, 0x00, 0xb0, 0x01, 0x00, 0x00, 0x90,
  0x52, 0x68, 0x2e, 0xb0, 0x01, 0x05, 0x32, 0x80, 0x52, 0x00, 0x00, 0xb0,
  0x01, 0x00, 0x00, 0x90, 0x54, 0x68, 0x2e, 0xb0, 0x01, 0x05, 0x32, 0x80,
  0x54, 0x00, 0x00, 0xb0, 0x01, 0x00, 0x00, 0x90, 0x57, 0x68, 0x2e, 0xb0,
  0x01, 0x05, 0x32, 0x80, 0x57, 0x00, 0x00, 0xb0, 0x01, 0x00, 0x00, 0x90,
  0x3f, 0x68, 0x00, 0x90, 0x5b, 0x68, 0x2e, 0xb0, 0x01, 0x05, 0x81, 0x12,
  0x80, 0x3f, 0x00, 0x00, 0x80, 0x5b, 0x00, 0x00, 0xb0, 0x01, 0x00, 0x00,
  0x90, 0x59, 0x68, 0x00, 0x90, 0x3e, 0x68, 0x2e, 0xb0, 0x01, 0x05, 0x81,
  0x12, 0x80, 0x59, 0x00, 0x00, 0x80, 0x3e, 0x00, 0x00, 0xb0, 0x01, 0x00,
  0x00, 0x90, 0x57, 0x68, 0x00, 0x90, 0x3c, 0x68, 0x2e, 0xb0, 0x01, 0x05,
  0x32, 0x80, 0x3c, 0x00, 0x00, 0x80, 0x57, 0x00, 0x00, 0xb0, 0x01, 0x00,
  0x00, 0x90, 0x59, 0x68, 0x00, 0x90, 0x3e, 0x68, 0x2e, 0xb0, 0x01, 0x05,
  0x81, 0x72, 0x80, 0x3e, 0x00, 0x00, 0x80, 0x59, 0x00, 0x83, 0x00, 0xb0,
  0x65, 0x00, 0x00, 0xb0, 0x64, 0x00, 0x00, 0xb0, 0x06, 0x0c, 0x00, 0xb0,
  0x0a, 0x40, 0x00, 0xb0, 0x07, 0x70, 0x00, 0xe0, 0x06, 0x40, 0x00, 0xc0,
  0x58, 0x00, 0xb0, 0x01, 0x05, 0x01, 0xb0, 0x65, 0x00, 0x00, 0xb0, 0x64,
  0x00, 0x00, 0xb0, 0x06, 0x0c, 0x00, 0xb0, 0x0a, 0x40, 0x00, 0xb0, 0x07,
  0x70, 0x00, 0xe0, 0x06, 0x40, 0x00, 0xc0, 0x58, 0x00, 0xb0, 0x01, 0x05,
  0x00, 0xb0, 0x65, 0x00, 0x00, 0xb0, 0x64, 0x00, 0x00, 0xb0, 0x06, 0x0c,
  0x00, 0xb0, 0x0a, 0x40, 0x00, 0xb0, 0x07, 0x70, 0x00, 0xe0, 0x06, 0x40,
  0x00, 0xc0, 0x58, 0x00, 0xb0, 0x01, 0x05, 0x00, 0xff, 0x2f, 0x00, 0x4d,
  0x54, 0x72, 0x6b, 0x00, 0x00, 0x0c, 0x83, 0x00, 0xff, 0x03, 0x0a, 0x42,
  0x65, 0x6c, 0x6c, 0x73, 0x20, 0x65, 0x63, 0x68, 0x6f, 0x00, 0xb1, 0x0a,
  0x40, 0x00, 0xb1, 0x07, 0x41, 0x00, 0xe1, 0x06, 0x40, 0x00, 0xb1, 0x65,
  0x00, 0x00, 0xb1, 0x64, 0x00, 0x00, 0xb1, 0x06, 0x0c, 0x00, 0xb1, 0x0a,
  0x40, 0x00, 0xb1, 0x07, 0x41, 0x00, 0xe1, 0x06, 0x40, 0x00, 0xc1, 0x58,
  0x00, 0xb1, 0x01, 0x0f, 0x00, 0xb1, 0x65, 0x00, 0x00, 0xb1, 0x64, 0x00,
  0x00, 0xb1, 0x06, 0x0c, 0x00, 0xb1, 0x0a, 0x40, 0x00, 0xb1, 0x07, 0x41,
  0x00, 0xe1, 0x06, 0x40, 0x00, 0xc1, 0x58, 0x00, 0xb1, 0x01, 0x0f, 0x00,
  0xb1, 0x65, 0x00, 0x00, 0xb1, 0x64, 0x00, 0x00, 0xb1, 0x06, 0x0c, 0x00,
  0xb1, 0x0a, 0x40, 0x00, 0xb1, 0x07, 0x41, 0x00, 0xe1, 0x06, 0x40, 0x00,
  0xc1, 0x58, 0x00, 0xb1, 0x01, 0x0f, 0x48, 0x91, 0x43, 0x68, 0x83, 0x00,
  0x81, 0x43, 0x00, 0x60, 0x91, 0x45, 0x68, 0x48, 0x81, 0x45, 0x00, 0x00,
  0x91, 0x43, 0x68, 0x60, 0x81, 0x43, 0x00, 0x00, 0x91, 0x40, 0x68, 0x18,
  0x81, 0x40, 0x00, 0x00, 0x91, 0x3c, 0x68, 0x60, 0x81, 0x3c, 0x00, 0x00,
  0x91, 0x38, 0x68, 0x81, 0x40, 0x81, 0x38, 0x00, 0x00, 0x91, 0x37, 0x68,
  0x60, 0x81, 0x37, 0x00, 0x00, 0x91, 0x3c, 0x68, 0x81, 0x40, 0x81, 0x3c,
  0x00, 0x00, 0x91, 0x38, 0x68, 0x81, 0x40, 0x81, 0x38, 0x00, 0x60, 0x91,
  0x40, 0x68, 0x82, 0x20, 0x81, 0x40, 0x00, 0x00, 0x91, 0x40, 0x68, 0x48,
  0x81, 0x40, 0x00, 0x00, 0x91, 0x3c, 0x68, 0x18, 0x81, 0x3c, 0x00, 0x00,
  0x91, 0x40, 0x68, 0x60, 0x81, 0x40, 0x00, 0x00, 0x91, 0x41, 0x68, 0x60,
  0x81, 0x41, 0x00, 0x00, 0x91, 0x43, 0x68, 0x60, 0x81, 0x43, 0x00, 0x00,
  0x91, 0x44, 0x68, 0x81, 0x40, 0x81, 0x44, 0x00, 0x00, 0x91, 0x48, 0x68,
  0x81, 0x28, 0x81, 0x48, 0x00, 0x00, 0x91, 0x48, 0x68, 0x60, 0x81, 0x48,
  0x00, 0x00, 0x91, 0x48, 0x68, 0x18, 0x81, 0x48, 0x00, 0x00, 0x91, 0x48,
  0x68, 0x60, 0x81, 0x48, 0x00, 0x00, 0x91, 0x4a, 0x68, 0x60, 0x81, 0x4a,
  0x00, 0x00, 0x91, 0x48, 0x68, 0x81, 0x40, 0x81, 0x48, 0x00, 0x00, 0x91,
  0x43, 0x68, 0x00, 0x91, 0x40, 0x68, 0x83, 0x00, 0x81, 0x40, 0x00, 0x00,
  0x81, 0x43, 0x00, 0x60, 0x91, 0x45, 0x68, 0x00, 0x91, 0x41, 0x68, 0x48,
  0x81, 0x41, 0x00, 0x00, 0x81, 0x45, 0x00, 0x00, 0x91, 0x43, 0x68, 0x00,
  0x91, 0x40, 0x68, 0x60, 0x81, 0x40, 0x00, 0x00, 0x81, 0x43, 0x00, 0x00,
  0x91, 0x3c, 0x68, 0x00, 0x91, 0x40, 0x68, 0x18, 0x81, 0x40, 0x00, 0x00,
  0x81, 0x3c, 0x00, 0x00, 0x91, 0x37, 0x68, 0x00, 0x91, 0x3c, 0x68, 0x60,
  0x81, 0x3c, 0x00, 0x00, 0x81, 0x37, 0x00, 0x00, 0x91, 0x38, 0x68, 0x00,
  0x91, 0x35, 0x68, 0x81, 0x40, 0x81, 0x35, 0x00, 0x00, 0x81, 0x38, 0x00,
  0x00, 0x91, 0x34, 0x68, 0x00, 0x91, 0x37, 0x68, 0x60, 0x81, 0x37, 0x00,
  0x00, 0x81, 0x34, 0x00, 0x00, 0x91, 0x3c, 0x68, 0x00, 0x91, 0x38, 0x68,
  0x81, 0x40, 0x81, 0x38, 0x00, 0x00, 0x81, 0x3c, 0x00, 0x00, 0x91, 0x38,
  0x68, 0x00, 0x91, 0x33, 0x68, 0x81, 0x40, 0x81, 0x33, 0x00, 0x00, 0x81,
  0x38, 0x00, 0x60, 0x91, 0x40, 0x68, 0x00, 0x91, 0x37, 0x68, 0x82, 0x20,
  0x81, 0x37, 0x00, 0x00, 0x81, 0x40, 0x00, 0x00, 0x91, 0x37, 0x68, 0x00,
  0x91, 0x40, 0x68, 0x48, 0x81, 0x40, 0x00, 0x00, 0x81, 0x37, 0x00, 0x00,
  0x91, 0x34, 0x68, 0x00, 0x91, 0x3c, 0x68, 0x18, 0x81, 0x3c, 0x00, 0x00,
  0x81, 0x34, 0x00, 0x00, 0x91, 0x39, 0x68, 0x00, 0x91, 0x40, 0x68, 0x60,
  0x81, 0x40, 0x00, 0x00, 0x81, 0x39, 0x00, 0x00, 0x91, 0x41, 0x68, 0x00,
  0x91, 0x39, 0x68, 0x60, 0x81, 0x39, 0x00, 0x00, 0x81, 0x41, 0x00, 0x00,
  0x91, 0x43, 0x68, 0x00, 0x91, 0x3c, 0x68, 0x60, 0x81, 0x3c, 0x00, 0x00,
  0x81, 0x43, 0x00, 0x00, 0x91, 0x44, 0x68, 0x00, 0x91, 0x41, 0x68, 0x81,
  0x40, 0x81, 0x41, 0x00, 0x00, 0x81, 0x44, 0x00, 0x00, 0x91, 0x44, 0x68,
  0x00, 0x91, 0x48, 0x68, 0x81, 0x28, 0x81, 0x48, 0x00, 0x00, 0x81, 0x44,
  0x00, 0x00, 0x91, 0x48, 0x68, 0x00, 0x91, 0x44, 0x68, 0x60, 0x81, 0x44,
  0x00, 0x00, 0x81, 0x48, 0x00, 0x00, 0x91, 0x44, 0x68, 0x00, 0x91, 0x48,
  0x68, 0x18, 0x81, 0x48, 0x00, 0x00, 0x81, 0x44, 0x00, 0x00, 0x91, 0x44,
  0x68, 0x00, 0x91, 0x48, 0x68, 0x60, 0x81, 0x48, 0x00, 0x00, 0x81, 0x44,
  0x00, 0x00, 0x91, 0x4a, 0x68, 0x00, 0x91, 0x46, 0x68, 0x60, 0x81, 0x46,
  0x00, 0x00, 0x81, 0x4a, 0x00, 0x00, 0x91, 0x44, 0x68, 0x00, 0x91, 0x48,
  0x68, 0x81, 0x40, 0x81, 0x48, 0x00, 0x00, 0x81, 0x44, 0x00, 0xb0, 0x60,
  0x91, 0x41, 0x68, 0x00, 0x91, 0x43, 0x68, 0x60, 0x81, 0x43, 0x00, 0x00,
  0x81, 0x41, 0x00, 0x00, 0x91, 0x41, 0x68, 0x00, 0x91, 0x3c, 0x68, 0x60,
  0x81, 0x3c, 0x00, 0x00, 0x81, 0x41, 0x00, 0x00, 0x91, 0x3a, 0x68, 0x00,
  0x91, 0x3c, 0x68, 0x60, 0x81, 0x3a, 0x00, 0x00, 0x81, 0x3c, 0x00, 0x00,
  0x91, 0x43, 0x68, 0x00, 0x91, 0x41, 0x68, 0x60, 0x81, 0x41, 0x00, 0x00,
  0x81, 0x43, 0x00, 0x00, 0x91, 0x3c, 0x68, 0x00, 0x91, 0x41, 0x68, 0x48,
  0x81, 0x41, 0x00, 0x00, 0x81, 0x3c, 0x00, 0x00, 0x91, 0x3a, 0x68, 0x00,
  0x91, 0x3c, 0x68, 0x60, 0x81, 0x3c, 0x00, 0x00, 0x81, 0x3a, 0x00, 0x00,
  0x91, 0x43, 0x68, 0x00, 0x91, 0x3f, 0x68, 0x78, 0x81, 0x43, 0x00, 0x00,
  0x81, 0x3f, 0x00, 0x60, 0x91, 0x3e, 0x68, 0x00, 0x91, 0x41, 0x68, 0x60,
  0x81, 0x3e, 0x00, 0x00, 0x81, 0x41, 0x00, 0x00, 0x91, 0x3f, 0x68, 0x00,
  0x91, 0x3c, 0x68, 0x60, 0x81, 0x3c, 0x00, 0x00, 0x81, 0x3f, 0x00, 0x00,
  0x91, 0x35, 0x68, 0x00, 0x91, 0x3a, 0x68, 0x60, 0x81, 0x35, 0x00, 0x00,
  0x81, 0x3a, 0x00, 0x00, 0x91, 0x41, 0x68, 0x00, 0x91, 0x3b, 0x68, 0x81,
  0x40, 0x81, 0x3b, 0x00, 0x00, 0x81, 0x41, 0x00, 0x00, 0x91, 0x43, 0x68,
  0x00, 0x91, 0x3c, 0x68, 0x81, 0x40, 0x81, 0x3c, 0x00, 0x00, 0x81, 0x43,
  0x00, 0x60, 0x91, 0x43, 0x68, 0x00, 0x91, 0x3f, 0x68, 0x60, 0x81, 0x43,
  0x00, 0x00, 0x81, 0x3f, 0x00, 0x00, 0x91, 0x41, 0x68, 0x00, 0x91, 0x3e,
  0x68, 0x60, 0x81, 0x3e, 0x00, 0x00, 0x81, 0x41, 0x00, 0x00, 0x91, 0x3c,
  0x68, 0x00, 0x91, 0x3c, 0x68, 0x60, 0x81, 0x3c, 0x00, 0x00, 0x81, 0x3c,
  0x00, 0x00, 0x91, 0x46, 0x68, 0x00, 0x91, 0x3f, 0x68, 0x81, 0x10, 0x81,
  0x3f, 0x00, 0x00, 0x81, 0x46, 0x00, 0x00, 0x91, 0x41, 0x68, 0x00, 0x91,
  0x46, 0x68, 0x81, 0x10, 0x81, 0x46, 0x00, 0x00, 0x81, 0x41, 0x00, 0x00,
  0x91, 0x3f, 0x68, 0x00, 0x91, 0x3f, 0x68, 0x60, 0x81, 0x3f, 0x00, 0x00,
  0x81, 0x3f, 0x00, 0x00, 0x91, 0x3e, 0x68, 0x00, 0x91, 0x43, 0x68, 0x60,
  0x81, 0x43, 0x00, 0x00, 0x81, 0x3e, 0x00, 0x00, 0x91, 0x41, 0x68, 0x00,
  0x91, 0x3f, 0x68, 0x60, 0x81, 0x3f, 0x00, 0x00, 0x81, 0x41, 0x00, 0x00,
  0x91, 0x3f, 0x68, 0x00, 0x91, 0x3f, 0x68, 0x60, 0x81, 0x3f, 0x00, 0x00,
  0x81, 0x3f, 0x00, 0x00, 0x91, 0x41, 0x68, 0x00, 0x91, 0x3e, 0x68, 0x60,
  0x81, 0x3e, 0x00, 0x00, 0x81, 0x41, 0x00, 0x00, 0x91, 0x37, 0x68, 0x20,
  0x81, 0x37, 0x00, 0x00, 0x91, 0x39, 0x68, 0x20, 0x81, 0x39, 0x00, 0x00,
  0x91, 0x3c, 0x68, 0x20, 0x81, 0x3c, 0x00, 0x00, 0x91, 0x39, 0x68, 0x20,
  0x81, 0x39, 0x00, 0x00, 0x91, 0x3c, 0x68, 0x20, 0x81, 0x3c, 0x00, 0x00,
  0x91, 0x39, 0x68, 0x20, 0x81, 0x39, 0x00, 0x00, 0x91, 0x3c, 0x68, 0x20,
  0x81, 0x3c, 0x00, 0x00, 0x91, 0x3e, 0x68, 0x20, 0x81, 0x3e, 0x00, 0x00,
  0x91, 0x43, 0x68, 0x20, 0x81, 0x43, 0x00, 0x00, 0x91, 0x3e, 0x68, 0x20,
  0x81, 0x3e, 0x00, 0x00, 0x91, 0x43, 0x68, 0x20, 0x81, 0x43, 0x00, 0x00,
  0x91, 0x41, 0x68, 0x20, 0x81, 0x41, 0x00, 0x00, 0x91, 0x48, 0x68, 0x30,
  0x81, 0x48, 0x00, 0x30, 0x91, 0x41, 0x68, 0x00, 0x91, 0x43, 0x68, 0x60,
  0x81, 0x41, 0x00, 0x00, 0x81, 0x43, 0x00, 0x00, 0x91, 0x3c, 0x68, 0x00,
  0x91, 0x41, 0x68, 0x60, 0x81, 0x41, 0x00, 0x00, 0x81, 0x3c, 0x00, 0x00,
  0x91, 0x3c, 0x68, 0x00, 0x91, 0x3a, 0x68, 0x60, 0x81, 0x3c, 0x00, 0x00,
  0x81, 0x3a, 0x00, 0x00, 0x91, 0x43, 0x68, 0x00, 0x91, 0x41, 0x68, 0x60,
  0x81, 0x41, 0x00, 0x00, 0x81, 0x43, 0x00, 0x00, 0x91, 0x41, 0x68, 0x00,
  0x91, 0x3c, 0x68, 0x48, 0x81, 0x3c, 0x00, 0x00, 0x81, 0x41, 0x00, 0x00,
  0x91, 0x3c, 0x68, 0x00, 0x91, 0x3a, 0x68, 0x60, 0x81, 0x3a, 0x00, 0x00,
  0x81, 0x3c, 0x00, 0x00, 0x91, 0x3f, 0x68, 0x00, 0x91, 0x43, 0x68, 0x78,
  0x81, 0x43, 0x00, 0x00, 0x81, 0x3f, 0x00, 0x60, 0x91, 0x3e, 0x68, 0x00,
  0x91, 0x41, 0x68, 0x60, 0x81, 0x3e, 0x00, 0x00, 0x81, 0x41, 0x00, 0x00,
  0x91, 0x3c, 0x68, 0x00, 0x91, 0x3f, 0x68, 0x60, 0x81, 0x3f, 0x00, 0x00,
  0x81, 0x3c, 0x00, 0x00, 0x91, 0x3a, 0x68, 0x00, 0x91, 0x35, 0x68, 0x60,
  0x81, 0x3a, 0x00, 0x00, 0x81, 0x35, 0x00, 0x00, 0x91, 0x41, 0x68, 0x00,
  0x91, 0x3b, 0x68, 0x81, 0x40, 0x81, 0x3b, 0x00, 0x00, 0x81, 0x41, 0x00,
  0x00, 0x91, 0x3c, 0x68, 0x00, 0x91, 0x43, 0x68, 0x81, 0x40, 0x81, 0x43,
  0x00, 0x00, 0x81, 0x3c, 0x00, 0x00, 0x91, 0x3e, 0x68, 0x00, 0x91, 0x4d,
  0x68, 0x82, 0x20, 0x81, 0x4d, 0x00, 0x00, 0x81, 0x3e, 0x00, 0x00, 0x91,
  0x3f, 0x68, 0x00, 0x91, 0x4f, 0x68, 0x48, 0x81, 0x4f, 0x00, 0x00, 0x81,
  0x3f, 0x00, 0x00, 0x91, 0x3e, 0x68, 0x00, 0x91, 0x4d, 0x68, 0x81, 0x58,
  0x81, 0x4d, 0x00, 0x00, 0x81, 0x3e, 0x00, 0x81, 0x40, 0x91, 0x4d, 0x68,
  0x00, 0x91, 0x3e, 0x68, 0x82, 0x20, 0x81, 0x3e, 0x00, 0x00, 0x81, 0x4d,
  0x00, 0x00, 0x91, 0x3f, 0x68, 0x00, 0x91, 0x4f, 0x68, 0x48, 0x81, 0x4f,
  0x00, 0x00, 0x81, 0x3f, 0x00, 0x00, 0x91, 0x4d, 0x68, 0x00, 0x91, 0x3e,
  0x68, 0x81, 0x58, 0x81, 0x3e, 0x00, 0x00, 0x81, 0x4d, 0x00, 0x81, 0x40,
  0x91, 0x52, 0x68, 0x60, 0x81, 0x52, 0x00, 0x00, 0x91, 0x4f, 0x68, 0x60,
  0x81, 0x4f, 0x00, 0x00, 0x91, 0x54, 0x68, 0x60, 0x81, 0x54, 0x00, 0x00,
  0x91, 0x52, 0x68, 0x83, 0x60, 0x81, 0x52, 0x00, 0x86, 0x00, 0x91, 0x52,
  0x68, 0x60, 0x81, 0x52, 0x00, 0x00, 0x91, 0x4f, 0x68, 0x60, 0x81, 0x4f,
  0x00, 0x00, 0x91, 0x54, 0x68, 0x60, 0x81, 0x54, 0x00, 0x00, 0x91, 0x52,
  0x68, 0x83, 0x60, 0x81, 0x52, 0x00, 0x86, 0x00, 0x91, 0x52, 0x68, 0x60,
  0x81, 0x52, 0x00, 0x00, 0x91, 0x4f, 0x68, 0x60, 0x81, 0x4f, 0x00, 0x00,
  0x91, 0x54, 0x68, 0x60, 0x81, 0x54, 0x00, 0x00, 0x91, 0x52, 0x68, 0x81,
  0x40, 0x81, 0x52, 0x00, 0x00, 0x91, 0x52, 0x68, 0x60, 0x81, 0x52, 0x00,
  0x00, 0x91, 0x54, 0x68, 0x60, 0x81, 0x54, 0x00, 0x00, 0x91, 0x57, 0x68,
  0x60, 0x81, 0x57, 0x00, 0x00, 0x91, 0x3f, 0x68, 0x00, 0x91, 0x5b, 0x68,
  0x81, 0x40, 0x81, 0x5b, 0x00, 0x00, 0x81, 0x3f, 0x00, 0x00, 0x91, 0x59,
  0x68, 0x00, 0x91, 0x3e, 0x68, 0x81, 0x40, 0x81, 0x3e, 0x00, 0x00, 0x81,
  0x59, 0x00, 0x00, 0x91, 0x57, 0x68, 0x00, 0x91, 0x3c, 0x68, 0x60, 0x81,
  0x3c, 0x00, 0x00, 0x81, 0x57, 0x00, 0x00, 0x91, 0x3e, 0x68, 0x00, 0x91,
  0x59, 0x68, 0x82, 0x20, 0x81, 0x59, 0x00, 0x00, 0x81, 0x3e, 0x00, 0x00,
  0x91, 0x43, 0x68, 0x83, 0x00, 0x81, 0x43, 0x00, 0x60, 0x91, 0x45, 0x68,
  0x48, 0x81, 0x45, 0x00, 0x00, 0x91, 0x43, 0x68, 0x60, 0x81, 0x43, 0x00,
  0x00, 0x91, 0x40, 0x68, 0x18, 0x81, 0x40, 0x00, 0x00, 0x91, 0x3c, 0x68,
  0x60, 0x81, 0x3c, 0x00, 0x00, 0x91, 0x38, 0x68, 0x81, 0x40, 0x81, 0x38,
  0x00, 0x00, 0x91, 0x37, 0x68, 0x60, 0x81, 0x37, 0x00, 0x00, 0x91, 0x3c,
  0x68, 0x81, 0x40, 0x81, 0x3c, 0x00, 0x00, 0x91, 0x38, 0x68, 0x81, 0x40,
  0x81, 0x38, 0x00, 0x60, 0x91, 0x40, 0x68, 0x82, 0x20, 0x81, 0x40, 0x00,
  0x00, 0x91, 0x40, 0x68, 0x48, 0x81, 0x40, 0x00, 0x00, 0x91, 0x3c, 0x68,
  0x18, 0x81, 0x3c, 0x00, 0x00, 0x91, 0x40, 0x68, 0x60, 0x81, 0x40, 0x00,
  0x00, 0x91, 0x41, 0x68, 0x60, 0x81, 0x41, 0x00, 0x00, 0x91, 0x43, 0x68,
  0x60, 0x81, 0x43, 0x00, 0x00, 0x91, 0x44, 0x68, 0x81, 0x40, 0x81, 0x44,
  0x00, 0x00, 0x91, 0x48, 0x68, 0x81, 0x28, 0x81, 0x48, 0x00, 0x00, 0x91,
  0x48, 0x68, 0x60, 0x81, 0x48, 0x00, 0x00, 0x91, 0x48, 0x68, 0x18, 0x81,
  0x48, 0x00, 0x00, 0x91, 0x48, 0x68, 0x60, 0x81, 0x48, 0x00, 0x00, 0x91,
  0x4a, 0x68, 0x60, 0x81, 0x4a, 0x00, 0x00, 0x91, 0x48, 0x68, 0x81, 0x40,
  0x81, 0x48, 0x00, 0x00, 0x91, 0x43, 0x68, 0x00, 0x91, 0x40, 0x68, 0x83,
  0x00, 0x81, 0x40, 0x00, 0x00, 0x81, 0x43, 0x00, 0x60, 0x91, 0x45, 0x68,
  0x00, 0x91, 0x41, 0x68, 0x48, 0x81, 0x41, 0x00, 0x00, 0x81, 0x45, 0x00,
  0x00, 0x91, 0x43, 0x68, 0x00, 0x91, 0x40, 0x68, 0x60, 0x81, 0x40, 0x00,
  0x00, 0x81, 0x43, 0x00, 0x00, 0x91, 0x3c, 0x68, 0x00, 0x91, 0x40, 0x68,
  0x18, 0x81, 0x40, 0x00, 0x00, 0x81, 0x3c, 0x00, 0x00, 0x91, 0x37, 0x68,
  0x00, 0x91, 0x3c, 0x68, 0x60, 0x81, 0x3c, 0x00, 0x00, 0x81, 0x37, 0x00,
  0x00, 0x91, 0x38, 0x68, 0x00, 0x91, 0x35, 0x68, 0x81, 0x40, 0x81, 0x35,
  0x00, 0x00, 0x81, 0x38, 0x00, 0x00, 0x91, 0x34, 0x68, 0x00, 0x91, 0x37,
  0x68, 0x60, 0x81, 0x37, 0x00, 0x00, 0x81, 0x34, 0x00, 0x00, 0x91, 0x3c,
  0x68, 0x00, 0x91, 0x38, 0x68, 0x81, 0x40, 0x81, 0x38, 0x00, 0x00, 0x81,
  0x3c, 0x00, 0x00, 0x91, 0x38, 0x68, 0x00, 0x91, 0x33, 0x68, 0x81, 0x40,
  0x81, 0x33, 0x00, 0x00, 0x81, 0x38, 0x00, 0x60, 0x91, 0x40, 0x68, 0x00,
  0x91, 0x37, 0x68, 0x82, 0x20, 0x81, 0x37, 0x00, 0x00, 0x81, 0x40, 0x00,
  0x00, 0x91, 0x37, 0x68, 0x00, 0x91, 0x40, 0x68, 0x48, 0x81, 0x40, 0x00,
  0x00, 0x81, 0x37, 0x00, 0x00, 0x91, 0x34, 0x68, 0x00, 0x91, 0x3c, 0x68,
  0x18, 0x81, 0x3c, 0x00, 0x00, 0x81, 0x34, 0x00, 0x00, 0x91, 0x39, 0x68,
  0x00, 0x91, 0x40, 0x68, 0x60, 0x81, 0x40, 0x00, 0x00, 0x81, 0x39, 0x00,
  0x00, 0x91, 0x41, 0x68, 0x00, 0x91, 0x39, 0x68, 0x60, 0x81, 0x39, 0x00,
  0x00, 0x81, 0x41, 0x00, 0x00, 0x91, 0x43, 0x68, 0x00, 0x91, 0x3c, 0x68,
  0x60, 0x81, 0x3c, 0x00, 0x00, 0x81, 0x43, 0x00, 0x00, 0x91, 0x44, 0x68,
  0x00, 0x91, 0x41, 0x68, 0x81, 0x40, 0x81, 0x41, 0x00, 0x00, 0x81, 0x44,
  0x00, 0x00, 0x91, 0x44, 0x68, 0x00, 0x91, 0x48, 0x68, 0x81, 0x28, 0x81,
  0x48, 0x00, 0x00, 0x81, 0x44, 0x00, 0x00, 0x91, 0x48, 0x68, 0x00, 0x91,
  0x44, 0x68, 0x60, 0x81, 0x44, 0x00, 0x00, 0x81, 0x48, 0x00, 0x00, 0x91,
  0x44, 0x68, 0x00, 0x91, 0x48, 0x68, 0x18, 0x81, 0x48, 0x00, 0x00, 0x81,
  0x44, 0x00, 0x00, 0x91, 0x44, 0x68, 0x00, 0x91, 0x48, 0x68, 0x60, 0x81,
  0x48, 0x00, 0x00, 0x81, 0x44, 0x00, 0x00, 0x91, 0x4a, 0x68, 0x00, 0x91,
  0x46, 0x68, 0x60, 0x81, 0x46, 0x00, 0x00, 0x81, 0x4a, 0x00, 0x00, 0x91,
  0x44, 0x68, 0x00, 0x91, 0x48, 0x68, 0x81, 0x40, 0x81, 0x48, 0x00, 0x00,
  0x81, 0x44, 0x00, 0xb0, 0x60, 0x91, 0x41, 0x68, 0x00, 0x91, 0x43, 0x68,
  0x60, 0x81, 0x43, 0x00, 0x00, 0x81, 0x41, 0x00, 0x00, 0x91, 0x41, 0x68,
  0x00, 0x91, 0x3c, 0x68, 0x60, 0x81, 0x3c, 0x00, 0x00, 0x81, 0x41, 0x00,
  0x00, 0x91, 0x3a, 0x68, 0x00, 0x91, 0x3c, 0x68, 0x60, 0x81, 0x3a, 0x00,
  0x00, 0x81, 0x3c, 0x00, 0x00, 0x91, 0x43, 0x68, 0x00, 0x91, 0x41, 0x68,
  0x60, 0x81, 0x41, 0x00, 0x00, 0x81, 0x43, 0x00, 0x00, 0x91, 0x3c, 0x68,
  0x00, 0x91, 0x41, 0x68, 0x48, 0x81, 0x41, 0x00, 0x00, 0x81, 0x3c, 0x00,
  0x00, 0x91, 0x3a, 0x68, 0x00, 0x91, 0x3c, 0x68, 0x60, 0x81, 0x3c, 0x00,
  0x00, 0x81, 0x3a, 0x00, 0x00, 0x91, 0x43, 0x68, 0x00, 0x91, 0x3f, 0x68,
  0x78, 0x81, 0x43, 0x00, 0x00, 0x81, 0x3f, 0x00, 0x60, 0x91, 0x3e, 0x68,
  0x00, 0x91, 0x41, 0x68, 0x60, 0x81, 0x3e, 0x00, 0x00, 0x81, 0x41, 0x00,
  0x00, 0x91, 0x3f, 0x68, 0x00, 0x91, 0x3c, 0x68, 0x60, 0x81, 0x3c, 0x00,
  0x00, 0x81, 0x3f, 0x00, 0x00, 0x91, 0x35, 0x68, 0x00, 0x91, 0x3a, 0x68,
  0x60, 0x81, 0x35, 0x00, 0x00, 0x81, 0x3a, 0x00, 0x00, 0x91, 0x41, 0x68,
  0x00, 0x91, 0x3b, 0x68, 0x81, 0x40, 0x81, 0x3b, 0x00, 0x00, 0x81, 0x41,
  0x00, 0x00, 0x91, 0x43, 0x68, 0x00, 0x91, 0x3c, 0x68, 0x81, 0x40, 0x81,
  0x3c, 0x00, 0x00, 0x81, 0x43, 0x00, 0x60, 0x91, 0x43, 0x68, 0x00, 0x91,
  0x3f, 0x68, 0x60, 0x81, 0x43, 0x00, 0x00, 0x81, 0x3f, 0x00, 0x00, 0x91,
  0x41, 0x68, 0x00, 0x91, 0x3e, 0x68, 0x60, 0x81, 0x3e, 0x00, 0x00, 0x81,
  0x41, 0x00, 0x00, 0x91, 0x3c, 0x68, 0x00, 0x91, 0x3c, 0x68, 0x60, 0x81,
  0x3c, 0x00, 0x00, 0x81, 0x3c, 0x00, 0x00, 0x91, 0x46, 0x68, 0x00, 0x91,
  0x3f, 0x68, 0x81, 0x10, 0x81, 0x3f, 0x00, 0x00, 0x81, 0x46, 0x00, 0x00,
  0x91, 0x41, 0x68, 0x00, 0x91, 0x46, 0x68, 0x81, 0x10, 0x81, 0x46, 0x00,
  0x00, 0x81, 0x41, 0x00, 0x00, 0x91, 0x3f, 0x68, 0x00, 0x91, 0x3f, 0x68,
  0x60, 0x81, 0x3f, 0x00, 0x00, 0x81, 0x3f, 0x00, 0x00, 0x91, 0x3e, 0x68,
  0x00, 0x91, 0x43, 0x68, 0x60, 0x81, 0x43, 0x00, 0x00, 0x81, 0x3e, 0x00,
  0x00, 0x91, 0x41, 0x68, 0x00, 0x91, 0x3f, 0x68, 0x60, 0x81, 0x3f, 0x00,
  0x00, 0x81, 0x41, 0x00, 0x00, 0x91, 0x3f, 0x68, 0x00, 0x91, 0x3f, 0x68,
  0x60, 0x81, 0x3f, 0x00, 0x00, 0x81, 0x3f, 0x00, 0x00, 0x91, 0x41, 0x68,
  0x00, 0x91, 0x3e, 0x68, 0x60, 0x81, 0x3e, 0x00, 0x00, 0x81, 0x41, 0x00,
  0x00, 0x91, 0x37, 0x68, 0x20, 0x81, 0x37, 0x00, 0x00, 0x91, 0x39, 0x68,
  0x20, 0x81, 0x39, 0x00, 0x00, 0x91, 0x3c, 0x68, 0x20, 0x81, 0x3c, 0x00,
  0x00, 0x91, 0x39, 0x68, 0x20, 0x81, 0x39, 0x00, 0x00, 0x91, 0x3c, 0x68,
  0x20, 0x81, 0x3c, 0x00, 0x00, 0x91, 0x39, 0x68, 0x20, 0x81, 0x39, 0x00,
  0x00, 0x91, 0x3c, 0x68, 0x20, 0x81, 0x3c, 0x00, 0x00, 0x91, 0x3e, 0x68,
  0x20, 0x81, 0x3e, 0x00, 0x00, 0x91, 0x43, 0x68, 0x20, 0x81, 0x43, 0x00,
  0x00, 0x91, 0x3e, 0x68, 0x20, 0x81, 0x3e, 0x00, 0x00, 0x91, 0x43, 0x68,
  0x20, 0x81, 0x43, 0x00, 0x00, 0x91, 0x41, 0x68, 0x20, 0x81, 0x41, 0x00,
  0x00, 0x91, 0x48, 0x68, 0x30, 0x81, 0x48, 0x00, 0x30, 0x91, 0x41, 0x68,
  0x00, 0x91, 0x43, 0x68, 0x60, 0x81, 0x41, 0x00, 0x00, 0x81, 0x43, 0x00,
  0x00, 0x91, 0x3c, 0x68, 0x00, 0x91, 0x41, 0x68, 0x60, 0x81, 0x41, 0x00,
  0x00, 0x81, 0x3c, 0x00, 0x00, 0x91, 0x3c, 0x68, 0x00, 0x91, 0x3a, 0x68,
  0x60, 0x81, 0x3c, 0x00, 0x00, 0x81, 0x3a, 0x00, 0x00, 0x91, 0x43, 0x68,
  0x00, 0x91, 0x41, 0x68, 0x60, 0x81, 0x41, 0x00, 0x00, 0x81, 0x43, 0x00,
  0x00, 0x91, 0x41, 0x68, 0x00, 0x91, 0x3c, 0x68, 0x48, 0x81, 0x3c, 0x00,
  0x00, 0x81, 0x41, 0x00, 0x00, 0x91, 0x3c, 0x68, 0x00, 0x91, 0x3a, 0x68,
  0x60, 0x81, 0x3a, 0x00, 0x00, 0x81, 0x3c, 0x00, 0x00, 0x91, 0x3f, 0x68,
  0x00, 0x91, 0x43, 0x68, 0x78, 0x81, 0x43, 0x00, 0x00, 0x81, 0x3f, 0x00,
  0x60, 0x91, 0x3e, 0x68, 0x00, 0x91, 0x41, 0x68, 0x60, 0x81, 0x3e, 0x00,
  0x00, 0x81, 0x41, 0x00, 0x00, 0x91, 0x3c, 0x68, 0x00, 0x91, 0x3f, 0x68,
  0x60, 0x81, 0x3f, 0x00, 0x00, 0x81, 0x3c, 0x00, 0x00, 0x91, 0x3a, 0x68,
  0x00, 0x91, 0x35, 0x68, 0x60, 0x81, 0x3a, 0x00, 0x00, 0x81, 0x35, 0x00,
  0x00, 0x91, 0x41, 0x68, 0x00, 0x91, 0x3b, 0x68, 0x81, 0x40, 0x81, 0x3b,
  0x00, 0x00, 0x81, 0x41, 0x00, 0x00, 0x91, 0x3c, 0x68, 0x00, 0x91, 0x43,
  0x68, 0x81, 0x40, 0x81, 0x43, 0x00, 0x00, 0x81, 0x3c, 0x00, 0x00, 0x91,
  0x3e, 0x68, 0x00, 0x91, 0x4d, 0x68, 0x82, 0x20, 0x81, 0x4d, 0x00, 0x00,
  0x81, 0x3e, 0x00, 0x00, 0x91, 0x3f, 0x68, 0x00, 0x91, 0x4f, 0x68, 0x48,
  0x81, 0x4f, 0x00, 0x00, 0x81, 0x3f, 0x00, 0x00, 0x91, 0x3e, 0x68, 0x00,
  0x91, 0x4d, 0x68, 0x81, 0x58, 0x81, 0x4d, 0x00, 0x00, 0x81, 0x3e, 0x00,
  0x81, 0x40, 0x91, 0x4d, 0x68, 0x00, 0x91, 0x3e, 0x68, 0x82, 0x20, 0x81,
  0x3e, 0x00, 0x00, 0x81, 0x4d, 0x00, 0x00, 0x91, 0x3f, 0x68, 0x00, 0x91,
  0x4f, 0x68, 0x48, 0x81, 0x4f, 0x00, 0x00, 0x81, 0x3f, 0x00, 0x00, 0x91,
  0x4d, 0x68, 0x00, 0x91, 0x3e, 0x68, 0x81, 0x58, 0x81, 0x3e, 0x00, 0x00,
  0x81, 0x4d, 0x00, 0x81, 0x40, 0x91, 0x52, 0x68, 0x60, 0x81, 0x52, 0x00,
  0x00, 0x91, 0x4f, 0x68, 0x60, 0x81, 0x4f, 0x00, 0x00, 0x91, 0x54, 0x68,
  0x60, 0x81, 0x54, 0x00, 0x00, 0x91, 0x52, 0x68, 0x83, 0x60, 0x81, 0x52,
  0x00, 0x86, 0x00, 0x91, 0x52, 0x68, 0x60, 0x81, 0x52, 0x00, 0x00, 0x91,
  0x4f, 0x68, 0x60, 0x81, 0x4f, 0x00, 0x00, 0x91, 0x54, 0x68, 0x60, 0x81,
  0x54, 0x00, 0x00, 0x91, 0x52, 0x68, 0x83, 0x60, 0x81, 0x52, 0x00, 0x86,
  0x00, 0x91, 0x52, 0x68, 0x60, 0x81, 0x52, 0x00, 0x00, 0x91, 0x4f, 0x68,
  0x60, 0x81, 0x4f, 0x00, 0x00, 0x91, 0x54, 0x68, 0x60, 0x81, 0x54, 0x00,
  0x00, 0x91, 0x52, 0x68, 0x81, 0x40, 0x81, 0x52, 0x00, 0x00, 0x91, 0x52,
  0x68, 0x60, 0x81, 0x52, 0x00, 0x00, 0x91, 0x54, 0x68, 0x60, 0x81, 0x54,
  0x00, 0x00, 0x91, 0x57, 0x68, 0x60, 0x81, 0x57, 0x00, 0x00, 0x91, 0x3f,
  0x68, 0x00, 0x91, 0x5b, 0x68, 0x81, 0x40, 0x81, 0x5b, 0x00, 0x00, 0x81,
  0x3f, 0x00, 0x00, 0x91, 0x59, 0x68, 0x00, 0x91, 0x3e, 0x68, 0x81, 0x40,
  0x81, 0x3e, 0x00, 0x00, 0x81, 0x59, 0x00, 0x00, 0x91, 0x57, 0x68, 0x00,
  0x91, 0x3c, 0x68, 0x60, 0x81, 0x3c, 0x00, 0x00, 0x81, 0x57, 0x00, 0x00,
  0x91, 0x3e, 0x68, 0x00, 0x91, 0x59, 0x68, 0x82, 0x20, 0x81, 0x3e, 0x00,
  0x00, 0x81, 0x59, 0x00, 0x82, 0x38, 0xb1, 0x65, 0x00, 0x00, 0xb1, 0x64,
  0x00, 0x00, 0xb1, 0x06, 0x0c, 0x00, 0xb1, 0x0a, 0x40, 0x00, 0xb1, 0x07,
  0x41, 0x00, 0xe1, 0x06, 0x40, 0x00, 0xc1, 0x58, 0x00, 0xb1, 0x01, 0x0f,
  0x01, 0xb1, 0x65, 0x00, 0x00, 0xb1, 0x64, 0x00, 0x00, 0xb1, 0x06, 0x0c,
  0x00, 0xb1, 0x0a, 0x40, 0x00, 0xb1, 0x07, 0x41, 0x00, 0xe1, 0x06, 0x40,
  0x00, 0xc1, 0x58, 0x00, 0xb1, 0x01, 0x0f, 0x00, 0xb1, 0x65, 0x00, 0x00,
  0xb1, 0x64, 0x00, 0x00, 0xb1, 0x06, 0x0c, 0x00, 0xb1, 0x0a, 0x40, 0x00,
  0xb1, 0x07, 0x41, 0x00, 0xe1, 0x06, 0x40, 0x00, 0xc1, 0x58, 0x00, 0xb1,
  0x01, 0x0f, 0x00, 0xff, 0x2f, 0x00, 0x4d, 0x54, 0x72, 0x6b, 0x00, 0x00,
  0x04, 0x1a, 0x00, 0xff, 0x03, 0x05, 0x42, 0x72, 0x61, 0x73, 0x73, 0x00,
  0xb2, 0x0a, 0x40, 0x00, 0xb2, 0x07, 0x6f, 0x00, 0xe2, 0x06, 0x40, 0x00,
  0xb2, 0x65, 0x00, 0x00, 0xb2, 0x64, 0x00, 0x00, 0xb2, 0x06, 0x0c, 0x00,
  0xb2, 0x0a, 0x40, 0x00, 0xb2, 0x07, 0x6f, 0x00, 0xe2, 0x06, 0x40, 0x00,
  0xc2, 0x3e, 0x00, 0xb2, 0x01, 0x40, 0x00, 0xb2, 0x65, 0x00, 0x00, 0xb2,
  0x64, 0x00, 0x00, 0xb2, 0x06, 0x0c, 0x00, 0xb2, 0x0a, 0x40, 0x00, 0xb2,
  0x07, 0x6f, 0x00, 0xe2, 0x06, 0x40, 0x00, 0xc2, 0x3e, 0x00, 0xb2, 0x01,
  0x40, 0x00, 0xb2, 0x65, 0x00, 0x00, 0xb2, 0x64, 0x00, 0x00, 0xb2, 0x06,
  0x0c, 0x00, 0xb2, 0x0a, 0x40, 0x00, 0xb2, 0x07, 0x6f, 0x00, 0xe2, 0x06,
  0x40, 0x00, 0xc2, 0x3e, 0x00, 0xb2, 0x01, 0x40, 0xb0, 0x00, 0x92, 0x43,
  0x68, 0x82, 0x20, 0x82, 0x43, 0x00, 0x00, 0x92, 0x41, 0x68, 0x48, 0x82,
  0x41, 0x00, 0x00, 0x92, 0x3c, 0x68, 0x81, 0x58, 0x82, 0x3c, 0x00, 0x00,
  0x92, 0x43, 0x68, 0x81, 0x40, 0x82, 0x43, 0x00, 0x00, 0x92, 0x43, 0x68,
  0x82, 0x20, 0x82, 0x43, 0x00, 0x00, 0x92, 0x46, 0x68, 0x48, 0x82, 0x46,
  0x00, 0x00, 0x92, 0x3f, 0x68, 0x82, 0x38, 0x82, 0x3f, 0x00, 0x60, 0x92,
  0x41, 0x68, 0x81, 0x40, 0x82, 0x41, 0x00, 0x00, 0x92, 0x3e, 0x68, 0x81,
  0x40, 0x82, 0x3e, 0x00, 0x00, 0x92, 0x3b, 0x68, 0x81, 0x40, 0x82, 0x3b,
  0x00, 0x00, 0x92, 0x3e, 0x68, 0x81, 0x40, 0x82, 0x3e, 0x00, 0x00, 0x92,
  0x3e, 0x68, 0x82, 0x08, 0x82, 0x3e, 0x00, 0x00, 0x92, 0x3f, 0x68, 0x18,
  0x82, 0x3f, 0x00, 0x00, 0x92, 0x3c, 0x68, 0x48, 0x82, 0x3c, 0x00, 0x00,
  0x92, 0x43, 0x68, 0x82, 0x38, 0x82, 0x43, 0x00, 0x60, 0x92, 0x43, 0x68,
  0x60, 0x82, 0x43, 0x00, 0x00, 0x92, 0x41, 0x68, 0x60, 0x82, 0x41, 0x00,
  0x00, 0x92, 0x3c, 0x68, 0x60, 0x82, 0x3c, 0x00, 0x00, 0x92, 0x41, 0x68,
  0x82, 0x20, 0x82, 0x41, 0x00, 0x00, 0x92, 0x41, 0x68, 0x60, 0x82, 0x41,
  0x00, 0x00, 0x92, 0x43, 0x68, 0x60, 0x82, 0x43, 0x00, 0x00, 0x92, 0x41,
  0x68, 0x60, 0x82, 0x41, 0x00, 0x00, 0x92, 0x3f, 0x68, 0x60, 0x82, 0x3f,
  0x00, 0x00, 0x92, 0x3a, 0x68, 0x60, 0x82, 0x3a, 0x00, 0x00, 0x92, 0x3f,
  0x68, 0x83, 0x60, 0x82, 0x3f, 0x00, 0x00, 0x92, 0x43, 0x68, 0x60, 0x82,
  0x43, 0x00, 0x00, 0x92, 0x41, 0x68, 0x60, 0x82, 0x41, 0x00, 0x00, 0x92,
  0x3c, 0x68, 0x60, 0x82, 0x3c, 0x00, 0x00, 0x92, 0x41, 0x68, 0x82, 0x20,
  0x82, 0x41, 0x00, 0x00, 0x92, 0x41, 0x68, 0x60, 0x82, 0x41, 0x00, 0x00,
  0x92, 0x43, 0x68, 0x60, 0x82, 0x43, 0x00, 0x00, 0x92, 0x46, 0x68, 0x81,
  0x40, 0x82, 0x46, 0x00, 0x00, 0x92, 0x43, 0x68, 0x81, 0x40, 0x82, 0x43,
  0x00, 0x00, 0x92, 0x4a, 0x68, 0x81, 0x40, 0x82, 0x4a, 0x00, 0x00, 0x92,
  0x46, 0x68, 0x60, 0x82, 0x46, 0x00, 0x00, 0x92, 0x47, 0x68, 0x60, 0x82,
  0x47, 0x00, 0x00, 0x92, 0x48, 0x68, 0x60, 0x82, 0x48, 0x00, 0x94, 0x20,
  0x92, 0x37, 0x68, 0x20, 0x82, 0x37, 0x00, 0x00, 0x92, 0x39, 0x68, 0x20,
  0x82, 0x39, 0x00, 0x00, 0x92, 0x3c, 0x68, 0x20, 0x82, 0x3c, 0x00, 0x00,
  0x92, 0x39, 0x68, 0x20, 0x82, 0x39, 0x00, 0x00, 0x92, 0x3c, 0x68, 0x20,
  0x82, 0x3c, 0x00, 0x00, 0x92, 0x39, 0x68, 0x20, 0x82, 0x39, 0x00, 0x00,
  0x92, 0x3c, 0x68, 0x20, 0x82, 0x3c, 0x00, 0x00, 0x92, 0x3e, 0x68, 0x20,
  0x82, 0x3e, 0x00, 0x00, 0x92, 0x43, 0x68, 0x20, 0x82, 0x43, 0x00, 0x00,
  0x92, 0x3e, 0x68, 0x20, 0x82, 0x3e, 0x00, 0x00, 0x92, 0x43, 0x68, 0x20,
  0x82, 0x43, 0x00, 0x00, 0x92, 0x41, 0x68, 0x20, 0x82, 0x41, 0x00, 0x00,
  0x92, 0x48, 0x68, 0x1e, 0x82, 0x48, 0x00, 0xeb, 0x62, 0x92, 0x43, 0x68,
  0x82, 0x20, 0x82, 0x43, 0x00, 0x00, 0x92, 0x41, 0x68, 0x48, 0x82, 0x41,
  0x00, 0x00, 0x92, 0x3c, 0x68, 0x81, 0x58, 0x82, 0x3c, 0x00, 0x00, 0x92,
  0x43, 0x68, 0x81, 0x40, 0x82, 0x43, 0x00, 0x00, 0x92, 0x43, 0x68, 0x82,
  0x20, 0x82, 0x43, 0x00, 0x00, 0x92, 0x46, 0x68, 0x48, 0x82, 0x46, 0x00,
  0x00, 0x92, 0x3f, 0x68, 0x82, 0x38, 0x82, 0x3f, 0x00, 0x60, 0x92, 0x41,
  0x68, 0x81, 0x40, 0x82, 0x41, 0x00, 0x00, 0x92, 0x3e, 0x68, 0x81, 0x40,
  0x82, 0x3e, 0x00, 0x00, 0x92, 0x3b, 0x68, 0x81, 0x40, 0x82, 0x3b, 0x00,
  0x00, 0x92, 0x3e, 0x68, 0x81, 0x40, 0x82, 0x3e, 0x00, 0x00, 0x92, 0x3e,
  0x68, 0x82, 0x08, 0x82, 0x3e, 0x00, 0x00, 0x92, 0x3f, 0x68, 0x18, 0x82,
  0x3f, 0x00, 0x00, 0x92, 0x3c, 0x68, 0x48, 0x82, 0x3c, 0x00, 0x00, 0x92,
  0x43, 0x68, 0x82, 0x38, 0x82, 0x43, 0x00, 0x60, 0x92, 0x43, 0x68, 0x60,
  0x82, 0x43, 0x00, 0x00, 0x92, 0x41, 0x68, 0x60, 0x82, 0x41, 0x00, 0x00,
  0x92, 0x3c, 0x68, 0x60, 0x82, 0x3c, 0x00, 0x00, 0x92, 0x41, 0x68, 0x82,
  0x20, 0x82, 0x41, 0x00, 0x00, 0x92, 0x41, 0x68, 0x60, 0x82, 0x41, 0x00,
  0x00, 0x92, 0x43, 0x68, 0x60, 0x82, 0x43, 0x00, 0x00, 0x92, 0x41, 0x68,
  0x60, 0x82, 0x41, 0x00, 0x00, 0x92, 0x3f, 0x68, 0x60, 0x82, 0x3f, 0x00,
  0x00, 0x92, 0x3a, 0x68, 0x60, 0x82, 0x3a, 0x00, 0x00, 0x92, 0x3f, 0x68,
  0x83, 0x60, 0x82, 0x3f, 0x00, 0x00, 0x92, 0x43, 0x68, 0x60, 0x82, 0x43,
  0x00, 0x00, 0x92, 0x41, 0x68, 0x60, 0x82, 0x41, 0x00, 0x00, 0x92, 0x3c,
  0x68, 0x60, 0x82, 0x3c, 0x00, 0x00, 0x92, 0x41, 0x68, 0x82, 0x20, 0x82,
  0x41, 0x00, 0x00, 0x92, 0x41, 0x68, 0x60, 0x82, 0x41, 0x00, 0x00, 0x92,
  0x43, 0x68, 0x60, 0x82, 0x43, 0x00, 0x00, 0x92, 0x46, 0x68, 0x81, 0x40,
  0x82, 0x46, 0x00, 0x00, 0x92, 0x43, 0x68, 0x81, 0x40, 0x82, 0x43, 0x00,
  0x00, 0x92, 0x4a, 0x68, 0x81, 0x40, 0x82, 0x4a, 0x00, 0x00, 0x92, 0x46,
  0x68, 0x60, 0x82, 0x46, 0x00, 0x00, 0x92, 0x47, 0x68, 0x60, 0x82, 0x47,
  0x00, 0x00, 0x92, 0x48, 0x68, 0x60, 0x82, 0x48, 0x00, 0x94, 0x20, 0x92,
  0x37, 0x68, 0x20, 0x82, 0x37, 0x00, 0x00, 0x92, 0x39, 0x68, 0x20, 0x82,
  0x39, 0x00, 0x00, 0x92, 0x3c, 0x68, 0x20, 0x82, 0x3c, 0x00, 0x00, 0x92,
  0x39, 0x68, 0x20, 0x82, 0x39, 0x00, 0x00, 0x92, 0x3c, 0x68, 0x20, 0x82,
  0x3c, 0x00, 0x00, 0x92, 0x39, 0x68, 0x20, 0x82, 0x39, 0x00, 0x00, 0x92,
  0x3c, 0x68, 0x20, 0x82, 0x3c, 0x00, 0x00, 0x92, 0x3e, 0x68, 0x20, 0x82,
  0x3e, 0x00, 0x00, 0x92, 0x43, 0x68, 0x20, 0x82, 0x43, 0x00, 0x00, 0x92,
  0x3e, 0x68, 0x20, 0x82, 0x3e, 0x00, 0x00, 0x92, 0x43, 0x68, 0x20, 0x82,
  0x43, 0x00, 0x00, 0x92, 0x41, 0x68, 0x20, 0x82, 0x41, 0x00, 0x00, 0x92,
  0x48, 0x68, 0x1e, 0x82, 0x48, 0x00, 0xbe, 0x62, 0xb2, 0x65, 0x00, 0x00,
  0xb2, 0x64, 0x00, 0x00, 0xb2, 0x06, 0x0c, 0x00, 0xb2, 0x0a, 0x40, 0x00,
  0xb2, 0x07, 0x6f, 0x00, 0xe2, 0x06, 0x40, 0x00, 0xc2, 0x3e, 0x00, 0xb2,
  0x01, 0x40, 0x01, 0xb2, 0x65, 0x00, 0x00, 0xb2, 0x64, 0x00, 0x00, 0xb2,
  0x06, 0x0c, 0x00, 0xb2, 0x0a, 0x40, 0x00, 0xb2, 0x07, 0x6f, 0x00, 0xe2,
  0x06, 0x40, 0x00, 0xc2, 0x3e, 0x00, 0xb2, 0x01, 0x40, 0x00, 0xb2, 0x65,
  0x00, 0x00, 0xb2, 0x64, 0x00, 0x00, 0xb2, 0x06, 0x0c, 0x00, 0xb2, 0x0a,
  0x40, 0x00, 0xb2, 0x07, 0x6f, 0x00, 0xe2, 0x06, 0x40, 0x00, 0xc2, 0x3e,
  0x00, 0xb2, 0x01, 0x40, 0x00, 0xff, 0x2f, 0x00, 0x4d, 0x54, 0x72, 0x6b,
  0x00, 0x00, 0x04, 0x1f, 0x00, 0xff, 0x03, 0x0a, 0x42, 0x72, 0x61, 0x73,
  0x73, 0x20, 0x65, 0x63, 0x68, 0x6f, 0x00, 0xb3, 0x0a, 0x40, 0x00, 0xb3,
  0x07, 0x52, 0x00, 0xe3, 0x06, 0x40, 0x00, 0xb3, 0x65, 0x00, 0x00, 0xb3,
  0x64, 0x00, 0x00, 0xb3, 0x06, 0x0c, 0x00, 0xb3, 0x0a, 0x40, 0x00, 0xb3,
  0x07, 0x52, 0x00, 0xe3, 0x06, 0x40, 0x00, 0xc3, 0x3f, 0x00, 0xb3, 0x01,
  0x40, 0x00, 0xb3, 0x65, 0x00, 0x00, 0xb3, 0x64, 0x00, 0x00, 0xb3, 0x06,
  0x0c, 0x00, 0xb3, 0x0a, 0x40, 0x00, 0xb3, 0x07, 0x52, 0x00, 0xe3, 0x06,
  0x40, 0x00, 0xc3, 0x3f, 0x00, 0xb3, 0x01, 0x40, 0x00, 0xb3, 0x65, 0x00,
  0x00, 0xb3, 0x64, 0x00, 0x00, 0xb3, 0x06, 0x0c, 0x00, 0xb3, 0x0a, 0x40,
  0x00, 0xb3, 0x07, 0x52, 0x00, 0xe3, 0x06, 0x40, 0x00, 0xc3, 0x3f, 0x00,
  0xb3, 0x01, 0x40, 0xb0, 0x48, 0x93, 0x43, 0x68, 0x82, 0x20, 0x83, 0x43,
  0x00, 0x00, 0x93, 0x41, 0x68, 0x48, 0x83, 0x41, 0x00, 0x00, 0x93, 0x3c,
  0x68, 0x81, 0x58, 0x83, 0x3c, 0x00, 0x00, 0x93, 0x43, 0x68, 0x81, 0x40,
  0x83, 0x43, 0x00, 0x00, 0x93, 0x43, 0x68, 0x82, 0x20, 0x83, 0x43, 0x00,
  0x00, 0x93, 0x46, 0x68, 0x48, 0x83, 0x46, 0x00, 0x00, 0x93, 0x3f, 0x68,
  0x82, 0x38, 0x83, 0x3f, 0x00, 0x60, 0x93, 0x41, 0x68, 0x81, 0x40, 0x83,
  0x41, 0x00, 0x00, 0x93, 0x3e, 0x68, 0x81, 0x40, 0x83, 0x3e, 0x00, 0x00,
  0x93, 0x3b, 0x68, 0x81, 0x40, 0x83, 0x3b, 0x00, 0x00, 0x93, 0x3e, 0x68,
  0x81, 0x40, 0x83, 0x3e, 0x00, 0x00, 0x93, 0x3e, 0x68, 0x82, 0x08, 0x83,
  0x3e, 0x00, 0x00, 0x93, 0x3f, 0x68, 0x18, 0x83, 0x3f, 0x00, 0x00, 0x93,
  0x3c, 0x68, 0x48, 0x83, 0x3c, 0x00, 0x00, 0x93, 0x43, 0x68, 0x82, 0x38,
  0x83, 0x43, 0x00, 0x60, 0x93, 0x43, 0x68, 0x60, 0x83, 0x43, 0x00, 0x00,
  0x93, 0x41, 0x68, 0x60, 0x83, 0x41, 0x00, 0x00, 0x93, 0x3c, 0x68, 0x60,
  0x83, 0x3c, 0x00, 0x00, 0x93, 0x41, 0x68, 0x82, 0x20, 0x83, 0x41, 0x00,
  0x00, 0x93, 0x41, 0x68, 0x60, 0x83, 0x41, 0x00, 0x00, 0x93, 0x43, 0x68,
  0x60, 0x83, 0x43, 0x00, 0x00, 0x93, 0x41, 0x68, 0x60, 0x83, 0x41, 0x00,
  0x00, 0x93, 0x3f, 0x68, 0x60, 0x83, 0x3f, 0x00, 0x00, 0x93, 0x3a, 0x68,
  0x60, 0x83, 0x3a, 0x00, 0x00, 0x93, 0x3f, 0x68, 0x83, 0x60, 0x83, 0x3f,
  0x00, 0x00, 0x93, 0x43, 0x68, 0x60, 0x83, 0x43, 0x00, 0x00, 0x93, 0x41,
  0x68, 0x60, 0x83, 0x41, 0x00, 0x00, 0x93, 0x3c, 0x68, 0x60, 0x83, 0x3c,
  0x00, 0x00, 0x93, 0x41, 0x68, 0x82, 0x20, 0x83, 0x41, 0x00, 0x00, 0x93,
  0x41, 0x68, 0x60, 0x83, 0x41, 0x00, 0x00, 0x93, 0x43, 0x68, 0x60, 0x83,
  0x43, 0x00, 0x00, 0x93, 0x46, 0x68, 0x81, 0x40, 0x83, 0x46, 0x00, 0x00,
  0x93, 0x43, 0x68, 0x81, 0x40, 0x83, 0x43, 0x00, 0x00, 0x93, 0x4a, 0x68,
  0x81, 0x40, 0x83, 0x4a, 0x00, 0x00, 0x93, 0x46, 0x68, 0x60, 0x83, 0x46,
  0x00, 0x00, 0x93, 0x47, 0x68, 0x60, 0x83, 0x47, 0x00, 0x00, 0x93, 0x48,
  0x68, 0x60, 0x83, 0x48, 0x00, 0x94, 0x20, 0x93, 0x37, 0x68, 0x20, 0x83,
  0x37, 0x00, 0x00, 0x93, 0x39, 0x68, 0x20, 0x83, 0x39, 0x00, 0x00, 0x93,
  0x3c, 0x68, 0x20, 0x83, 0x3c, 0x00, 0x00, 0x93, 0x39, 0x68, 0x20, 0x83,
  0x39, 0x00, 0x00, 0x93, 0x3c, 0x68, 0x20, 0x83, 0x3c, 0x00, 0x00, 0x93,
  0x39, 0x68, 0x20, 0x83, 0x39, 0x00, 0x00, 0x93, 0x3c, 0x68, 0x20, 0x83,
  0x3c, 0x00, 0x00, 0x93, 0x3e, 0x68, 0x20, 0x83, 0x3e, 0x00, 0x00, 0x93,
  0x43, 0x68, 0x20, 0x83, 0x43, 0x00, 0x00, 0x93, 0x3e, 0x68, 0x20, 0x83,
  0x3e, 0x00, 0x00, 0x93, 0x43, 0x68, 0x20, 0x83, 0x43, 0x00, 0x00, 0x93,
  0x41, 0x68, 0x20, 0x83, 0x41, 0x00, 0x00, 0x93, 0x48, 0x68, 0x1e, 0x83,
  0x48, 0x00, 0xeb, 0x62, 0x93, 0x43, 0x68, 0x82, 0x20, 0x83, 0x43, 0x00,
  0x00, 0x93, 0x41, 0x68, 0x48, 0x83, 0x41, 0x00, 0x00, 0x93, 0x3c, 0x68,
  0x81, 0x58, 0x83, 0x3c, 0x00, 0x00, 0x93, 0x43, 0x68, 0x81, 0x40, 0x83,
  0x43, 0x00, 0x00, 0x93, 0x43, 0x68, 0x82, 0x20, 0x83, 0x43, 0x00, 0x00,
  0x93, 0x46, 0x68, 0x48, 0x83, 0x46, 0x00, 0x00, 0x93, 0x3f, 0x68, 0x82,
  0x38, 0x83, 0x3f, 0x00, 0x60, 0x93, 0x41, 0x68, 0x81, 0x40, 0x83, 0x41,
  0x00, 0x00, 0x93, 0x3e, 0x68, 0x81, 0x40, 0x83, 0x3e, 0x00, 0x00, 0x93,
  0x3b, 0x68, 0x81, 0x40, 0x83, 0x3b, 0x00, 0x00, 0x93, 0x3e, 0x68, 0x81,
  0x40, 0x83, 0x3e, 0x00, 0x00, 0x93, 0x3e, 0x68, 0x82, 0x08, 0x83, 0x3e,
  0x00, 0x00, 0x93, 0x3f, 0x68, 0x18, 0x83, 0x3f, 0x00, 0x00, 0x93, 0x3c,
  0x68, 0x48, 0x83, 0x3c, 0x00, 0x00, 0x93, 0x43, 0x68, 0x82, 0x38, 0x83,
  0x43, 0x00, 0x60, 0x93, 0x43, 0x68, 0x60, 0x83, 0x43, 0x00, 0x00, 0x93,
  0x41, 0x68, 0x60, 0x83, 0x41, 0x00, 0x00, 0x93, 0x3c, 0x68, 0x60, 0x83,
  0x3c, 0x00, 0x00, 0x93, 0x41, 0x68, 0x82, 0x20, 0x83, 0x41, 0x00, 0x00,
  0x93, 0x41, 0x68, 0x60, 0x83, 0x41, 0x00, 0x00, 0x93, 0x43, 0x68, 0x60,
  0x83, 0x43, 0x00, 0x00, 0x93, 0x41, 0x68, 0x60, 0x83, 0x41, 0x00, 0x00,
  0x93, 0x3f, 0x68, 0x60, 0x83, 0x3f, 0x00, 0x00, 0x93, 0x3a, 0x68, 0x60,
  0x83, 0x3a, 0x00, 0x00, 0x93, 0x3f, 0x68, 0x83, 0x60, 0x83, 0x3f, 0x00,
  0x00, 0x93, 0x43, 0x68, 0x60, 0x83, 0x43, 0x00, 0x00, 0x93, 0x41, 0x68,
  0x60, 0x83, 0x41, 0x00, 0x00, 0x93, 0x3c, 0x68, 0x60, 0x83, 0x3c, 0x00,
  0x00, 0x93, 0x41, 0x68, 0x82, 0x20, 0x83, 0x41, 0x00, 0x00, 0x93, 0x41,
  0x68, 0x60, 0x83, 0x41, 0x00, 0x00, 0x93, 0x43, 0x68, 0x60, 0x83, 0x43,
  0x00, 0x00, 0x93, 0x46, 0x68, 0x81, 0x40, 0x83, 0x46, 0x00, 0x00, 0x93,
  0x43, 0x68, 0x81, 0x40, 0x83, 0x43, 0x00, 0x00, 0x93, 0x4a, 0x68, 0x81,
  0x40, 0x83, 0x4a, 0x00, 0x00, 0x93, 0x46, 0x68, 0x60, 0x83, 0x46, 0x00,
  0x00, 0x93, 0x47, 0x68, 0x60, 0x83, 0x47, 0x00, 0x00, 0x93, 0x48, 0x68,
  0x60, 0x83, 0x48, 0x00, 0x94, 0x20, 0x93, 0x37, 0x68, 0x20, 0x83, 0x37,
  0x00, 0x00, 0x93, 0x39, 0x68, 0x20, 0x83, 0x39, 0x00, 0x00, 0x93, 0x3c,
  0x68, 0x20, 0x83, 0x3c, 0x00, 0x00, 0x93, 0x39, 0x68, 0x20, 0x83, 0x39,
  0x00, 0x00, 0x93, 0x3c, 0x68, 0x20, 0x83, 0x3c, 0x00, 0x00, 0x93, 0x39,
  0x68, 0x20, 0x83, 0x39, 0x00, 0x00, 0x93, 0x3c, 0x68, 0x20, 0x83, 0x3c,
  0x00, 0x00, 0x93, 0x3e, 0x68, 0x20, 0x83, 0x3e, 0x00, 0x00, 0x93, 0x43,
  0x68, 0x20, 0x83, 0x43, 0x00, 0x00, 0x93, 0x3e, 0x68, 0x20, 0x83, 0x3e,
  0x00, 0x00, 0x93, 0x43, 0x68, 0x20, 0x83, 0x43, 0x00, 0x00, 0x93, 0x41,
  0x68, 0x20, 0x83, 0x41, 0x00, 0x00, 0x93, 0x48, 0x68, 0x1e, 0x83, 0x48,
  0x00, 0xbe, 0x1a, 0xb3, 0x65, 0x00, 0x00, 0xb3, 0x64, 0x00, 0x00, 0xb3,
  0x06, 0x0c, 0x00, 0xb3, 0x0a, 0x40, 0x00, 0xb3, 0x07, 0x52, 0x00, 0xe3,
  0x06, 0x40, 0x00, 0xc3, 0x3f, 0x00, 0xb3, 0x01, 0x40, 0x01, 0xb3, 0x65,
  0x00, 0x00, 0xb3, 0x64, 0x00, 0x00, 0xb3, 0x06, 0x0c, 0x00, 0xb3, 0x0a,
  0x40, 0x00, 0xb3, 0x07, 0x52, 0x00, 0xe3, 0x06, 0x40, 0x00, 0xc3, 0x3f,
  0x00, 0xb3, 0x01, 0x40, 0x00, 0xb3, 0x65, 0x00, 0x00, 0xb3, 0x64, 0x00,
  0x00, 0xb3, 0x06, 0x0c, 0x00, 0xb3, 0x0a, 0x40, 0x00, 0xb3, 0x07, 0x52,
  0x00, 0xe3, 0x06, 0x40, 0x00, 0xc3, 0x3f, 0x00, 0xb3, 0x01, 0x40, 0x00,
  0xff, 0x2f, 0x00, 0x4d, 0x54, 0x72, 0x6b, 0x00, 0x00, 0x0e, 0x63, 0x00,
  0xff, 0x03, 0x05, 0x56, 0x69, 0x62, 0x65, 0x73, 0x00, 0xb4, 0x0a, 0x40,
  0x00, 0xb4, 0x07, 0x54, 0x00, 0xe4, 0x06, 0x40, 0x00, 0xb4, 0x65, 0x00,
  0x00, 0xb4, 0x64, 0x00, 0x00, 0xb4, 0x06, 0x0c, 0x00, 0xb4, 0x0a, 0x40,
  0x00, 0xb4, 0x07, 0x54, 0x00, 0xe4, 0x06, 0x40, 0x00, 0xc4, 0x0b, 0x00,
  0xb4, 0x01, 0x01, 0x00, 0xb4, 0x65, 0x00, 0x00, 0xb4, 0x64, 0x00, 0x00,
  0xb4, 0x06, 0x0c, 0x00, 0xb4, 0x0a, 0x40, 0x00, 0xb4, 0x07, 0x54, 0x00,
  0xe4, 0x06, 0x40, 0x00, 0xc4, 0x0b, 0x00, 0xb4, 0x01, 0x01, 0x00, 0xe4,
  0x06, 0x40, 0x00, 0xb4, 0x01, 0x00, 0x00, 0xb4, 0x0a, 0x40, 0x00, 0xb4,
  0x65, 0x00, 0x00, 0xb4, 0x64, 0x00, 0x00, 0xb4, 0x06, 0x0c, 0x00, 0xb4,
  0x0a, 0x40, 0x00, 0xb4, 0x07, 0x54, 0x00, 0xe4, 0x06, 0x40, 0x00, 0xc4,
  0x0b, 0x00, 0xb4, 0x01, 0x00, 0x00, 0xe4, 0x06, 0x40, 0x00, 0xb4, 0x01,
  0x00, 0x00, 0xb4, 0x0a, 0x40, 0x26, 0xb4, 0x01, 0x01, 0x83, 0x3a, 0xb4,
  0x01, 0x00, 0x26, 0xb4, 0x01, 0x01, 0x22, 0xb4, 0x01, 0x00, 0x26, 0xb4,
  0x01, 0x01, 0x3a, 0xb4, 0x01, 0x00, 0x3e, 0xb4, 0x01, 0x01, 0x3a, 0xb4,
  0x01, 0x00, 0x26, 0xb4, 0x01, 0x01, 0x81, 0x1a, 0xb4, 0x01, 0x00, 0x26,
  0xb4, 0x01, 0x01, 0x3a, 0xb4, 0x01, 0x00, 0x26, 0xb4, 0x01, 0x01, 0x81,
  0x1a, 0xb4, 0x01, 0x00, 0x26, 0xb4, 0x01, 0x01, 0x81, 0x7a, 0xb4, 0x01,
  0x00, 0x26, 0xb4, 0x01, 0x01, 0x81, 0x7a, 0xb4, 0x01, 0x00, 0x26, 0xb4,
  0x01, 0x01, 0x22, 0xb4, 0x01, 0x00, 0x3e, 0xb4, 0x01, 0x01, 0x3a, 0xb4,
  0x01, 0x00, 0x26, 0xb4, 0x01, 0x01, 0x3a, 0xb4, 0x01, 0x00, 0x26, 0xb4,
  0x01, 0x01, 0x3a, 0xb4, 0x01, 0x00, 0x26, 0xb4, 0x01, 0x01, 0x81, 0x1a,
  0xb4, 0x01, 0x00, 0x26, 0xb4, 0x01, 0x01, 0x81, 0x02, 0xb4, 0x01, 0x00,
  0x26, 0xb4, 0x01, 0x01, 0x3a, 0xb4, 0x01, 0x00, 0x3e, 0xb4, 0x01, 0x01,
  0x3a, 0xb4, 0x01, 0x00, 0x26, 0xb4, 0x01, 0x01, 0x3a, 0xb4, 0x01, 0x00,
  0x26, 0xb4, 0x01, 0x01, 0x85, 0x5a, 0xb4, 0x01, 0x00, 0x84, 0x66, 0xb4,
  0x01, 0x01, 0x81, 0x1a, 0xb4, 0x01, 0x00, 0x26, 0xb4, 0x01, 0x01, 0x81,
  0x1a, 0xb4, 0x01, 0x00, 0x26, 0xb4, 0x01, 0x01, 0x3a, 0xb4, 0x01, 0x00,
  0x26, 0xb4, 0x01, 0x01, 0x81, 0x02, 0xb4, 0x01, 0x00, 0x83, 0x3e, 0xb4,
  0x01, 0x01, 0x22, 0xb4, 0x01, 0x00, 0x81, 0x1e, 0xb4, 0x01, 0x01, 0x81,
  0x02, 0xb4, 0x01, 0x00, 0x88, 0x38, 0xb4, 0x0a, 0x00, 0x00, 0x94, 0x41,
  0x68, 0x20, 0x84, 0x41, 0x00, 0x00, 0x94, 0x43, 0x68, 0x20, 0x84, 0x43,
  0x00, 0x00, 0x94, 0x48, 0x68, 0x20, 0x84, 0x48, 0x00, 0x00, 0x94, 0x4f,
  0x68, 0x20, 0x84, 0x4f, 0x00, 0x00, 0x94, 0x48, 0x68, 0x20, 0x84, 0x48,
  0x00, 0x00, 0x94, 0x43, 0x68, 0x20, 0x84, 0x43, 0x00, 0x83, 0x00, 0xb4,
  0x0a, 0x7f, 0x00, 0x94, 0x48, 0x68, 0x81, 0x40, 0x84, 0x48, 0x00, 0x00,
  0x94, 0x46, 0x68, 0x81, 0x40, 0x84, 0x46, 0x00, 0x00, 0x94, 0x46, 0x68,
  0x60, 0x84, 0x46, 0x00, 0x00, 0x94, 0x41, 0x68, 0x30, 0x84, 0x41, 0x00,
  0x78, 0x94, 0x43, 0x68, 0x18, 0x84, 0x43, 0x00, 0x60, 0x94, 0x41, 0x68,
  0x18, 0x84, 0x41, 0x00, 0x81, 0x10, 0x94, 0x41, 0x68, 0x18, 0x84, 0x41,
  0x00, 0x60, 0x94, 0x41, 0x68, 0x30, 0x84, 0x41, 0x00, 0x18, 0x94, 0x43,
  0x68, 0x18, 0x84, 0x43, 0x00, 0x60, 0x94, 0x41, 0x68, 0x30, 0x84, 0x41,
  0x00, 0x78, 0x94, 0x43, 0x68, 0x18, 0x84, 0x43, 0x00, 0x60, 0xb4, 0x0a,
  0x00, 0x00, 0x94, 0x3f, 0x68, 0x20, 0x84, 0x3f, 0x00, 0x00, 0x94, 0x3c,
  0x68, 0x20, 0x84, 0x3c, 0x00, 0x00, 0x94, 0x3f, 0x68, 0x20, 0x84, 0x3f,
  0x00, 0x00, 0x94, 0x43, 0x68, 0x20, 0x84, 0x43, 0x00, 0x00, 0x94, 0x3f,
  0x68, 0x20, 0x84, 0x3f, 0x00, 0x00, 0x94, 0x43, 0x68, 0x20, 0x84, 0x43,
  0x00, 0x00, 0x94, 0x48, 0x68, 0x20, 0x84, 0x48, 0x00, 0x00, 0x94, 0x43,
  0x68, 0x20, 0x84, 0x43, 0x00, 0x00, 0x94, 0x48, 0x68, 0x20, 0x84, 0x48,
  0x00, 0x00, 0x94, 0x4b, 0x68, 0x20, 0x84, 0x4b, 0x00, 0x00, 0x94, 0x4f,
  0x68, 0x20, 0x84, 0x4f, 0x00, 0x00, 0x94, 0x54, 0x68, 0x20, 0x84, 0x54,
  0x00, 0x00, 0x94, 0x3c, 0x68, 0x20, 0x84, 0x3c, 0x00, 0x00, 0x94, 0x3f,
  0x68, 0x20, 0x84, 0x3f, 0x00, 0x00, 0x94, 0x43, 0x68, 0x20, 0x84, 0x43,
  0x00, 0x00, 0xb4, 0x0a, 0x40, 0x00, 0x94, 0x48, 0x68, 0x20, 0x84, 0x48,
  0x00, 0x00, 0x94, 0x4b, 0x68, 0x06, 0xb4, 0x01, 0x01, 0x1a, 0x84, 0x4b,
  0x00, 0x00, 0x94, 0x4f, 0x68, 0x20, 0x84, 0x4f, 0x00, 0x00, 0xb4, 0x01,
  0x00, 0x00, 0xb4, 0x0a, 0x7f, 0x00, 0x94, 0x54, 0x68, 0x20, 0x84, 0x54,
  0x00, 0x00, 0x94, 0x4f, 0x68, 0x06, 0xb4, 0x01, 0x01, 0x1a, 0x84, 0x4f,
  0x00, 0x00, 0x94, 0x4b, 0x68, 0x20, 0x84, 0x4b, 0x00, 0x00, 0xb4, 0x01,
  0x00, 0x00, 0xb4, 0x0a, 0x40, 0x00, 0x94, 0x48, 0x68, 0x20, 0x84, 0x48,
  0x00, 0x00, 0x94, 0x43, 0x68, 0x06, 0xb4, 0x01, 0x01, 0x1a, 0x84, 0x43,
  0x00, 0x00, 0x94, 0x3f, 0x68, 0x20, 0x84, 0x3f, 0x00, 0x00, 0xb4, 0x01,
  0x00, 0x00, 0xb4, 0x0a, 0x00, 0x00, 0x94, 0x3c, 0x68, 0x20, 0x84, 0x3c,
  0x00, 0x00, 0x94, 0x3f, 0x68, 0x06, 0xb4, 0x01, 0x01, 0x1a, 0x84, 0x3f,
  0x00, 0x00, 0x94, 0x43, 0x68, 0x20, 0x84, 0x43, 0x00, 0x00, 0xb4, 0x01,
  0x00, 0x00, 0xb4, 0x0a, 0x40, 0x00, 0x94, 0x48, 0x68, 0x20, 0x84, 0x48,
  0x00, 0x00, 0x94, 0x4b, 0x68, 0x06, 0xb4, 0x01, 0x01, 0x1a, 0x84, 0x4b,
  0x00, 0x00, 0x94, 0x4f, 0x68, 0x08, 0xb4, 0x01, 0x00, 0x18, 0x84, 0x4f,
  0x00, 0x00, 0xb4, 0x0a, 0x7f, 0x00, 0x94, 0x54, 0x68, 0x0e, 0xb4, 0x01,
  0x01, 0x12, 0x84, 0x54, 0x00, 0x00, 0x94, 0x4f, 0x68, 0x20, 0x84, 0x4f,
  0x00, 0x00, 0x94, 0x4b, 0x68, 0x08, 0xb4, 0x01, 0x00, 0x18, 0x84, 0x4b,
  0x00, 0x00, 0xb4, 0x0a, 0x40, 0x00, 0x94, 0x48, 0x68, 0x0e, 0xb4, 0x01,
  0x01, 0x12, 0x84, 0x48, 0x00, 0x00, 0x94, 0x43, 0x68, 0x20, 0x84, 0x43,
  0x00, 0x00, 0x94, 0x3f, 0x68, 0x20, 0x84, 0x3f, 0x00, 0x00, 0xb4, 0x0a,
  0x00, 0x00, 0x94, 0x3a, 0x68, 0x20, 0x84, 0x3a, 0x00, 0x00, 0x94, 0x3e,
  0x68, 0x20, 0x84, 0x3e, 0x00, 0x00, 0x94, 0x41, 0x68, 0x20, 0x84, 0x41,
  0x00, 0x00, 0xb4, 0x01, 0x00, 0x00, 0xb4, 0x0a, 0x40, 0x00, 0x94, 0x46,
  0x68, 0x20, 0x84, 0x46, 0x00, 0x00, 0x94, 0x4a, 0x68, 0x06, 0xb4, 0x01,
  0x01, 0x1a, 0x84, 0x4a, 0x00, 0x00, 0x94, 0x4d, 0x68, 0x20, 0x84, 0x4d,
  0x00, 0x00, 0xb4, 0x01, 0x00, 0x00, 0xb4, 0x0a, 0x7f, 0x00, 0x94, 0x52,
  0x68, 0x20, 0x84, 0x52, 0x00, 0x00, 0x94, 0x4d, 0x68, 0x06, 0xb4, 0x01,
  0x01, 0x1a, 0x84, 0x4d, 0x00, 0x00, 0x94, 0x4a, 0x68, 0x20, 0x84, 0x4a,
  0x00, 0x00, 0xb4, 0x01, 0x00, 0x00, 0xb4, 0x0a, 0x40, 0x00, 0x94, 0x46,
  0x68, 0x20, 0x84, 0x46, 0x00, 0x00, 0x94, 0x41, 0x68, 0x06, 0xb4, 0x01,
  0x01, 0x1a, 0x84, 0x41, 0x00, 0x00, 0x94, 0x3e, 0x68, 0x20, 0x84, 0x3e,
  0x00, 0x00, 0xb4, 0x01, 0x00, 0x00, 0xb4, 0x0a, 0x00, 0x00, 0x94, 0x3a,
  0x68, 0x20, 0x84, 0x3a, 0x00, 0x00, 0x94, 0x3c, 0x68, 0x06, 0xb4, 0x01,
  0x01, 0x1a, 0x84, 0x3c, 0x00, 0x00, 0x94, 0x41, 0x68, 0x20, 0x84, 0x41,
  0x00, 0x00, 0xb4, 0x0a, 0x40, 0x00, 0x94, 0x46, 0x68, 0x20, 0x84, 0x46,
  0x00, 0x00, 0x94, 0x48, 0x68, 0x20, 0x84, 0x48, 0x00, 0x00, 0x94, 0x4d,
  0x68, 0x20, 0x84, 0x4d, 0x00, 0x00, 0xb4, 0x01, 0x00, 0x00, 0xb4, 0x0a,
  0x7f, 0x00, 0x94, 0x52, 0x68, 0x20, 0x84, 0x52, 0x00, 0x00, 0x94, 0x4d,
  0x68, 0x06, 0xb4, 0x01, 0x01, 0x1a, 0x84, 0x4d, 0x00, 0x00, 0x94, 0x48,
  0x68, 0x20, 0x84, 0x48, 0x00, 0x00, 0xb4, 0x0a, 0x40, 0x00, 0x94, 0x46,
  0x68, 0x20, 0x84, 0x46, 0x00, 0x00, 0x94, 0x41, 0x68, 0x20, 0x84, 0x41,
  0x00, 0x00, 0x94, 0x3c, 0x68, 0x20, 0x84, 0x3c, 0x00, 0x00, 0xb4, 0x0a,
  0x00, 0x00, 0x94, 0x37, 0x68, 0x20, 0x84, 0x37, 0x00, 0x00, 0x94, 0x3a,
  0x68, 0x20, 0x84, 0x3a, 0x00, 0x00, 0x94, 0x3f, 0x68, 0x20, 0x84, 0x3f,
  0x00, 0x00, 0xb4, 0x01, 0x00, 0x00, 0xb4, 0x0a, 0x40, 0x00, 0x94, 0x43,
  0x68, 0x20, 0x84, 0x43, 0x00, 0x00, 0x94, 0x46, 0x68, 0x06, 0xb4, 0x01,
  0x01, 0x1a, 0x84, 0x46, 0x00, 0x00, 0x94, 0x4b, 0x68, 0x20, 0x84, 0x4b,
  0x00, 0x00, 0xb4, 0x01, 0x00, 0x00, 0xb4, 0x0a, 0x7f, 0x00, 0x94, 0x4f,
  0x68, 0x20, 0x84, 0x4f, 0x00, 0x00, 0x94, 0x4b, 0x68, 0x06, 0xb4, 0x01,
  0x01, 0x1a, 0x84, 0x4b, 0x00, 0x00, 0x94, 0x46, 0x68, 0x20, 0x84, 0x46,
  0x00, 0x00, 0xb4, 0x01, 0x00, 0x00, 0xb4, 0x0a, 0x40, 0x00, 0x94, 0x43,
  0x68, 0x20, 0x84, 0x43, 0x00, 0x00, 0x94, 0x3f, 0x68, 0x06, 0xb4, 0x01,
  0x01, 0x1a, 0x84, 0x3f, 0x00, 0x00, 0x94, 0x3a, 0x68, 0x20, 0x84, 0x3a,
  0x00, 0x00, 0xb4, 0x01, 0x00, 0x00, 0xb4, 0x0a, 0x00, 0x00, 0x94, 0x35,
  0x68, 0x20, 0x84, 0x35, 0x00, 0x00, 0x94, 0x38, 0x68, 0x06, 0xb4, 0x01,
  0x01, 0x1a, 0x84, 0x38, 0x00, 0x00, 0x94, 0x3c, 0x68, 0x20, 0x84, 0x3c,
  0x00, 0x00, 0xb4, 0x0a, 0x40, 0x00, 0x94, 0x41, 0x68, 0x20, 0x84, 0x41,
  0x00, 0x00, 0x94, 0x44, 0x68, 0x10, 0xb4, 0x01, 0x00, 0x10, 0x84, 0x44,
  0x00, 0x00, 0x94, 0x48, 0x68, 0x16, 0xb4, 0x01, 0x01, 0x0a, 0x84, 0x48,
  0x00, 0x00, 0xb4, 0x0a, 0x7f, 0x00, 0x94, 0x4d, 0x68, 0x20, 0x84, 0x4d,
  0x00, 0x00, 0x94, 0x48, 0x68, 0x20, 0x84, 0x48, 0x00, 0x00, 0x94, 0x44,
  0x68, 0x20, 0x84, 0x44, 0x00, 0x00, 0xb4, 0x01, 0x00, 0x00, 0xb4, 0x0a,
  0x40, 0x00, 0x94, 0x41, 0x68, 0x20, 0x84, 0x41, 0x00, 0x00, 0x94, 0x3b,
  0x68, 0x06, 0xb4, 0x01, 0x01, 0x1a, 0x84, 0x3b, 0x00, 0x00, 0x94, 0x38,
  0x68, 0x20, 0x84, 0x38, 0x00, 0x00, 0xb4, 0x01, 0x00, 0x00, 0xb4, 0x0a,
  0x00, 0x00, 0x94, 0x35, 0x68, 0x20, 0x84, 0x35, 0x00, 0x00, 0x94, 0x37,
  0x68, 0x06, 0xb4, 0x01, 0x01, 0x1a, 0x84, 0x37, 0x00, 0x00, 0x94, 0x3c,
  0x68, 0x20, 0x84, 0x3c, 0x00, 0x00, 0xb4, 0x01, 0x00, 0x00, 0xb4, 0x0a,
  0x40, 0x00, 0x94, 0x41, 0x68, 0x20, 0x84, 0x41, 0x00, 0x00, 0x94, 0x43,
  0x68, 0x06, 0xb4, 0x01, 0x01, 0x1a, 0x84, 0x43, 0x00, 0x00, 0x94, 0x48,
  0x68, 0x20, 0x84, 0x48, 0x00, 0x00, 0xb4, 0x01, 0x00, 0x00, 0xb4, 0x0a,
  0x7f, 0x00, 0x94, 0x4d, 0x68, 0x20, 0x84, 0x4d, 0x00, 0x00, 0x94, 0x48,
  0x68, 0x06, 0xb4, 0x01, 0x01, 0x1a, 0x84, 0x48, 0x00, 0x00, 0x94, 0x43,
  0x68, 0x20, 0x84, 0x43, 0x00, 0x00, 0xb4, 0x01, 0x00, 0x00, 0xb4, 0x0a,
  0x40, 0x00, 0x94, 0x41, 0x68, 0x20, 0x84, 0x41, 0x00, 0x00, 0x94, 0x3c,
  0x68, 0x06, 0xb4, 0x01, 0x01, 0x1a, 0x84, 0x3c, 0x00, 0x00, 0x94, 0x37,
  0x68, 0x20, 0x84, 0x37, 0x00, 0x00, 0xb4, 0x01, 0x00, 0x00, 0xb4, 0x0a,
  0x00, 0x00, 0x94, 0x37, 0x68, 0x20, 0x84, 0x37, 0x00, 0x00, 0x94, 0x3c,
  0x68, 0x20, 0x84, 0x3c, 0x00, 0x00, 0xb4, 0x0a, 0x40, 0x00, 0x94, 0x40,
  0x68, 0x20, 0x84, 0x40, 0x00, 0x00, 0x94, 0x43, 0x68, 0x20, 0x84, 0x43,
  0x00, 0x00, 0xb4, 0x0a, 0x7f, 0x00, 0x94, 0x48, 0x68, 0x20, 0x84, 0x48,
  0x00, 0x00, 0x94, 0x4c, 0x68, 0x20, 0x84, 0x4c, 0x00, 0x00, 0xb4, 0x0a,
  0x40, 0x00, 0x94, 0x42, 0x68, 0x20, 0x84, 0x42, 0x00, 0x00, 0x94, 0x46,
  0x68, 0x20, 0x84, 0x46, 0x00, 0x00, 0x94, 0x49, 0x68, 0x20, 0x84, 0x49,
  0x00, 0x00, 0x94, 0x4e, 0x68, 0x20, 0x84, 0x4e, 0x00, 0x00, 0x94, 0x52,
  0x68, 0x20, 0x84, 0x52, 0x00, 0x00, 0x94, 0x55, 0x68, 0x20, 0x84, 0x55,
  0x00, 0x26, 0xb4, 0x01, 0x01, 0x3a, 0xb4, 0x01, 0x00, 0x26, 0xb4, 0x01,
  0x01, 0x3a, 0xb4, 0x01, 0x00, 0x26, 0xb4, 0x01, 0x01, 0x3a, 0xb4, 0x01,
  0x00, 0x26, 0xb4, 0x01, 0x01, 0x3a, 0xb4, 0x01, 0x00, 0x26, 0xb4, 0x01,
  0x01, 0x3a, 0xb4, 0x01, 0x00, 0x26, 0xb4, 0x01, 0x01, 0x22, 0xb4, 0x01,
  0x00, 0x26, 0xb4, 0x01, 0x01, 0x3a, 0xb4, 0x01, 0x00, 0x26, 0xb4, 0x01,
  0x01, 0x81, 0x32, 0xb4, 0x01, 0x00, 0x26, 0xb4, 0x01, 0x01, 0x3a, 0xb4,
  0x01, 0x00, 0x26, 0xb4, 0x01, 0x01, 0x3a, 0xb4, 0x01, 0x00, 0x26, 0xb4,
  0x01, 0x01, 0x3a, 0xb4, 0x01, 0x00, 0x26, 0xb4, 0x01, 0x01, 0x81, 0x1a,
  0xb4, 0x01, 0x00, 0x26, 0xb4, 0x01, 0x01, 0x81, 0x1a, 0xb4, 0x01, 0x00,
  0x26, 0xb4, 0x01, 0x01, 0x81, 0x7a, 0xb4, 0x01, 0x00, 0x26, 0xb4, 0x01,
  0x01, 0x22, 0xb4, 0x01, 0x00, 0x26, 0xb4, 0x01, 0x01, 0x82, 0x72, 0xb4,
  0x01, 0x00, 0x26, 0xb4, 0x01, 0x01, 0x81, 0x7a, 0xb4, 0x01, 0x00, 0x26,
  0xb4, 0x01, 0x01, 0x22, 0xb4, 0x01, 0x00, 0x26, 0xb4, 0x01, 0x01, 0xa0,
  0x72, 0xb4, 0x01, 0x00, 0x26, 0xb4, 0x01, 0x01, 0x81, 0x1a, 0xb4, 0x01,
  0x00, 0x26, 0xb4, 0x01, 0x01, 0x81, 0x1a, 0xb4, 0x01, 0x00, 0x26, 0xb4,
  0x01, 0x01, 0x3a, 0xb4, 0x01, 0x00, 0x26, 0xb4, 0x01, 0x01, 0x99, 0x7a,
  0xb4, 0x01, 0x00, 0x26, 0xb4, 0x01, 0x01, 0x83, 0x3a, 0xb4, 0x01, 0x00,
  0x26, 0xb4, 0x01, 0x01, 0x22, 0xb4, 0x01, 0x00, 0x26, 0xb4, 0x01, 0x01,
  0x3a, 0xb4, 0x01, 0x00, 0x3e, 0xb4, 0x01, 0x01, 0x3a, 0xb4, 0x01, 0x00,
  0x26, 0xb4, 0x01, 0x01, 0x81, 0x1a, 0xb4, 0x01, 0x00, 0x26, 0xb4, 0x01,
  0x01, 0x3a, 0xb4, 0x01, 0x00, 0x26, 0xb4, 0x01, 0x01, 0x81, 0x1a, 0xb4,
  0x01, 0x00, 0x26, 0xb4, 0x01, 0x01, 0x81, 0x7a, 0xb4, 0x01, 0x00, 0x26,
  0xb4, 0x01, 0x01, 0x81, 0x7a, 0xb4, 0x01, 0x00, 0x26, 0xb4, 0x01, 0x01,
  0x22, 0xb4, 0x01, 0x00, 0x3e, 0xb4, 0x01, 0x01, 0x3a, 0xb4, 0x01, 0x00,
  0x26, 0xb4, 0x01, 0x01, 0x3a, 0xb4, 0x01, 0x00, 0x26, 0xb4, 0x01, 0x01,
  0x3a, 0xb4, 0x01, 0x00, 0x26, 0xb4, 0x01, 0x01, 0x81, 0x1a, 0xb4, 0x01,
  0x00, 0x26, 0xb4, 0x01, 0x01, 0x81, 0x02, 0xb4, 0x01, 0x00, 0x26, 0xb4,
  0x01, 0x01, 0x3a, 0xb4, 0x01, 0x00, 0x3e, 0xb4, 0x01, 0x01, 0x3a, 0xb4,
  0x01, 0x00, 0x26, 0xb4, 0x01, 0x01, 0x3a, 0xb4, 0x01, 0x00, 0x26, 0xb4,
  0x01, 0x01, 0x85, 0x5a, 0xb4, 0x01, 0x00, 0x84, 0x66, 0xb4, 0x01, 0x01,
  0x81, 0x1a, 0xb4, 0x01, 0x00, 0x26, 0xb4, 0x01, 0x01, 0x81, 0x1a, 0xb4,
  0x01, 0x00, 0x26, 0xb4, 0x01, 0x01, 0x3a, 0xb4, 0x01, 0x00, 0x26, 0xb4,
  0x01, 0x01, 0x81, 0x02, 0xb4, 0x01, 0x00, 0x83, 0x3e, 0xb4, 0x01, 0x01,
  0x22, 0xb4, 0x01, 0x00, 0x81, 0x1e, 0xb4, 0x01, 0x01, 0x81, 0x02, 0xb4,
  0x01, 0x00, 0x88, 0x38, 0xb4, 0x0a, 0x00, 0x00, 0x94, 0x41, 0x68, 0x20,
  0x84, 0x41, 0x00, 0x00, 0x94, 0x43, 0x68, 0x20, 0x84, 0x43, 0x00, 0x00,
  0x94, 0x48, 0x68, 0x20, 0x84, 0x48, 0x00, 0x00, 0x94, 0x4f, 0x68, 0x20,
  0x84, 0x4f, 0x00, 0x00, 0x94, 0x48, 0x68, 0x20, 0x84, 0x48, 0x00, 0x00,
  0x94, 0x43, 0x68, 0x20, 0x84, 0x43, 0x00, 0x83, 0x00, 0xb4, 0x0a, 0x7f,
  0x00, 0x94, 0x48, 0x68, 0x81, 0x40, 0x84, 0x48, 0x00, 0x00, 0x94, 0x46,
  0x68, 0x81, 0x40, 0x84, 0x46, 0x00, 0x00, 0x94, 0x46, 0x68, 0x60, 0x84,
  0x46, 0x00, 0x00, 0x94, 0x41, 0x68, 0x30, 0x84, 0x41, 0x00, 0x78, 0x94,
  0x43, 0x68, 0x18, 0x84, 0x43, 0x00, 0x60, 0x94, 0x41, 0x68, 0x18, 0x84,
  0x41, 0x00, 0x81, 0x10, 0x94, 0x41, 0x68, 0x18, 0x84, 0x41, 0x00, 0x60,
  0x94, 0x41, 0x68, 0x30, 0x84, 0x41, 0x00, 0x18, 0x94, 0x43, 0x68, 0x18,
  0x84, 0x43, 0x00, 0x60, 0x94, 0x41, 0x68, 0x30, 0x84, 0x41, 0x00, 0x78,
  0x94, 0x43, 0x68, 0x18, 0x84, 0x43, 0x00, 0x60, 0xb4, 0x0a, 0x00, 0x00,
  0x94, 0x3f, 0x68, 0x20, 0x84, 0x3f, 0x00, 0x00, 0x94, 0x3c, 0x68, 0x20,
  0x84, 0x3c, 0x00, 0x00, 0x94, 0x3f, 0x68, 0x20, 0x84, 0x3f, 0x00, 0x00,
  0x94, 0x43, 0x68, 0x20, 0x84, 0x43, 0x00, 0x00, 0x94, 0x3f, 0x68, 0x20,
  0x84, 0x3f, 0x00, 0x00, 0x94, 0x43, 0x68, 0x20, 0x84, 0x43, 0x00, 0x00,
  0x94, 0x48, 0x68, 0x20, 0x84, 0x48, 0x00, 0x00, 0x94, 0x43, 0x68, 0x20,
  0x84, 0x43, 0x00, 0x00, 0x94, 0x48, 0x68, 0x20, 0x84, 0x48, 0x00, 0x00,
  0x94, 0x4b, 0x68, 0x20, 0x84, 0x4b, 0x00, 0x00, 0x94, 0x4f, 0x68, 0x20,
  0x84, 0x4f, 0x00, 0x00, 0x94, 0x54, 0x68, 0x20, 0x84, 0x54, 0x00, 0x00,
  0x94, 0x3c, 0x68, 0x20, 0x84, 0x3c, 0x00, 0x00, 0x94, 0x3f, 0x68, 0x20,
  0x84, 0x3f, 0x00, 0x00, 0x94, 0x43, 0x68, 0x20, 0x84, 0x43, 0x00, 0x00,
  0xb4, 0x0a, 0x40, 0x00, 0x94, 0x48, 0x68, 0x20, 0x84, 0x48, 0x00, 0x00,
  0x94, 0x4b, 0x68, 0x06, 0xb4, 0x01, 0x01, 0x1a, 0x84, 0x4b, 0x00, 0x00,
  0x94, 0x4f, 0x68, 0x20, 0x84, 0x4f, 0x00, 0x00, 0xb4, 0x01, 0x00, 0x00,
  0xb4, 0x0a, 0x7f, 0x00, 0x94, 0x54, 0x68, 0x20, 0x84, 0x54, 0x00, 0x00,
  0x94, 0x4f, 0x68, 0x06, 0xb4, 0x01, 0x01, 0x1a, 0x84, 0x4f, 0x00, 0x00,
  0x94, 0x4b, 0x68, 0x20, 0x84, 0x4b, 0x00, 0x00, 0xb4, 0x01, 0x00, 0x00,
  0xb4, 0x0a, 0x40, 0x00, 0x94, 0x48, 0x68, 0x20, 0x84, 0x48, 0x00, 0x00,
  0x94, 0x43, 0x68, 0x06, 0xb4, 0x01, 0x01, 0x1a, 0x84, 0x43, 0x00, 0x00,
  0x94, 0x3f, 0x68, 0x20, 0x84, 0x3f, 0x00, 0x00, 0xb4, 0x01, 0x00, 0x00,
  0xb4, 0x0a, 0x00, 0x00, 0x94, 0x3c, 0x68, 0x20, 0x84, 0x3c, 0x00, 0x00,
  0x94, 0x3f, 0x68, 0x06, 0xb4, 0x01, 0x01, 0x1a, 0x84, 0x3f, 0x00, 0x00,
  0x94, 0x43, 0x68, 0x20, 0x84, 0x43, 0x00, 0x00, 0xb4, 0x01, 0x00, 0x00,
  0xb4, 0x0a, 0x40, 0x00, 0x94, 0x48, 0x68, 0x20, 0x84, 0x48, 0x00, 0x00,
  0x94, 0x4b, 0x68, 0x06, 0xb4, 0x01, 0x01, 0x1a, 0x84, 0x4b, 0x00, 0x00,
  0x94, 0x4f, 0x68, 0x08, 0xb4, 0x01, 0x00, 0x18, 0x84, 0x4f, 0x00, 0x00,
  0xb4, 0x0a, 0x7f, 0x00, 0x94, 0x54, 0x68, 0x0e, 0xb4, 0x01, 0x01, 0x12,
  0x84, 0x54, 0x00, 0x00, 0x94, 0x4f, 0x68, 0x20, 0x84, 0x4f, 0x00, 0x00,
  0x94, 0x4b, 0x68, 0x08, 0xb4, 0x01, 0x00, 0x18, 0x84, 0x4b, 0x00, 0x00,
  0xb4, 0x0a, 0x40, 0x00, 0x94, 0x48, 0x68, 0x0e, 0xb4, 0x01, 0x01, 0x12,
  0x84, 0x48, 0x00, 0x00, 0x94, 0x43, 0x68, 0x20, 0x84, 0x43, 0x00, 0x00,
  0x94, 0x3f, 0x68, 0x20, 0x84, 0x3f, 0x00, 0x00, 0xb4, 0x0a, 0x00, 0x00,
  0x94, 0x3a, 0x68, 0x20, 0x84, 0x3a, 0x00, 0x00, 0x94, 0x3e, 0x68, 0x20,
  0x84, 0x3e, 0x00, 0x00, 0x94, 0x41, 0x68, 0x20, 0x84, 0x41, 0x00, 0x00,
  0xb4, 0x01, 0x00, 0x00, 0xb4, 0x0a, 0x40, 0x00, 0x94, 0x46, 0x68, 0x20,
  0x84, 0x46, 0x00, 0x00, 0x94, 0x4a, 0x68, 0x06, 0xb4, 0x01, 0x01, 0x1a,
  0x84, 0x4a, 0x00, 0x00, 0x94, 0x4d, 0x68, 0x20, 0x84, 0x4d, 0x00, 0x00,
  0xb4, 0x01, 0x00, 0x00, 0xb4, 0x0a, 0x7f, 0x00, 0x94, 0x52, 0x68, 0x20,
  0x84, 0x52, 0x00, 0x00, 0x94, 0x4d, 0x68, 0x06, 0xb4, 0x01, 0x01, 0x1a,
  0x84, 0x4d, 0x00, 0x00, 0x94, 0x4a, 0x68, 0x20, 0x84, 0x4a, 0x00, 0x00,
  0xb4, 0x01, 0x00, 0x00, 0xb4, 0x0a, 0x40, 0x00, 0x94, 0x46, 0x68, 0x20,
  0x84, 0x46, 0x00, 0x00, 0x94, 0x41, 0x68, 0x06, 0xb4, 0x01, 0x01, 0x1a,
  0x84, 0x41, 0x00, 0x00, 0x94, 0x3e, 0x68, 0x20, 0x84, 0x3e, 0x00, 0x00,
  0xb4, 0x01, 0x00, 0x00, 0xb4, 0x0a, 0x00, 0x00, 0x94, 0x3a, 0x68, 0x20,
  0x84, 0x3a, 0x00, 0x00, 0x94, 0x3c, 0x68, 0x06, 0xb4, 0x01, 0x01, 0x1a,
  0x84, 0x3c, 0x00, 0x00, 0x94, 0x41, 0x68, 0x20, 0x84, 0x41, 0x00, 0x00,
  0xb4, 0x0a, 0x40, 0x00, 0x94, 0x46, 0x68, 0x20, 0x84, 0x46, 0x00, 0x00,
  0x94, 0x48, 0x68, 0x20, 0x84, 0x48, 0x00, 0x00, 0x94, 0x4d, 0x68, 0x20,
  0x84, 0x4d, 0x00, 0x00, 0xb4, 0x01, 0x00, 0x00, 0xb4, 0x0a, 0x7f, 0x00,
  0x94, 0x52, 0x68, 0x20, 0x84, 0x52, 0x00, 0x00, 0x94, 0x4d, 0x68, 0x06,
  0xb4, 0x01, 0x01, 0x1a, 0x84, 0x4d, 0x00, 0x00, 0x94, 0x48, 0x68, 0x20,
  0x84, 0x48, 0x00, 0x00, 0xb4, 0x0a, 0x40, 0x00, 0x94, 0x46, 0x68, 0x20,
  0x84, 0x46, 0x00, 0x00, 0x94, 0x41, 0x68, 0x20, 0x84, 0x41, 0x00, 0x00,
  0x94, 0x3c, 0x68, 0x20, 0x84, 0x3c, 0x00, 0x00, 0xb4, 0x0a, 0x00, 0x00,
  0x94, 0x37, 0x68, 0x20, 0x84, 0x37, 0x00, 0x00, 0x94, 0x3a, 0x68, 0x20,
  0x84, 0x3a, 0x00, 0x00, 0x94, 0x3f, 0x68, 0x20, 0x84, 0x3f, 0x00, 0x00,
  0xb4, 0x01, 0x00, 0x00, 0xb4, 0x0a, 0x40, 0x00, 0x94, 0x43, 0x68, 0x20,
  0x84, 0x43, 0x00, 0x00, 0x94, 0x46, 0x68, 0x06, 0xb4, 0x01, 0x01, 0x1a,
  0x84, 0x46, 0x00, 0x00, 0x94, 0x4b, 0x68, 0x20, 0x84, 0x4b, 0x00, 0x00,
  0xb4, 0x01, 0x00, 0x00, 0xb4, 0x0a, 0x7f, 0x00, 0x94, 0x4f, 0x68, 0x20,
  0x84, 0x4f, 0x00, 0x00, 0x94, 0x4b, 0x68, 0x06, 0xb4, 0x01, 0x01, 0x1a,
  0x84, 0x4b, 0x00, 0x00, 0x94, 0x46, 0x68, 0x20, 0x84, 0x46, 0x00, 0x00,
  0xb4, 0x01, 0x00, 0x00, 0xb4, 0x0a, 0x40, 0x00, 0x94, 0x43, 0x68, 0x20,
  0x84, 0x43, 0x00, 0x00, 0x94, 0x3f, 0x68, 0x06, 0xb4, 0x01, 0x01, 0x1a,
  0x84, 0x3f, 0x00, 0x00, 0x94, 0x3a, 0x68, 0x20, 0x84, 0x3a, 0x00, 0x00,
  0xb4, 0x01, 0x00, 0x00, 0xb4, 0x0a, 0x00, 0x00, 0x94, 0x35, 0x68, 0x20,
  0x84, 0x35, 0x00, 0x00, 0x94, 0x38, 0x68, 0x06, 0xb4, 0x01, 0x01, 0x1a,
  0x84, 0x38, 0x00, 0x00, 0x94, 0x3c, 0x68, 0x20, 0x84, 0x3c, 0x00, 0x00,
  0xb4, 0x0a, 0x40, 0x00, 0x94, 0x41, 0x68, 0x20, 0x84, 0x41, 0x00, 0x00,
  0x94, 0x44, 0x68, 0x10, 0xb4, 0x01, 0x00, 0x10, 0x84, 0x44, 0x00, 0x00,
  0x94, 0x48, 0x68, 0x16, 0xb4, 0x01, 0x01, 0x0a, 0x84, 0x48, 0x00, 0x00,
  0xb4, 0x0a, 0x7f, 0x00, 0x94, 0x4d, 0x68, 0x20, 0x84, 0x4d, 0x00, 0x00,
  0x94, 0x48, 0x68, 0x20, 0x84, 0x48, 0x00, 0x00, 0x94, 0x44, 0x68, 0x20,
  0x84, 0x44, 0x00, 0x00, 0xb4, 0x01, 0x00, 0x00, 0xb4, 0x0a, 0x40, 0x00,
  0x94, 0x41, 0x68, 0x20, 0x84, 0x41, 0x00, 0x00, 0x94, 0x3b, 0x68, 0x06,
  0xb4, 0x01, 0x01, 0x1a, 0x84, 0x3b, 0x00, 0x00, 0x94, 0x38, 0x68, 0x20,
  0x84, 0x38, 0x00, 0x00, 0xb4, 0x01, 0x00, 0x00, 0xb4, 0x0a, 0x00, 0x00,
  0x94, 0x35, 0x68, 0x20, 0x84, 0x35, 0x00, 0x00, 0x94, 0x37, 0x68, 0x06,
  0xb4, 0x01, 0x01, 0x1a, 0x84, 0x37, 0x00, 0x00, 0x94, 0x3c, 0x68, 0x20,
  0x84, 0x3c, 0x00, 0x00, 0xb4, 0x01, 0x00, 0x00, 0xb4, 0x0a, 0x40, 0x00,
  0x94, 0x41, 0x68, 0x20, 0x84, 0x41, 0x00, 0x00, 0x94, 0x43, 0x68, 0x06,
  0xb4, 0x01, 0x01, 0x1a, 0x84, 0x43, 0x00, 0x00, 0x94, 0x48, 0x68, 0x20,
  0x84, 0x48, 0x00, 0x00, 0xb4, 0x01, 0x00, 0x00, 0xb4, 0x0a, 0x7f, 0x00,
  0x94, 0x4d, 0x68, 0x20, 0x84, 0x4d, 0x00, 0x00, 0x94, 0x48, 0x68, 0x06,
  0xb4, 0x01, 0x01, 0x1a, 0x84, 0x48, 0x00, 0x00, 0x94, 0x43, 0x68, 0x20,
  0x84, 0x43, 0x00, 0x00, 0xb4, 0x01, 0x00, 0x00, 0xb4, 0x0a, 0x40, 0x00,
  0x94, 0x41, 0x68, 0x20, 0x84, 0x41, 0x00, 0x00, 0x94, 0x3c, 0x68, 0x06,
  0xb4, 0x01, 0x01, 0x1a, 0x84, 0x3c, 0x00, 0x00, 0x94, 0x37, 0x68, 0x20,
  0x84, 0x37, 0x00, 0x00, 0xb4, 0x01, 0x00, 0x00, 0xb4, 0x0a, 0x00, 0x00,
  0x94, 0x37, 0x68, 0x20, 0x84, 0x37, 0x00, 0x00, 0x94, 0x3c, 0x68, 0x20,
  0x84, 0x3c, 0x00, 0x00, 0xb4, 0x0a, 0x40, 0x00, 0x94, 0x40, 0x68, 0x20,
  0x84, 0x40, 0x00, 0x00, 0x94, 0x43, 0x68, 0x20, 0x84, 0x43, 0x00, 0x00,
  0xb4, 0x0a, 0x7f, 0x00, 0x94, 0x48, 0x68, 0x20, 0x84, 0x48, 0x00, 0x00,
  0x94, 0x4c, 0x68, 0x20, 0x84, 0x4c, 0x00, 0x00, 0xb4, 0x0a, 0x40, 0x00,
  0x94, 0x42, 0x68, 0x20, 0x84, 0x42, 0x00, 0x00, 0x94, 0x46, 0x68, 0x20,
  0x84, 0x46, 0x00, 0x00, 0x94, 0x49, 0x68, 0x20, 0x84, 0x49, 0x00, 0x00,
  0x94, 0x4e, 0x68, 0x20, 0x84, 0x4e, 0x00, 0x00, 0x94, 0x52, 0x68, 0x20,
  0x84, 0x52, 0x00, 0x00, 0x94, 0x55, 0x68, 0x20, 0x84, 0x55, 0x00, 0x26,
  0xb4, 0x01, 0x01, 0x3a, 0xb4, 0x01, 0x00, 0x26, 0xb4, 0x01, 0x01, 0x3a,
  0xb4, 0x01, 0x00, 0x26, 0xb4, 0x01, 0x01, 0x3a, 0xb4, 0x01, 0x00, 0x26,
  0xb4, 0x01, 0x01, 0x3a, 0xb4, 0x01, 0x00, 0x26, 0xb4, 0x01, 0x01, 0x3a,
  0xb4, 0x01, 0x00, 0x26, 0xb4, 0x01, 0x01, 0x22, 0xb4, 0x01, 0x00, 0x26,
  0xb4, 0x01, 0x01, 0x3a, 0xb4, 0x01, 0x00, 0x26, 0xb4, 0x01, 0x01, 0x81,
  0x32, 0xb4, 0x01, 0x00, 0x26, 0xb4, 0x01, 0x01, 0x3a, 0xb4, 0x01, 0x00,
  0x26, 0xb4, 0x01, 0x01, 0x3a, 0xb4, 0x01, 0x00, 0x26, 0xb4, 0x01, 0x01,
  0x3a, 0xb4, 0x01, 0x00, 0x26, 0xb4, 0x01, 0x01, 0x81, 0x1a, 0xb4, 0x01,
  0x00, 0x26, 0xb4, 0x01, 0x01, 0x81, 0x1a, 0xb4, 0x01, 0x00, 0x26, 0xb4,
  0x01, 0x01, 0x81, 0x7a, 0xb4, 0x01, 0x00, 0x26, 0xb4, 0x01, 0x01, 0x22,
  0xb4, 0x01, 0x00, 0x26, 0xb4, 0x01, 0x01, 0x82, 0x72, 0xb4, 0x01, 0x00,
  0x26, 0xb4, 0x01, 0x01, 0x81, 0x7a, 0xb4, 0x01, 0x00, 0x26, 0xb4, 0x01,
  0x01, 0x22, 0xb4, 0x01, 0x00, 0x26, 0xb4, 0x01, 0x01, 0xa0, 0x72, 0xb4,
  0x01, 0x00, 0x26, 0xb4, 0x01, 0x01, 0x81, 0x1a, 0xb4, 0x01, 0x00, 0x26,
  0xb4, 0x01, 0x01, 0x81, 0x1a, 0xb4, 0x01, 0x00, 0x26, 0xb4, 0x01, 0x01,
  0x3a, 0xb4, 0x01, 0x00, 0x26, 0xb4, 0x01, 0x01, 0x9c, 0x7a, 0xb4, 0x65,
  0x00, 0x00, 0xb4, 0x64, 0x00, 0x00, 0xb4, 0x06, 0x0c, 0x00, 0xb4, 0x0a,
  0x40, 0x00, 0xb4, 0x07, 0x54, 0x00, 0xe4, 0x06, 0x40, 0x00, 0xc4, 0x0b,
  0x00, 0xb4, 0x01, 0x01, 0x01, 0xb4, 0x65, 0x00, 0x00, 0xb4, 0x64, 0x00,
  0x00, 0xb4, 0x06, 0x0c, 0x00, 0xb4, 0x0a, 0x40, 0x00, 0xb4, 0x07, 0x54,
  0x00, 0xe4, 0x06, 0x40, 0x00, 0xc4, 0x0b, 0x00, 0xb4, 0x01, 0x01, 0x00,
  0xb4, 0x65, 0x00, 0x00, 0xb4, 0x64, 0x00, 0x00, 0xb4, 0x06, 0x0c, 0x00,
  0xb4, 0x0a, 0x40, 0x00, 0xb4, 0x07, 0x54, 0x00, 0xe4, 0x06, 0x40, 0x00,
  0xc4, 0x0b, 0x00, 0xb4, 0x01, 0x01, 0x00, 0xff, 0x2f, 0x00, 0x4d, 0x54,
  0x72, 0x6b, 0x00, 0x00, 0x0d, 0x4c, 0x00, 0xff, 0x03, 0x0a, 0x56, 0x69,
  0x62, 0x65, 0x73, 0x20, 0x65, 0x63, 0x68, 0x6f, 0x00, 0xb5, 0x0a, 0x40,
  0x00, 0xb5, 0x07, 0x3a, 0x00, 0xe5, 0x0d, 0x40, 0x00, 0xb5, 0x65, 0x00,
  0x00, 0xb5, 0x64, 0x00, 0x00, 0xb5, 0x06, 0x0c, 0x00, 0xb5, 0x0a, 0x40,
  0x00, 0xb5, 0x07, 0x3a, 0x00, 0xe5, 0x0d, 0x40, 0x00, 0xc5, 0x0b, 0x00,
  0xb5, 0x01, 0x01, 0x00, 0xb5, 0x65, 0x00, 0x00, 0xb5, 0x64, 0x00, 0x00,
  0xb5, 0x06, 0x0c, 0x00, 0xb5, 0x0a, 0x40, 0x00, 0xb5, 0x07, 0x3a, 0x00,
  0xe5, 0x0d, 0x40, 0x00, 0xc5, 0x0b, 0x00, 0xb5, 0x01, 0x01, 0x00, 0xb5,
  0x65, 0x00, 0x00, 0xb5, 0x64, 0x00, 0x00, 0xb5, 0x06, 0x0c, 0x00, 0xb5,
  0x0a, 0x40, 0x00, 0xb5, 0x07, 0x3a, 0x00, 0xe5, 0x0d, 0x40, 0x00, 0xc5,
  0x0b, 0x00, 0xb5, 0x01, 0x01, 0x40, 0xe5, 0x0d, 0x40, 0x00, 0xb5, 0x0a,
  0x40, 0x00, 0xb5, 0x01, 0x00, 0x26, 0xb5, 0x01, 0x01, 0x83, 0x3a, 0xb5,
  0x01, 0x00, 0x26, 0xb5, 0x01, 0x01, 0x22, 0xb5, 0x01, 0x00, 0x26, 0xb5,
  0x01, 0x01, 0x3a, 0xb5, 0x01, 0x00, 0x3e, 0xb5, 0x01, 0x01, 0x3a, 0xb5,
  0x01, 0x00, 0x26, 0xb5, 0x01, 0x01, 0x81, 0x1a, 0xb5, 0x01, 0x00, 0x26,
  0xb5, 0x01, 0x01, 0x3a, 0xb5, 0x01, 0x00, 0x26, 0xb5, 0x01, 0x01, 0x81,
  0x1a, 0xb5, 0x01, 0x00, 0x26, 0xb5, 0x01, 0x01, 0x81, 0x7a, 0xb5, 0x01,
  0x00, 0x26, 0xb5, 0x01, 0x01, 0x81, 0x7a, 0xb5, 0x01, 0x00, 0x26, 0xb5,
  0x01, 0x01, 0x22, 0xb5, 0x01, 0x00, 0x3e, 0xb5, 0x01, 0x01, 0x3a, 0xb5,
  0x01, 0x00, 0x26, 0xb5, 0x01, 0x01, 0x3a, 0xb5, 0x01, 0x00, 0x26, 0xb5,
  0x01, 0x01, 0x3a, 0xb5, 0x01, 0x00, 0x26, 0xb5, 0x01, 0x01, 0x81, 0x1a,
  0xb5, 0x01, 0x00, 0x26, 0xb5, 0x01, 0x01, 0x81, 0x02, 0xb5, 0x01, 0x00,
  0x26, 0xb5, 0x01, 0x01, 0x3a, 0xb5, 0x01, 0x00, 0x3e, 0xb5, 0x01, 0x01,
  0x3a, 0xb5, 0x01, 0x00, 0x26, 0xb5, 0x01, 0x01, 0x3a, 0xb5, 0x01, 0x00,
  0x26, 0xb5, 0x01, 0x01, 0x85, 0x5a, 0xb5, 0x01, 0x00, 0x84, 0x66, 0xb5,
  0x01, 0x01, 0x81, 0x1a, 0xb5, 0x01, 0x00, 0x26, 0xb5, 0x01, 0x01, 0x81,
  0x1a, 0xb5, 0x01, 0x00, 0x26, 0xb5, 0x01, 0x01, 0x3a, 0xb5, 0x01, 0x00,
  0x26, 0xb5, 0x01, 0x01, 0x81, 0x02, 0xb5, 0x01, 0x00, 0x83, 0x3e, 0xb5,
  0x01, 0x01, 0x22, 0xb5, 0x01, 0x00, 0x81, 0x1e, 0xb5, 0x01, 0x01, 0x81,
  0x02, 0xb5, 0x01, 0x00, 0x88, 0x38, 0x95, 0x41, 0x7f, 0x20, 0x85, 0x41,
  0x00, 0x00, 0x95, 0x43, 0x7f, 0x20, 0x85, 0x43, 0x00, 0x00, 0x95, 0x48,
  0x7f, 0x20, 0x85, 0x48, 0x00, 0x00, 0x95, 0x4f, 0x7f, 0x20, 0x85, 0x4f,
  0x00, 0x00, 0x95, 0x48, 0x7f, 0x20, 0x85, 0x48, 0x00, 0x00, 0x95, 0x43,
  0x7f, 0x20, 0x85, 0x43, 0x00, 0x83, 0x00, 0x95, 0x48, 0x7f, 0x81, 0x40,
  0x85, 0x48, 0x00, 0x00, 0x95, 0x46, 0x7f, 0x81, 0x40, 0x85, 0x46, 0x00,
  0x00, 0x95, 0x46, 0x7f, 0x60, 0x85, 0x46, 0x00, 0x00, 0x95, 0x41, 0x7f,
  0x30, 0x85, 0x41, 0x00, 0x78, 0x95, 0x43, 0x7f, 0x18, 0x85, 0x43, 0x00,
  0x60, 0x95, 0x41, 0x7f, 0x18, 0x85, 0x41, 0x00, 0x81, 0x10, 0x95, 0x41,
  0x7f, 0x18, 0x85, 0x41, 0x00, 0x60, 0x95, 0x41, 0x7f, 0x30, 0x85, 0x41,
  0x00, 0x18, 0x95, 0x43, 0x7f, 0x18, 0x85, 0x43, 0x00, 0x60, 0x95, 0x41,
  0x7f, 0x30, 0x85, 0x41, 0x00, 0x78, 0x95, 0x43, 0x7f, 0x18, 0x85, 0x43,
  0x00, 0x60, 0x95, 0x3f, 0x7f, 0x20, 0x85, 0x3f, 0x00, 0x00, 0x95, 0x3c,
  0x7f, 0x20, 0x85, 0x3c, 0x00, 0x00, 0x95, 0x3f, 0x7f, 0x20, 0x85, 0x3f,
  0x00, 0x00, 0x95, 0x43, 0x7f, 0x20, 0x85, 0x43, 0x00, 0x00, 0x95, 0x3f,
  0x7f, 0x20, 0x85, 0x3f, 0x00, 0x00, 0x95, 0x43, 0x7f, 0x20, 0x85, 0x43,
  0x00, 0x00, 0x95, 0x48, 0x7f, 0x20, 0x85, 0x48, 0x00, 0x00, 0x95, 0x43,
  0x7f, 0x20, 0x85, 0x43, 0x00, 0x00, 0x95, 0x48, 0x7f, 0x20, 0x85, 0x48,
  0x00, 0x00, 0x95, 0x4b, 0x7f, 0x20, 0x85, 0x4b, 0x00, 0x00, 0x95, 0x4f,
  0x7f, 0x20, 0x85, 0x4f, 0x00, 0x00, 0x95, 0x54, 0x7f, 0x20, 0x85, 0x54,
  0x00, 0x00, 0x95, 0x3c, 0x7f, 0x20, 0x85, 0x3c, 0x00, 0x00, 0x95, 0x3f,
  0x7f, 0x20, 0x85, 0x3f, 0x00, 0x00, 0x95, 0x43, 0x7f, 0x20, 0x85, 0x43,
  0x00, 0x00, 0x95, 0x48, 0x7f, 0x20, 0x85, 0x48, 0x00, 0x00, 0x95, 0x4b,
  0x7f, 0x06, 0xb5, 0x01, 0x01, 0x1a, 0x85, 0x4b, 0x00, 0x00, 0x95, 0x4f,
  0x7f, 0x20, 0x85, 0x4f, 0x00, 0x00, 0xb5, 0x01, 0x00, 0x00, 0x95, 0x54,
  0x7f, 0x20, 0x85, 0x54, 0x00, 0x00, 0x95, 0x4f, 0x7f, 0x06, 0xb5, 0x01,
  0x01, 0x1a, 0x85, 0x4f, 0x00, 0x00, 0x95, 0x4b, 0x7f, 0x20, 0x85, 0x4b,
  0x00, 0x00, 0xb5, 0x01, 0x00, 0x00, 0x95, 0x48, 0x7f, 0x20, 0x85, 0x48,
  0x00, 0x00, 0x95, 0x43, 0x7f, 0x06, 0xb5, 0x01, 0x01, 0x1a, 0x85, 0x43,
  0x00, 0x00, 0x95, 0x3f, 0x7f, 0x20, 0x85, 0x3f, 0x00, 0x00, 0xb5, 0x01,
  0x00, 0x00, 0x95, 0x3c, 0x7f, 0x20, 0x85, 0x3c, 0x00, 0x00, 0x95, 0x3f,
  0x7f, 0x06, 0xb5, 0x01, 0x01, 0x1a, 0x85, 0x3f, 0x00, 0x00, 0x95, 0x43,
  0x7f, 0x20, 0x85, 0x43, 0x00, 0x00, 0xb5, 0x01, 0x00, 0x00, 0x95, 0x48,
  0x7f, 0x20, 0x85, 0x48, 0x00, 0x00, 0x95, 0x4b, 0x7f, 0x06, 0xb5, 0x01,
  0x01, 0x1a, 0x85, 0x4b, 0x00, 0x00, 0x95, 0x4f, 0x7f, 0x08, 0xb5, 0x01,
  0x00, 0x18, 0x85, 0x4f, 0x00, 0x00, 0x95, 0x54, 0x7f, 0x0e, 0xb5, 0x01,
  0x01, 0x12, 0x85, 0x54, 0x00, 0x00, 0x95, 0x4f, 0x7f, 0x20, 0x85, 0x4f,
  0x00, 0x00, 0x95, 0x4b, 0x7f, 0x08, 0xb5, 0x01, 0x00, 0x18, 0x85, 0x4b,
  0x00, 0x00, 0x95, 0x48, 0x7f, 0x0e, 0xb5, 0x01, 0x01, 0x12, 0x85, 0x48,
  0x00, 0x00, 0x95, 0x43, 0x7f, 0x20, 0x85, 0x43, 0x00, 0x00, 0x95, 0x3f,
  0x7f, 0x20, 0x85, 0x3f, 0x00, 0x00, 0x95, 0x3a, 0x7f, 0x20, 0x85, 0x3a,
  0x00, 0x00, 0x95, 0x3e, 0x7f, 0x20, 0x85, 0x3e, 0x00, 0x00, 0x95, 0x41,
  0x7f, 0x20, 0x85, 0x41, 0x00, 0x00, 0xb5, 0x01, 0x00, 0x00, 0x95, 0x46,
  0x7f, 0x20, 0x85, 0x46, 0x00, 0x00, 0x95, 0x4a, 0x7f, 0x06, 0xb5, 0x01,
  0x01, 0x1a, 0x85, 0x4a, 0x00, 0x00, 0x95, 0x4d, 0x7f, 0x20, 0x85, 0x4d,
  0x00, 0x00, 0xb5, 0x01, 0x00, 0x00, 0x95, 0x52, 0x7f, 0x20, 0x85, 0x52,
  0x00, 0x00, 0x95, 0x4d, 0x7f, 0x06, 0xb5, 0x01, 0x01, 0x1a, 0x85, 0x4d,
  0x00, 0x00, 0x95, 0x4a, 0x7f, 0x20, 0x85, 0x4a, 0x00, 0x00, 0xb5, 0x01,
  0x00, 0x00, 0x95, 0x46, 0x7f, 0x20, 0x85, 0x46, 0x00, 0x00, 0x95, 0x41,
  0x7f, 0x06, 0xb5, 0x01, 0x01, 0x1a, 0x85, 0x41, 0x00, 0x00, 0x95, 0x3e,
  0x7f, 0x20, 0x85, 0x3e, 0x00, 0x00, 0xb5, 0x01, 0x00, 0x00, 0x95, 0x3a,
  0x7f, 0x20, 0x85, 0x3a, 0x00, 0x00, 0x95, 0x3c, 0x7f, 0x06, 0xb5, 0x01,
  0x01, 0x1a, 0x85, 0x3c, 0x00, 0x00, 0x95, 0x41, 0x7f, 0x20, 0x85, 0x41,
  0x00, 0x00, 0x95, 0x46, 0x7f, 0x20, 0x85, 0x46, 0x00, 0x00, 0x95, 0x48,
  0x7f, 0x20, 0x85, 0x48, 0x00, 0x00, 0x95, 0x4d, 0x7f, 0x20, 0x85, 0x4d,
  0x00, 0x00, 0xb5, 0x01, 0x00, 0x00, 0x95, 0x52, 0x7f, 0x20, 0x85, 0x52,
  0x00, 0x00, 0x95, 0x4d, 0x7f, 0x06, 0xb5, 0x01, 0x01, 0x1a, 0x85, 0x4d,
  0x00, 0x00, 0x95, 0x48, 0x7f, 0x20, 0x85, 0x48, 0x00, 0x00, 0x95, 0x46,
  0x7f, 0x20, 0x85, 0x46, 0x00, 0x00, 0x95, 0x41, 0x7f, 0x20, 0x85, 0x41,
  0x00, 0x00, 0x95, 0x3c, 0x7f, 0x20, 0x85, 0x3c, 0x00, 0x00, 0x95, 0x37,
  0x7f, 0x20, 0x85, 0x37, 0x00, 0x00, 0x95, 0x3a, 0x7f, 0x20, 0x85, 0x3a,
  0x00, 0x00, 0x95, 0x3f, 0x7f, 0x20, 0x85, 0x3f, 0x00, 0x00, 0xb5, 0x01,
  0x00, 0x00, 0x95, 0x43, 0x7f, 0x20, 0x85, 0x43, 0x00, 0x00, 0x95, 0x46,
  0x7f, 0x06, 0xb5, 0x01, 0x01, 0x1a, 0x85, 0x46, 0x00, 0x00, 0x95, 0x4b,
  0x7f, 0x20, 0x85, 0x4b, 0x00, 0x00, 0xb5, 0x01, 0x00, 0x00, 0x95, 0x4f,
  0x7f, 0x20, 0x85, 0x4f, 0x00, 0x00, 0x95, 0x4b, 0x7f, 0x06, 0xb5, 0x01,
  0x01, 0x1a, 0x85, 0x4b, 0x00, 0x00, 0x95, 0x46, 0x7f, 0x20, 0x85, 0x46,
  0x00, 0x00, 0xb5, 0x01, 0x00, 0x00, 0x95, 0x43, 0x7f, 0x20, 0x85, 0x43,
  0x00, 0x00, 0x95, 0x3f, 0x7f, 0x06, 0xb5, 0x01, 0x01, 0x1a, 0x85, 0x3f,
  0x00, 0x00, 0x95, 0x3a, 0x7f, 0x20, 0x85, 0x3a, 0x00, 0x00, 0xb5, 0x01,
  0x00, 0x00, 0x95, 0x35, 0x7f, 0x20, 0x85, 0x35, 0x00, 0x00, 0x95, 0x38,
  0x7f, 0x06, 0xb5, 0x01, 0x01, 0x1a, 0x85, 0x38, 0x00, 0x00, 0x95, 0x3c,
  0x7f, 0x20, 0x85, 0x3c, 0x00, 0x00, 0x95, 0x41, 0x7f, 0x20, 0x85, 0x41,
  0x00, 0x00, 0x95, 0x44, 0x7f, 0x10, 0xb5, 0x01, 0x00, 0x10, 0x85, 0x44,
  0x00, 0x00, 0x95, 0x48, 0x7f, 0x16, 0xb5, 0x01, 0x01, 0x0a, 0x85, 0x48,
  0x00, 0x00, 0x95, 0x4d, 0x7f, 0x20, 0x85, 0x4d, 0x00, 0x00, 0x95, 0x48,
  0x7f, 0x20, 0x85, 0x48, 0x00, 0x00, 0x95, 0x44, 0x7f, 0x20, 0x85, 0x44,
  0x00, 0x00, 0xb5, 0x01, 0x00, 0x00, 0x95, 0x41, 0x7f, 0x20, 0x85, 0x41,
  0x00, 0x00, 0x95, 0x3b, 0x7f, 0x06, 0xb5, 0x01, 0x01, 0x1a, 0x85, 0x3b,
  0x00, 0x00, 0x95, 0x38, 0x7f, 0x20, 0x85, 0x38, 0x00, 0x00, 0xb5, 0x01,
  0x00, 0x00, 0x95, 0x35, 0x7f, 0x20, 0x85, 0x35, 0x00, 0x00, 0x95, 0x37,
  0x7f, 0x06, 0xb5, 0x01, 0x01, 0x1a, 0x85, 0x37, 0x00, 0x00, 0x95, 0x3c,
  0x7f, 0x20, 0x85, 0x3c, 0x00, 0x00, 0xb5, 0x01, 0x00, 0x00, 0x95, 0x41,
  0x7f, 0x20, 0x85, 0x41, 0x00, 0x00, 0x95, 0x43, 0x7f, 0x06, 0xb5, 0x01,
  0x01, 0x1a, 0x85, 0x43, 0x00, 0x00, 0x95, 0x48, 0x7f, 0x20, 0x85, 0x48,
  0x00, 0x00, 0xb5, 0x01, 0x00, 0x00, 0x95, 0x4d, 0x7f, 0x20, 0x85, 0x4d,
  0x00, 0x00, 0x95, 0x48, 0x7f, 0x06, 0xb5, 0x01, 0x01, 0x1a, 0x85, 0x48,
  0x00, 0x00, 0x95, 0x43, 0x7f, 0x20, 0x85, 0x43, 0x00, 0x00, 0xb5, 0x01,
  0x00, 0x00, 0x95, 0x41, 0x7f, 0x20, 0x85, 0x41, 0x00, 0x00, 0x95, 0x3c,
  0x7f, 0x06, 0xb5, 0x01, 0x01, 0x1a, 0x85, 0x3c, 0x00, 0x00, 0x95, 0x37,
  0x7f, 0x20, 0x85, 0x37, 0x00, 0x00, 0xb5, 0x01, 0x00, 0x00, 0x95, 0x37,
  0x7f, 0x20, 0x85, 0x37, 0x00, 0x00, 0x95, 0x3c, 0x7f, 0x20, 0x85, 0x3c,
  0x00, 0x00, 0x95, 0x40, 0x7f, 0x20, 0x85, 0x40, 0x00, 0x00, 0x95, 0x43,
  0x7f, 0x20, 0x85, 0x43, 0x00, 0x00, 0x95, 0x48, 0x7f, 0x20, 0x85, 0x48,
  0x00, 0x00, 0x95, 0x4c, 0x7f, 0x20, 0x85, 0x4c, 0x00, 0x00, 0x95, 0x42,
  0x7f, 0x20, 0x85, 0x42, 0x00, 0x00, 0x95, 0x46, 0x7f, 0x20, 0x85, 0x46,
  0x00, 0x00, 0x95, 0x49, 0x7f, 0x20, 0x85, 0x49, 0x00, 0x00, 0x95, 0x4e,
  0x7f, 0x20, 0x85, 0x4e, 0x00, 0x00, 0x95, 0x52, 0x7f, 0x20, 0x85, 0x52,
  0x00, 0x00, 0x95, 0x55, 0x7f, 0x20, 0x85, 0x55, 0x00, 0x26, 0xb5, 0x01,
  0x01, 0x3a, 0xb5, 0x01, 0x00, 0x26, 0xb5, 0x01, 0x01, 0x3a, 0xb5, 0x01,
  0x00, 0x26, 0xb5, 0x01, 0x01, 0x3a, 0xb5, 0x01, 0x00, 0x26, 0xb5, 0x01,
  0x01, 0x3a, 0xb5, 0x01, 0x00, 0x26, 0xb5, 0x01, 0x01, 0x3a, 0xb5, 0x01,
  0x00, 0x26, 0xb5, 0x01, 0x01, 0x22, 0xb5, 0x01, 0x00, 0x26, 0xb5, 0x01,
  0x01, 0x3a, 0xb5, 0x01, 0x00, 0x26, 0xb5, 0x01, 0x01, 0x81, 0x32, 0xb5,
  0x01, 0x00, 0x26, 0xb5, 0x01, 0x01, 0x3a, 0xb5, 0x01, 0x00, 0x26, 0xb5,
  0x01, 0x01, 0x3a, 0xb5, 0x01, 0x00, 0x26, 0xb5, 0x01, 0x01, 0x3a, 0xb5,
  0x01, 0x00, 0x26, 0xb5, 0x01, 0x01, 0x81, 0x1a, 0xb5, 0x01, 0x00, 0x26,
  0xb5, 0x01, 0x01, 0x81, 0x1a, 0xb5, 0x01, 0x00, 0x26, 0xb5, 0x01, 0x01,
  0x81, 0x7a, 0xb5, 0x01, 0x00, 0x26, 0xb5, 0x01, 0x01, 0x22, 0xb5, 0x01,
  0x00, 0x26, 0xb5, 0x01, 0x01, 0x82, 0x72, 0xb5, 0x01, 0x00, 0x26, 0xb5,
  0x01, 0x01, 0x81, 0x7a, 0xb5, 0x01, 0x00, 0x26, 0xb5, 0x01, 0x01, 0x22,
  0xb5, 0x01, 0x00, 0x26, 0xb5, 0x01, 0x01, 0xa0, 0x72, 0xb5, 0x01, 0x00,
  0x26, 0xb5, 0x01, 0x01, 0x81, 0x1a, 0xb5, 0x01, 0x00, 0x26, 0xb5, 0x01,
  0x01, 0x81, 0x1a, 0xb5, 0x01, 0x00, 0x26, 0xb5, 0x01, 0x01, 0x3a, 0xb5,
  0x01, 0x00, 0x26, 0xb5, 0x01, 0x01, 0x99, 0x7a, 0xb5, 0x01, 0x00, 0x26,
  0xb5, 0x01, 0x01, 0x83, 0x3a, 0xb5, 0x01, 0x00, 0x26, 0xb5, 0x01, 0x01,
  0x22, 0xb5, 0x01, 0x00, 0x26, 0xb5, 0x01, 0x01, 0x3a, 0xb5, 0x01, 0x00,
  0x3e, 0xb5, 0x01, 0x01, 0x3a, 0xb5, 0x01, 0x00, 0x26, 0xb5, 0x01, 0x01,
  0x81, 0x1a, 0xb5, 0x01, 0x00, 0x26, 0xb5, 0x01, 0x01, 0x3a, 0xb5, 0x01,
  0x00, 0x26, 0xb5, 0x01, 0x01, 0x81, 0x1a, 0xb5, 0x01, 0x00, 0x26, 0xb5,
  0x01, 0x01, 0x81, 0x7a, 0xb5, 0x01, 0x00, 0x26, 0xb5, 0x01, 0x01, 0x81,
  0x7a, 0xb5, 0x01, 0x00, 0x26, 0xb5, 0x01, 0x01, 0x22, 0xb5, 0x01, 0x00,
  0x3e, 0xb5, 0x01, 0x01, 0x3a, 0xb5, 0x01, 0x00, 0x26, 0xb5, 0x01, 0x01,
  0x3a, 0xb5, 0x01, 0x00, 0x26, 0xb5, 0x01, 0x01, 0x3a, 0xb5, 0x01, 0x00,
  0x26, 0xb5, 0x01, 0x01, 0x81, 0x1a, 0xb5, 0x01, 0x00, 0x26, 0xb5, 0x01,
  0x01, 0x81, 0x02, 0xb5, 0x01, 0x00, 0x26, 0xb5, 0x01, 0x01, 0x3a, 0xb5,
  0x01, 0x00, 0x3e, 0xb5, 0x01, 0x01, 0x3a, 0xb5, 0x01, 0x00, 0x26, 0xb5,
  0x01, 0x01, 0x3a, 0xb5, 0x01, 0x00, 0x26, 0xb5, 0x01, 0x01, 0x85, 0x5a,
  0xb5, 0x01, 0x00, 0x84, 0x66, 0xb5, 0x01, 0x01, 0x81, 0x1a, 0xb5, 0x01,
  0x00, 0x26, 0xb5, 0x01, 0x01, 0x81, 0x1a, 0xb5, 0x01, 0x00, 0x26, 0xb5,
  0x01, 0x01, 0x3a, 0xb5, 0x01, 0x00, 0x26, 0xb5, 0x01, 0x01, 0x81, 0x02,
  0xb5, 0x01, 0x00, 0x83, 0x3e, 0xb5, 0x01, 0x01, 0x22, 0xb5, 0x01, 0x00,
  0x81, 0x1e, 0xb5, 0x01, 0x01, 0x81, 0x02, 0xb5, 0x01, 0x00, 0x88, 0x38,
  0x95, 0x41, 0x7f, 0x20, 0x85, 0x41, 0x00, 0x00, 0x95, 0x43, 0x7f, 0x20,
  0x85, 0x43, 0x00, 0x00, 0x95, 0x48, 0x7f, 0x20, 0x85, 0x48, 0x00, 0x00,
  0x95, 0x4f, 0x7f, 0x20, 0x85, 0x4f, 0x00, 0x00, 0x95, 0x48, 0x7f, 0x20,
  0x85, 0x48, 0x00, 0x00, 0x95, 0x43, 0x7f, 0x20, 0x85, 0x43, 0x00, 0x83,
  0x00, 0x95, 0x48, 0x7f, 0x81, 0x40, 0x85, 0x48, 0x00, 0x00, 0x95, 0x46,
  0x7f, 0x81, 0x40, 0x85, 0x46, 0x00, 0x00, 0x95, 0x46, 0x7f, 0x60, 0x85,
  0x46, 0x00, 0x00, 0x95, 0x41, 0x7f, 0x30, 0x85, 0x41, 0x00, 0x78, 0x95,
  0x43, 0x7f, 0x18, 0x85, 0x43, 0x00, 0x60, 0x95, 0x41, 0x7f, 0x18, 0x85,
  0x41, 0x00, 0x81, 0x10, 0x95, 0x41, 0x7f, 0x18, 0x85, 0x41, 0x00, 0x60,
  0x95, 0x41, 0x7f, 0x30, 0x85, 0x41, 0x00, 0x18, 0x95, 0x43, 0x7f, 0x18,
  0x85, 0x43, 0x00, 0x60, 0x95, 0x41, 0x7f, 0x30, 0x85, 0x41, 0x00, 0x78,
  0x95, 0x43, 0x7f, 0x18, 0x85, 0x43, 0x00, 0x60, 0x95, 0x3f, 0x7f, 0x20,
  0x85, 0x3f, 0x00, 0x00, 0x95, 0x3c, 0x7f, 0x20, 0x85, 0x3c, 0x00, 0x00,
  0x95, 0x3f, 0x7f, 0x20, 0x85, 0x3f, 0x00, 0x00, 0x95, 0x43, 0x7f, 0x20,
  0x85, 0x43, 0x00, 0x00, 0x95, 0x3f, 0x7f, 0x20, 0x85, 0x3f, 0x00, 0x00,
  0x95, 0x43, 0x7f, 0x20, 0x85, 0x43, 0x00, 0x00, 0x95, 0x48, 0x7f, 0x20,
  0x85, 0x48, 0x00, 0x00, 0x95, 0x43, 0x7f, 0x20, 0x85, 0x43, 0x00, 0x00,
  0x95, 0x48, 0x7f, 0x20, 0x85, 0x48, 0x00, 0x00, 0x95, 0x4b, 0x7f, 0x20,
  0x85, 0x4b, 0x00, 0x00, 0x95, 0x4f, 0x7f, 0x20, 0x85, 0x4f, 0x00, 0x00,
  0x95, 0x54, 0x7f, 0x20, 0x85, 0x54, 0x00, 0x00, 0x95, 0x3c, 0x7f, 0x20,
  0x85, 0x3c, 0x00, 0x00, 0x95, 0x3f, 0x7f, 0x20, 0x85, 0x3f, 0x00, 0x00,
  0x95, 0x43, 0x7f, 0x20, 0x85, 0x43, 0x00, 0x00, 0x95, 0x48, 0x7f, 0x20,
  0x85, 0x48, 0x00, 0x00, 0x95, 0x4b, 0x7f, 0x06, 0xb5, 0x01, 0x01, 0x1a,
  0x85, 0x4b, 0x00, 0x00, 0x95, 0x4f, 0x7f, 0x20, 0x85, 0x4f, 0x00, 0x00,
  0xb5, 0x01, 0x00, 0x00, 0x95, 0x54, 0x7f, 0x20, 0x85, 0x54, 0x00, 0x00,
  0x95, 0x4f, 0x7f, 0x06, 0xb5, 0x01, 0x01, 0x1a, 0x85, 0x4f, 0x00, 0x00,
  0x95, 0x4b, 0x7f, 0x20, 0x85, 0x4b, 0x00, 0x00, 0xb5, 0x01, 0x00, 0x00,
  0x95, 0x48, 0x7f, 0x20, 0x85, 0x48, 0x00, 0x00, 0x95, 0x43, 0x7f, 0x06,
  0xb5, 0x01, 0x01, 0x1a, 0x85, 0x43, 0x00, 0x00, 0x95, 0x3f, 0x7f, 0x20,
  0x85, 0x3f, 0x00, 0x00, 0xb5, 0x01, 0x00, 0x00, 0x95, 0x3c, 0x7f, 0x20,
  0x85, 0x3c, 0x00, 0x00, 0x95, 0x3f, 0x7f, 0x06, 0xb5, 0x01, 0x01, 0x1a,
  0x85, 0x3f, 0x00, 0x00, 0x95, 0x43, 0x7f, 0x20, 0x85, 0x43, 0x00, 0x00,
  0xb5, 0x01, 0x00, 0x00, 0x95, 0x48, 0x7f, 0x20, 0x85, 0x48, 0x00, 0x00,
  0x95, 0x4b, 0x7f, 0x06, 0xb5, 0x01, 0x01, 0x1a, 0x85, 0x4b, 0x00, 0x00,
  0x95, 0x4f, 0x7f, 0x08, 0xb5, 0x01, 0x00, 0x18, 0x85, 0x4f, 0x00, 0x00,
  0x95, 0x54, 0x7f, 0x0e, 0xb5, 0x01, 0x01, 0x12, 0x85, 0x54, 0x00, 0x00,
  0x95, 0x4f, 0x7f, 0x20, 0x85, 0x4f, 0x00, 0x00, 0x95, 0x4b, 0x7f, 0x08,
  0xb5, 0x01, 0x00, 0x18, 0x85, 0x4b, 0x00, 0x00, 0x95, 0x48, 0x7f, 0x0e,
  0xb5, 0x01, 0x01, 0x12, 0x85, 0x48, 0x00, 0x00, 0x95, 0x43, 0x7f, 0x20,
  0x85, 0x43, 0x00, 0x00, 0x95, 0x3f, 0x7f, 0x20, 0x85, 0x3f, 0x00, 0x00,
  0x95, 0x3a, 0x7f, 0x20, 0x85, 0x3a, 0x00, 0x00, 0x95, 0x3e, 0x7f, 0x20,
  0x85, 0x3e, 0x00, 0x00, 0x95, 0x41, 0x7f, 0x20, 0x85, 0x41, 0x00, 0x00,
  0xb5, 0x01, 0x00, 0x00, 0x95, 0x46, 0x7f, 0x20, 0x85, 0x46, 0x00, 0x00,
  0x95, 0x4a, 0x7f, 0x06, 0xb5, 0x01, 0x01, 0x1a, 0x85, 0x4a, 0x00, 0x00,
  0x95, 0x4d, 0x7f, 0x20, 0x85, 0x4d, 0x00, 0x00, 0xb5, 0x01, 0x00, 0x00,
  0x95, 0x52, 0x7f, 0x20, 0x85, 0x52, 0x00, 0x00, 0x95, 0x4d, 0x7f, 0x06,
  0xb5, 0x01, 0x01, 0x1a, 0x85, 0x4d, 0x00, 0x00, 0x95, 0x4a, 0x7f, 0x20,
  0x85, 0x4a, 0x00, 0x00, 0xb5, 0x01, 0x00, 0x00, 0x95, 0x46, 0x7f, 0x20,
  0x85, 0x46, 0x00, 0x00, 0x95, 0x41, 0x7f, 0x06, 0xb5, 0x01, 0x01, 0x1a,
  0x85, 0x41, 0x00, 0x00, 0x95, 0x3e, 0x7f, 0x20, 0x85, 0x3e, 0x00, 0x00,
  0xb5, 0x01, 0x00, 0x00, 0x95, 0x3a, 0x7f, 0x20, 0x85, 0x3a, 0x00, 0x00,
  0x95, 0x3c, 0x7f, 0x06, 0xb5, 0x01, 0x01, 0x1a, 0x85, 0x3c, 0x00, 0x00,
  0x95, 0x41, 0x7f, 0x20, 0x85, 0x41, 0x00, 0x00, 0x95, 0x46, 0x7f, 0x20,
  0x85, 0x46, 0x00, 0x00, 0x95, 0x48, 0x7f, 0x20, 0x85, 0x48, 0x00, 0x00,
  0x95, 0x4d, 0x7f, 0x20, 0x85, 0x4d, 0x00, 0x00, 0xb5, 0x01, 0x00, 0x00,
  0x95, 0x52, 0x7f, 0x20, 0x85, 0x52, 0x00, 0x00, 0x95, 0x4d, 0x7f, 0x06,
  0xb5, 0x01, 0x01, 0x1a, 0x85, 0x4d, 0x00, 0x00, 0x95, 0x48, 0x7f, 0x20,
  0x85, 0x48, 0x00, 0x00, 0x95, 0x46, 0x7f, 0x20, 0x85, 0x46, 0x00, 0x00,
  0x95, 0x41, 0x7f, 0x20, 0x85, 0x41, 0x00, 0x00, 0x95, 0x3c, 0x7f, 0x20,
  0x85, 0x3c, 0x00, 0x00, 0x95, 0x37, 0x7f, 0x20, 0x85, 0x37, 0x00, 0x00,
  0x95, 0x3a, 0x7f, 0x20, 0x85, 0x3a, 0x00, 0x00, 0x95, 0x3f, 0x7f, 0x20,
  0x85, 0x3f, 0x00, 0x00, 0xb5, 0x01, 0x00, 0x00, 0x95, 0x43, 0x7f, 0x20,
  0x85, 0x43, 0x00, 0x00, 0x95, 0x46, 0x7f, 0x06, 0xb5, 0x01, 0x01, 0x1a,
  0x85, 0x46, 0x00, 0x00, 0x95, 0x4b, 0x7f, 0x20, 0x85, 0x4b, 0x00, 0x00,
  0xb5, 0x01, 0x00, 0x00, 0x95, 0x4f, 0x7f, 0x20, 0x85, 0x4f, 0x00, 0x00,
  0x95, 0x4b, 0x7f, 0x06, 0xb5, 0x01, 0x01, 0x1a, 0x85, 0x4b, 0x00, 0x00,
  0x95, 0x46, 0x7f, 0x20, 0x85, 0x46, 0x00, 0x00, 0xb5, 0x01, 0x00, 0x00,
  0x95, 0x43, 0x7f, 0x20, 0x85, 0x43, 0x00, 0x00, 0x95, 0x3f, 0x7f, 0x06,
  0xb5, 0x01, 0x01, 0x1a, 0x85, 0x3f, 0x00, 0x00, 0x95, 0x3a, 0x7f, 0x20,
  0x85, 0x3a, 0x00, 0x00, 0xb5, 0x01, 0x00, 0x00, 0x95, 0x35, 0x7f, 0x20,
  0x85, 0x35, 0x00, 0x00, 0x95, 0x38, 0x7f, 0x06, 0xb5, 0x01, 0x01, 0x1a,
  0x85, 0x38, 0x00, 0x00, 0x95, 0x3c, 0x7f, 0x20, 0x85, 0x3c, 0x00, 0x00,
  0x95, 0x41, 0x7f, 0x20, 0x85, 0x41, 0x00, 0x00, 0x95, 0x44, 0x7f, 0x10,
  0xb5, 0x01, 0x00, 0x10, 0x85, 0x44, 0x00, 0x00, 0x95, 0x48, 0x7f, 0x16,
  0xb5, 0x01, 0x01, 0x0a, 0x85, 0x48, 0x00, 0x00, 0x95, 0x4d, 0x7f, 0x20,
  0x85, 0x4d, 0x00, 0x00, 0x95, 0x48, 0x7f, 0x20, 0x85, 0x48, 0x00, 0x00,
  0x95, 0x44, 0x7f, 0x20, 0x85, 0x44, 0x00, 0x00, 0xb5, 0x01, 0x00, 0x00,
  0x95, 0x41, 0x7f, 0x20, 0x85, 0x41, 0x00, 0x00, 0x95, 0x3b, 0x7f, 0x06,
  0xb5, 0x01, 0x01, 0x1a, 0x85, 0x3b, 0x00, 0x00, 0x95, 0x38, 0x7f, 0x20,
  0x85, 0x38, 0x00, 0x00, 0xb5, 0x01, 0x00, 0x00, 0x95, 0x35, 0x7f, 0x20,
  0x85, 0x35, 0x00, 0x00, 0x95, 0x37, 0x7f, 0x06, 0xb5, 0x01, 0x01, 0x1a,
  0x85, 0x37, 0x00, 0x00, 0x95, 0x3c, 0x7f, 0x20, 0x85, 0x3c, 0x00, 0x00,
  0xb5, 0x01, 0x00, 0x00, 0x95, 0x41, 0x7f, 0x20, 0x85, 0x41, 0x00, 0x00,
  0x95, 0x43, 0x7f, 0x06, 0xb5, 0x01, 0x01, 0x1a, 0x85, 0x43, 0x00, 0x00,
  0x95, 0x48, 0x7f, 0x20, 0x85, 0x48, 0x00, 0x00, 0xb5, 0x01, 0x00, 0x00,
  0x95, 0x4d, 0x7f, 0x20, 0x85, 0x4d, 0x00, 0x00, 0x95, 0x48, 0x7f, 0x06,
  0xb5, 0x01, 0x01, 0x1a, 0x85, 0x48, 0x00, 0x00, 0x95, 0x43, 0x7f, 0x20,
  0x85, 0x43, 0x00, 0x00, 0xb5, 0x01, 0x00, 0x00, 0x95, 0x41, 0x7f, 0x20,
  0x85, 0x41, 0x00, 0x00, 0x95, 0x3c, 0x7f, 0x06, 0xb5, 0x01, 0x01, 0x1a,
  0x85, 0x3c, 0x00, 0x00, 0x95, 0x37, 0x7f, 0x20, 0x85, 0x37, 0x00, 0x00,
  0xb5, 0x01, 0x00, 0x00, 0x95, 0x37, 0x7f, 0x20, 0x85, 0x37, 0x00, 0x00,
  0x95, 0x3c, 0x7f, 0x20, 0x85, 0x3c, 0x00, 0x00, 0x95, 0x40, 0x7f, 0x20,
  0x85, 0x40, 0x00, 0x00, 0x95, 0x43, 0x7f, 0x20, 0x85, 0x43, 0x00, 0x00,
  0x95, 0x48, 0x7f, 0x20, 0x85, 0x48, 0x00, 0x00, 0x95, 0x4c, 0x7f, 0x20,
  0x85, 0x4c, 0x00, 0x00, 0x95, 0x42, 0x7f, 0x20, 0x85, 0x42, 0x00, 0x00,
  0x95, 0x46, 0x7f, 0x20, 0x85, 0x46, 0x00, 0x00, 0x95, 0x49, 0x7f, 0x20,
  0x85, 0x49, 0x00, 0x00, 0x95, 0x4e, 0x7f, 0x20, 0x85, 0x4e, 0x00, 0x00,
  0x95, 0x52, 0x7f, 0x20, 0x85, 0x52, 0x00, 0x00, 0x95, 0x55, 0x7f, 0x20,
  0x85, 0x55, 0x00, 0x26, 0xb5, 0x01, 0x01, 0x3a, 0xb5, 0x01, 0x00, 0x26,
  0xb5, 0x01, 0x01, 0x3a, 0xb5, 0x01, 0x00, 0x26, 0xb5, 0x01, 0x01, 0x3a,
  0xb5, 0x01, 0x00, 0x26, 0xb5, 0x01, 0x01, 0x3a, 0xb5, 0x01, 0x00, 0x26,
  0xb5, 0x01, 0x01, 0x3a, 0xb5, 0x01, 0x00, 0x26, 0xb5, 0x01, 0x01, 0x22,
  0xb5, 0x01, 0x00, 0x26, 0xb5, 0x01, 0x01, 0x3a, 0xb5, 0x01, 0x00, 0x26,
  0xb5, 0x01, 0x01, 0x81, 0x32, 0xb5, 0x01, 0x00, 0x26, 0xb5, 0x01, 0x01,
  0x3a, 0xb5, 0x01, 0x00, 0x26, 0xb5, 0x01, 0x01, 0x3a, 0xb5, 0x01, 0x00,
  0x26, 0xb5, 0x01, 0x01, 0x3a, 0xb5, 0x01, 0x00, 0x26, 0xb5, 0x01, 0x01,
  0x81, 0x1a, 0xb5, 0x01, 0x00, 0x26, 0xb5, 0x01, 0x01, 0x81, 0x1a, 0xb5,
  0x01, 0x00, 0x26, 0xb5, 0x01, 0x01, 0x81, 0x7a, 0xb5, 0x01, 0x00, 0x26,
  0xb5, 0x01, 0x01, 0x22, 0xb5, 0x01, 0x00, 0x26, 0xb5, 0x01, 0x01, 0x82,
  0x72, 0xb5, 0x01, 0x00, 0x26, 0xb5, 0x01, 0x01, 0x81, 0x7a, 0xb5, 0x01,
  0x00, 0x26, 0xb5, 0x01, 0x01, 0x22, 0xb5, 0x01, 0x00, 0x26, 0xb5, 0x01,
  0x01, 0xa0, 0x72, 0xb5, 0x01, 0x00, 0x26, 0xb5, 0x01, 0x01, 0x81, 0x1a,
  0xb5, 0x01, 0x00, 0x26, 0xb5, 0x01, 0x01, 0x81, 0x1a, 0xb5, 0x01, 0x00,
  0x26, 0xb5, 0x01, 0x01, 0x3a, 0xb5, 0x01, 0x00, 0x26, 0xb5, 0x01, 0x01,
  0x9c, 0x3a, 0xb5, 0x65, 0x00, 0x00, 0xb5, 0x64, 0x00, 0x00, 0xb5, 0x06,
  0x0c, 0x00, 0xb5, 0x0a, 0x40, 0x00, 0xb5, 0x07, 0x3a, 0x00, 0xe5, 0x0d,
  0x40, 0x00, 0xc5, 0x0b, 0x00, 0xb5, 0x01, 0x01, 0x01, 0xb5, 0x65, 0x00,
  0x00, 0xb5, 0x64, 0x00, 0x00, 0xb5, 0x06, 0x0c, 0x00, 0xb5, 0x0a, 0x40,
  0x00, 0xb5, 0x07, 0x3a, 0x00, 0xe5, 0x0d, 0x40, 0x00, 0xc5, 0x0b, 0x00,
  0xb5, 0x01, 0x01, 0x00, 0xb5, 0x65, 0x00, 0x00, 0xb5, 0x64, 0x00, 0x00,
  0xb5, 0x06, 0x0c, 0x00, 0xb5, 0x0a, 0x40, 0x00, 0xb5, 0x07, 0x3a, 0x00,
  0xe5, 0x0d, 0x40, 0x00, 0xc5, 0x0b, 0x00, 0xb5, 0x01, 0x01, 0x00, 0xff,
  0x2f, 0x00, 0x4d, 0x54, 0x72, 0x6b, 0x00, 0x00, 0x1c, 0x39, 0x00, 0xff,
  0x03, 0x06, 0x43, 0x68, 0x6f, 0x72, 0x64, 0x73, 0x00, 0xb6, 0x0a, 0x40,
  0x00, 0xb6, 0x07, 0x4f, 0x00, 0xe6, 0x06, 0x40, 0x00, 0xb6, 0x65, 0x00,
  0x00, 0xb6, 0x64, 0x00, 0x00, 0xb6, 0x06, 0x0c, 0x00, 0xb6, 0x0a, 0x40,
  0x00, 0xb6, 0x07, 0x4f, 0x00, 0xe6, 0x06, 0x40, 0x00, 0xc6, 0x0a, 0x00,
  0xb6, 0x01, 0x26, 0x00, 0xb6, 0x65, 0x00, 0x00, 0xb6, 0x64, 0x00, 0x00,
  0xb6, 0x06, 0x0c, 0x00, 0xb6, 0x0a, 0x40, 0x00, 0xb6, 0x07, 0x4f, 0x00,
  0xe6, 0x06, 0x40, 0x00, 0xc6, 0x0a, 0x00, 0xb6, 0x01, 0x26, 0x00, 0xe6,
  0x06, 0x40, 0x00, 0xb6, 0x0a, 0x40, 0x00, 0xb6, 0x65, 0x00, 0x00, 0xb6,
  0x64, 0x00, 0x00, 0xb6, 0x06, 0x0c, 0x00, 0xb6, 0x0a, 0x40, 0x00, 0xb6,
  0x07, 0x4f, 0x00, 0xe6, 0x06, 0x40, 0x00, 0xc6, 0x0a, 0x00, 0xb6, 0x01,
  0x26, 0x00, 0xe6, 0x06, 0x40, 0x00, 0xb6, 0x0a, 0x40, 0x00, 0x96, 0x40,
  0x68, 0x00, 0x96, 0x3b, 0x68, 0x30, 0x86, 0x40, 0x00, 0x00, 0x86, 0x3b,
  0x00, 0x30, 0x96, 0x3b, 0x68, 0x00, 0x96, 0x40, 0x68, 0x30, 0x86, 0x3b,
  0x00, 0x00, 0x86, 0x40, 0x00, 0x30, 0x96, 0x3b, 0x68, 0x00, 0x96, 0x40,
  0x68, 0x30, 0x86, 0x3b, 0x00, 0x00, 0x86, 0x40, 0x00, 0x30, 0x96, 0x3b,
  0x68, 0x00, 0x96, 0x40, 0x68, 0x30, 0x86, 0x3b, 0x00, 0x00, 0x86, 0x40,
  0x00, 0x30, 0x96, 0x3e, 0x68, 0x00, 0x96, 0x40, 0x68, 0x30, 0x86, 0x40,
  0x00, 0x00, 0x86, 0x3e, 0x00, 0x30, 0x96, 0x40, 0x68, 0x00, 0x96, 0x3c,
  0x68, 0x30, 0x86, 0x40, 0x00, 0x00, 0x86, 0x3c, 0x00, 0x30, 0x96, 0x40,
  0x68, 0x00, 0x96, 0x3c, 0x68, 0x30, 0x86, 0x40, 0x00, 0x00, 0x86, 0x3c,
  0x00, 0x30, 0x96, 0x40, 0x68, 0x00, 0x96, 0x3c, 0x68, 0x30, 0x86, 0x3c,
  0x00, 0x00, 0x86, 0x40, 0x00, 0x30, 0x96, 0x41, 0x68, 0x00, 0x96, 0x3c,
  0x68, 0x30, 0x86, 0x3c, 0x00, 0x00, 0x86, 0x41, 0x00, 0x30, 0x96, 0x3c,
  0x68, 0x00, 0x96, 0x41, 0x68, 0x30, 0x86, 0x3c, 0x00, 0x00, 0x86, 0x41,
  0x00, 0x30, 0x96, 0x41, 0x68, 0x00, 0x96, 0x3c, 0x68, 0x30, 0x86, 0x3c,
  0x00, 0x00, 0x86, 0x41, 0x00, 0x30, 0x96, 0x41, 0x68, 0x00, 0x96, 0x3c,
  0x68, 0x30, 0x86, 0x3c, 0x00, 0x00, 0x86, 0x41, 0x00, 0x30, 0x96, 0x3c,
  0x68, 0x00, 0x96, 0x41, 0x68, 0x30, 0x86, 0x41, 0x00, 0x00, 0x86, 0x3c,
  0x00, 0x30, 0x96, 0x3f, 0x68, 0x00, 0x96, 0x3c, 0x68, 0x30, 0x86, 0x3f,
  0x00, 0x00, 0x86, 0x3c, 0x00, 0x30, 0x96, 0x3c, 0x68, 0x00, 0x96, 0x3f,
  0x68, 0x30, 0x86, 0x3c, 0x00, 0x00, 0x86, 0x3f, 0x00, 0x30, 0x96, 0x3b,
  0x68, 0x00, 0x96, 0x41, 0x68, 0x30, 0x86, 0x41, 0x00, 0x00, 0x86, 0x3b,
  0x00, 0x30, 0x96, 0x40, 0x68, 0x00, 0x96, 0x3b, 0x68, 0x30, 0x86, 0x3b,
  0x00, 0x00, 0x86, 0x40, 0x00, 0x30, 0x96, 0x3b, 0x68, 0x00, 0x96, 0x40,
  0x68, 0x30, 0x86, 0x3b, 0x00, 0x00, 0x86, 0x40, 0x00, 0x30, 0x96, 0x3b,
  0x68, 0x00, 0x96, 0x40, 0x68, 0x30, 0x86, 0x3b, 0x00, 0x00, 0x86, 0x40,
  0x00, 0x30, 0x96, 0x40, 0x68, 0x00, 0x96, 0x3e, 0x68, 0x30, 0x86, 0x3e,
  0x00, 0x00, 0x86, 0x40, 0x00, 0x30, 0x96, 0x40, 0x68, 0x00, 0x96, 0x3c,
  0x68, 0x30, 0x86, 0x3c, 0x00, 0x00, 0x86, 0x40, 0x00, 0x30, 0x96, 0x40,
  0x68, 0x00, 0x96, 0x3c, 0x68, 0x30, 0x86, 0x40, 0x00, 0x00, 0x86, 0x3c,
  0x00, 0x30, 0x96, 0x40, 0x68, 0x00, 0x96, 0x3c, 0x68, 0x30, 0x86, 0x3c,
  0x00, 0x00, 0x86, 0x40, 0x00, 0x30, 0x96, 0x40, 0x68, 0x00, 0x96, 0x3c,
  0x68, 0x30, 0x86, 0x40, 0x00, 0x00, 0x86, 0x3c, 0x00, 0x30, 0x96, 0x3c,
  0x68, 0x00, 0x96, 0x41, 0x68, 0x30, 0x86, 0x41, 0x00, 0x00, 0x86, 0x3c,
  0x00, 0x30, 0x96, 0x41, 0x68, 0x00, 0x96, 0x3c, 0x68, 0x30, 0x86, 0x3c,
  0x00, 0x00, 0x86, 0x41, 0x00, 0x30, 0x96, 0x3c, 0x68, 0x00, 0x96, 0x41,
  0x68, 0x30, 0x86, 0x3c, 0x00, 0x00, 0x86, 0x41, 0x00, 0x30, 0x96, 0x41,
  0x68, 0x00, 0x96, 0x3c, 0x68, 0x30, 0x86, 0x41, 0x00, 0x00, 0x86, 0x3c,
  0x00, 0x30, 0x96, 0x41, 0x68, 0x00, 0x96, 0x3c, 0x68, 0x30, 0x86, 0x3c,
  0x00, 0x00, 0x86, 0x41, 0x00, 0x30, 0x96, 0x3f, 0x68, 0x00, 0x96, 0x3c,
  0x68, 0x30, 0x86, 0x3f, 0x00, 0x00, 0x86, 0x3c, 0x00, 0x30, 0x96, 0x3f,
  0x68, 0x00, 0x96, 0x3c, 0x68, 0x30, 0x86, 0x3c, 0x00, 0x00, 0x86, 0x3f,
  0x00, 0x30, 0x96, 0x3b, 0x68, 0x00, 0x96, 0x41, 0x68, 0x30, 0x86, 0x41,
  0x00, 0x00, 0x86, 0x3b, 0x00, 0x30, 0x96, 0x40, 0x68, 0x00, 0x96, 0x3b,
  0x68, 0x30, 0x86, 0x3b, 0x00, 0x00, 0x86, 0x40, 0x00, 0x30, 0x96, 0x3b,
  0x68, 0x00, 0x96, 0x40, 0x68, 0x30, 0x86, 0x3b, 0x00, 0x00, 0x86, 0x40,
  0x00, 0x30, 0x96, 0x3b, 0x68, 0x00, 0x96, 0x40, 0x68, 0x30, 0x86, 0x3b,
  0x00, 0x00, 0x86, 0x40, 0x00, 0x30, 0x96, 0x3e, 0x68, 0x00, 0x96, 0x40,
  0x68, 0x30, 0x86, 0x3e, 0x00, 0x00, 0x86, 0x40, 0x00, 0x30, 0x96, 0x3c,
  0x68, 0x00, 0x96, 0x40, 0x68, 0x30, 0x86, 0x40, 0x00, 0x00, 0x86, 0x3c,
  0x00, 0x30, 0x96, 0x40, 0x68, 0x00, 0x96, 0x3c, 0x68, 0x30, 0x86, 0x40,
  0x00, 0x00, 0x86, 0x3c, 0x00, 0x30, 0x96, 0x40, 0x68, 0x00, 0x96, 0x3c,
  0x68, 0x30, 0x86, 0x40, 0x00, 0x00, 0x86, 0x3c, 0x00, 0x30, 0x96, 0x40,
  0x68, 0x00, 0x96, 0x3c, 0x68, 0x30, 0x86, 0x3c, 0x00, 0x00, 0x86, 0x40,
  0x00, 0x30, 0x96, 0x41, 0x68, 0x00, 0x96, 0x3c, 0x68, 0x30, 0x86, 0x3c,
  0x00, 0x00, 0x86, 0x41, 0x00, 0x30, 0x96, 0x3c, 0x68, 0x00, 0x96, 0x41,
  0x68, 0x30, 0x86, 0x3c, 0x00, 0x00, 0x86, 0x41, 0x00, 0x30, 0x96, 0x41,
  0x68, 0x00, 0x96, 0x3c, 0x68, 0x30, 0x86, 0x3c, 0x00, 0x00, 0x86, 0x41,
  0x00, 0x30, 0x96, 0x41, 0x68, 0x00, 0x96, 0x3c, 0x68, 0x30, 0x86, 0x3c,
  0x00, 0x00, 0x86, 0x41, 0x00, 0x30, 0x96, 0x3c, 0x68, 0x00, 0x96, 0x41,
  0x68, 0x30, 0x86, 0x41, 0x00, 0x00, 0x86, 0x3c, 0x00, 0x30, 0x96, 0x3f,
  0x68, 0x00, 0x96, 0x3c, 0x68, 0x30, 0x86, 0x3c, 0x00, 0x00, 0x86, 0x3f,
  0x00, 0x30, 0x96, 0x3c, 0x68, 0x00, 0x96, 0x3f, 0x68, 0x30, 0x86, 0x3c,
  0x00, 0x00, 0x86, 0x3f, 0x00, 0x30, 0x96, 0x3b, 0x68, 0x00, 0x96, 0x41,
  0x68, 0x30, 0x86, 0x41, 0x00, 0x00, 0x86, 0x3b, 0x00, 0x30, 0x96, 0x40,
  0x68, 0x00, 0x96, 0x3b, 0x68, 0x30, 0x86, 0x3b, 0x00, 0x00, 0x86, 0x40,
  0x00, 0x30, 0x96, 0x3b, 0x68, 0x00, 0x96, 0x40, 0x68, 0x30, 0x86, 0x3b,
  0x00, 0x00, 0x86, 0x40, 0x00, 0x30, 0x96, 0x3b, 0x68, 0x00, 0x96, 0x40,
  0x68, 0x30, 0x86, 0x3b, 0x00, 0x00, 0x86, 0x40, 0x00, 0x30, 0x96, 0x40,
  0x68, 0x00, 0x96, 0x3e, 0x68, 0x30, 0x86, 0x3e, 0x00, 0x00, 0x86, 0x40,
  0x00, 0x30, 0x96, 0x40, 0x68, 0x00, 0x96, 0x3c, 0x68, 0x30, 0x86, 0x3c,
  0x00, 0x00, 0x86, 0x40, 0x00, 0x30, 0x96, 0x40, 0x68, 0x00, 0x96, 0x3c,
  0x68, 0x30, 0x86, 0x3c, 0x00, 0x00, 0x86, 0x40, 0x00, 0x30, 0x96, 0x40,
  0x68, 0x00, 0x96, 0x3c, 0x68, 0x30, 0x86, 0x3c, 0x00, 0x00, 0x86, 0x40,
  0x00, 0x30, 0x96, 0x40, 0x68, 0x00, 0x96, 0x3c, 0x68, 0x30, 0x86, 0x3c,
  0x00, 0x00, 0x86, 0x40, 0x00, 0x30, 0x96, 0x3c, 0x68, 0x00, 0x96, 0x41,
  0x68, 0x30, 0x86, 0x41, 0x00, 0x00, 0x86, 0x3c, 0x00, 0x30, 0x96, 0x41,
  0x68, 0x00, 0x96, 0x3c, 0x68, 0x30, 0x86, 0x3c, 0x00, 0x00, 0x86, 0x41,
  0x00, 0x30, 0x96, 0x3c, 0x68, 0x00, 0x96, 0x41, 0x68, 0x30, 0x86, 0x3c,
  0x00, 0x00, 0x86, 0x41, 0x00, 0x30, 0x96, 0x41, 0x68, 0x00, 0x96, 0x3c,
  0x68, 0x30, 0x86, 0x41, 0x00, 0x00, 0x86, 0x3c, 0x00, 0x30, 0x96, 0x41,
  0x68, 0x00, 0x96, 0x3c, 0x68, 0x30, 0x86, 0x3c, 0x00, 0x00, 0x86, 0x41,
  0x00, 0x30, 0x96, 0x3f, 0x68, 0x00, 0x96, 0x3c, 0x68, 0x30, 0x86, 0x3c,
  0x00, 0x00, 0x86, 0x3f, 0x00, 0x30, 0x96, 0x3c, 0x68, 0x00, 0x96, 0x3f,
  0x68, 0x30, 0x86, 0x3f, 0x00, 0x00, 0x86, 0x3c, 0x00, 0x30, 0x96, 0x41,
  0x68, 0x00, 0x96, 0x33, 0x68, 0x30, 0x86, 0x33, 0x00, 0x00, 0x86, 0x41,
  0x00, 0x30, 0x96, 0x41, 0x68, 0x00, 0x96, 0x33, 0x68, 0x30, 0x86, 0x33,
  0x00, 0x00, 0x86, 0x41, 0x00, 0x30, 0x96, 0x33, 0x68, 0x00, 0x96, 0x41,
  0x68, 0x30, 0x86, 0x33, 0x00, 0x00, 0x86, 0x41, 0x00, 0x30, 0x96, 0x33,
  0x68, 0x00, 0x96, 0x41, 0x68, 0x30, 0x86, 0x33, 0x00, 0x00, 0x86, 0x41,
  0x00, 0x30, 0x96, 0x41, 0x68, 0x00, 0x96, 0x33, 0x68, 0x30, 0x86, 0x41,
  0x00, 0x00, 0x86, 0x33, 0x00, 0x30, 0x96, 0x41, 0x68, 0x00, 0x96, 0x33,
  0x68, 0x30, 0x86, 0x41, 0x00, 0x00, 0x86, 0x33, 0x00, 0x30, 0x96, 0x33,
  0x68, 0x00, 0x96, 0x41, 0x68, 0x30, 0x86, 0x33, 0x00, 0x00, 0x86, 0x41,
  0x00, 0x30, 0x96, 0x41, 0x68, 0x00, 0x96, 0x33, 0x68, 0x30, 0x86, 0x33,
  0x00, 0x00, 0x86, 0x41, 0x00, 0x30, 0x96, 0x33, 0x68, 0x00, 0x96, 0x41,
  0x68, 0x30, 0x86, 0x41, 0x00, 0x00, 0x86, 0x33, 0x00, 0x30, 0x96, 0x41,
  0x68, 0x00, 0x96, 0x33, 0x68, 0x30, 0x86, 0x33, 0x00, 0x00, 0x86, 0x41,
  0x00, 0x30, 0x96, 0x33, 0x68, 0x00, 0x96, 0x41, 0x68, 0x30, 0x86, 0x33,
  0x00, 0x00, 0x86, 0x41, 0x00, 0x30, 0x96, 0x33, 0x68, 0x00, 0x96, 0x41,
  0x68, 0x30, 0x86, 0x33, 0x00, 0x00, 0x86, 0x41, 0x00, 0x30, 0x96, 0x41,
  0x68, 0x00, 0x96, 0x33, 0x68, 0x30, 0x86, 0x41, 0x00, 0x00, 0x86, 0x33,
  0x00, 0x30, 0x96, 0x41, 0x68, 0x00, 0x96, 0x33, 0x68, 0x30, 0x86, 0x41,
  0x00, 0x00, 0x86, 0x33, 0x00, 0x30, 0x96, 0x33, 0x68, 0x00, 0x96, 0x41,
  0x68, 0x30, 0x86, 0x33, 0x00, 0x00, 0x86, 0x41, 0x00, 0x30, 0x96, 0x30,
  0x68, 0x00, 0x96, 0x3f, 0x68, 0x30, 0x86, 0x3f, 0x00, 0x00, 0x86, 0x30,
  0x00, 0x30, 0x96, 0x30, 0x68, 0x00, 0x96, 0x3e, 0x68, 0x30, 0x86, 0x3e,
  0x00, 0x00, 0x86, 0x30, 0x00, 0x30, 0x96, 0x3e, 0x68, 0x00, 0x96, 0x30,
  0x68, 0x30, 0x86, 0x3e, 0x00, 0x00, 0x86, 0x30, 0x00, 0x30, 0x96, 0x30,
  0x68, 0x00, 0x96, 0x3e, 0x68, 0x30, 0x86, 0x30, 0x00, 0x00, 0x86, 0x3e,
  0x00, 0x30, 0x96, 0x3e, 0x68, 0x00, 0x96, 0x30, 0x68, 0x30, 0x86, 0x3e,
  0x00, 0x00, 0x86, 0x30, 0x00, 0x30, 0x96, 0x30, 0x68, 0x00, 0x96, 0x3e,
  0x68, 0x30, 0x86, 0x3e, 0x00, 0x00, 0x86, 0x30, 0x00, 0x30, 0x96, 0x3e,
  0x68, 0x00, 0x96, 0x30, 0x68, 0x30, 0x86, 0x30, 0x00, 0x00, 0x86, 0x3e,
  0x00, 0x30, 0x96, 0x30, 0x68, 0x00, 0x96, 0x3e, 0x68, 0x30, 0x86, 0x30,
  0x00, 0x00, 0x86, 0x3e, 0x00, 0x30, 0x96, 0x3e, 0x68, 0x00, 0x96, 0x30,
  0x68, 0x30, 0x86, 0x30, 0x00, 0x00, 0x86, 0x3e, 0x00, 0x30, 0x96, 0x30,
  0x68, 0x00, 0x96, 0x3f, 0x68, 0x30, 0x86, 0x30, 0x00, 0x00, 0x86, 0x3f,
  0x00, 0x30, 0x96, 0x3f, 0x68, 0x00, 0x96, 0x2b, 0x68, 0x30, 0x86, 0x2b,
  0x00, 0x00, 0x86, 0x3f, 0x00, 0x30, 0x96, 0x2b, 0x68, 0x00, 0x96, 0x3f,
  0x68, 0x30, 0x86, 0x2b, 0x00, 0x00, 0x86, 0x3f, 0x00, 0x30, 0x96, 0x2b,
  0x68, 0x00, 0x96, 0x3f, 0x68, 0x30, 0x86, 0x3f, 0x00, 0x00, 0x86, 0x2b,
  0x00, 0x30, 0x96, 0x3f, 0x68, 0x00, 0x96, 0x2b, 0x68, 0x30, 0x86, 0x2b,
  0x00, 0x00, 0x86, 0x3f, 0x00, 0x30, 0x96, 0x2b, 0x68, 0x00, 0x96, 0x3f,
  0x68, 0x30, 0x86, 0x3f, 0x00, 0x00, 0x86, 0x2b, 0x00, 0x30, 0x96, 0x3f,
  0x68, 0x00, 0x96, 0x2b, 0x68, 0x30, 0x86, 0x2b, 0x00, 0x00, 0x86, 0x3f,
  0x00, 0x30, 0x96, 0x3f, 0x68, 0x00, 0x96, 0x2b, 0x68, 0x30, 0x86, 0x2b,
  0x00, 0x00, 0x86, 0x3f, 0x00, 0x30, 0x96, 0x3f, 0x68, 0x00, 0x96, 0x2b,
  0x68, 0x30, 0x86, 0x2b, 0x00, 0x00, 0x86, 0x3f, 0x00, 0x30, 0x96, 0x4b,
  0x68, 0x00, 0x96, 0x3c, 0x68, 0x83, 0x00, 0x86, 0x3c, 0x00, 0x00, 0x86,
  0x4b, 0x00, 0x00, 0x96, 0x3c, 0x68, 0x00, 0x96, 0x4b, 0x68, 0x83, 0x00,
  0x86, 0x3c, 0x00, 0x00, 0x86, 0x4b, 0x00, 0x00, 0x96, 0x4a, 0x68, 0x00,
  0x96, 0x3a, 0x68, 0x83, 0x00, 0x86, 0x3a, 0x00, 0x00, 0x86, 0x4a, 0x00,
  0x00, 0x96, 0x3a, 0x68, 0x00, 0x96, 0x48, 0x68, 0x81, 0x40, 0x86, 0x3a,
  0x00, 0x00, 0x86, 0x48, 0x00, 0x00, 0x96, 0x35, 0x68, 0x00, 0x96, 0x46,
  0x68, 0x81, 0x40, 0x86, 0x35, 0x00, 0x00, 0x86, 0x46, 0x00, 0x00, 0x96,
  0x46, 0x68, 0x00, 0x96, 0x37, 0x68, 0x83, 0x00, 0x86, 0x37, 0x00, 0x00,
  0x86, 0x46, 0x00, 0x00, 0x96, 0x35, 0x68, 0x00, 0x96, 0x44, 0x68, 0x83,
  0x00, 0x86, 0x35, 0x00, 0x00, 0x86, 0x44, 0x00, 0x00, 0x96, 0x33, 0x68,
  0x00, 0x96, 0x43, 0x68, 0x83, 0x00, 0x86, 0x43, 0x00, 0x00, 0x86, 0x33,
  0x00, 0x00, 0x96, 0x30, 0x68, 0x00, 0x96, 0x43, 0x68, 0x81, 0x40, 0x86,
  0x43, 0x00, 0x00, 0x86, 0x30, 0x00, 0x00, 0x96, 0x31, 0x68, 0x00, 0x96,
  0x42, 0x68, 0x81, 0x40, 0x86, 0x42, 0x00, 0x00, 0x86, 0x31, 0x00, 0x00,
  0x96, 0x41, 0x68, 0x00, 0x96, 0x33, 0x68, 0x30, 0x86, 0x33, 0x00, 0x00,
  0x86, 0x41, 0x00, 0x30, 0x96, 0x41, 0x68, 0x00, 0x96, 0x33, 0x68, 0x30,
  0x86, 0x33, 0x00, 0x00, 0x86, 0x41, 0x00, 0x30, 0x96, 0x41, 0x68, 0x00,
  0x96, 0x33, 0x68, 0x30, 0x86, 0x33, 0x00, 0x00, 0x86, 0x41, 0x00, 0x30,
  0x96, 0x41, 0x68, 0x00, 0x96, 0x33, 0x68, 0x30, 0x86, 0x41, 0x00, 0x00,
  0x86, 0x33, 0x00, 0x30, 0x96, 0x41, 0x68, 0x00, 0x96, 0x33, 0x68, 0x30,
  0x86, 0x33, 0x00, 0x00, 0x86, 0x41, 0x00, 0x30, 0x96, 0x41, 0x68, 0x00,
  0x96, 0x33, 0x68, 0x30, 0x86, 0x33, 0x00, 0x00, 0x86, 0x41, 0x00, 0x30,
  0x96, 0x41, 0x68, 0x00, 0x96, 0x33, 0x68, 0x30, 0x86, 0x41, 0x00, 0x00,
  0x86, 0x33, 0x00, 0x30, 0x96, 0x41, 0x68, 0x00, 0x96, 0x33, 0x68, 0x30,
  0x86, 0x41, 0x00, 0x00, 0x86, 0x33, 0x00, 0x30, 0x96, 0x32, 0x68, 0x00,
  0x96, 0x41, 0x68, 0x30, 0x86, 0x32, 0x00, 0x00, 0x86, 0x41, 0x00, 0x30,
  0x96, 0x41, 0x68, 0x00, 0x96, 0x32, 0x68, 0x30, 0x86, 0x41, 0x00, 0x00,
  0x86, 0x32, 0x00, 0x30, 0x96, 0x41, 0x68, 0x00, 0x96, 0x32, 0x68, 0x30,
  0x86, 0x32, 0x00, 0x00, 0x86, 0x41, 0x00, 0x30, 0x96, 0x41, 0x68, 0x00,
  0x96, 0x32, 0x68, 0x30, 0x86, 0x41, 0x00, 0x00, 0x86, 0x32, 0x00, 0x30,
  0x96, 0x41, 0x68, 0x00, 0x96, 0x30, 0x68, 0x30, 0x86, 0x30, 0x00, 0x00,
  0x86, 0x41, 0x00, 0x30, 0x96, 0x30, 0x68, 0x00, 0x96, 0x41, 0x68, 0x30,
  0x86, 0x30, 0x00, 0x00, 0x86, 0x41, 0x00, 0x30, 0x96, 0x3f, 0x68, 0x00,
  0x96, 0x2e, 0x68, 0x30, 0x86, 0x2e, 0x00, 0x00, 0x86, 0x3f, 0x00, 0x30,
  0x96, 0x2e, 0x68, 0x00, 0x96, 0x3f, 0x68, 0x30, 0x86, 0x2e, 0x00, 0x00,
  0x86, 0x3f, 0x00, 0x30, 0x96, 0x33, 0x68, 0x00, 0x96, 0x41, 0x68, 0x30,
  0x86, 0x33, 0x00, 0x00, 0x86, 0x41, 0x00, 0x30, 0x96, 0x41, 0x68, 0x00,
  0x96, 0x33, 0x68, 0x30, 0x86, 0x41, 0x00, 0x00, 0x86, 0x33, 0x00, 0x30,
  0x96, 0x41, 0x68, 0x00, 0x96, 0x33, 0x68, 0x30, 0x86, 0x33, 0x00, 0x00,
  0x86, 0x41, 0x00, 0x30, 0x96, 0x41, 0x68, 0x00, 0x96, 0x33, 0x68, 0x30,
  0x86, 0x33, 0x00, 0x00, 0x86, 0x41, 0x00, 0x30, 0x96, 0x41, 0x68, 0x00,
  0x96, 0x33, 0x68, 0x30, 0x86, 0x41, 0x00, 0x00, 0x86, 0x33, 0x00, 0x30,
  0x96, 0x33, 0x68, 0x00, 0x96, 0x41, 0x68, 0x30, 0x86, 0x33, 0x00, 0x00,
  0x86, 0x41, 0x00, 0x30, 0x96, 0x41, 0x68, 0x00, 0x96, 0x33, 0x68, 0x30,
  0x86, 0x41, 0x00, 0x00, 0x86, 0x33, 0x00, 0x30, 0x96, 0x41, 0x68, 0x00,
  0x96, 0x33, 0x68, 0x30, 0x86, 0x33, 0x00, 0x00, 0x86, 0x41, 0x00, 0x30,
  0x96, 0x41, 0x68, 0x00, 0x96, 0x32, 0x68, 0x30, 0x86, 0x32, 0x00, 0x00,
  0x86, 0x41, 0x00, 0x30, 0x96, 0x41, 0x68, 0x00, 0x96, 0x32, 0x68, 0x30,
  0x86, 0x32, 0x00, 0x00, 0x86, 0x41, 0x00, 0x30, 0x96, 0x41, 0x68, 0x00,
  0x96, 0x32, 0x68, 0x30, 0x86, 0x32, 0x00, 0x00, 0x86, 0x41, 0x00, 0x30,
  0x96, 0x41, 0x68, 0x00, 0x96, 0x32, 0x68, 0x30, 0x86, 0x32, 0x00, 0x00,
  0x86, 0x41, 0x00, 0x30, 0x96, 0x3e, 0x68, 0x00, 0x96, 0x2e, 0x68, 0x30,
  0x86, 0x2e, 0x00, 0x00, 0x86, 0x3e, 0x00, 0x30, 0x96, 0x3e, 0x68, 0x00,
  0x96, 0x2e, 0x68, 0x30, 0x86, 0x2e, 0x00, 0x00, 0x86, 0x3e, 0x00, 0x30,
  0x96, 0x3f, 0x68, 0x00, 0x96, 0x2e, 0x68, 0x30, 0x86, 0x2e, 0x00, 0x00,
  0x86, 0x3f, 0x00, 0x30, 0x96, 0x3f, 0x68, 0x00, 0x96, 0x2e, 0x68, 0x30,
  0x86, 0x2e, 0x00, 0x00, 0x86, 0x3f, 0x00, 0x30, 0x96, 0x30, 0x68, 0x00,
  0x96, 0x3f, 0x68, 0x30, 0x86, 0x3f, 0x00, 0x00, 0x86, 0x30, 0x00, 0x30,
  0x96, 0x3f, 0x68, 0x00, 0x96, 0x30, 0x68, 0x30, 0x86, 0x30, 0x00, 0x00,
  0x86, 0x3f, 0x00, 0x30, 0x96, 0x3f, 0x68, 0x00, 0x96, 0x30, 0x68, 0x30,
  0x86, 0x30, 0x00, 0x00, 0x86, 0x3f, 0x00, 0x30, 0x96, 0x3f, 0x68, 0x00,
  0x96, 0x30, 0x68, 0x30, 0x86, 0x30, 0x00, 0x00, 0x86, 0x3f, 0x00, 0x30,
  0x96, 0x3f, 0x68, 0x00, 0x96, 0x30, 0x68, 0x30, 0x86, 0x30, 0x00, 0x00,
  0x86, 0x3f, 0x00, 0x30, 0x96, 0x3f, 0x68, 0x00, 0x96, 0x30, 0x68, 0x30,
  0x86, 0x30, 0x00, 0x00, 0x86, 0x3f, 0x00, 0x30, 0x96, 0x3f, 0x68, 0x00,
  0x96, 0x30, 0x68, 0x30, 0x86, 0x3f, 0x00, 0x00, 0x86, 0x30, 0x00, 0x30,
  0x96, 0x3f, 0x68, 0x00, 0x96, 0x30, 0x68, 0x30, 0x86, 0x3f, 0x00, 0x00,
  0x86, 0x30, 0x00, 0x30, 0x96, 0x2e, 0x68, 0x00, 0x96, 0x3e, 0x68, 0x30,
  0x86, 0x3e, 0x00, 0x00, 0x86, 0x2e, 0x00, 0x30, 0x96, 0x3e, 0x68, 0x00,
  0x96, 0x2e, 0x68, 0x30, 0x86, 0x3e, 0x00, 0x00, 0x86, 0x2e, 0x00, 0x30,
  0x96, 0x3e, 0x68, 0x00, 0x96, 0x2e, 0x68, 0x30, 0x86, 0x2e, 0x00, 0x00,
  0x86, 0x3e, 0x00, 0x30, 0x96, 0x3e, 0x68, 0x00, 0x96, 0x2e, 0x68, 0x30,
  0x86, 0x2e, 0x00, 0x00, 0x86, 0x3e, 0x00, 0x30, 0x96, 0x3e, 0x68, 0x00,
  0x96, 0x2e, 0x68, 0x30, 0x86, 0x2e, 0x00, 0x00, 0x86, 0x3e, 0x00, 0x30,
  0x96, 0x2e, 0x68, 0x00, 0x96, 0x3e, 0x68, 0x30, 0x86, 0x2e, 0x00, 0x00,
  0x86, 0x3e, 0x00, 0x30, 0x96, 0x3f, 0x68, 0x00, 0x96, 0x2f, 0x68, 0x30,
  0x86, 0x2f, 0x00, 0x00, 0x86, 0x3f, 0x00, 0x30, 0x96, 0x2f, 0x68, 0x00,
  0x96, 0x3f, 0x68, 0x30, 0x86, 0x2f, 0x00, 0x00, 0x86, 0x3f, 0x00, 0x30,
  0x96, 0x3e, 0x68, 0x00, 0x96, 0x30, 0x68, 0x30, 0x86, 0x30, 0x00, 0x00,
  0x86, 0x3e, 0x00, 0x30, 0x96, 0x30, 0x68, 0x00, 0x96, 0x3e, 0x68, 0x30,
  0x86, 0x30, 0x00, 0x00, 0x86, 0x3e, 0x00, 0x30, 0x96, 0x30, 0x68, 0x00,
  0x96, 0x3e, 0x68, 0x30, 0x86, 0x30, 0x00, 0x00, 0x86, 0x3e, 0x00, 0x30,
  0x96, 0x3e, 0x68, 0x00, 0x96, 0x30, 0x68, 0x30, 0x86, 0x30, 0x00, 0x00,
  0x86, 0x3e, 0x00, 0x30, 0x96, 0x3e, 0x68, 0x00, 0x96, 0x30, 0x68, 0x30,
  0x86, 0x30, 0x00, 0x00, 0x86, 0x3e, 0x00, 0x30, 0x96, 0x30, 0x68, 0x00,
  0x96, 0x3e, 0x68, 0x30, 0x86, 0x30, 0x00, 0x00, 0x86, 0x3e, 0x00, 0x30,
  0x96, 0x30, 0x68, 0x00, 0x96, 0x3f, 0x68, 0x30, 0x86, 0x3f, 0x00, 0x00,
  0x86, 0x30, 0x00, 0x30, 0x96, 0x30, 0x68, 0x00, 0x96, 0x3f, 0x68, 0x30,
  0x86, 0x30, 0x00, 0x00, 0x86, 0x3f, 0x00, 0x30, 0x96, 0x41, 0x68, 0x00,
  0x96, 0x30, 0x68, 0x30, 0x86, 0x30, 0x00, 0x00, 0x86, 0x41, 0x00, 0x30,
  0x96, 0x30, 0x68, 0x00, 0x96, 0x41, 0x68, 0x30, 0x86, 0x30, 0x00, 0x00,
  0x86, 0x41, 0x00, 0x30, 0x96, 0x30, 0x68, 0x00, 0x96, 0x41, 0x68, 0x30,
  0x86, 0x30, 0x00, 0x00, 0x86, 0x41, 0x00, 0x30, 0x96, 0x41, 0x68, 0x00,
  0x96, 0x30, 0x68, 0x30, 0x86, 0x30, 0x00, 0x00, 0x86, 0x41, 0x00, 0x30,
  0x96, 0x3e, 0x68, 0x00, 0x96, 0x2c, 0x68, 0x30, 0x86, 0x2c, 0x00, 0x00,
  0x86, 0x3e, 0x00, 0x30, 0x96, 0x2c, 0x68, 0x00, 0x96, 0x3e, 0x68, 0x30,
  0x86, 0x2c, 0x00, 0x00, 0x86, 0x3e, 0x00, 0x30, 0x96, 0x3e, 0x68, 0x00,
  0x96, 0x2c, 0x68, 0x30, 0x86, 0x2c, 0x00, 0x00, 0x86, 0x3e, 0x00, 0x30,
  0x96, 0x3e, 0x68, 0x00, 0x96, 0x2c, 0x68, 0x30, 0x86, 0x2c, 0x00, 0x00,
  0x86, 0x3e, 0x00, 0x30, 0x96, 0x41, 0x68, 0x00, 0x96, 0x30, 0x68, 0x30,
  0x86, 0x30, 0x00, 0x00, 0x86, 0x41, 0x00, 0x30, 0x96, 0x41, 0x68, 0x00,
  0x96, 0x30, 0x68, 0x30, 0x86, 0x30, 0x00, 0x00, 0x86, 0x41, 0x00, 0x30,
  0x96, 0x41, 0x68, 0x00, 0x96, 0x30, 0x68, 0x30, 0x86, 0x30, 0x00, 0x00,
  0x86, 0x41, 0x00, 0x30, 0x96, 0x41, 0x68, 0x00, 0x96, 0x30, 0x68, 0x30,
  0x86, 0x30, 0x00, 0x00, 0x86, 0x41, 0x00, 0x30, 0x96, 0x30, 0x68, 0x00,
  0x96, 0x3f, 0x68, 0x30, 0x86, 0x3f, 0x00, 0x00, 0x86, 0x30, 0x00, 0x30,
  0x96, 0x30, 0x68, 0x00, 0x96, 0x3f, 0x68, 0x30, 0x86, 0x30, 0x00, 0x00,
  0x86, 0x3f, 0x00, 0x30, 0x96, 0x30, 0x68, 0x00, 0x96, 0x41, 0x68, 0x30,
  0x86, 0x30, 0x00, 0x00, 0x86, 0x41, 0x00, 0x30, 0x96, 0x30, 0x68, 0x00,
  0x96, 0x41, 0x68, 0x30, 0x86, 0x30, 0x00, 0x00, 0x86, 0x41, 0x00, 0x30,
  0x96, 0x30, 0x68, 0x00, 0x96, 0x41, 0x68, 0x30, 0x86, 0x41, 0x00, 0x00,
  0x86, 0x30, 0x00, 0x30, 0x96, 0x30, 0x68, 0x00, 0x96, 0x41, 0x68, 0x30,
  0x86, 0x30, 0x00, 0x00, 0x86, 0x41, 0x00, 0x30, 0x96, 0x30, 0x68, 0x00,
  0x96, 0x41, 0x68, 0x30, 0x86, 0x30, 0x00, 0x00, 0x86, 0x41, 0x00, 0x30,
  0x96, 0x30, 0x68, 0x00, 0x96, 0x41, 0x68, 0x30, 0x86, 0x30, 0x00, 0x00,
  0x86, 0x41, 0x00, 0x30, 0x96, 0x30, 0x68, 0x00, 0x96, 0x3f, 0x68, 0x30,
  0x86, 0x3f, 0x00, 0x00, 0x86, 0x30, 0x00, 0x30, 0x96, 0x30, 0x68, 0x00,
  0x96, 0x3f, 0x68, 0x30, 0x86, 0x30, 0x00, 0x00, 0x86, 0x3f, 0x00, 0x30,
  0x96, 0x30, 0x68, 0x00, 0x96, 0x41, 0x68, 0x30, 0x86, 0x30, 0x00, 0x00,
  0x86, 0x41, 0x00, 0x30, 0x96, 0x30, 0x68, 0x00, 0x96, 0x41, 0x68, 0x30,
  0x86, 0x30, 0x00, 0x00, 0x86, 0x41, 0x00, 0x30, 0x96, 0x41, 0x68, 0x00,
  0x96, 0x30, 0x68, 0x30, 0x86, 0x30, 0x00, 0x00, 0x86, 0x41, 0x00, 0x30,
  0x96, 0x41, 0x68, 0x00, 0x96, 0x30, 0x68, 0x30, 0x86, 0x30, 0x00, 0x00,
  0x86, 0x41, 0x00, 0x30, 0x96, 0x41, 0x68, 0x00, 0x96, 0x30, 0x68, 0x30,
  0x86, 0x30, 0x00, 0x00, 0x86, 0x41, 0x00, 0x30, 0x96, 0x41, 0x68, 0x00,
  0x96, 0x30, 0x68, 0x30, 0x86, 0x30, 0x00, 0x00, 0x86, 0x41, 0x00, 0x30,
  0x96, 0x30, 0x68, 0x00, 0x96, 0x3f, 0x68, 0x30, 0x86, 0x3f, 0x00, 0x00,
  0x86, 0x30, 0x00, 0x30, 0x96, 0x30, 0x68, 0x00, 0x96, 0x3f, 0x68, 0x30,
  0x86, 0x30, 0x00, 0x00, 0x86, 0x3f, 0x00, 0x30, 0x96, 0x30, 0x68, 0x00,
  0x96, 0x41, 0x68, 0x30, 0x86, 0x30, 0x00, 0x00, 0x86, 0x41, 0x00, 0x30,
  0x96, 0x30, 0x68, 0x00, 0x96, 0x41, 0x68, 0x30, 0x86, 0x30, 0x00, 0x00,
  0x86, 0x41, 0x00, 0x30, 0x96, 0x30, 0x68, 0x00, 0x96, 0x41, 0x68, 0x30,
  0x86, 0x41, 0x00, 0x00, 0x86, 0x30, 0x00, 0x30, 0x96, 0x30, 0x68, 0x00,
  0x96, 0x41, 0x68, 0x30, 0x86, 0x30, 0x00, 0x00, 0x86, 0x41, 0x00, 0x30,
  0x96, 0x30, 0x68, 0x00, 0x96, 0x41, 0x68, 0x30, 0x86, 0x30, 0x00, 0x00,
  0x86, 0x41, 0x00, 0x30, 0x96, 0x30, 0x68, 0x00, 0x96, 0x41, 0x68, 0x30,
  0x86, 0x30, 0x00, 0x00, 0x86, 0x41, 0x00, 0x30, 0x96, 0x30, 0x68, 0x00,
  0x96, 0x3f, 0x68, 0x30, 0x86, 0x3f, 0x00, 0x00, 0x86, 0x30, 0x00, 0x30,
  0x96, 0x30, 0x68, 0x00, 0x96, 0x3f, 0x68, 0x30, 0x86, 0x30, 0x00, 0x00,
  0x86, 0x3f, 0x00, 0x30, 0x96, 0x30, 0x68, 0x00, 0x96, 0x41, 0x68, 0x30,
  0x86, 0x30, 0x00, 0x00, 0x86, 0x41, 0x00, 0x30, 0x96, 0x30, 0x68, 0x00,
  0x96, 0x41, 0x68, 0x30, 0x86, 0x30, 0x00, 0x00, 0x86, 0x41, 0x00, 0x30,
  0x96, 0x41, 0x68, 0x00, 0x96, 0x30, 0x68, 0x30, 0x86, 0x30, 0x00, 0x00,
  0x86, 0x41, 0x00, 0x30, 0x96, 0x41, 0x68, 0x00, 0x96, 0x30, 0x68, 0x30,
  0x86, 0x30, 0x00, 0x00, 0x86, 0x41, 0x00, 0x30, 0x96, 0x41, 0x68, 0x00,
  0x96, 0x30, 0x68, 0x30, 0x86, 0x30, 0x00, 0x00, 0x86, 0x41, 0x00, 0x30,
  0x96, 0x41, 0x68, 0x00, 0x96, 0x30, 0x68, 0x30, 0x86, 0x30, 0x00, 0x00,
  0x86, 0x41, 0x00, 0x30, 0x96, 0x30, 0x68, 0x00, 0x96, 0x3f, 0x68, 0x30,
  0x86, 0x3f, 0x00, 0x00, 0x86, 0x30, 0x00, 0x30, 0x96, 0x3f, 0x68, 0x00,
  0x96, 0x30, 0x68, 0x30, 0x86, 0x3f, 0x00, 0x00, 0x86, 0x30, 0x00, 0x30,
  0x96, 0x41, 0x68, 0x00, 0x96, 0x30, 0x68, 0x30, 0x86, 0x30, 0x00, 0x00,
  0x86, 0x41, 0x00, 0x30, 0x96, 0x41, 0x68, 0x00, 0x96, 0x30, 0x68, 0x30,
  0x86, 0x41, 0x00, 0x00, 0x86, 0x30, 0x00, 0x30, 0x96, 0x41, 0x68, 0x00,
  0x96, 0x30, 0x68, 0x30, 0x86, 0x30, 0x00, 0x00, 0x86, 0x41, 0x00, 0x30,
  0x96, 0x30, 0x68, 0x00, 0x96, 0x41, 0x68, 0x30, 0x86, 0x30, 0x00, 0x00,
  0x86, 0x41, 0x00, 0x30, 0x96, 0x41, 0x68, 0x00, 0x96, 0x30, 0x68, 0x30,
  0x86, 0x30, 0x00, 0x00, 0x86, 0x41, 0x00, 0x30, 0x96, 0x30, 0x68, 0x00,
  0x96, 0x41, 0x68, 0x30, 0x86, 0x30, 0x00, 0x00, 0x86, 0x41, 0x00, 0x30,
  0x96, 0x32, 0x68, 0x00, 0x96, 0x41, 0x68, 0x30, 0x86, 0x41, 0x00, 0x00,
  0x86, 0x32, 0x00, 0x30, 0x96, 0x32, 0x68, 0x00, 0x96, 0x41, 0x68, 0x30,
  0x86, 0x41, 0x00, 0x00, 0x86, 0x32, 0x00, 0x30, 0x96, 0x41, 0x68, 0x00,
  0x96, 0x32, 0x68, 0x30, 0x86, 0x32, 0x00, 0x00, 0x86, 0x41, 0x00, 0x30,
  0x96, 0x41, 0x68, 0x00, 0x96, 0x32, 0x68, 0x30, 0x86, 0x32, 0x00, 0x00,
  0x86, 0x41, 0x00, 0x30, 0x96, 0x40, 0x68, 0x00, 0x96, 0x3b, 0x68, 0x30,
  0x86, 0x3b, 0x00, 0x00, 0x86, 0x40, 0x00, 0x30, 0x96, 0x3b, 0x68, 0x00,
  0x96, 0x40, 0x68, 0x30, 0x86, 0x3b, 0x00, 0x00, 0x86, 0x40, 0x00, 0x30,
  0x96, 0x3b, 0x68, 0x00, 0x96, 0x40, 0x68, 0x30, 0x86, 0x3b, 0x00, 0x00,
  0x86, 0x40, 0x00, 0x30, 0x96, 0x3b, 0x68, 0x00, 0x96, 0x40, 0x68, 0x30,
  0x86, 0x3b, 0x00, 0x00, 0x86, 0x40, 0x00, 0x30, 0x96, 0x3e, 0x68, 0x00,
  0x96, 0x40, 0x68, 0x30, 0x86, 0x40, 0x00, 0x00, 0x86, 0x3e, 0x00, 0x30,
  0x96, 0x40, 0x68, 0x00, 0x96, 0x3c, 0x68, 0x30, 0x86, 0x40, 0x00, 0x00,
  0x86, 0x3c, 0x00, 0x30, 0x96, 0x40, 0x68, 0x00, 0x96, 0x3c, 0x68, 0x30,
  0x86, 0x40, 0x00, 0x00, 0x86, 0x3c, 0x00, 0x30, 0x96, 0x40, 0x68, 0x00,
  0x96, 0x3c, 0x68, 0x30, 0x86, 0x3c, 0x00, 0x00, 0x86, 0x40, 0x00, 0x30,
  0x96, 0x41, 0x68, 0x00, 0x96, 0x3c, 0x68, 0x30, 0x86, 0x3c, 0x00, 0x00,
  0x86, 0x41, 0x00, 0x30, 0x96, 0x3c, 0x68, 0x00, 0x96, 0x41, 0x68, 0x30,
  0x86, 0x3c, 0x00, 0x00, 0x86, 0x41, 0x00, 0x30, 0x96, 0x41, 0x68, 0x00,
  0x96, 0x3c, 0x68, 0x30, 0x86, 0x3c, 0x00, 0x00, 0x86, 0x41, 0x00, 0x30,
  0x96, 0x41, 0x68, 0x00, 0x96, 0x3c, 0x68, 0x30, 0x86, 0x3c, 0x00, 0x00,
  0x86, 0x41, 0x00, 0x30, 0x96, 0x3c, 0x68, 0x00, 0x96, 0x41, 0x68, 0x30,
  0x86, 0x41, 0x00, 0x00, 0x86, 0x3c, 0x00, 0x30, 0x96, 0x3f, 0x68, 0x00,
  0x96, 0x3c, 0x68, 0x30, 0x86, 0x3f, 0x00, 0x00, 0x86, 0x3c, 0x00, 0x30,
  0x96, 0x3c, 0x68, 0x00, 0x96, 0x3f, 0x68, 0x30, 0x86, 0x3c, 0x00, 0x00,
  0x86, 0x3f, 0x00, 0x30, 0x96, 0x3b, 0x68, 0x00, 0x96, 0x41, 0x68, 0x30,
  0x86, 0x41, 0x00, 0x00, 0x86, 0x3b, 0x00, 0x30, 0x96, 0x40, 0x68, 0x00,
  0x96, 0x3b, 0x68, 0x30, 0x86, 0x3b, 0x00, 0x00, 0x86, 0x40, 0x00, 0x30,
  0x96, 0x3b, 0x68, 0x00, 0x96, 0x40, 0x68, 0x30, 0x86, 0x3b, 0x00, 0x00,
  0x86, 0x40, 0x00, 0x30, 0x96, 0x3b, 0x68, 0x00, 0x96, 0x40, 0x68, 0x30,
  0x86, 0x3b, 0x00, 0x00, 0x86, 0x40, 0x00, 0x30, 0x96, 0x40, 0x68, 0x00,
  0x96, 0x3e, 0x68, 0x30, 0x86, 0x3e, 0x00, 0x00, 0x86, 0x40, 0x00, 0x30,
  0x96, 0x40, 0x68, 0x00, 0x96, 0x3c, 0x68, 0x30, 0x86, 0x3c, 0x00, 0x00,
  0x86, 0x40, 0x00, 0x30, 0x96, 0x40, 0x68, 0x00, 0x96, 0x3c, 0x68, 0x30,
  0x86, 0x40, 0x00, 0x00, 0x86, 0x3c, 0x00, 0x30, 0x96, 0x40, 0x68, 0x00,
  0x96, 0x3c, 0x68, 0x30, 0x86, 0x3c, 0x00, 0x00, 0x86, 0x40, 0x00, 0x30,
  0x96, 0x40, 0x68, 0x00, 0x96, 0x3c, 0x68, 0x30, 0x86, 0x40, 0x00, 0x00,
  0x86, 0x3c, 0x00, 0x30, 0x96, 0x3c, 0x68, 0x00, 0x96, 0x41, 0x68, 0x30,
  0x86, 0x41, 0x00, 0x00, 0x86, 0x3c, 0x00, 0x30, 0x96, 0x41, 0x68, 0x00,
  0x96, 0x3c, 0x68, 0x30, 0x86, 0x3c, 0x00, 0x00, 0x86, 0x41, 0x00, 0x30,
  0x96, 0x3c, 0x68, 0x00, 0x96, 0x41, 0x68, 0x30, 0x86, 0x3c, 0x00, 0x00,
  0x86, 0x41, 0x00, 0x30, 0x96, 0x41, 0x68, 0x00, 0x96, 0x3c, 0x68, 0x30,
  0x86, 0x41, 0x00, 0x00, 0x86, 0x3c, 0x00, 0x30, 0x96, 0x41, 0x68, 0x00,
  0x96, 0x3c, 0x68, 0x30, 0x86, 0x3c, 0x00, 0x00, 0x86, 0x41, 0x00, 0x30,
  0x96, 0x3f, 0x68, 0x00, 0x96, 0x3c, 0x68, 0x30, 0x86, 0x3f, 0x00, 0x00,
  0x86, 0x3c, 0x00, 0x30, 0x96, 0x3f, 0x68, 0x00, 0x96, 0x3c, 0x68, 0x30,
  0x86, 0x3c, 0x00, 0x00, 0x86, 0x3f, 0x00, 0x30, 0x96, 0x3b, 0x68, 0x00,
  0x96, 0x41, 0x68, 0x30, 0x86, 0x41, 0x00, 0x00, 0x86, 0x3b, 0x00, 0x30,
  0x96, 0x40, 0x68, 0x00, 0x96, 0x3b, 0x68, 0x30, 0x86, 0x3b, 0x00, 0x00,
  0x86, 0x40, 0x00, 0x30, 0x96, 0x3b, 0x68, 0x00, 0x96, 0x40, 0x68, 0x30,
  0x86, 0x3b, 0x00, 0x00, 0x86, 0x40, 0x00, 0x30, 0x96, 0x3b, 0x68, 0x00,
  0x96, 0x40, 0x68, 0x30, 0x86, 0x3b, 0x00, 0x00, 0x86, 0x40, 0x00, 0x30,
  0x96, 0x3e, 0x68, 0x00, 0x96, 0x40, 0x68, 0x30, 0x86, 0x3e, 0x00, 0x00,
  0x86, 0x40, 0x00, 0x30, 0x96, 0x3c, 0x68, 0x00, 0x96, 0x40, 0x68, 0x30,
  0x86, 0x40, 0x00, 0x00, 0x86, 0x3c, 0x00, 0x30, 0x96, 0x40, 0x68, 0x00,
  0x96, 0x3c, 0x68, 0x30, 0x86, 0x40, 0x00, 0x00, 0x86, 0x3c, 0x00, 0x30,
  0x96, 0x40, 0x68, 0x00, 0x96, 0x3c, 0x68, 0x30, 0x86, 0x40, 0x00, 0x00,
  0x86, 0x3c, 0x00, 0x30, 0x96, 0x40, 0x68, 0x00, 0x96, 0x3c, 0x68, 0x30,
  0x86, 0x3c, 0x00, 0x00, 0x86, 0x40, 0x00, 0x30, 0x96, 0x41, 0x68, 0x00,
  0x96, 0x3c, 0x68, 0x30, 0x86, 0x3c, 0x00, 0x00, 0x86, 0x41, 0x00, 0x30,
  0x96, 0x3c, 0x68, 0x00, 0x96, 0x41, 0x68, 0x30, 0x86, 0x3c, 0x00, 0x00,
  0x86, 0x41, 0x00, 0x30, 0x96, 0x41, 0x68, 0x00, 0x96, 0x3c, 0x68, 0x30,
  0x86, 0x3c, 0x00, 0x00, 0x86, 0x41, 0x00, 0x30, 0x96, 0x41, 0x68, 0x00,
  0x96, 0x3c, 0x68, 0x30, 0x86, 0x3c, 0x00, 0x00, 0x86, 0x41, 0x00, 0x30,
  0x96, 0x3c, 0x68, 0x00, 0x96, 0x41, 0x68, 0x30, 0x86, 0x41, 0x00, 0x00,
  0x86, 0x3c, 0x00, 0x30, 0x96, 0x3f, 0x68, 0x00, 0x96, 0x3c, 0x68, 0x30,
  0x86, 0x3c, 0x00, 0x00, 0x86, 0x3f, 0x00, 0x30, 0x96, 0x3c, 0x68, 0x00,
  0x96, 0x3f, 0x68, 0x30, 0x86, 0x3c, 0x00, 0x00, 0x86, 0x3f, 0x00, 0x30,
  0x96, 0x3b, 0x68, 0x00, 0x96, 0x41, 0x68, 0x30, 0x86, 0x41, 0x00, 0x00,
  0x86, 0x3b, 0x00, 0x30, 0x96, 0x40, 0x68, 0x00, 0x96, 0x3b, 0x68, 0x30,
  0x86, 0x3b, 0x00, 0x00, 0x86, 0x40, 0x00, 0x30, 0x96, 0x3b, 0x68, 0x00,
  0x96, 0x40, 0x68, 0x30, 0x86, 0x3b, 0x00, 0x00, 0x86, 0x40, 0x00, 0x30,
  0x96, 0x3b, 0x68, 0x00, 0x96, 0x40, 0x68, 0x30, 0x86, 0x3b, 0x00, 0x00,
  0x86, 0x40, 0x00, 0x30, 0x96, 0x40, 0x68, 0x00, 0x96, 0x3e, 0x68, 0x30,
  0x86, 0x3e, 0x00, 0x00, 0x86, 0x40, 0x00, 0x30, 0x96, 0x40, 0x68, 0x00,
  0x96, 0x3c, 0x68, 0x30, 0x86, 0x3c, 0x00, 0x00, 0x86, 0x40, 0x00, 0x30,
  0x96, 0x40, 0x68, 0x00, 0x96, 0x3c, 0x68, 0x30, 0x86, 0x3c, 0x00, 0x00,
  0x86, 0x40, 0x00, 0x30, 0x96, 0x40, 0x68, 0x00, 0x96, 0x3c, 0x68, 0x30,
  0x86, 0x3c, 0x00, 0x00, 0x86, 0x40, 0x00, 0x30, 0x96, 0x40, 0x68, 0x00,
  0x96, 0x3c, 0x68, 0x30, 0x86, 0x3c, 0x00, 0x00, 0x86, 0x40, 0x00, 0x30,
  0x96, 0x3c, 0x68, 0x00, 0x96, 0x41, 0x68, 0x30, 0x86, 0x41, 0x00, 0x00,
  0x86, 0x3c, 0x00, 0x30, 0x96, 0x41, 0x68, 0x00, 0x96, 0x3c, 0x68, 0x30,
  0x86, 0x3c, 0x00, 0x00, 0x86, 0x41, 0x00, 0x30, 0x96, 0x3c, 0x68, 0x00,
  0x96, 0x41, 0x68, 0x30, 0x86, 0x3c, 0x00, 0x00, 0x86, 0x41, 0x00, 0x30,
  0x96, 0x41, 0x68, 0x00, 0x96, 0x3c, 0x68, 0x30, 0x86, 0x41, 0x00, 0x00,
  0x86, 0x3c, 0x00, 0x30, 0x96, 0x41, 0x68, 0x00, 0x96, 0x3c, 0x68, 0x30,
  0x86, 0x3c, 0x00, 0x00, 0x86, 0x41, 0x00, 0x30, 0x96, 0x3f, 0x68, 0x00,
  0x96, 0x3c, 0x68, 0x30, 0x86, 0x3c, 0x00, 0x00, 0x86, 0x3f, 0x00, 0x30,
  0x96, 0x3c, 0x68, 0x00, 0x96, 0x3f, 0x68, 0x30, 0x86, 0x3f, 0x00, 0x00,
  0x86, 0x3c, 0x00, 0x30, 0x96, 0x41, 0x68, 0x00, 0x96, 0x33, 0x68, 0x30,
  0x86, 0x33, 0x00, 0x00, 0x86, 0x41, 0x00, 0x30, 0x96, 0x41, 0x68, 0x00,
  0x96, 0x33, 0x68, 0x30, 0x86, 0x33, 0x00, 0x00, 0x86, 0x41, 0x00, 0x30,
  0x96, 0x33, 0x68, 0x00, 0x96, 0x41, 0x68, 0x30, 0x86, 0x33, 0x00, 0x00,
  0x86, 0x41, 0x00, 0x30, 0x96, 0x33, 0x68, 0x00, 0x96, 0x41, 0x68, 0x30,
  0x86, 0x33, 0x00, 0x00, 0x86, 0x41, 0x00, 0x30, 0x96, 0x41, 0x68, 0x00,
  0x96, 0x33, 0x68, 0x30, 0x86, 0x41, 0x00, 0x00, 0x86, 0x33, 0x00, 0x30,
  0x96, 0x41, 0x68, 0x00, 0x96, 0x33, 0x68, 0x30, 0x86, 0x41, 0x00, 0x00,
  0x86, 0x33, 0x00, 0x30, 0x96, 0x33, 0x68, 0x00, 0x96, 0x41, 0x68, 0x30,
  0x86, 0x33, 0x00, 0x00, 0x86, 0x41, 0x00, 0x30, 0x96, 0x41, 0x68, 0x00,
  0x96, 0x33, 0x68, 0x30, 0x86, 0x33, 0x00, 0x00, 0x86, 0x41, 0x00, 0x30,
  0x96, 0x33, 0x68, 0x00, 0x96, 0x41, 0x68, 0x30, 0x86, 0x41, 0x00, 0x00,
  0x86, 0x33, 0x00, 0x30, 0x96, 0x41, 0x68, 0x00, 0x96, 0x33, 0x68, 0x30,
  0x86, 0x33, 0x00, 0x00, 0x86, 0x41, 0x00, 0x30, 0x96, 0x33, 0x68, 0x00,
  0x96, 0x41, 0x68, 0x30, 0x86, 0x33, 0x00, 0x00, 0x86, 0x41, 0x00, 0x30,
  0x96, 0x33, 0x68, 0x00, 0x96, 0x41, 0x68, 0x30, 0x86, 0x33, 0x00, 0x00,
  0x86, 0x41, 0x00, 0x30, 0x96, 0x41, 0x68, 0x00, 0x96, 0x33, 0x68, 0x30,
  0x86, 0x41, 0x00, 0x00, 0x86, 0x33, 0x00, 0x30, 0x96, 0x41, 0x68, 0x00,
  0x96, 0x33, 0x68, 0x30, 0x86, 0x41, 0x00, 0x00, 0x86, 0x33, 0x00, 0x30,
  0x96, 0x33, 0x68, 0x00, 0x96, 0x41, 0x68, 0x30, 0x86, 0x33, 0x00, 0x00,
  0x86, 0x41, 0x00, 0x30, 0x96, 0x30, 0x68, 0x00, 0x96, 0x3f, 0x68, 0x30,
  0x86, 0x3f, 0x00, 0x00, 0x86, 0x30, 0x00, 0x30, 0x96, 0x30, 0x68, 0x00,
  0x96, 0x3e, 0x68, 0x30, 0x86, 0x3e, 0x00, 0x00, 0x86, 0x30, 0x00, 0x30,
  0x96, 0x3e, 0x68, 0x00, 0x96, 0x30, 0x68, 0x30, 0x86, 0x3e, 0x00, 0x00,
  0x86, 0x30, 0x00, 0x30, 0x96, 0x30, 0x68, 0x00, 0x96, 0x3e, 0x68, 0x30,
  0x86, 0x30, 0x00, 0x00, 0x86, 0x3e, 0x00, 0x30, 0x96, 0x3e, 0x68, 0x00,
  0x96, 0x30, 0x68, 0x30, 0x86, 0x3e, 0x00, 0x00, 0x86, 0x30, 0x00, 0x30,
  0x96, 0x30, 0x68, 0x00, 0x96, 0x3e, 0x68, 0x30, 0x86, 0x3e, 0x00, 0x00,
  0x86, 0x30, 0x00, 0x30, 0x96, 0x3e, 0x68, 0x00, 0x96, 0x30, 0x68, 0x30,
  0x86, 0x30, 0x00, 0x00, 0x86, 0x3e, 0x00, 0x30, 0x96, 0x30, 0x68, 0x00,
  0x96, 0x3e, 0x68, 0x30, 0x86, 0x30, 0x00, 0x00, 0x86, 0x3e, 0x00, 0x30,
  0x96, 0x3e, 0x68, 0x00, 0x96, 0x30, 0x68, 0x30, 0x86, 0x30, 0x00, 0x00,
  0x86, 0x3e, 0x00, 0x30, 0x96, 0x30, 0x68, 0x00, 0x96, 0x3f, 0x68, 0x30,
  0x86, 0x30, 0x00, 0x00, 0x86, 0x3f, 0x00, 0x30, 0x96, 0x3f, 0x68, 0x00,
  0x96, 0x2b, 0x68, 0x30, 0x86, 0x2b, 0x00, 0x00, 0x86, 0x3f, 0x00, 0x30,
  0x96, 0x2b, 0x68, 0x00, 0x96, 0x3f, 0x68, 0x30, 0x86, 0x2b, 0x00, 0x00,
  0x86, 0x3f, 0x00, 0x30, 0x96, 0x2b, 0x68, 0x00, 0x96, 0x3f, 0x68, 0x30,
  0x86, 0x3f, 0x00, 0x00, 0x86, 0x2b, 0x00, 0x30, 0x96, 0x3f, 0x68, 0x00,
  0x96, 0x2b, 0x68, 0x30, 0x86, 0x2b, 0x00, 0x00, 0x86, 0x3f, 0x00, 0x30,
  0x96, 0x2b, 0x68, 0x00, 0x96, 0x3f, 0x68, 0x30, 0x86, 0x3f, 0x00, 0x00,
  0x86, 0x2b, 0x00, 0x30, 0x96, 0x3f, 0x68, 0x00, 0x96, 0x2b, 0x68, 0x30,
  0x86, 0x2b, 0x00, 0x00, 0x86, 0x3f, 0x00, 0x30, 0x96, 0x3f, 0x68, 0x00,
  0x96, 0x2b, 0x68, 0x30, 0x86, 0x2b, 0x00, 0x00, 0x86, 0x3f, 0x00, 0x30,
  0x96, 0x3f, 0x68, 0x00, 0x96, 0x2b, 0x68, 0x30, 0x86, 0x2b, 0x00, 0x00,
  0x86, 0x3f, 0x00, 0x30, 0x96, 0x4b, 0x68, 0x00, 0x96, 0x3c, 0x68, 0x83,
  0x00, 0x86, 0x3c, 0x00, 0x00, 0x86, 0x4b, 0x00, 0x00, 0x96, 0x3c, 0x68,
  0x00, 0x96, 0x4b, 0x68, 0x83, 0x00, 0x86, 0x3c, 0x00, 0x00, 0x86, 0x4b,
  0x00, 0x00, 0x96, 0x4a, 0x68, 0x00, 0x96, 0x3a, 0x68, 0x83, 0x00, 0x86,
  0x3a, 0x00, 0x00, 0x86, 0x4a, 0x00, 0x00, 0x96, 0x3a, 0x68, 0x00, 0x96,
  0x48, 0x68, 0x81, 0x40, 0x86, 0x3a, 0x00, 0x00, 0x86, 0x48, 0x00, 0x00,
  0x96, 0x35, 0x68, 0x00, 0x96, 0x46, 0x68, 0x81, 0x40, 0x86, 0x35, 0x00,
  0x00, 0x86, 0x46, 0x00, 0x00, 0x96, 0x46, 0x68, 0x00, 0x96, 0x37, 0x68,
  0x83, 0x00, 0x86, 0x37, 0x00, 0x00, 0x86, 0x46, 0x00, 0x00, 0x96, 0x35,
  0x68, 0x00, 0x96, 0x44, 0x68, 0x83, 0x00, 0x86, 0x35, 0x00, 0x00, 0x86,
  0x44, 0x00, 0x00, 0x96, 0x33, 0x68, 0x00, 0x96, 0x43, 0x68, 0x83, 0x00,
  0x86, 0x43, 0x00, 0x00, 0x86, 0x33, 0x00, 0x00, 0x96, 0x30, 0x68, 0x00,
  0x96, 0x43, 0x68, 0x81, 0x40, 0x86, 0x43, 0x00, 0x00, 0x86, 0x30, 0x00,
  0x00, 0x96, 0x31, 0x68, 0x00, 0x96, 0x42, 0x68, 0x81, 0x40, 0x86, 0x42,
  0x00, 0x00, 0x86, 0x31, 0x00, 0x00, 0x96, 0x41, 0x68, 0x00, 0x96, 0x33,
  0x68, 0x30, 0x86, 0x33, 0x00, 0x00, 0x86, 0x41, 0x00, 0x30, 0x96, 0x41,
  0x68, 0x00, 0x96, 0x33, 0x68, 0x30, 0x86, 0x33, 0x00, 0x00, 0x86, 0x41,
  0x00, 0x30, 0x96, 0x41, 0x68, 0x00, 0x96, 0x33, 0x68, 0x30, 0x86, 0x33,
  0x00, 0x00, 0x86, 0x41, 0x00, 0x30, 0x96, 0x41, 0x68, 0x00, 0x96, 0x33,
  0x68, 0x30, 0x86, 0x41, 0x00, 0x00, 0x86, 0x33, 0x00, 0x30, 0x96, 0x41,
  0x68, 0x00, 0x96, 0x33, 0x68, 0x30, 0x86, 0x33, 0x00, 0x00, 0x86, 0x41,
  0x00, 0x30, 0x96, 0x41, 0x68, 0x00, 0x96, 0x33, 0x68, 0x30, 0x86, 0x33,
  0x00, 0x00, 0x86, 0x41, 0x00, 0x30, 0x96, 0x41, 0x68, 0x00, 0x96, 0x33,
  0x68, 0x30, 0x86, 0x41, 0x00, 0x00, 0x86, 0x33, 0x00, 0x30, 0x96, 0x41,
  0x68, 0x00, 0x96, 0x33, 0x68, 0x30, 0x86, 0x41, 0x00, 0x00, 0x86, 0x33,
  0x00, 0x30, 0x96, 0x32, 0x68, 0x00, 0x96, 0x41, 0x68, 0x30, 0x86, 0x32,
  0x00, 0x00, 0x86, 0x41, 0x00, 0x30, 0x96, 0x41, 0x68, 0x00, 0x96, 0x32,
  0x68, 0x30, 0x86, 0x41, 0x00, 0x00, 0x86, 0x32, 0x00, 0x30, 0x96, 0x41,
  0x68, 0x00, 0x96, 0x32, 0x68, 0x30, 0x86, 0x32, 0x00, 0x00, 0x86, 0x41,
  0x00, 0x30, 0x96, 0x41, 0x68, 0x00, 0x96, 0x32, 0x68, 0x30, 0x86, 0x41,
  0x00, 0x00, 0x86, 0x32, 0x00, 0x30, 0x96, 0x41, 0x68, 0x00, 0x96, 0x30,
  0x68, 0x30, 0x86, 0x30, 0x00, 0x00, 0x86, 0x41, 0x00, 0x30, 0x96, 0x30,
  0x68, 0x00, 0x96, 0x41, 0x68, 0x30, 0x86, 0x30, 0x00, 0x00, 0x86, 0x41,
  0x00, 0x30, 0x96, 0x3f, 0x68, 0x00, 0x96, 0x2e, 0x68, 0x30, 0x86, 0x2e,
  0x00, 0x00, 0x86, 0x3f, 0x00, 0x30, 0x96, 0x2e, 0x68, 0x00, 0x96, 0x3f,
  0x68, 0x30, 0x86, 0x2e, 0x00, 0x00, 0x86, 0x3f, 0x00, 0x30, 0x96, 0x33,
  0x68, 0x00, 0x96, 0x41, 0x68, 0x30, 0x86, 0x33, 0x00, 0x00, 0x86, 0x41,
  0x00, 0x30, 0x96, 0x41, 0x68, 0x00, 0x96, 0x33, 0x68, 0x30, 0x86, 0x41,
  0x00, 0x00, 0x86, 0x33, 0x00, 0x30, 0x96, 0x41, 0x68, 0x00, 0x96, 0x33,
  0x68, 0x30, 0x86, 0x33, 0x00, 0x00, 0x86, 0x41, 0x00, 0x30, 0x96, 0x41,
  0x68, 0x00, 0x96, 0x33, 0x68, 0x30, 0x86, 0x33, 0x00, 0x00, 0x86, 0x41,
  0x00, 0x30, 0x96, 0x41, 0x68, 0x00, 0x96, 0x33, 0x68, 0x30, 0x86, 0x41,
  0x00, 0x00, 0x86, 0x33, 0x00, 0x30, 0x96, 0x33, 0x68, 0x00, 0x96, 0x41,
  0x68, 0x30, 0x86, 0x33, 0x00, 0x00, 0x86, 0x41, 0x00, 0x30, 0x96, 0x41,
  0x68, 0x00, 0x96, 0x33, 0x68, 0x30, 0x86, 0x41, 0x00, 0x00, 0x86, 0x33,
  0x00, 0x30, 0x96, 0x41, 0x68, 0x00, 0x96, 0x33, 0x68, 0x30, 0x86, 0x33,
  0x00, 0x00, 0x86, 0x41, 0x00, 0x30, 0x96, 0x41, 0x68, 0x00, 0x96, 0x32,
  0x68, 0x30, 0x86, 0x32, 0x00, 0x00, 0x86, 0x41, 0x00, 0x30, 0x96, 0x41,
  0x68, 0x00, 0x96, 0x32, 0x68, 0x30, 0x86, 0x32, 0x00, 0x00, 0x86, 0x41,
  0x00, 0x30, 0x96, 0x41, 0x68, 0x00, 0x96, 0x32, 0x68, 0x30, 0x86, 0x32,
  0x00, 0x00, 0x86, 0x41, 0x00, 0x30, 0x96, 0x41, 0x68, 0x00, 0x96, 0x32,
  0x68, 0x30, 0x86, 0x32, 0x00, 0x00, 0x86, 0x41, 0x00, 0x30, 0x96, 0x3e,
  0x68, 0x00, 0x96, 0x2e, 0x68, 0x30, 0x86, 0x2e, 0x00, 0x00, 0x86, 0x3e,
  0x00, 0x30, 0x96, 0x3e, 0x68, 0x00, 0x96, 0x2e, 0x68, 0x30, 0x86, 0x2e,
  0x00, 0x00, 0x86, 0x3e, 0x00, 0x30, 0x96, 0x3f, 0x68, 0x00, 0x96, 0x2e,
  0x68, 0x30, 0x86, 0x2e, 0x00, 0x00, 0x86, 0x3f, 0x00, 0x30, 0x96, 0x3f,
  0x68, 0x00, 0x96, 0x2e, 0x68, 0x30, 0x86, 0x2e, 0x00, 0x00, 0x86, 0x3f,
  0x00, 0x30, 0x96, 0x30, 0x68, 0x00, 0x96, 0x3f, 0x68, 0x30, 0x86, 0x3f,
  0x00, 0x00, 0x86, 0x30, 0x00, 0x30, 0x96, 0x3f, 0x68, 0x00, 0x96, 0x30,
  0x68, 0x30, 0x86, 0x30, 0x00, 0x00, 0x86, 0x3f, 0x00, 0x30, 0x96, 0x3f,
  0x68, 0x00, 0x96, 0x30, 0x68, 0x30, 0x86, 0x30, 0x00, 0x00, 0x86, 0x3f,
  0x00, 0x30, 0x96, 0x3f, 0x68, 0x00, 0x96, 0x30, 0x68, 0x30, 0x86, 0x30,
  0x00, 0x00, 0x86, 0x3f, 0x00, 0x30, 0x96, 0x3f, 0x68, 0x00, 0x96, 0x30,
  0x68, 0x30, 0x86, 0x30, 0x00, 0x00, 0x86, 0x3f, 0x00, 0x30, 0x96, 0x3f,
  0x68, 0x00, 0x96, 0x30, 0x68, 0x30, 0x86, 0x30, 0x00, 0x00, 0x86, 0x3f,
  0x00, 0x30, 0x96, 0x3f, 0x68, 0x00, 0x96, 0x30, 0x68, 0x30, 0x86, 0x3f,
  0x00, 0x00, 0x86, 0x30, 0x00, 0x30, 0x96, 0x3f, 0x68, 0x00, 0x96, 0x30,
  0x68, 0x30, 0x86, 0x3f, 0x00, 0x00, 0x86, 0x30, 0x00, 0x30, 0x96, 0x2e,
  0x68, 0x00, 0x96, 0x3e, 0x68, 0x30, 0x86, 0x3e, 0x00, 0x00, 0x86, 0x2e,
  0x00, 0x30, 0x96, 0x3e, 0x68, 0x00, 0x96, 0x2e, 0x68, 0x30, 0x86, 0x3e,
  0x00, 0x00, 0x86, 0x2e, 0x00, 0x30, 0x96, 0x3e, 0x68, 0x00, 0x96, 0x2e,
  0x68, 0x30, 0x86, 0x2e, 0x00, 0x00, 0x86, 0x3e, 0x00, 0x30, 0x96, 0x3e,
  0x68, 0x00, 0x96, 0x2e, 0x68, 0x30, 0x86, 0x2e, 0x00, 0x00, 0x86, 0x3e,
  0x00, 0x30, 0x96, 0x3e, 0x68, 0x00, 0x96, 0x2e, 0x68, 0x30, 0x86, 0x2e,
  0x00, 0x00, 0x86, 0x3e, 0x00, 0x30, 0x96, 0x2e, 0x68, 0x00, 0x96, 0x3e,
  0x68, 0x30, 0x86, 0x2e, 0x00, 0x00, 0x86, 0x3e, 0x00, 0x30, 0x96, 0x3f,
  0x68, 0x00, 0x96, 0x2f, 0x68, 0x30, 0x86, 0x2f, 0x00, 0x00, 0x86, 0x3f,
  0x00, 0x30, 0x96, 0x2f, 0x68, 0x00, 0x96, 0x3f, 0x68, 0x30, 0x86, 0x2f,
  0x00, 0x00, 0x86, 0x3f, 0x00, 0x30, 0x96, 0x3e, 0x68, 0x00, 0x96, 0x30,
  0x68, 0x30, 0x86, 0x30, 0x00, 0x00, 0x86, 0x3e, 0x00, 0x30, 0x96, 0x30,
  0x68, 0x00, 0x96, 0x3e, 0x68, 0x30, 0x86, 0x30, 0x00, 0x00, 0x86, 0x3e,
  0x00, 0x30, 0x96, 0x30, 0x68, 0x00, 0x96, 0x3e, 0x68, 0x30, 0x86, 0x30,
  0x00, 0x00, 0x86, 0x3e, 0x00, 0x30, 0x96, 0x3e, 0x68, 0x00, 0x96, 0x30,
  0x68, 0x30, 0x86, 0x30, 0x00, 0x00, 0x86, 0x3e, 0x00, 0x30, 0x96, 0x3e,
  0x68, 0x00, 0x96, 0x30, 0x68, 0x30, 0x86, 0x30, 0x00, 0x00, 0x86, 0x3e,
  0x00, 0x30, 0x96, 0x30, 0x68, 0x00, 0x96, 0x3e, 0x68, 0x30, 0x86, 0x30,
  0x00, 0x00, 0x86, 0x3e, 0x00, 0x30, 0x96, 0x30, 0x68, 0x00, 0x96, 0x3f,
  0x68, 0x30, 0x86, 0x3f, 0x00, 0x00, 0x86, 0x30, 0x00, 0x30, 0x96, 0x30,
  0x68, 0x00, 0x96, 0x3f, 0x68, 0x30, 0x86, 0x30, 0x00, 0x00, 0x86, 0x3f,
  0x00, 0x30, 0x96, 0x41, 0x68, 0x00, 0x96, 0x30, 0x68, 0x30, 0x86, 0x30,
  0x00, 0x00, 0x86, 0x41, 0x00, 0x30, 0x96, 0x30, 0x68, 0x00, 0x96, 0x41,
  0x68, 0x30, 0x86, 0x30, 0x00, 0x00, 0x86, 0x41, 0x00, 0x30, 0x96, 0x30,
  0x68, 0x00, 0x96, 0x41, 0x68, 0x30, 0x86, 0x30, 0x00, 0x00, 0x86, 0x41,
  0x00, 0x30, 0x96, 0x41, 0x68, 0x00, 0x96, 0x30, 0x68, 0x30, 0x86, 0x30,
  0x00, 0x00, 0x86, 0x41, 0x00, 0x30, 0x96, 0x3e, 0x68, 0x00, 0x96, 0x2c,
  0x68, 0x30, 0x86, 0x2c, 0x00, 0x00, 0x86, 0x3e, 0x00, 0x30, 0x96, 0x2c,
  0x68, 0x00, 0x96, 0x3e, 0x68, 0x30, 0x86, 0x2c, 0x00, 0x00, 0x86, 0x3e,
  0x00, 0x30, 0x96, 0x3e, 0x68, 0x00, 0x96, 0x2c, 0x68, 0x30, 0x86, 0x2c,
  0x00, 0x00, 0x86, 0x3e, 0x00, 0x30, 0x96, 0x3e, 0x68, 0x00, 0x96, 0x2c,
  0x68, 0x30, 0x86, 0x2c, 0x00, 0x00, 0x86, 0x3e, 0x00, 0x30, 0x96, 0x41,
  0x68, 0x00, 0x96, 0x30, 0x68, 0x30, 0x86, 0x30, 0x00, 0x00, 0x86, 0x41,
  0x00, 0x30, 0x96, 0x41, 0x68, 0x00, 0x96, 0x30, 0x68, 0x30, 0x86, 0x30,
  0x00, 0x00, 0x86, 0x41, 0x00, 0x30, 0x96, 0x41, 0x68, 0x00, 0x96, 0x30,
  0x68, 0x30, 0x86, 0x30, 0x00, 0x00, 0x86, 0x41, 0x00, 0x30, 0x96, 0x41,
  0x68, 0x00, 0x96, 0x30, 0x68, 0x30, 0x86, 0x30, 0x00, 0x00, 0x86, 0x41,
  0x00, 0x30, 0x96, 0x30, 0x68, 0x00, 0x96, 0x3f, 0x68, 0x30, 0x86, 0x3f,
  0x00, 0x00, 0x86, 0x30, 0x00, 0x30, 0x96, 0x30, 0x68, 0x00, 0x96, 0x3f,
  0x68, 0x30, 0x86, 0x30, 0x00, 0x00, 0x86, 0x3f, 0x00, 0x30, 0x96, 0x30,
  0x68, 0x00, 0x96, 0x41, 0x68, 0x30, 0x86, 0x30, 0x00, 0x00, 0x86, 0x41,
  0x00, 0x30, 0x96, 0x30, 0x68, 0x00, 0x96, 0x41, 0x68, 0x30, 0x86, 0x30,
  0x00, 0x00, 0x86, 0x41, 0x00, 0x30, 0x96, 0x30, 0x68, 0x00, 0x96, 0x41,
  0x68, 0x30, 0x86, 0x41, 0x00, 0x00, 0x86, 0x30, 0x00, 0x30, 0x96, 0x30,
  0x68, 0x00, 0x96, 0x41, 0x68, 0x30, 0x86, 0x30, 0x00, 0x00, 0x86, 0x41,
  0x00, 0x30, 0x96, 0x30, 0x68, 0x00, 0x96, 0x41, 0x68, 0x30, 0x86, 0x30,
  0x00, 0x00, 0x86, 0x41, 0x00, 0x30, 0x96, 0x30, 0x68, 0x00, 0x96, 0x41,
  0x68, 0x30, 0x86, 0x30, 0x00, 0x00, 0x86, 0x41, 0x00, 0x30, 0x96, 0x30,
  0x68, 0x00, 0x96, 0x3f, 0x68, 0x30, 0x86, 0x3f, 0x00, 0x00, 0x86, 0x30,
  0x00, 0x30, 0x96, 0x30, 0x68, 0x00, 0x96, 0x3f, 0x68, 0x30, 0x86, 0x30,
  0x00, 0x00, 0x86, 0x3f, 0x00, 0x30, 0x96, 0x30, 0x68, 0x00, 0x96, 0x41,
  0x68, 0x30, 0x86, 0x30, 0x00, 0x00, 0x86, 0x41, 0x00, 0x30, 0x96, 0x30,
  0x68, 0x00, 0x96, 0x41, 0x68, 0x30, 0x86, 0x30, 0x00, 0x00, 0x86, 0x41,
  0x00, 0x30, 0x96, 0x41, 0x68, 0x00, 0x96, 0x30, 0x68, 0x30, 0x86, 0x30,
  0x00, 0x00, 0x86, 0x41, 0x00, 0x30, 0x96, 0x41, 0x68, 0x00, 0x96, 0x30,
  0x68, 0x30, 0x86, 0x30, 0x00, 0x00, 0x86, 0x41, 0x00, 0x30, 0x96, 0x41,
  0x68, 0x00, 0x96, 0x30, 0x68, 0x30, 0x86, 0x30, 0x00, 0x00, 0x86, 0x41,
  0x00, 0x30, 0x96, 0x41, 0x68, 0x00, 0x96, 0x30, 0x68, 0x30, 0x86, 0x30,
  0x00, 0x00, 0x86, 0x41, 0x00, 0x30, 0x96, 0x30, 0x68, 0x00, 0x96, 0x3f,
  0x68, 0x30, 0x86, 0x3f, 0x00, 0x00, 0x86, 0x30, 0x00, 0x30, 0x96, 0x30,
  0x68, 0x00, 0x96, 0x3f, 0x68, 0x30, 0x86, 0x30, 0x00, 0x00, 0x86, 0x3f,
  0x00, 0x30, 0x96, 0x30, 0x68, 0x00, 0x96, 0x41, 0x68, 0x30, 0x86, 0x30,
  0x00, 0x00, 0x86, 0x41, 0x00, 0x30, 0x96, 0x30, 0x68, 0x00, 0x96, 0x41,
  0x68, 0x30, 0x86, 0x30, 0x00, 0x00, 0x86, 0x41, 0x00, 0x30, 0x96, 0x30,
  0x68, 0x00, 0x96, 0x41, 0x68, 0x30, 0x86, 0x41, 0x00, 0x00, 0x86, 0x30,
  0x00, 0x30, 0x96, 0x30, 0x68, 0x00, 0x96, 0x41, 0x68, 0x30, 0x86, 0x30,
  0x00, 0x00, 0x86, 0x41, 0x00, 0x30, 0x96, 0x30, 0x68, 0x00, 0x96, 0x41,
  0x68, 0x30, 0x86, 0x30, 0x00, 0x00, 0x86, 0x41, 0x00, 0x30, 0x96, 0x30,
  0x68, 0x00, 0x96, 0x41, 0x68, 0x30, 0x86, 0x30, 0x00, 0x00, 0x86, 0x41,
  0x00, 0x30, 0x96, 0x30, 0x68, 0x00, 0x96, 0x3f, 0x68, 0x30, 0x86, 0x3f,
  0x00, 0x00, 0x86, 0x30, 0x00, 0x30, 0x96, 0x30, 0x68, 0x00, 0x96, 0x3f,
  0x68, 0x30, 0x86, 0x30, 0x00, 0x00, 0x86, 0x3f, 0x00, 0x30, 0x96, 0x30,
  0x68, 0x00, 0x96, 0x41, 0x68, 0x30, 0x86, 0x30, 0x00, 0x00, 0x86, 0x41,
  0x00, 0x30, 0x96, 0x30, 0x68, 0x00, 0x96, 0x41, 0x68, 0x30, 0x86, 0x30,
  0x00, 0x00, 0x86, 0x41, 0x00, 0x30, 0x96, 0x41, 0x68, 0x00, 0x96, 0x30,
  0x68, 0x30, 0x86, 0x30, 0x00, 0x00, 0x86, 0x41, 0x00, 0x30, 0x96, 0x41,
  0x68, 0x00, 0x96, 0x30, 0x68, 0x30, 0x86, 0x30, 0x00, 0x00, 0x86, 0x41,
  0x00, 0x30, 0x96, 0x41, 0x68, 0x00, 0x96, 0x30, 0x68, 0x30, 0x86, 0x30,
  0x00, 0x00, 0x86, 0x41, 0x00, 0x30, 0x96, 0x41, 0x68, 0x00, 0x96, 0x30,
  0x68, 0x30, 0x86, 0x30, 0x00, 0x00, 0x86, 0x41, 0x00, 0x30, 0x96, 0x30,
  0x68, 0x00, 0x96, 0x3f, 0x68, 0x30, 0x86, 0x3f, 0x00, 0x00, 0x86, 0x30,
  0x00, 0x30, 0x96, 0x3f, 0x68, 0x00, 0x96, 0x30, 0x68, 0x30, 0x86, 0x3f,
  0x00, 0x00, 0x86, 0x30, 0x00, 0x30, 0x96, 0x41, 0x68, 0x00, 0x96, 0x30,
  0x68, 0x30, 0x86, 0x30, 0x00, 0x00, 0x86, 0x41, 0x00, 0x30, 0x96, 0x41,
  0x68, 0x00, 0x96, 0x30, 0x68, 0x30, 0x86, 0x41, 0x00, 0x00, 0x86, 0x30,
  0x00, 0x30, 0x96, 0x41, 0x68, 0x00, 0x96, 0x30, 0x68, 0x30, 0x86, 0x30,
  0x00, 0x00, 0x86, 0x41, 0x00, 0x30, 0x96, 0x30, 0x68, 0x00, 0x96, 0x41,
  0x68, 0x30, 0x86, 0x30, 0x00, 0x00, 0x86, 0x41, 0x00, 0x30, 0x96, 0x41,
  0x68, 0x00, 0x96, 0x30, 0x68, 0x30, 0x86, 0x30, 0x00, 0x00, 0x86, 0x41,
  0x00, 0x30, 0x96, 0x30, 0x68, 0x00, 0x96, 0x41, 0x68, 0x30, 0x86, 0x30,
  0x00, 0x00, 0x86, 0x41, 0x00, 0x30, 0x96, 0x32, 0x68, 0x00, 0x96, 0x41,
  0x68, 0x30, 0x86, 0x41, 0x00, 0x00, 0x86, 0x32, 0x00, 0x30, 0x96, 0x32,
  0x68, 0x00, 0x96, 0x41, 0x68, 0x30, 0x86, 0x41, 0x00, 0x00, 0x86, 0x32,
  0x00, 0x30, 0x96, 0x41, 0x68, 0x00, 0x96, 0x32, 0x68, 0x30, 0x86, 0x32,
  0x00, 0x00, 0x86, 0x41, 0x00, 0x30, 0x96, 0x41, 0x68, 0x00, 0x96, 0x32,
  0x68, 0x30, 0x86, 0x32, 0x00, 0x00, 0x86, 0x41, 0x00, 0x83, 0x30, 0xb6,
  0x65, 0x00, 0x00, 0xb6, 0x64, 0x00, 0x00, 0xb6, 0x06, 0x0c, 0x00, 0xb6,
  0x0a, 0x40, 0x00, 0xb6, 0x07, 0x4f, 0x00, 0xe6, 0x06, 0x40, 0x00, 0xc6,
  0x0a, 0x00, 0xb6, 0x01, 0x26, 0x01, 0xb6, 0x65, 0x00, 0x00, 0xb6, 0x64,
  0x00, 0x00, 0xb6, 0x06, 0x0c, 0x00, 0xb6, 0x0a, 0x40, 0x00, 0xb6, 0x07,
  0x4f, 0x00, 0xe6, 0x06, 0x40, 0x00, 0xc6, 0x0a, 0x00, 0xb6, 0x01, 0x26,
  0x00, 0xb6, 0x65, 0x00, 0x00, 0xb6, 0x64, 0x00, 0x00, 0xb6, 0x06, 0x0c,
  0x00, 0xb6, 0x0a, 0x40, 0x00, 0xb6, 0x07, 0x4f, 0x00, 0xe6, 0x06, 0x40,
  0x00, 0xc6, 0x0a, 0x00, 0xb6, 0x01, 0x26, 0x00, 0xff, 0x2f, 0x00, 0x4d,
  0x54, 0x72, 0x6b, 0x00, 0x00, 0x09, 0x0c, 0x00, 0xff, 0x03, 0x09, 0x53,
  0x6c, 0x61, 0x70, 0x20, 0x42, 0x61, 0x73, 0x73, 0x00, 0xb7, 0x0a, 0x40,
  0x00, 0xb7, 0x07, 0x69, 0x00, 0xe7, 0x06, 0x40, 0x00, 0xb7, 0x65, 0x00,
  0x00, 0xb7, 0x64, 0x00, 0x00, 0xb7, 0x06, 0x0c, 0x00, 0xb7, 0x0a, 0x40,
  0x00, 0xb7, 0x07, 0x69, 0x00, 0xe7, 0x06, 0x40, 0x00, 0xc7, 0x25, 0x00,
  0xb7, 0x65, 0x00, 0x00, 0xb7, 0x64, 0x00, 0x00, 0xb7, 0x06, 0x0c, 0x00,
  0xb7, 0x0a, 0x40, 0x00, 0xb7, 0x07, 0x69, 0x00, 0xe7, 0x06, 0x40, 0x00,
  0xc7, 0x25, 0x00, 0xe7, 0x06, 0x40, 0x00, 0xb7, 0x0a, 0x40, 0x00, 0xb7,
  0x65, 0x00, 0x00, 0xb7, 0x64, 0x00, 0x00, 0xb7, 0x06, 0x0c, 0x00, 0xb7,
  0x0a, 0x40, 0x00, 0xb7, 0x07, 0x69, 0x00, 0xe7, 0x06, 0x40, 0x00, 0xc7,
  0x25, 0x00, 0xe7, 0x06, 0x40, 0x00, 0xb7, 0x0a, 0x40, 0x00, 0x97, 0x24,
  0x7f, 0x60, 0x87, 0x24, 0x00, 0x81, 0x40, 0x97, 0x24, 0x7f, 0x48, 0x87,
  0x24, 0x00, 0x00, 0x97, 0x24, 0x7f, 0x18, 0x87, 0x24, 0x00, 0x82, 0x08,
  0x97, 0x1f, 0x7f, 0x78, 0x87, 0x1f, 0x00, 0x00, 0x97, 0x22, 0x7f, 0x60,
  0x87, 0x22, 0x00, 0x81, 0x40, 0x97, 0x22, 0x7f, 0x48, 0x87, 0x22, 0x00,
  0x00, 0x97, 0x22, 0x7f, 0x18, 0x87, 0x22, 0x00, 0x82, 0x08, 0x97, 0x23,
  0x7f, 0x78, 0x87, 0x23, 0x00, 0x00, 0x97, 0x24, 0x7f, 0x60, 0x87, 0x24,
  0x00, 0x81, 0x40, 0x97, 0x24, 0x7f, 0x48, 0x87, 0x24, 0x00, 0x00, 0x97,
  0x24, 0x7f, 0x18, 0x87, 0x24, 0x00, 0x82, 0x08, 0x97, 0x1f, 0x7f, 0x78,
  0x87, 0x1f, 0x00, 0x00, 0x97, 0x22, 0x7f, 0x60, 0x87, 0x22, 0x00, 0x81,
  0x40, 0x97, 0x22, 0x7f, 0x48, 0x87, 0x22, 0x00, 0x00, 0x97, 0x22, 0x7f,
  0x18, 0x87, 0x22, 0x00, 0x82, 0x08, 0x97, 0x23, 0x7f, 0x78, 0x87, 0x23,
  0x00, 0x00, 0x97, 0x24, 0x7f, 0x60, 0x87, 0x24, 0x00, 0x81, 0x40, 0x97,
  0x24, 0x7f, 0x48, 0x87, 0x24, 0x00, 0x00, 0x97, 0x24, 0x7f, 0x18, 0x87,
  0x24, 0x00, 0x82, 0x08, 0x97, 0x1f, 0x7f, 0x78, 0x87, 0x1f, 0x00, 0x00,
  0x97, 0x22, 0x7f, 0x60, 0x87, 0x22, 0x00, 0x81, 0x40, 0x97, 0x22, 0x7f,
  0x48, 0x87, 0x22, 0x00, 0x00, 0x97, 0x22, 0x7f, 0x18, 0x87, 0x22, 0x00,
  0x82, 0x08, 0x97, 0x23, 0x7f, 0x78, 0x87, 0x23, 0x00, 0x00, 0x97, 0x24,
  0x7f, 0x60, 0x87, 0x24, 0x00, 0x81, 0x40, 0x97, 0x24, 0x7f, 0x48, 0x87,
  0x24, 0x00, 0x00, 0x97, 0x24, 0x7f, 0x18, 0x87, 0x24, 0x00, 0x82, 0x08,
  0x97, 0x1f, 0x7f, 0x78, 0x87, 0x1f, 0x00, 0x00, 0x97, 0x22, 0x7f, 0x60,
  0x87, 0x22, 0x00, 0x81, 0x40, 0x97, 0x22, 0x7f, 0x48, 0x87, 0x22, 0x00,
  0x00, 0x97, 0x22, 0x7f, 0x18, 0x87, 0x22, 0x00, 0x82, 0x08, 0x97, 0x1f,
  0x7f, 0x78, 0x87, 0x1f, 0x00, 0x00, 0x97, 0x1d, 0x7f, 0x60, 0x87, 0x1d,
  0x00, 0x81, 0x40, 0x97, 0x1d, 0x7f, 0x48, 0x87, 0x1d, 0x00, 0x00, 0x97,
  0x1d, 0x7f, 0x18, 0x87, 0x1d, 0x00, 0x83, 0x00, 0x97, 0x20, 0x7f, 0x60,
  0x87, 0x20, 0x00, 0x81, 0x40, 0x97, 0x20, 0x7f, 0x48, 0x87, 0x20, 0x00,
  0x00, 0x97, 0x20, 0x7f, 0x18, 0x87, 0x20, 0x00, 0x83, 0x00, 0x97, 0x1f,
  0x7f, 0x60, 0x87, 0x1f, 0x00, 0x81, 0x40, 0x97, 0x1f, 0x7f, 0x48, 0x87,
  0x1f, 0x00, 0x00, 0x97, 0x1f, 0x7f, 0x18, 0x87, 0x1f, 0x00, 0x60, 0x97,
  0x23, 0x7f, 0x60, 0x87, 0x23, 0x00, 0x48, 0x97, 0x1d, 0x7f, 0x78, 0x87,
  0x1d, 0x00, 0x00, 0x97, 0x1b, 0x7f, 0x60, 0x87, 0x1b, 0x00, 0x81, 0x40,
  0x97, 0x24, 0x7f, 0x48, 0x87, 0x24, 0x00, 0x00, 0x97, 0x24, 0x7f, 0x18,
  0x87, 0x24, 0x00, 0x82, 0x08, 0x97, 0x18, 0x7f, 0x78, 0x87, 0x18, 0x00,
  0x00, 0x97, 0x20, 0x7f, 0x83, 0x00, 0x87, 0x20, 0x00, 0x00, 0x97, 0x22,
  0x7f, 0x83, 0x00, 0x87, 0x22, 0x00, 0x00, 0x97, 0x1b, 0x7f, 0x83, 0x00,
  0x87, 0x1b, 0x00, 0x00, 0x97, 0x27, 0x7f, 0x83, 0x00, 0x87, 0x27, 0x00,
  0x00, 0x97, 0x20, 0x7f, 0x83, 0x00, 0x87, 0x20, 0x00, 0x00, 0x97, 0x22,
  0x7f, 0x83, 0x00, 0x87, 0x22, 0x00, 0x00, 0x97, 0x1f, 0x7f, 0x30, 0x87,
  0x1f, 0x00, 0x30, 0x97, 0x1f, 0x7f, 0x30, 0x87, 0x1f, 0x00, 0x30, 0x97,
  0x1f, 0x7f, 0x48, 0x87, 0x1f, 0x00, 0x00, 0x97, 0x1f, 0x7f, 0x18, 0x87,
  0x1f, 0x00, 0x48, 0x97, 0x1f, 0x7f, 0x18, 0x87, 0x1f, 0x00, 0x60, 0x97,
  0x24, 0x7f, 0x82, 0x20, 0x87, 0x24, 0x00, 0x00, 0x97, 0x1d, 0x7f, 0x60,
  0x87, 0x1d, 0x00, 0x81, 0x40, 0x97, 0x1d, 0x7f, 0x48, 0x87, 0x1d, 0x00,
  0x00, 0x97, 0x1d, 0x7f, 0x18, 0x87, 0x1d, 0x00, 0x82, 0x20, 0x97, 0x1d,
  0x7f, 0x60, 0x87, 0x1d, 0x00, 0x00, 0x97, 0x22, 0x7f, 0x60, 0x87, 0x22,
  0x00, 0x81, 0x40, 0x97, 0x22, 0x7f, 0x60, 0x87, 0x22, 0x00, 0x81, 0x40,
  0x97, 0x22, 0x7f, 0x81, 0x40, 0x87, 0x22, 0x00, 0x00, 0x97, 0x1d, 0x7f,
  0x60, 0x87, 0x1d, 0x00, 0x81, 0x40, 0x97, 0x1d, 0x7f, 0x48, 0x87, 0x1d,
  0x00, 0x00, 0x97, 0x1d, 0x7f, 0x18, 0x87, 0x1d, 0x00, 0x82, 0x20, 0x97,
  0x1d, 0x7f, 0x60, 0x87, 0x1d, 0x00, 0x00, 0x97, 0x22, 0x7f, 0x60, 0x87,
  0x22, 0x00, 0x81, 0x40, 0x97, 0x22, 0x7f, 0x60, 0x87, 0x22, 0x00, 0x81,
  0x40, 0x97, 0x22, 0x7f, 0x81, 0x40, 0x87, 0x22, 0x00, 0x00, 0x97, 0x1d,
  0x7f, 0x60, 0x87, 0x1d, 0x00, 0x81, 0x40, 0x97, 0x1d, 0x7f, 0x48, 0x87,
  0x1d, 0x00, 0x00, 0x97, 0x1d, 0x7f, 0x18, 0x87, 0x1d, 0x00, 0x81, 0x40,
  0x97, 0x1d, 0x7f, 0x81, 0x40, 0x87, 0x1d, 0x00, 0x00, 0x97, 0x22, 0x7f,
  0x60, 0x87, 0x22, 0x00, 0x81, 0x40, 0x97, 0x22, 0x7f, 0x48, 0x87, 0x22,
  0x00, 0x00, 0x97, 0x22, 0x7f, 0x18, 0x87, 0x22, 0x00, 0x81, 0x40, 0x97,
  0x1d, 0x7f, 0x81, 0x40, 0x87, 0x1d, 0x00, 0x00, 0x97, 0x27, 0x7f, 0x48,
  0x87, 0x27, 0x00, 0x00, 0x97, 0x27, 0x7f, 0x18, 0x87, 0x27, 0x00, 0x81,
  0x40, 0x97, 0x27, 0x7f, 0x48, 0x87, 0x27, 0x00, 0x00, 0x97, 0x27, 0x7f,
  0x18, 0x87, 0x27, 0x00, 0x82, 0x08, 0x97, 0x22, 0x7f, 0x78, 0x87, 0x22,
  0x00, 0x00, 0x97, 0x20, 0x7f, 0x48, 0x87, 0x20, 0x00, 0x00, 0x97, 0x20,
  0x7f, 0x18, 0x87, 0x20, 0x00, 0x81, 0x40, 0x97, 0x2b, 0x7f, 0x48, 0x87,
  0x2b, 0x00, 0x00, 0x97, 0x2b, 0x7f, 0x18, 0x87, 0x2b, 0x00, 0x82, 0x08,
  0x97, 0x1f, 0x7f, 0x78, 0x87, 0x1f, 0x00, 0x00, 0x97, 0x1f, 0x7f, 0x48,
  0x87, 0x1f, 0x00, 0x00, 0x97, 0x1f, 0x7f, 0x18, 0x87, 0x1f, 0x00, 0x81,
  0x40, 0x97, 0x1f, 0x7f, 0x48, 0x87, 0x1f, 0x00, 0x00, 0x97, 0x1f, 0x7f,
  0x18, 0x87, 0x1f, 0x00, 0x82, 0x08, 0x97, 0x2b, 0x7f, 0x78, 0x87, 0x2b,
  0x00, 0x00, 0x97, 0x20, 0x7f, 0x48, 0x87, 0x20, 0x00, 0x00, 0x97, 0x20,
  0x7f, 0x18, 0x87, 0x20, 0x00, 0x81, 0x40, 0x97, 0x20, 0x7f, 0x48, 0x87,
  0x20, 0x00, 0x00, 0x97, 0x20, 0x7f, 0x18, 0x87, 0x20, 0x00, 0x81, 0x40,
  0x97, 0x1d, 0x7f, 0x60, 0x87, 0x1d, 0x00, 0x00, 0x97, 0x22, 0x7f, 0x60,
  0x87, 0x22, 0x00, 0x00, 0x97, 0x1f, 0x7f, 0x48, 0x87, 0x1f, 0x00, 0x00,
  0x97, 0x1f, 0x7f, 0x18, 0x87, 0x1f, 0x00, 0x81, 0x40, 0x97, 0x1f, 0x7f,
  0x48, 0x87, 0x1f, 0x00, 0x00, 0x97, 0x1f, 0x7f, 0x18, 0x87, 0x1f, 0x00,
  0x82, 0x08, 0x97, 0x2b, 0x7f, 0x78, 0x87, 0x2b, 0x00, 0x00, 0x97, 0x20,
  0x7f, 0x48, 0x87, 0x20, 0x00, 0x00, 0x97, 0x20, 0x7f, 0x18, 0x87, 0x20,
  0x00, 0x81, 0x40, 0x97, 0x20, 0x7f, 0x48, 0x87, 0x20, 0x00, 0x00, 0x97,
  0x20, 0x7f, 0x18, 0x87, 0x20, 0x00, 0x81, 0x40, 0x97, 0x1d, 0x7f, 0x60,
  0x87, 0x1d, 0x00, 0x00, 0x97, 0x22, 0x7f, 0x60, 0x87, 0x22, 0x00, 0x00,
  0x97, 0x1f, 0x7f, 0x48, 0x87, 0x1f, 0x00, 0x00, 0x97, 0x1f, 0x7f, 0x18,
  0x87, 0x1f, 0x00, 0x81, 0x40, 0x97, 0x1f, 0x7f, 0x48, 0x87, 0x1f, 0x00,
  0x00, 0x97, 0x1f, 0x7f, 0x18, 0x87, 0x1f, 0x00, 0x82, 0x08, 0x97, 0x2b,
  0x7f, 0x78, 0x87, 0x2b, 0x00, 0x00, 0x97, 0x20, 0x7f, 0x81, 0x40, 0x87,
  0x20, 0x00, 0x00, 0x97, 0x20, 0x7f, 0x81, 0x40, 0x87, 0x20, 0x00, 0x00,
  0x97, 0x22, 0x7f, 0x48, 0x87, 0x22, 0x00, 0x00, 0x97, 0x2e, 0x7f, 0x18,
  0x87, 0x2e, 0x00, 0x00, 0x97, 0x22, 0x7f, 0x60, 0x87, 0x22, 0x00, 0x48,
  0x97, 0x23, 0x7f, 0x78, 0x87, 0x23, 0x00, 0x00, 0x97, 0x24, 0x7f, 0x60,
  0x87, 0x24, 0x00, 0x81, 0x40, 0x97, 0x24, 0x7f, 0x48, 0x87, 0x24, 0x00,
  0x00, 0x97, 0x24, 0x7f, 0x18, 0x87, 0x24, 0x00, 0x82, 0x08, 0x97, 0x1f,
  0x7f, 0x78, 0x87, 0x1f, 0x00, 0x00, 0x97, 0x22, 0x7f, 0x60, 0x87, 0x22,
  0x00, 0x81, 0x40, 0x97, 0x22, 0x7f, 0x48, 0x87, 0x22, 0x00, 0x00, 0x97,
  0x22, 0x7f, 0x18, 0x87, 0x22, 0x00, 0x82, 0x08, 0x97, 0x23, 0x7f, 0x78,
  0x87, 0x23, 0x00, 0x00, 0x97, 0x24, 0x7f, 0x60, 0x87, 0x24, 0x00, 0x81,
  0x40, 0x97, 0x24, 0x7f, 0x48, 0x87, 0x24, 0x00, 0x00, 0x97, 0x24, 0x7f,
  0x18, 0x87, 0x24, 0x00, 0x82, 0x08, 0x97, 0x1f, 0x7f, 0x78, 0x87, 0x1f,
  0x00, 0x00, 0x97, 0x22, 0x7f, 0x60, 0x87, 0x22, 0x00, 0x81, 0x40, 0x97,
  0x22, 0x7f, 0x48, 0x87, 0x22, 0x00, 0x00, 0x97, 0x22, 0x7f, 0x18, 0x87,
  0x22, 0x00, 0x82, 0x08, 0x97, 0x23, 0x7f, 0x78, 0x87, 0x23, 0x00, 0x00,
  0x97, 0x24, 0x7f, 0x60, 0x87, 0x24, 0x00, 0x81, 0x40, 0x97, 0x24, 0x7f,
  0x48, 0x87, 0x24, 0x00, 0x00, 0x97, 0x24, 0x7f, 0x18, 0x87, 0x24, 0x00,
  0x82, 0x08, 0x97, 0x1f, 0x7f, 0x78, 0x87, 0x1f, 0x00, 0x00, 0x97, 0x22,
  0x7f, 0x60, 0x87, 0x22, 0x00, 0x81, 0x40, 0x97, 0x22, 0x7f, 0x48, 0x87,
  0x22, 0x00, 0x00, 0x97, 0x22, 0x7f, 0x18, 0x87, 0x22, 0x00, 0x82, 0x08,
  0x97, 0x23, 0x7f, 0x78, 0x87, 0x23, 0x00, 0x00, 0x97, 0x24, 0x7f, 0x60,
  0x87, 0x24, 0x00, 0x81, 0x40, 0x97, 0x24, 0x7f, 0x48, 0x87, 0x24, 0x00,
  0x00, 0x97, 0x24, 0x7f, 0x18, 0x87, 0x24, 0x00, 0x82, 0x08, 0x97, 0x1f,
  0x7f, 0x78, 0x87, 0x1f, 0x00, 0x00, 0x97, 0x22, 0x7f, 0x60, 0x87, 0x22,
  0x00, 0x81, 0x40, 0x97, 0x22, 0x7f, 0x48, 0x87, 0x22, 0x00, 0x00, 0x97,
  0x22, 0x7f, 0x18, 0x87, 0x22, 0x00, 0x82, 0x08, 0x97, 0x1f, 0x7f, 0x78,
  0x87, 0x1f, 0x00, 0x00, 0x97, 0x1d, 0x7f, 0x60, 0x87, 0x1d, 0x00, 0x81,
  0x40, 0x97, 0x1d, 0x7f, 0x48, 0x87, 0x1d, 0x00, 0x00, 0x97, 0x1d, 0x7f,
  0x18, 0x87, 0x1d, 0x00, 0x83, 0x00, 0x97, 0x20, 0x7f, 0x60, 0x87, 0x20,
  0x00, 0x81, 0x40, 0x97, 0x20, 0x7f, 0x48, 0x87, 0x20, 0x00, 0x00, 0x97,
  0x20, 0x7f, 0x18, 0x87, 0x20, 0x00, 0x83, 0x00, 0x97, 0x1f, 0x7f, 0x60,
  0x87, 0x1f, 0x00, 0x81, 0x40, 0x97, 0x1f, 0x7f, 0x48, 0x87, 0x1f, 0x00,
  0x00, 0x97, 0x1f, 0x7f, 0x18, 0x87, 0x1f, 0x00, 0x60, 0x97, 0x23, 0x7f,
  0x60, 0x87, 0x23, 0x00, 0x48, 0x97, 0x1d, 0x7f, 0x78, 0x87, 0x1d, 0x00,
  0x00, 0x97, 0x1b, 0x7f, 0x60, 0x87, 0x1b, 0x00, 0x81, 0x40, 0x97, 0x24,
  0x7f, 0x48, 0x87, 0x24, 0x00, 0x00, 0x97, 0x24, 0x7f, 0x18, 0x87, 0x24,
  0x00, 0x82, 0x08, 0x97, 0x18, 0x7f, 0x78, 0x87, 0x18, 0x00, 0x00, 0x97,
  0x20, 0x7f, 0x83, 0x00, 0x87, 0x20, 0x00, 0x00, 0x97, 0x22, 0x7f, 0x83,
  0x00, 0x87, 0x22, 0x00, 0x00, 0x97, 0x1b, 0x7f, 0x83, 0x00, 0x87, 0x1b,
  0x00, 0x00, 0x97, 0x27, 0x7f, 0x83, 0x00, 0x87, 0x27, 0x00, 0x00, 0x97,
  0x20, 0x7f, 0x83, 0x00, 0x87, 0x20, 0x00, 0x00, 0x97, 0x22, 0x7f, 0x83,
  0x00, 0x87, 0x22, 0x00, 0x00, 0x97, 0x1f, 0x7f, 0x30, 0x87, 0x1f, 0x00,
  0x30, 0x97, 0x1f, 0x7f, 0x30, 0x87, 0x1f, 0x00, 0x30, 0x97, 0x1f, 0x7f,
  0x48, 0x87, 0x1f, 0x00, 0x00, 0x97, 0x1f, 0x7f, 0x18, 0x87, 0x1f, 0x00,
  0x48, 0x97, 0x1f, 0x7f, 0x18, 0x87, 0x1f, 0x00, 0x60, 0x97, 0x24, 0x7f,
  0x82, 0x20, 0x87, 0x24, 0x00, 0x00, 0x97, 0x1d, 0x7f, 0x60, 0x87, 0x1d,
  0x00, 0x81, 0x40, 0x97, 0x1d, 0x7f, 0x48, 0x87, 0x1d, 0x00, 0x00, 0x97,
  0x1d, 0x7f, 0x18, 0x87, 0x1d, 0x00, 0x82, 0x20, 0x97, 0x1d, 0x7f, 0x60,
  0x87, 0x1d, 0x00, 0x00, 0x97, 0x22, 0x7f, 0x60, 0x87, 0x22, 0x00, 0x81,
  0x40, 0x97, 0x22, 0x7f, 0x60, 0x87, 0x22, 0x00, 0x81, 0x40, 0x97, 0x22,
  0x7f, 0x81, 0x40, 0x87, 0x22, 0x00, 0x00, 0x97, 0x1d, 0x7f, 0x60, 0x87,
  0x1d, 0x00, 0x81, 0x40, 0x97, 0x1d, 0x7f, 0x48, 0x87, 0x1d, 0x00, 0x00,
  0x97, 0x1d, 0x7f, 0x18, 0x87, 0x1d, 0x00, 0x82, 0x20, 0x97, 0x1d, 0x7f,
  0x60, 0x87, 0x1d, 0x00, 0x00, 0x97, 0x22, 0x7f, 0x60, 0x87, 0x22, 0x00,
  0x81, 0x40, 0x97, 0x22, 0x7f, 0x60, 0x87, 0x22, 0x00, 0x81, 0x40, 0x97,
  0x22, 0x7f, 0x81, 0x40, 0x87, 0x22, 0x00, 0x00, 0x97, 0x1d, 0x7f, 0x60,
  0x87, 0x1d, 0x00, 0x81, 0x40, 0x97, 0x1d, 0x7f, 0x48, 0x87, 0x1d, 0x00,
  0x00, 0x97, 0x1d, 0x7f, 0x18, 0x87, 0x1d, 0x00, 0x81, 0x40, 0x97, 0x1d,
  0x7f, 0x81, 0x40, 0x87, 0x1d, 0x00, 0x00, 0x97, 0x22, 0x7f, 0x60, 0x87,
  0x22, 0x00, 0x81, 0x40, 0x97, 0x22, 0x7f, 0x48, 0x87, 0x22, 0x00, 0x00,
  0x97, 0x22, 0x7f, 0x18, 0x87, 0x22, 0x00, 0x81, 0x40, 0x97, 0x1d, 0x7f,
  0x81, 0x40, 0x87, 0x1d, 0x00, 0x00, 0x97, 0x27, 0x7f, 0x48, 0x87, 0x27,
  0x00, 0x00, 0x97, 0x27, 0x7f, 0x18, 0x87, 0x27, 0x00, 0x81, 0x40, 0x97,
  0x27, 0x7f, 0x48, 0x87, 0x27, 0x00, 0x00, 0x97, 0x27, 0x7f, 0x18, 0x87,
  0x27, 0x00, 0x82, 0x08, 0x97, 0x22, 0x7f, 0x78, 0x87, 0x22, 0x00, 0x00,
  0x97, 0x20, 0x7f, 0x48, 0x87, 0x20, 0x00, 0x00, 0x97, 0x20, 0x7f, 0x18,
  0x87, 0x20, 0x00, 0x81, 0x40, 0x97, 0x2b, 0x7f, 0x48, 0x87, 0x2b, 0x00,
  0x00, 0x97, 0x2b, 0x7f, 0x18, 0x87, 0x2b, 0x00, 0x82, 0x08, 0x97, 0x1f,
  0x7f, 0x78, 0x87, 0x1f, 0x00, 0x00, 0x97, 0x1f, 0x7f, 0x48, 0x87, 0x1f,
  0x00, 0x00, 0x97, 0x1f, 0x7f, 0x18, 0x87, 0x1f, 0x00, 0x81, 0x40, 0x97,
  0x1f, 0x7f, 0x48, 0x87, 0x1f, 0x00, 0x00, 0x97, 0x1f, 0x7f, 0x18, 0x87,
  0x1f, 0x00, 0x82, 0x08, 0x97, 0x2b, 0x7f, 0x78, 0x87, 0x2b, 0x00, 0x00,
  0x97, 0x20, 0x7f, 0x48, 0x87, 0x20, 0x00, 0x00, 0x97, 0x20, 0x7f, 0x18,
  0x87, 0x20, 0x00, 0x81, 0x40, 0x97, 0x20, 0x7f, 0x48, 0x87, 0x20, 0x00,
  0x00, 0x97, 0x20, 0x7f, 0x18, 0x87, 0x20, 0x00, 0x81, 0x40, 0x97, 0x1d,
  0x7f, 0x60, 0x87, 0x1d, 0x00, 0x00, 0x97, 0x22, 0x7f, 0x60, 0x87, 0x22,
  0x00, 0x00, 0x97, 0x1f, 0x7f, 0x48, 0x87, 0x1f, 0x00, 0x00, 0x97, 0x1f,
  0x7f, 0x18, 0x87, 0x1f, 0x00, 0x81, 0x40, 0x97, 0x1f, 0x7f, 0x48, 0x87,
  0x1f, 0x00, 0x00, 0x97, 0x1f, 0x7f, 0x18, 0x87, 0x1f, 0x00, 0x82, 0x08,
  0x97, 0x2b, 0x7f, 0x78, 0x87, 0x2b, 0x00, 0x00, 0x97, 0x20, 0x7f, 0x48,
  0x87, 0x20, 0x00, 0x00, 0x97, 0x20, 0x7f, 0x18, 0x87, 0x20, 0x00, 0x81,
  0x40, 0x97, 0x20, 0x7f, 0x48, 0x87, 0x20, 0x00, 0x00, 0x97, 0x20, 0x7f,
  0x18, 0x87, 0x20, 0x00, 0x81, 0x40, 0x97, 0x1d, 0x7f, 0x60, 0x87, 0x1d,
  0x00, 0x00, 0x97, 0x22, 0x7f, 0x60, 0x87, 0x22, 0x00, 0x00, 0x97, 0x1f,
  0x7f, 0x48, 0x87, 0x1f, 0x00, 0x00, 0x97, 0x1f, 0x7f, 0x18, 0x87, 0x1f,
  0x00, 0x81, 0x40, 0x97, 0x1f, 0x7f, 0x48, 0x87, 0x1f, 0x00, 0x00, 0x97,
  0x1f, 0x7f, 0x18, 0x87, 0x1f, 0x00, 0x82, 0x08, 0x97, 0x2b, 0x7f, 0x78,
  0x87, 0x2b, 0x00, 0x00, 0x97, 0x20, 0x7f, 0x81, 0x40, 0x87, 0x20, 0x00,
  0x00, 0x97, 0x20, 0x7f, 0x81, 0x40, 0x87, 0x20, 0x00, 0x00, 0x97, 0x22,
  0x7f, 0x48, 0x87, 0x22, 0x00, 0x00, 0x97, 0x2e, 0x7f, 0x18, 0x87, 0x2e,
  0x00, 0x00, 0x97, 0x22, 0x7f, 0x60, 0x87, 0x22, 0x00, 0x48, 0x97, 0x23,
  0x7f, 0x78, 0x87, 0x23, 0x00, 0x83, 0x00, 0xb7, 0x65, 0x00, 0x00, 0xb7,
  0x64, 0x00, 0x00, 0xb7, 0x06, 0x0c, 0x00, 0xb7, 0x0a, 0x40, 0x00, 0xb7,
  0x07, 0x69, 0x00, 0xe7, 0x06, 0x40, 0x00, 0xc7, 0x25, 0x01, 0xb7, 0x65,
  0x00, 0x00, 0xb7, 0x64, 0x00, 0x00, 0xb7, 0x06, 0x0c, 0x00, 0xb7, 0x0a,
  0x40, 0x00, 0xb7, 0x07, 0x69, 0x00, 0xe7, 0x06, 0x40, 0x00, 0xc7, 0x25,
  0x00, 0xb7, 0x65, 0x00, 0x00, 0xb7, 0x64, 0x00, 0x00, 0xb7, 0x06, 0x0c,
  0x00, 0xb7, 0x0a, 0x40, 0x00, 0xb7, 0x07, 0x69, 0x00, 0xe7, 0x06, 0x40,
  0x00, 0xc7, 0x25, 0x00, 0xff, 0x2f, 0x00, 0x4d, 0x54, 0x72, 0x6b, 0x00,
  0x00, 0x1b, 0x84, 0x00, 0xff, 0x03, 0x05, 0x44, 0x72, 0x75, 0x6d, 0x73,
  0x00, 0xb9, 0x0a, 0x40, 0x00, 0xb9, 0x07, 0x76, 0x00, 0xe9, 0x06, 0x40,
  0x00, 0xb9, 0x65, 0x00, 0x00, 0xb9, 0x64, 0x00, 0x00, 0xb9, 0x06, 0x0c,
  0x00, 0xb9, 0x0a, 0x40, 0x00, 0xb9, 0x07, 0x76, 0x00, 0xe9, 0x06, 0x40,
  0x00, 0xc9, 0x00, 0x00, 0xb9, 0x01, 0x00, 0x00, 0xb9, 0x65, 0x00, 0x00,
  0xb9, 0x64, 0x00, 0x00, 0xb9, 0x06, 0x0c, 0x00, 0xb9, 0x0a, 0x40, 0x00,
  0xb9, 0x07, 0x76, 0x00, 0xe9, 0x06, 0x40, 0x00, 0xc9, 0x00, 0x00, 0xb9,
  0x01, 0x00, 0x00, 0xe9, 0x06, 0x40, 0x00, 0xb9, 0x0a, 0x40, 0x00, 0xb9,
  0x65, 0x00, 0x00, 0xb9, 0x64, 0x00, 0x00, 0xb9, 0x06, 0x0c, 0x00, 0xb9,
  0x0a, 0x40, 0x00, 0xb9, 0x07, 0x76, 0x00, 0xe9, 0x06, 0x40, 0x00, 0xc9,
  0x00, 0x00, 0xb9, 0x01, 0x00, 0x00, 0xe9, 0x06, 0x40, 0x00, 0xb9, 0x0a,
  0x40, 0x00, 0x99, 0x24, 0x68, 0x30, 0x89, 0x24, 0x00, 0x30, 0x99, 0x2a,
  0x68, 0x30, 0x89, 0x2a, 0x00, 0x18, 0x99, 0x2a, 0x68, 0x18, 0x89, 0x2a,
  0x00, 0x00, 0x99, 0x26, 0x68, 0x60, 0x89, 0x26, 0x00, 0x00, 0x99, 0x2a,
  0x68, 0x30, 0x89, 0x2a, 0x00, 0x18, 0x99, 0x2a, 0x68, 0x18, 0x89, 0x2a,
  0x00, 0x00, 0x99, 0x24, 0x68, 0x30, 0x89, 0x24, 0x00, 0x30, 0x99, 0x2a,
  0x68, 0x30, 0x89, 0x2a, 0x00, 0x18, 0x99, 0x2a, 0x68, 0x18, 0x89, 0x2a,
  0x00, 0x00, 0x99, 0x26, 0x68, 0x48, 0x99, 0x2a, 0x68, 0x18, 0x89, 0x26,
  0x00, 0x00, 0x89, 0x2a, 0x00, 0x00, 0x99, 0x24, 0x68, 0x18, 0x89, 0x24,
  0x00, 0x30, 0x99, 0x2a, 0x68, 0x18, 0x89, 0x2a, 0x00, 0x00, 0x99, 0x24,
  0x68, 0x30, 0x89, 0x24, 0x00, 0x30, 0x99, 0x2a, 0x68, 0x30, 0x89, 0x2a,
  0x00, 0x18, 0x99, 0x2a, 0x68, 0x18, 0x89, 0x2a, 0x00, 0x00, 0x99, 0x26,
  0x68, 0x60, 0x89, 0x26, 0x00, 0x00, 0x99, 0x2a, 0x68, 0x30, 0x89, 0x2a,
  0x00, 0x18, 0x99, 0x2a, 0x68, 0x18, 0x89, 0x2a, 0x00, 0x00, 0x99, 0x24,
  0x68, 0x30, 0x89, 0x24, 0x00, 0x30, 0x99, 0x2a, 0x68, 0x30, 0x89, 0x2a,
  0x00, 0x18, 0x99, 0x2a, 0x68, 0x18, 0x89, 0x2a, 0x00, 0x00, 0x99, 0x26,
  0x68, 0x48, 0x99, 0x2a, 0x68, 0x18, 0x89, 0x26, 0x00, 0x00, 0x89, 0x2a,
  0x00, 0x00, 0x99, 0x24, 0x68, 0x18, 0x89, 0x24, 0x00, 0x30, 0x99, 0x2a,
  0x68, 0x18, 0x89, 0x2a, 0x00, 0x00, 0x99, 0x24, 0x68, 0x30, 0x89, 0x24,
  0x00, 0x30, 0x99, 0x2a, 0x68, 0x30, 0x89, 0x2a, 0x00, 0x18, 0x99, 0x2a,
  0x68, 0x18, 0x89, 0x2a, 0x00, 0x00, 0x99, 0x26, 0x68, 0x60, 0x89, 0x26,
  0x00, 0x00, 0x99, 0x2a, 0x68, 0x30, 0x89, 0x2a, 0x00, 0x18, 0x99, 0x2a,
  0x68, 0x18, 0x89, 0x2a, 0x00, 0x00, 0x99, 0x24, 0x68, 0x30, 0x89, 0x24,
  0x00, 0x30, 0x99, 0x2a, 0x68, 0x30, 0x89, 0x2a, 0x00, 0x18, 0x99, 0x2a,
  0x68, 0x18, 0x89, 0x2a, 0x00, 0x00, 0x99, 0x26, 0x68, 0x48, 0x99, 0x2a,
  0x68, 0x18, 0x89, 0x26, 0x00, 0x00, 0x89, 0x2a, 0x00, 0x00, 0x99, 0x24,
  0x68, 0x18, 0x89, 0x24, 0x00, 0x30, 0x99, 0x2a, 0x68, 0x18, 0x89, 0x2a,
  0x00, 0x00, 0x99, 0x24, 0x68, 0x30, 0x89, 0x24, 0x00, 0x30, 0x99, 0x2a,
  0x68, 0x30, 0x89, 0x2a, 0x00, 0x18, 0x99, 0x2a, 0x68, 0x18, 0x89, 0x2a,
  0x00, 0x00, 0x99, 0x26, 0x68, 0x60, 0x89, 0x26, 0x00, 0x00, 0x99, 0x2a,
  0x68, 0x30, 0x89, 0x2a, 0x00, 0x18, 0x99, 0x2a, 0x68, 0x18, 0x89, 0x2a,
  0x00, 0x00, 0x99, 0x24, 0x68, 0x30, 0x89, 0x24, 0x00, 0x30, 0x99, 0x2a,
  0x68, 0x30, 0x89, 0x2a, 0x00, 0x18, 0x99, 0x2a, 0x68, 0x18, 0x89, 0x2a,
  0x00, 0x00, 0x99, 0x26, 0x68, 0x30, 0x89, 0x26, 0x00, 0x18, 0x99, 0x26,
  0x68, 0x18, 0x89, 0x26, 0x00, 0x00, 0x99, 0x26, 0x68, 0x18, 0x89, 0x26,
  0x00, 0x48, 0x99, 0x24, 0x68, 0x30, 0x89, 0x24, 0x00, 0x30, 0x99, 0x2a,
  0x68, 0x30, 0x89, 0x2a, 0x00, 0x18, 0x99, 0x2a, 0x68, 0x18, 0x89, 0x2a,
  0x00, 0x00, 0x99, 0x26, 0x68, 0x60, 0x89, 0x26, 0x00, 0x00, 0x99, 0x2a,
  0x68, 0x30, 0x89, 0x2a, 0x00, 0x18, 0x99, 0x2a, 0x68, 0x18, 0x89, 0x2a,
  0x00, 0x00, 0x99, 0x24, 0x68, 0x30, 0x89, 0x24, 0x00, 0x30, 0x99, 0x2a,
  0x68, 0x30, 0x89, 0x2a, 0x00, 0x18, 0x99, 0x2a, 0x68, 0x18, 0x89, 0x2a,
  0x00, 0x00, 0x99, 0x26, 0x68, 0x48, 0x99, 0x2a, 0x68, 0x18, 0x89, 0x26,
  0x00, 0x00, 0x89, 0x2a, 0x00, 0x00, 0x99, 0x24, 0x68, 0x18, 0x89, 0x24,
  0x00, 0x30, 0x99, 0x2a, 0x68, 0x18, 0x89, 0x2a, 0x00, 0x00, 0x99, 0x24,
  0x68, 0x30, 0x89, 0x24, 0x00, 0x30, 0x99, 0x2a, 0x68, 0x30, 0x89, 0x2a,
  0x00, 0x18, 0x99, 0x2a, 0x68, 0x18, 0x89, 0x2a, 0x00, 0x00, 0x99, 0x26,
  0x68, 0x60, 0x89, 0x26, 0x00, 0x00, 0x99, 0x2a, 0x68, 0x30, 0x89, 0x2a,
  0x00, 0x18, 0x99, 0x2a, 0x68, 0x18, 0x89, 0x2a, 0x00, 0x00, 0x99, 0x24,
  0x68, 0x30, 0x89, 0x24, 0x00, 0x30, 0x99, 0x2a, 0x68, 0x30, 0x89, 0x2a,
  0x00, 0x18, 0x99, 0x2a, 0x68, 0x18, 0x89, 0x2a, 0x00, 0x00, 0x99, 0x26,
  0x68, 0x48, 0x99, 0x2a, 0x68, 0x18, 0x89, 0x26, 0x00, 0x00, 0x89, 0x2a,
  0x00, 0x00, 0x99, 0x24, 0x68, 0x18, 0x89, 0x24, 0x00, 0x30, 0x99, 0x2a,
  0x68, 0x18, 0x89, 0x2a, 0x00, 0x00, 0x99, 0x24, 0x68, 0x30, 0x89, 0x24,
  0x00, 0x30, 0x99, 0x2a, 0x68, 0x30, 0x89, 0x2a, 0x00, 0x18, 0x99, 0x2a,
  0x68, 0x18, 0x89, 0x2a, 0x00, 0x00, 0x99, 0x26, 0x68, 0x60, 0x89, 0x26,
  0x00, 0x00, 0x99, 0x2a, 0x68, 0x30, 0x89, 0x2a, 0x00, 0x18, 0x99, 0x2a,
  0x68, 0x18, 0x89, 0x2a, 0x00, 0x00, 0x99, 0x24, 0x68, 0x30, 0x89, 0x24,
  0x00, 0x30, 0x99, 0x2a, 0x68, 0x30, 0x89, 0x2a, 0x00, 0x18, 0x99, 0x2a,
  0x68, 0x18, 0x89, 0x2a, 0x00, 0x00, 0x99, 0x26, 0x68, 0x48, 0x99, 0x2a,
  0x68, 0x18, 0x89, 0x26, 0x00, 0x00, 0x89, 0x2a, 0x00, 0x00, 0x99, 0x24,
  0x68, 0x18, 0x89, 0x24, 0x00, 0x30, 0x99, 0x2a, 0x68, 0x18, 0x89, 0x2a,
  0x00, 0x00, 0x99, 0x24, 0x68, 0x30, 0x89, 0x24, 0x00, 0x30, 0x99, 0x2a,
  0x68, 0x30, 0x89, 0x2a, 0x00, 0x18, 0x99, 0x2a, 0x68, 0x18, 0x89, 0x2a,
  0x00, 0x00, 0x99, 0x26, 0x68, 0x60, 0x89, 0x26, 0x00, 0x00, 0x99, 0x2a,
  0x68, 0x30, 0x89, 0x2a, 0x00, 0x18, 0x99, 0x2a, 0x68, 0x18, 0x89, 0x2a,
  0x00, 0x00, 0x99, 0x24, 0x68, 0x30, 0x89, 0x24, 0x00, 0x30, 0x99, 0x2a,
  0x68, 0x30, 0x89, 0x2a, 0x00, 0x18, 0x99, 0x2a, 0x68, 0x18, 0x89, 0x2a,
  0x00, 0x00, 0xb9, 0x0a, 0x00, 0x00, 0x99, 0x30, 0x68, 0x20, 0x89, 0x30,
  0x00, 0x00, 0x99, 0x30, 0x68, 0x20, 0x89, 0x30, 0x00, 0x00, 0x99, 0x30,
  0x68, 0x20, 0x89, 0x30, 0x00, 0x00, 0xb9, 0x0a, 0x7f, 0x00, 0x99, 0x2d,
  0x68, 0x20, 0x89, 0x2d, 0x00, 0x00, 0x99, 0x2d, 0x68, 0x20, 0x89, 0x2d,
  0x00, 0x00, 0x99, 0x2d, 0x68, 0x20, 0x89, 0x2d, 0x00, 0x00, 0xb9, 0x0a,
  0x40, 0x00, 0x99, 0x24, 0x68, 0x18, 0x89, 0x24, 0x00, 0x48, 0x99, 0x2a,
  0x68, 0x30, 0x89, 0x2a, 0x00, 0x18, 0x99, 0x2a, 0x68, 0x18, 0x89, 0x2a,
  0x00, 0x00, 0x99, 0x26, 0x68, 0x60, 0x89, 0x26, 0x00, 0x00, 0x99, 0x24,
  0x68, 0x18, 0x89, 0x24, 0x00, 0x30, 0x99, 0x2a, 0x68, 0x18, 0x89, 0x2a,
  0x00, 0x00, 0x99, 0x24, 0x68, 0x18, 0x89, 0x24, 0x00, 0x48, 0x99, 0x2a,
  0x68, 0x30, 0x89, 0x2a, 0x00, 0x18, 0x99, 0x2a, 0x68, 0x18, 0x89, 0x2a,
  0x00, 0x00, 0x99, 0x26, 0x68, 0x60, 0x89, 0x26, 0x00, 0x00, 0x99, 0x2a,
  0x68, 0x30, 0x89, 0x2a, 0x00, 0x18, 0x99, 0x24, 0x68, 0x18, 0x89, 0x24,
  0x00, 0x00, 0x99, 0x24, 0x68, 0x18, 0x89, 0x24, 0x00, 0x48, 0x99, 0x2a,
  0x68, 0x30, 0x89, 0x2a, 0x00, 0x18, 0x99, 0x2a, 0x68, 0x18, 0x89, 0x2a,
  0x00, 0x00, 0x99, 0x26, 0x68, 0x60, 0x89, 0x26, 0x00, 0x00, 0x99, 0x24,
  0x68, 0x18, 0x89, 0x24, 0x00, 0x30, 0x99, 0x2a, 0x68, 0x18, 0x89, 0x2a,
  0x00, 0x00, 0x99, 0x24, 0x68, 0x18, 0x89, 0x24, 0x00, 0x48, 0x99, 0x2a,
  0x68, 0x30, 0x89, 0x2a, 0x00, 0x18, 0x99, 0x2a, 0x68, 0x18, 0x89, 0x2a,
  0x00, 0x00, 0x99, 0x26, 0x68, 0x60, 0x89, 0x26, 0x00, 0x00, 0x99, 0x2a,
  0x68, 0x30, 0x89, 0x2a, 0x00, 0x18, 0x99, 0x24, 0x68, 0x18, 0x89, 0x24,
  0x00, 0x00, 0x99, 0x24, 0x68, 0x18, 0x89, 0x24, 0x00, 0x48, 0x99, 0x2a,
  0x68, 0x30, 0x89, 0x2a, 0x00, 0x18, 0x99, 0x2a, 0x68, 0x18, 0x89, 0x2a,
  0x00, 0x00, 0x99, 0x26, 0x68, 0x60, 0x89, 0x26, 0x00, 0x00, 0x99, 0x24,
  0x68, 0x18, 0x89, 0x24, 0x00, 0x30, 0x99, 0x2a, 0x68, 0x18, 0x89, 0x2a,
  0x00, 0x00, 0x99, 0x24, 0x68, 0x18, 0x89, 0x24, 0x00, 0x48, 0x99, 0x2a,
  0x68, 0x30, 0x89, 0x2a, 0x00, 0x18, 0x99, 0x2a, 0x68, 0x18, 0x89, 0x2a,
  0x00, 0x00, 0x99, 0x26, 0x68, 0x60, 0x89, 0x26, 0x00, 0x00, 0x99, 0x2a,
  0x68, 0x30, 0x89, 0x2a, 0x00, 0x18, 0x99, 0x24, 0x68, 0x18, 0x89, 0x24,
  0x00, 0x00, 0x99, 0x24, 0x68, 0x18, 0x89, 0x24, 0x00, 0x48, 0x99, 0x2a,
  0x68, 0x30, 0x89, 0x2a, 0x00, 0x18, 0x99, 0x2a, 0x68, 0x18, 0x89, 0x2a,
  0x00, 0x00, 0x99, 0x26, 0x68, 0x60, 0x89, 0x26, 0x00, 0x00, 0x99, 0x2a,
  0x68, 0x30, 0x89, 0x2a, 0x00, 0x18, 0x99, 0x2a, 0x68, 0x18, 0x89, 0x2a,
  0x00, 0x00, 0xb9, 0x0a, 0x00, 0x00, 0x99, 0x32, 0x68, 0x20, 0x89, 0x32,
  0x00, 0x00, 0x99, 0x32, 0x68, 0x20, 0x89, 0x32, 0x00, 0x00, 0x99, 0x32,
  0x68, 0x1f, 0x89, 0x32, 0x00, 0x00, 0x99, 0x32, 0x68, 0x20, 0x89, 0x32,
  0x00, 0x00, 0x99, 0x30, 0x68, 0x01, 0xb9, 0x0a, 0x40, 0x1f, 0x89, 0x30,
  0x00, 0x00, 0x99, 0x30, 0x68, 0x21, 0x89, 0x30, 0x00, 0x00, 0x99, 0x30,
  0x68, 0x21, 0x89, 0x30, 0x00, 0x00, 0x99, 0x30, 0x68, 0x1f, 0xb9, 0x0a,
  0x7f, 0x01, 0x89, 0x30, 0x00, 0x00, 0x99, 0x2d, 0x68, 0x00, 0x99, 0x2d,
  0x68, 0x1f, 0x89, 0x2d, 0x00, 0x00, 0x89, 0x2d, 0x00, 0x00, 0x99, 0x2d,
  0x68, 0x20, 0x89, 0x2d, 0x00, 0x00, 0x99, 0x2d, 0x68, 0x20, 0x89, 0x2d,
  0x00, 0x00, 0x99, 0x2d, 0x68, 0x20, 0x89, 0x2d, 0x00, 0x00, 0xb9, 0x0a,
  0x40, 0x00, 0x99, 0x24, 0x68, 0x30, 0x89, 0x24, 0x00, 0x18, 0x99, 0x2a,
  0x68, 0x18, 0x89, 0x2a, 0x00, 0x00, 0x99, 0x2a, 0x68, 0x18, 0x89, 0x2a,
  0x00, 0x30, 0x99, 0x2a, 0x68, 0x18, 0x89, 0x2a, 0x00, 0x00, 0x99, 0x2e,
  0x68, 0x18, 0x89, 0x2e, 0x00, 0x48, 0x99, 0x2a, 0x68, 0x18, 0x89, 0x2a,
  0x00, 0x30, 0x99, 0x2a, 0x68, 0x18, 0x89, 0x2a, 0x00, 0x00, 0x99, 0x2e,
  0x68, 0x18, 0x89, 0x2e, 0x00, 0x48, 0x99, 0x2a, 0x68, 0x18, 0x89, 0x2a,
  0x00, 0x30, 0x99, 0x2a, 0x68, 0x18, 0x89, 0x2a, 0x00, 0x00, 0x99, 0x26,
  0x68, 0x60, 0x89, 0x26, 0x00, 0x00, 0x99, 0x24, 0x68, 0x18, 0x89, 0x24,
  0x00, 0x30, 0x99, 0x2a, 0x68, 0x18, 0x89, 0x2a, 0x00, 0x00, 0x99, 0x24,
  0x68, 0x30, 0x89, 0x24, 0x00, 0x18, 0x99, 0x2a, 0x68, 0x18, 0x89, 0x2a,
  0x00, 0x00, 0x99, 0x2a, 0x68, 0x18, 0x89, 0x2a, 0x00, 0x30, 0x99, 0x2a,
  0x68, 0x18, 0x89, 0x2a, 0x00, 0x00, 0x99, 0x2e, 0x68, 0x18, 0x89, 0x2e,
  0x00, 0x48, 0x99, 0x2a, 0x68, 0x18, 0x89, 0x2a, 0x00, 0x30, 0x99, 0x2a,
  0x68, 0x18, 0x89, 0x2a, 0x00, 0x00, 0x99, 0x2e, 0x68, 0x18, 0x89, 0x2e,
  0x00, 0x48, 0x99, 0x2a, 0x68, 0x18, 0x89, 0x2a, 0x00, 0x30, 0x99, 0x2a,
  0x68, 0x18, 0x89, 0x2a, 0x00, 0x00, 0x99, 0x26, 0x68, 0x60, 0x89, 0x26,
  0x00, 0x00, 0x99, 0x24, 0x68, 0x18, 0x89, 0x24, 0x00, 0x30, 0x99, 0x2a,
  0x68, 0x18, 0x89, 0x2a, 0x00, 0x00, 0x99, 0x24, 0x68, 0x30, 0x89, 0x24,
  0x00, 0x18, 0x99, 0x2a, 0x68, 0x18, 0x89, 0x2a, 0x00, 0x00, 0x99, 0x2a,
  0x68, 0x18, 0x89, 0x2a, 0x00, 0x30, 0x99, 0x2a, 0x68, 0x18, 0x89, 0x2a,
  0x00, 0x00, 0x99, 0x2e, 0x68, 0x18, 0x89, 0x2e, 0x00, 0x48, 0x99, 0x2a,
  0x68, 0x18, 0x89, 0x2a, 0x00, 0x30, 0x99, 0x2a, 0x68, 0x18, 0x89, 0x2a,
  0x00, 0x00, 0x99, 0x2e, 0x68, 0x18, 0x89, 0x2e, 0x00, 0x48, 0x99, 0x2a,
  0x68, 0x18, 0x89, 0x2a, 0x00, 0x30, 0x99, 0x2a, 0x68, 0x18, 0x89, 0x2a,
  0x00, 0x00, 0x99, 0x26, 0x68, 0x60, 0x89, 0x26, 0x00, 0x00, 0x99, 0x24,
  0x68, 0x18, 0x89, 0x24, 0x00, 0x30, 0x99, 0x2a, 0x68, 0x18, 0x89, 0x2a,
  0x00, 0x00, 0x99, 0x26, 0x68, 0x18, 0x89, 0x26, 0x00, 0x0b, 0x99, 0x24,
  0x68, 0x18, 0x89, 0x24, 0x00, 0x0d, 0x99, 0x24, 0x68, 0x18, 0x89, 0x24,
  0x00, 0x00, 0x99, 0x26, 0x68, 0x18, 0x89, 0x26, 0x00, 0x0b, 0x99, 0x24,
  0x68, 0x18, 0x89, 0x24, 0x00, 0x0d, 0x99, 0x24, 0x68, 0x18, 0x89, 0x24,
  0x00, 0x00, 0x99, 0x26, 0x68, 0x18, 0x89, 0x26, 0x00, 0x0b, 0x99, 0x24,
  0x68, 0x18, 0x89, 0x24, 0x00, 0x0d, 0x99, 0x24, 0x68, 0x18, 0x89, 0x24,
  0x00, 0x00, 0x99, 0x26, 0x68, 0x18, 0x89, 0x26, 0x00, 0x0b, 0x99, 0x24,
  0x68, 0x18, 0x89, 0x24, 0x00, 0x0d, 0x99, 0x24, 0x68, 0x18, 0x89, 0x24,
  0x00, 0x00, 0x99, 0x26, 0x68, 0x18, 0x89, 0x26, 0x00, 0x0b, 0x99, 0x24,
  0x68, 0x18, 0x89, 0x24, 0x00, 0x0d, 0x99, 0x24, 0x68, 0x18, 0x89, 0x24,
  0x00, 0x00, 0xb9, 0x0a, 0x00, 0x00, 0x99, 0x30, 0x68, 0x20, 0x89, 0x30,
  0x00, 0x00, 0x99, 0x30, 0x68, 0x20, 0x89, 0x30, 0x00, 0x00, 0x99, 0x30,
  0x68, 0x20, 0x89, 0x30, 0x00, 0x00, 0xb9, 0x0a, 0x40, 0x00, 0x99, 0x2d,
  0x68, 0x20, 0x89, 0x2d, 0x00, 0x00, 0x99, 0x2d, 0x68, 0x20, 0x89, 0x2d,
  0x00, 0x00, 0x99, 0x2d, 0x68, 0x20, 0x89, 0x2d, 0x00, 0x00, 0xb9, 0x0a,
  0x7f, 0x00, 0x99, 0x2b, 0x68, 0x20, 0x89, 0x2b, 0x00, 0x00, 0x99, 0x2b,
  0x68, 0x20, 0x89, 0x2b, 0x00, 0x00, 0x99, 0x2b, 0x68, 0x20, 0x89, 0x2b,
  0x00, 0x00, 0xb9, 0x0a, 0x40, 0x00, 0x99, 0x24, 0x68, 0x18, 0x89, 0x24,
  0x00, 0x48, 0x99, 0x2a, 0x68, 0x30, 0x89, 0x2a, 0x00, 0x18, 0x99, 0x2a,
  0x68, 0x18, 0x89, 0x2a, 0x00, 0x00, 0x99, 0x26, 0x68, 0x60, 0x89, 0x26,
  0x00, 0x00, 0x99, 0x24, 0x68, 0x18, 0x89, 0x24, 0x00, 0x30, 0x99, 0x2a,
  0x68, 0x18, 0x89, 0x2a, 0x00, 0x00, 0x99, 0x24, 0x68, 0x18, 0x89, 0x24,
  0x00, 0x48, 0x99, 0x2a, 0x68, 0x30, 0x89, 0x2a, 0x00, 0x18, 0x99, 0x2a,
  0x68, 0x18, 0x89, 0x2a, 0x00, 0x00, 0x99, 0x26, 0x68, 0x60, 0x89, 0x26,
  0x00, 0x00, 0x99, 0x2a, 0x68, 0x30, 0x89, 0x2a, 0x00, 0x18, 0x99, 0x24,
  0x68, 0x18, 0x89, 0x24, 0x00, 0x00, 0x99, 0x24, 0x68, 0x18, 0x89, 0x24,
  0x00, 0x48, 0x99, 0x2a, 0x68, 0x30, 0x89, 0x2a, 0x00, 0x18, 0x99, 0x2a,
  0x68, 0x18, 0x89, 0x2a, 0x00, 0x00, 0x99, 0x26, 0x68, 0x60, 0x89, 0x26,
  0x00, 0x00, 0x99, 0x24, 0x68, 0x18, 0x89, 0x24, 0x00, 0x30, 0x99, 0x2a,
  0x68, 0x18, 0x89, 0x2a, 0x00, 0x00, 0x99, 0x24, 0x68, 0x18, 0x89, 0x24,
  0x00, 0x48, 0x99, 0x2a, 0x68, 0x30, 0x89, 0x2a, 0x00, 0x18, 0x99, 0x2a,
  0x68, 0x18, 0x89, 0x2a, 0x00, 0x00, 0x99, 0x26, 0x68, 0x60, 0x89, 0x26,
  0x00, 0x00, 0x99, 0x2a, 0x68, 0x30, 0x89, 0x2a, 0x00, 0x18, 0x99, 0x24,
  0x68, 0x18, 0x89, 0x24, 0x00, 0x00, 0x99, 0x24, 0x68, 0x18, 0x89, 0x24,
  0x00, 0x48, 0x99, 0x2a, 0x68, 0x30, 0x89, 0x2a, 0x00, 0x18, 0x99, 0x2a,
  0x68, 0x18, 0x89, 0x2a, 0x00, 0x00, 0x99, 0x26, 0x68, 0x60, 0x89, 0x26,
  0x00, 0x00, 0x99, 0x24, 0x68, 0x18, 0x89, 0x24, 0x00, 0x30, 0x99, 0x2a,
  0x68, 0x18, 0x89, 0x2a, 0x00, 0x00, 0x99, 0x24, 0x68, 0x18, 0x89, 0x24,
  0x00, 0x48, 0x99, 0x2a, 0x68, 0x30, 0x89, 0x2a, 0x00, 0x18, 0x99, 0x2a,
  0x68, 0x18, 0x89, 0x2a, 0x00, 0x00, 0x99, 0x26, 0x68, 0x60, 0x89, 0x26,
  0x00, 0x00, 0x99, 0x2a, 0x68, 0x30, 0x89, 0x2a, 0x00, 0x18, 0x99, 0x24,
  0x68, 0x18, 0x89, 0x24, 0x00, 0x00, 0x99, 0x24, 0x68, 0x18, 0x89, 0x24,
  0x00, 0x48, 0x99, 0x2a, 0x68, 0x30, 0x89, 0x2a, 0x00, 0x18, 0x99, 0x2a,
  0x68, 0x18, 0x89, 0x2a, 0x00, 0x00, 0x99, 0x26, 0x68, 0x60, 0x89, 0x26,
  0x00, 0x00, 0x99, 0x2a, 0x68, 0x30, 0x89, 0x2a, 0x00, 0x18, 0x99, 0x2a,
  0x68, 0x18, 0x89, 0x2a, 0x00, 0x00, 0xb9, 0x0a, 0x00, 0x00, 0x99, 0x32,
  0x68, 0x20, 0x89, 0x32, 0x00, 0x00, 0x99, 0x32, 0x68, 0x20, 0x89, 0x32,
  0x00, 0x00, 0x99, 0x32, 0x68, 0x1f, 0x89, 0x32, 0x00, 0x00, 0x99, 0x32,
  0x68, 0x20, 0x89, 0x32, 0x00, 0x00, 0x99, 0x30, 0x68, 0x01, 0xb9, 0x0a,
  0x40, 0x1f, 0x89, 0x30, 0x00, 0x00, 0x99, 0x30, 0x68, 0x21, 0x89, 0x30,
  0x00, 0x00, 0x99, 0x30, 0x68, 0x21, 0x89, 0x30, 0x00, 0x00, 0x99, 0x30,
  0x68, 0x1f, 0xb9, 0x0a, 0x7f, 0x01, 0x89, 0x30, 0x00, 0x00, 0x99, 0x2d,
  0x68, 0x00, 0x99, 0x2d, 0x68, 0x1f, 0x89, 0x2d, 0x00, 0x00, 0x89, 0x2d,
  0x00, 0x00, 0x99, 0x2d, 0x68, 0x20, 0x89, 0x2d, 0x00, 0x00, 0x99, 0x2d,
  0x68, 0x20, 0x89, 0x2d, 0x00, 0x00, 0x99, 0x2d, 0x68, 0x20, 0x89, 0x2d,
  0x00, 0x00, 0xb9, 0x0a, 0x40, 0x00, 0x99, 0x24, 0x68, 0x30, 0x89, 0x24,
  0x00, 0x30, 0x99, 0x2a, 0x68, 0x30, 0x89, 0x2a, 0x00, 0x18, 0x99, 0x2a,
  0x68, 0x18, 0x89, 0x2a, 0x00, 0x00, 0x99, 0x26, 0x68, 0x60, 0x89, 0x26,
  0x00, 0x00, 0x99, 0x2a, 0x68, 0x30, 0x89, 0x2a, 0x00, 0x18, 0x99, 0x2a,
  0x68, 0x18, 0x89, 0x2a, 0x00, 0x00, 0x99, 0x24, 0x68, 0x30, 0x89, 0x24,
  0x00, 0x30, 0x99, 0x2a, 0x68, 0x30, 0x89, 0x2a, 0x00, 0x18, 0x99, 0x2a,
  0x68, 0x18, 0x89, 0x2a, 0x00, 0x00, 0x99, 0x26, 0x68, 0x48, 0x99, 0x2a,
  0x68, 0x18, 0x89, 0x26, 0x00, 0x00, 0x89, 0x2a, 0x00, 0x00, 0x99, 0x24,
  0x68, 0x18, 0x89, 0x24, 0x00, 0x30, 0x99, 0x2a, 0x68, 0x18, 0x89, 0x2a,
  0x00, 0x00, 0x99, 0x24, 0x68, 0x30, 0x89, 0x24, 0x00, 0x30, 0x99, 0x2a,
  0x68, 0x30, 0x89, 0x2a, 0x00, 0x18, 0x99, 0x2a, 0x68, 0x18, 0x89, 0x2a,
  0x00, 0x00, 0x99, 0x26, 0x68, 0x60, 0x89, 0x26, 0x00, 0x00, 0x99, 0x2a,
  0x68, 0x30, 0x89, 0x2a, 0x00, 0x18, 0x99, 0x2a, 0x68, 0x18, 0x89, 0x2a,
  0x00, 0x00, 0x99, 0x24, 0x68, 0x30, 0x89, 0x24, 0x00, 0x30, 0x99, 0x2a,
  0x68, 0x30, 0x89, 0x2a, 0x00, 0x18, 0x99, 0x2a, 0x68, 0x18, 0x89, 0x2a,
  0x00, 0x00, 0x99, 0x26, 0x68, 0x48, 0x99, 0x2a, 0x68, 0x18, 0x89, 0x26,
  0x00, 0x00, 0x89, 0x2a, 0x00, 0x00, 0x99, 0x24, 0x68, 0x18, 0x89, 0x24,
  0x00, 0x30, 0x99, 0x2a, 0x68, 0x18, 0x89, 0x2a, 0x00, 0x00, 0x99, 0x24,
  0x68, 0x30, 0x89, 0x24, 0x00, 0x30, 0x99, 0x2a, 0x68, 0x30, 0x89, 0x2a,
  0x00, 0x18, 0x99, 0x2a, 0x68, 0x18, 0x89, 0x2a, 0x00, 0x00, 0x99, 0x26,
  0x68, 0x60, 0x89, 0x26, 0x00, 0x00, 0x99, 0x2a, 0x68, 0x30, 0x89, 0x2a,
  0x00, 0x18, 0x99, 0x2a, 0x68, 0x18, 0x89, 0x2a, 0x00, 0x00, 0x99, 0x24,
  0x68, 0x30, 0x89, 0x24, 0x00, 0x30, 0x99, 0x2a, 0x68, 0x30, 0x89, 0x2a,
  0x00, 0x18, 0x99, 0x2a, 0x68, 0x18, 0x89, 0x2a, 0x00, 0x00, 0x99, 0x26,
  0x68, 0x48, 0x99, 0x2a, 0x68, 0x18, 0x89, 0x26, 0x00, 0x00, 0x89, 0x2a,
  0x00, 0x00, 0x99, 0x24, 0x68, 0x18, 0x89, 0x24, 0x00, 0x30, 0x99, 0x2a,
  0x68, 0x18, 0x89, 0x2a, 0x00, 0x00, 0x99, 0x24, 0x68, 0x30, 0x89, 0x24,
  0x00, 0x30, 0x99, 0x2a, 0x68, 0x30, 0x89, 0x2a, 0x00, 0x18, 0x99, 0x2a,
  0x68, 0x18, 0x89, 0x2a, 0x00, 0x00, 0x99, 0x26, 0x68, 0x60, 0x89, 0x26,
  0x00, 0x00, 0x99, 0x2a, 0x68, 0x30, 0x89, 0x2a, 0x00, 0x18, 0x99, 0x2a,
  0x68, 0x18, 0x89, 0x2a, 0x00, 0x00, 0x99, 0x24, 0x68, 0x30, 0x89, 0x24,
  0x00, 0x30, 0x99, 0x2a, 0x68, 0x30, 0x89, 0x2a, 0x00, 0x18, 0x99, 0x2a,
  0x68, 0x18, 0x89, 0x2a, 0x00, 0x00, 0xb9, 0x0a, 0x00, 0x00, 0x99, 0x30,
  0x68, 0x20, 0x89, 0x30, 0x00, 0x00, 0x99, 0x30, 0x68, 0x20, 0x89, 0x30,
  0x00, 0x00, 0x99, 0x30, 0x68, 0x20, 0x89, 0x30, 0x00, 0x00, 0xb9, 0x0a,
  0x7f, 0x00, 0x99, 0x2d, 0x68, 0x20, 0x89, 0x2d, 0x00, 0x00, 0x99, 0x2d,
  0x68, 0x20, 0x89, 0x2d, 0x00, 0x00, 0x99, 0x2d, 0x68, 0x20, 0x89, 0x2d,
  0x00, 0x00, 0xb9, 0x0a, 0x40, 0x00, 0x99, 0x24, 0x68, 0x30, 0x89, 0x24,
  0x00, 0x30, 0x99, 0x2a, 0x68, 0x30, 0x89, 0x2a, 0x00, 0x18, 0x99, 0x2a,
  0x68, 0x18, 0x89, 0x2a, 0x00, 0x00, 0x99, 0x26, 0x68, 0x60, 0x89, 0x26,
  0x00, 0x00, 0x99, 0x2a, 0x68, 0x30, 0x89, 0x2a, 0x00, 0x18, 0x99, 0x2a,
  0x68, 0x18, 0x89, 0x2a, 0x00, 0x00, 0x99, 0x24, 0x68, 0x30, 0x89, 0x24,
  0x00, 0x30, 0x99, 0x2a, 0x68, 0x30, 0x89, 0x2a, 0x00, 0x18, 0x99, 0x2a,
  0x68, 0x18, 0x89, 0x2a, 0x00, 0x00, 0x99, 0x26, 0x68, 0x48, 0x99, 0x2a,
  0x68, 0x18, 0x89, 0x26, 0x00, 0x00, 0x89, 0x2a, 0x00, 0x00, 0x99, 0x24,
  0x68, 0x18, 0x89, 0x24, 0x00, 0x30, 0x99, 0x2a, 0x68, 0x18, 0x89, 0x2a,
  0x00, 0x00, 0x99, 0x24, 0x68, 0x30, 0x89, 0x24, 0x00, 0x30, 0x99, 0x2a,
  0x68, 0x30, 0x89, 0x2a, 0x00, 0x18, 0x99, 0x2a, 0x68, 0x18, 0x89, 0x2a,
  0x00, 0x00, 0x99, 0x26, 0x68, 0x60, 0x89, 0x26, 0x00, 0x00, 0x99, 0x2a,
  0x68, 0x30, 0x89, 0x2a, 0x00, 0x18, 0x99, 0x2a, 0x68, 0x18, 0x89, 0x2a,
  0x00, 0x00, 0x99, 0x24, 0x68, 0x30, 0x89, 0x24, 0x00, 0x30, 0x99, 0x2a,
  0x68, 0x30, 0x89, 0x2a, 0x00, 0x18, 0x99, 0x2a, 0x68, 0x18, 0x89, 0x2a,
  0x00, 0x00, 0x99, 0x26, 0x68, 0x48, 0x99, 0x2a, 0x68, 0x18, 0x89, 0x26,
  0x00, 0x00, 0x89, 0x2a, 0x00, 0x00, 0x99, 0x24, 0x68, 0x18, 0x89, 0x24,
  0x00, 0x30, 0x99, 0x2a, 0x68, 0x18, 0x89, 0x2a, 0x00, 0x00, 0x99, 0x24,
  0x68, 0x30, 0x89, 0x24, 0x00, 0x30, 0x99, 0x2a, 0x68, 0x30, 0x89, 0x2a,
  0x00, 0x18, 0x99, 0x2a, 0x68, 0x18, 0x89, 0x2a, 0x00, 0x00, 0x99, 0x26,
  0x68, 0x60, 0x89, 0x26, 0x00, 0x00, 0x99, 0x2a, 0x68, 0x30, 0x89, 0x2a,
  0x00, 0x18, 0x99, 0x2a, 0x68, 0x18, 0x89, 0x2a, 0x00, 0x00, 0x99, 0x24,
  0x68, 0x30, 0x89, 0x24, 0x00, 0x30, 0x99, 0x2a, 0x68, 0x30, 0x89, 0x2a,
  0x00, 0x18, 0x99, 0x2a, 0x68, 0x18, 0x89, 0x2a, 0x00, 0x00, 0x99, 0x26,
  0x68, 0x48, 0x99, 0x2a, 0x68, 0x18, 0x89, 0x26, 0x00, 0x00, 0x89, 0x2a,
  0x00, 0x00, 0x99, 0x24, 0x68, 0x18, 0x89, 0x24, 0x00, 0x30, 0x99, 0x2a,
  0x68, 0x18, 0x89, 0x2a, 0x00, 0x00, 0x99, 0x24, 0x68, 0x30, 0x89, 0x24,
  0x00, 0x30, 0x99, 0x2a, 0x68, 0x30, 0x89, 0x2a, 0x00, 0x18, 0x99, 0x2a,
  0x68, 0x18, 0x89, 0x2a, 0x00, 0x00, 0x99, 0x26, 0x68, 0x60, 0x89, 0x26,
  0x00, 0x00, 0x99, 0x2a, 0x68, 0x30, 0x89, 0x2a, 0x00, 0x18, 0x99, 0x2a,
  0x68, 0x18, 0x89, 0x2a, 0x00, 0x00, 0x99, 0x24, 0x68, 0x30, 0x89, 0x24,
  0x00, 0x30, 0x99, 0x2a, 0x68, 0x30, 0x89, 0x2a, 0x00, 0x18, 0x99, 0x2a,
  0x68, 0x18, 0x89, 0x2a, 0x00, 0x00, 0x99, 0x26, 0x68, 0x48, 0x99, 0x2a,
  0x68, 0x18, 0x89, 0x26, 0x00, 0x00, 0x89, 0x2a, 0x00, 0x00, 0x99, 0x24,
  0x68, 0x18, 0x89, 0x24, 0x00, 0x30, 0x99, 0x2a, 0x68, 0x18, 0x89, 0x2a,
  0x00, 0x00, 0x99, 0x24, 0x68, 0x30, 0x89, 0x24, 0x00, 0x30, 0x99, 0x2a,
  0x68, 0x30, 0x89, 0x2a, 0x00, 0x18, 0x99, 0x2a, 0x68, 0x18, 0x89, 0x2a,
  0x00, 0x00, 0x99, 0x26, 0x68, 0x60, 0x89, 0x26, 0x00, 0x00, 0x99, 0x2a,
  0x68, 0x30, 0x89, 0x2a, 0x00, 0x18, 0x99, 0x2a, 0x68, 0x18, 0x89, 0x2a,
  0x00, 0x00, 0x99, 0x24, 0x68, 0x30, 0x89, 0x24, 0x00, 0x30, 0x99, 0x2a,
  0x68, 0x30, 0x89, 0x2a, 0x00, 0x18, 0x99, 0x2a, 0x68, 0x18, 0x89, 0x2a,
  0x00, 0x00, 0x99, 0x26, 0x68, 0x48, 0x99, 0x2a, 0x68, 0x18, 0x89, 0x26,
  0x00, 0x00, 0x89, 0x2a, 0x00, 0x00, 0x99, 0x24, 0x68, 0x18, 0x89, 0x24,
  0x00, 0x30, 0x99, 0x2a, 0x68, 0x18, 0x89, 0x2a, 0x00, 0x00, 0x99, 0x24,
  0x68, 0x30, 0x89, 0x24, 0x00, 0x30, 0x99, 0x2a, 0x68, 0x30, 0x89, 0x2a,
  0x00, 0x18, 0x99, 0x2a, 0x68, 0x18, 0x89, 0x2a, 0x00, 0x00, 0x99, 0x26,
  0x68, 0x60, 0x89, 0x26, 0x00, 0x00, 0x99, 0x2a, 0x68, 0x30, 0x89, 0x2a,
  0x00, 0x18, 0x99, 0x2a, 0x68, 0x18, 0x89, 0x2a, 0x00, 0x00, 0xb9, 0x0a,
  0x00, 0x00, 0x99, 0x32, 0x68, 0x20, 0x89, 0x32, 0x00, 0x00, 0x99, 0x32,
  0x68, 0x20, 0x89, 0x32, 0x00, 0x00, 0x99, 0x32, 0x68, 0x20, 0x89, 0x32,
  0x00, 0x00, 0xb9, 0x0a, 0x40, 0x00, 0x99, 0x30, 0x68, 0x20, 0x89, 0x30,
  0x00, 0x00, 0x99, 0x30, 0x68, 0x20, 0x89, 0x30, 0x00, 0x00, 0x99, 0x30,
  0x68, 0x20, 0x89, 0x30, 0x00, 0x00, 0xb9, 0x0a, 0x7f, 0x00, 0x99, 0x2d,
  0x68, 0x20, 0x89, 0x2d, 0x00, 0x00, 0x99, 0x2d, 0x68, 0x20, 0x89, 0x2d,
  0x00, 0x00, 0x99, 0x2d, 0x68, 0x20, 0x89, 0x2d, 0x00, 0x00, 0xb9, 0x0a,
  0x40, 0x00, 0x99, 0x26, 0x68, 0x20, 0x89, 0x26, 0x00, 0x00, 0x99, 0x26,
  0x68, 0x20, 0x89, 0x26, 0x00, 0x00, 0x99, 0x26, 0x68, 0x20, 0x89, 0x26,
  0x00, 0x00, 0x99, 0x24, 0x68, 0x30, 0x89, 0x24, 0x00, 0x30, 0x99, 0x2a,
  0x68, 0x30, 0x89, 0x2a, 0x00, 0x18, 0x99, 0x2a, 0x68, 0x18, 0x89, 0x2a,
  0x00, 0x00, 0x99, 0x26, 0x68, 0x60, 0x89, 0x26, 0x00, 0x00, 0x99, 0x2a,
  0x68, 0x30, 0x89, 0x2a, 0x00, 0x18, 0x99, 0x2a, 0x68, 0x18, 0x89, 0x2a,
  0x00, 0x00, 0x99, 0x24, 0x68, 0x30, 0x89, 0x24, 0x00, 0x30, 0x99, 0x2a,
  0x68, 0x30, 0x89, 0x2a, 0x00, 0x18, 0x99, 0x2a, 0x68, 0x18, 0x89, 0x2a,
  0x00, 0x00, 0x99, 0x26, 0x68, 0x48, 0x99, 0x2a, 0x68, 0x18, 0x89, 0x26,
  0x00, 0x00, 0x89, 0x2a, 0x00, 0x00, 0x99, 0x24, 0x68, 0x18, 0x89, 0x24,
  0x00, 0x30, 0x99, 0x2a, 0x68, 0x18, 0x89, 0x2a, 0x00, 0x00, 0x99, 0x24,
  0x68, 0x30, 0x89, 0x24, 0x00, 0x30, 0x99, 0x2a, 0x68, 0x30, 0x89, 0x2a,
  0x00, 0x18, 0x99, 0x2a, 0x68, 0x18, 0x89, 0x2a, 0x00, 0x00, 0x99, 0x26,
  0x68, 0x60, 0x89, 0x26, 0x00, 0x00, 0x99, 0x2a, 0x68, 0x30, 0x89, 0x2a,
  0x00, 0x18, 0x99, 0x2a, 0x68, 0x18, 0x89, 0x2a, 0x00, 0x00, 0x99, 0x24,
  0x68, 0x30, 0x89, 0x24, 0x00, 0x30, 0x99, 0x2a, 0x68, 0x30, 0x89, 0x2a,
  0x00, 0x18, 0x99, 0x2a, 0x68, 0x18, 0x89, 0x2a, 0x00, 0x00, 0x99, 0x26,
  0x68, 0x48, 0x99, 0x2a, 0x68, 0x18, 0x89, 0x26, 0x00, 0x00, 0x89, 0x2a,
  0x00, 0x00, 0x99, 0x24, 0x68, 0x18, 0x89, 0x24, 0x00, 0x30, 0x99, 0x2a,
  0x68, 0x18, 0x89, 0x2a, 0x00, 0x00, 0x99, 0x24, 0x68, 0x30, 0x89, 0x24,
  0x00, 0x30, 0x99, 0x2a, 0x68, 0x30, 0x89, 0x2a, 0x00, 0x18, 0x99, 0x2a,
  0x68, 0x18, 0x89, 0x2a, 0x00, 0x00, 0x99, 0x26, 0x68, 0x60, 0x89, 0x26,
  0x00, 0x00, 0x99, 0x2a, 0x68, 0x30, 0x89, 0x2a, 0x00, 0x18, 0x99, 0x2a,
  0x68, 0x18, 0x89, 0x2a, 0x00, 0x00, 0x99, 0x24, 0x68, 0x30, 0x89, 0x24,
  0x00, 0x30, 0x99, 0x2a, 0x68, 0x30, 0x89, 0x2a, 0x00, 0x18, 0x99, 0x2a,
  0x68, 0x18, 0x89, 0x2a, 0x00, 0x00, 0x99, 0x26, 0x68, 0x48, 0x99, 0x2a,
  0x68, 0x18, 0x89, 0x26, 0x00, 0x00, 0x89, 0x2a, 0x00, 0x00, 0x99, 0x24,
  0x68, 0x18, 0x89, 0x24, 0x00, 0x30, 0x99, 0x2a, 0x68, 0x18, 0x89, 0x2a,
  0x00, 0x00, 0x99, 0x24, 0x68, 0x30, 0x89, 0x24, 0x00, 0x30, 0x99, 0x2a,
  0x68, 0x30, 0x89, 0x2a, 0x00, 0x18, 0x99, 0x2a, 0x68, 0x18, 0x89, 0x2a,
  0x00, 0x00, 0x99, 0x26, 0x68, 0x60, 0x89, 0x26, 0x00, 0x00, 0x99, 0x2a,
  0x68, 0x30, 0x89, 0x2a, 0x00, 0x18, 0x99, 0x2a, 0x68, 0x18, 0x89, 0x2a,
  0x00, 0x00, 0x99, 0x24, 0x68, 0x30, 0x89, 0x24, 0x00, 0x30, 0x99, 0x2a,
  0x68, 0x30, 0x89, 0x2a, 0x00, 0x18, 0x99, 0x2a, 0x68, 0x18, 0x89, 0x2a,
  0x00, 0x00, 0x99, 0x26, 0x68, 0x30, 0x89, 0x26, 0x00, 0x18, 0x99, 0x26,
  0x68, 0x18, 0x89, 0x26, 0x00, 0x00, 0x99, 0x26, 0x68, 0x18, 0x89, 0x26,
  0x00, 0x48, 0x99, 0x24, 0x68, 0x30, 0x89, 0x24, 0x00, 0x30, 0x99, 0x2a,
  0x68, 0x30, 0x89, 0x2a, 0x00, 0x18, 0x99, 0x2a, 0x68, 0x18, 0x89, 0x2a,
  0x00, 0x00, 0x99, 0x26, 0x68, 0x60, 0x89, 0x26, 0x00, 0x00, 0x99, 0x2a,
  0x68, 0x30, 0x89, 0x2a, 0x00, 0x18, 0x99, 0x2a, 0x68, 0x18, 0x89, 0x2a,
  0x00, 0x00, 0x99, 0x24, 0x68, 0x30, 0x89, 0x24, 0x00, 0x30, 0x99, 0x2a,
  0x68, 0x30, 0x89, 0x2a, 0x00, 0x18, 0x99, 0x2a, 0x68, 0x18, 0x89, 0x2a,
  0x00, 0x00, 0x99, 0x26, 0x68, 0x48, 0x99, 0x2a, 0x68, 0x18, 0x89, 0x26,
  0x00, 0x00, 0x89, 0x2a, 0x00, 0x00, 0x99, 0x24, 0x68, 0x18, 0x89, 0x24,
  0x00, 0x30, 0x99, 0x2a, 0x68, 0x18, 0x89, 0x2a, 0x00, 0x00, 0x99, 0x24,
  0x68, 0x30, 0x89, 0x24, 0x00, 0x30, 0x99, 0x2a, 0x68, 0x30, 0x89, 0x2a,
  0x00, 0x18, 0x99, 0x2a, 0x68, 0x18, 0x89, 0x2a, 0x00, 0x00, 0x99, 0x26,
  0x68, 0x60, 0x89, 0x26, 0x00, 0x00, 0x99, 0x2a, 0x68, 0x30, 0x89, 0x2a,
  0x00, 0x18, 0x99, 0x2a, 0x68, 0x18, 0x89, 0x2a, 0x00, 0x00, 0x99, 0x24,
  0x68, 0x30, 0x89, 0x24, 0x00, 0x30, 0x99, 0x2a, 0x68, 0x30, 0x89, 0x2a,
  0x00, 0x18, 0x99, 0x2a, 0x68, 0x18, 0x89, 0x2a, 0x00, 0x00, 0x99, 0x26,
  0x68, 0x48, 0x99, 0x2a, 0x68, 0x18, 0x89, 0x26, 0x00, 0x00, 0x89, 0x2a,
  0x00, 0x00, 0x99, 0x24, 0x68, 0x18, 0x89, 0x24, 0x00, 0x30, 0x99, 0x2a,
  0x68, 0x18, 0x89, 0x2a, 0x00, 0x00, 0x99, 0x24, 0x68, 0x30, 0x89, 0x24,
  0x00, 0x30, 0x99, 0x2a, 0x68, 0x30, 0x89, 0x2a, 0x00, 0x18, 0x99, 0x2a,
  0x68, 0x18, 0x89, 0x2a, 0x00, 0x00, 0x99, 0x26, 0x68, 0x60, 0x89, 0x26,
  0x00, 0x00, 0x99, 0x2a, 0x68, 0x30, 0x89, 0x2a, 0x00, 0x18, 0x99, 0x2a,
  0x68, 0x18, 0x89, 0x2a, 0x00, 0x00, 0x99, 0x24, 0x68, 0x30, 0x89, 0x24,
  0x00, 0x30, 0x99, 0x2a, 0x68, 0x30, 0x89, 0x2a, 0x00, 0x18, 0x99, 0x2a,
  0x68, 0x18, 0x89, 0x2a, 0x00, 0x00, 0x99, 0x26, 0x68, 0x48, 0x99, 0x2a,
  0x68, 0x18, 0x89, 0x26, 0x00, 0x00, 0x89, 0x2a, 0x00, 0x00, 0x99, 0x24,
  0x68, 0x18, 0x89, 0x24, 0x00, 0x30, 0x99, 0x2a, 0x68, 0x18, 0x89, 0x2a,
  0x00, 0x00, 0x99, 0x24, 0x68, 0x30, 0x89, 0x24, 0x00, 0x30, 0x99, 0x2a,
  0x68, 0x30, 0x89, 0x2a, 0x00, 0x18, 0x99, 0x2a, 0x68, 0x18, 0x89, 0x2a,
  0x00, 0x00, 0x99, 0x26, 0x68, 0x60, 0x89, 0x26, 0x00, 0x00, 0x99, 0x2a,
  0x68, 0x30, 0x89, 0x2a, 0x00, 0x18, 0x99, 0x2a, 0x68, 0x18, 0x89, 0x2a,
  0x00, 0x00, 0x99, 0x24, 0x68, 0x30, 0x89, 0x24, 0x00, 0x30, 0x99, 0x2a,
  0x68, 0x30, 0x89, 0x2a, 0x00, 0x18, 0x99, 0x2a, 0x68, 0x18, 0x89, 0x2a,
  0x00, 0x00, 0xb9, 0x0a, 0x00, 0x00, 0x99, 0x30, 0x68, 0x20, 0x89, 0x30,
  0x00, 0x00, 0x99, 0x30, 0x68, 0x20, 0x89, 0x30, 0x00, 0x00, 0x99, 0x30,
  0x68, 0x20, 0x89, 0x30, 0x00, 0x00, 0xb9, 0x0a, 0x7f, 0x00, 0x99, 0x2d,
  0x68, 0x20, 0x89, 0x2d, 0x00, 0x00, 0x99, 0x2d, 0x68, 0x20, 0x89, 0x2d,
  0x00, 0x00, 0x99, 0x2d, 0x68, 0x20, 0x89, 0x2d, 0x00, 0x00, 0xb9, 0x0a,
  0x40, 0x00, 0x99, 0x24, 0x68, 0x18, 0x89, 0x24, 0x00, 0x48, 0x99, 0x2a,
  0x68, 0x30, 0x89, 0x2a, 0x00, 0x18, 0x99, 0x2a, 0x68, 0x18, 0x89, 0x2a,
  0x00, 0x00, 0x99, 0x26, 0x68, 0x60, 0x89, 0x26, 0x00, 0x00, 0x99, 0x24,
  0x68, 0x18, 0x89, 0x24, 0x00, 0x30, 0x99, 0x2a, 0x68, 0x18, 0x89, 0x2a,
  0x00, 0x00, 0x99, 0x24, 0x68, 0x18, 0x89, 0x24, 0x00, 0x48, 0x99, 0x2a,
  0x68, 0x30, 0x89, 0x2a, 0x00, 0x18, 0x99, 0x2a, 0x68, 0x18, 0x89, 0x2a,
  0x00, 0x00, 0x99, 0x26, 0x68, 0x60, 0x89, 0x26, 0x00, 0x00, 0x99, 0x2a,
  0x68, 0x30, 0x89, 0x2a, 0x00, 0x18, 0x99, 0x24, 0x68, 0x18, 0x89, 0x24,
  0x00, 0x00, 0x99, 0x24, 0x68, 0x18, 0x89, 0x24, 0x00, 0x48, 0x99, 0x2a,
  0x68, 0x30, 0x89, 0x2a, 0x00, 0x18, 0x99, 0x2a, 0x68, 0x18, 0x89, 0x2a,
  0x00, 0x00, 0x99, 0x26, 0x68, 0x60, 0x89, 0x26, 0x00, 0x00, 0x99, 0x24,
  0x68, 0x18, 0x89, 0x24, 0x00, 0x30, 0x99, 0x2a, 0x68, 0x18, 0x89, 0x2a,
  0x00, 0x00, 0x99, 0x24, 0x68, 0x18, 0x89, 0x24, 0x00, 0x48, 0x99, 0x2a,
  0x68, 0x30, 0x89, 0x2a, 0x00, 0x18, 0x99, 0x2a, 0x68, 0x18, 0x89, 0x2a,
  0x00, 0x00, 0x99, 0x26, 0x68, 0x60, 0x89, 0x26, 0x00, 0x00, 0x99, 0x2a,
  0x68, 0x30, 0x89, 0x2a, 0x00, 0x18, 0x99, 0x24, 0x68, 0x18, 0x89, 0x24,
  0x00, 0x00, 0x99, 0x24, 0x68, 0x18, 0x89, 0x24, 0x00, 0x48, 0x99, 0x2a,
  0x68, 0x30, 0x89, 0x2a, 0x00, 0x18, 0x99, 0x2a, 0x68, 0x18, 0x89, 0x2a,
  0x00, 0x00, 0x99, 0x26, 0x68, 0x60, 0x89, 0x26, 0x00, 0x00, 0x99, 0x24,
  0x68, 0x18, 0x89, 0x24, 0x00, 0x30, 0x99, 0x2a, 0x68, 0x18, 0x89, 0x2a,
  0x00, 0x00, 0x99, 0x24, 0x68, 0x18, 0x89, 0x24, 0x00, 0x48, 0x99, 0x2a,
  0x68, 0x30, 0x89, 0x2a, 0x00, 0x18, 0x99, 0x2a, 0x68, 0x18, 0x89, 0x2a,
  0x00, 0x00, 0x99, 0x26, 0x68, 0x60, 0x89, 0x26, 0x00, 0x00, 0x99, 0x2a,
  0x68, 0x30, 0x89, 0x2a, 0x00, 0x18, 0x99, 0x24, 0x68, 0x18, 0x89, 0x24,
  0x00, 0x00, 0x99, 0x24, 0x68, 0x18, 0x89, 0x24, 0x00, 0x48, 0x99, 0x2a,
  0x68, 0x30, 0x89, 0x2a, 0x00, 0x18, 0x99, 0x2a, 0x68, 0x18, 0x89, 0x2a,
  0x00, 0x00, 0x99, 0x26, 0x68, 0x60, 0x89, 0x26, 0x00, 0x00, 0x99, 0x2a,
  0x68, 0x30, 0x89, 0x2a, 0x00, 0x18, 0x99, 0x2a, 0x68, 0x18, 0x89, 0x2a,
  0x00, 0x00, 0xb9, 0x0a, 0x00, 0x00, 0x99, 0x32, 0x68, 0x20, 0x89, 0x32,
  0x00, 0x00, 0x99, 0x32, 0x68, 0x20, 0x89, 0x32, 0x00, 0x00, 0x99, 0x32,
  0x68, 0x1f, 0x89, 0x32, 0x00, 0x00, 0x99, 0x32, 0x68, 0x20, 0x89, 0x32,
  0x00, 0x00, 0x99, 0x30, 0x68, 0x01, 0xb9, 0x0a, 0x40, 0x1f, 0x89, 0x30,
  0x00, 0x00, 0x99, 0x30, 0x68, 0x21, 0x89, 0x30, 0x00, 0x00, 0x99, 0x30,
  0x68, 0x21, 0x89, 0x30, 0x00, 0x00, 0x99, 0x30, 0x68, 0x1f, 0xb9, 0x0a,
  0x7f, 0x01, 0x89, 0x30, 0x00, 0x00, 0x99, 0x2d, 0x68, 0x00, 0x99, 0x2d,
  0x68, 0x1f, 0x89, 0x2d, 0x00, 0x00, 0x89, 0x2d, 0x00, 0x00, 0x99, 0x2d,
  0x68, 0x20, 0x89, 0x2d, 0x00, 0x00, 0x99, 0x2d, 0x68, 0x20, 0x89, 0x2d,
  0x00, 0x00, 0x99, 0x2d, 0x68, 0x20, 0x89, 0x2d, 0x00, 0x00, 0xb9, 0x0a,
  0x40, 0x00, 0x99, 0x24, 0x68, 0x30, 0x89, 0x24, 0x00, 0x18, 0x99, 0x2a,
  0x68, 0x18, 0x89, 0x2a, 0x00, 0x00, 0x99, 0x2a, 0x68, 0x18, 0x89, 0x2a,
  0x00, 0x30, 0x99, 0x2a, 0x68, 0x18, 0x89, 0x2a, 0x00, 0x00, 0x99, 0x2e,
  0x68, 0x18, 0x89, 0x2e, 0x00, 0x48, 0x99, 0x2a, 0x68, 0x18, 0x89, 0x2a,
  0x00, 0x30, 0x99, 0x2a, 0x68, 0x18, 0x89, 0x2a, 0x00, 0x00, 0x99, 0x2e,
  0x68, 0x18, 0x89, 0x2e, 0x00, 0x48, 0x99, 0x2a, 0x68, 0x18, 0x89, 0x2a,
  0x00, 0x30, 0x99, 0x2a, 0x68, 0x18, 0x89, 0x2a, 0x00, 0x00, 0x99, 0x26,
  0x68, 0x60, 0x89, 0x26, 0x00, 0x00, 0x99, 0x24, 0x68, 0x18, 0x89, 0x24,
  0x00, 0x30, 0x99, 0x2a, 0x68, 0x18, 0x89, 0x2a, 0x00, 0x00, 0x99, 0x24,
  0x68, 0x30, 0x89, 0x24, 0x00, 0x18, 0x99, 0x2a, 0x68, 0x18, 0x89, 0x2a,
  0x00, 0x00, 0x99, 0x2a, 0x68, 0x18, 0x89, 0x2a, 0x00, 0x30, 0x99, 0x2a,
  0x68, 0x18, 0x89, 0x2a, 0x00, 0x00, 0x99, 0x2e, 0x68, 0x18, 0x89, 0x2e,
  0x00, 0x48, 0x99, 0x2a, 0x68, 0x18, 0x89, 0x2a, 0x00, 0x30, 0x99, 0x2a,
  0x68, 0x18, 0x89, 0x2a, 0x00, 0x00, 0x99, 0x2e, 0x68, 0x18, 0x89, 0x2e,
  0x00, 0x48, 0x99, 0x2a, 0x68, 0x18, 0x89, 0x2a, 0x00, 0x30, 0x99, 0x2a,
  0x68, 0x18, 0x89, 0x2a, 0x00, 0x00, 0x99, 0x26, 0x68, 0x60, 0x89, 0x26,
  0x00, 0x00, 0x99, 0x24, 0x68, 0x18, 0x89, 0x24, 0x00, 0x30, 0x99, 0x2a,
  0x68, 0x18, 0x89, 0x2a, 0x00, 0x00, 0x99, 0x24, 0x68, 0x30, 0x89, 0x24,
  0x00, 0x18, 0x99, 0x2a, 0x68, 0x18, 0x89, 0x2a, 0x00, 0x00, 0x99, 0x2a,
  0x68, 0x18, 0x89, 0x2a, 0x00, 0x30, 0x99, 0x2a, 0x68, 0x18, 0x89, 0x2a,
  0x00, 0x00, 0x99, 0x2e, 0x68, 0x18, 0x89, 0x2e, 0x00, 0x48, 0x99, 0x2a,
  0x68, 0x18, 0x89, 0x2a, 0x00, 0x30, 0x99, 0x2a, 0x68, 0x18, 0x89, 0x2a,
  0x00, 0x00, 0x99, 0x2e, 0x68, 0x18, 0x89, 0x2e, 0x00, 0x48, 0x99, 0x2a,
  0x68, 0x18, 0x89, 0x2a, 0x00, 0x30, 0x99, 0x2a, 0x68, 0x18, 0x89, 0x2a,
  0x00, 0x00, 0x99, 0x26, 0x68, 0x60, 0x89, 0x26, 0x00, 0x00, 0x99, 0x24,
  0x68, 0x18, 0x89, 0x24, 0x00, 0x30, 0x99, 0x2a, 0x68, 0x18, 0x89, 0x2a,
  0x00, 0x00, 0x99, 0x26, 0x68, 0x18, 0x89, 0x26, 0x00, 0x0b, 0x99, 0x24,
  0x68, 0x18, 0x89, 0x24, 0x00, 0x0d, 0x99, 0x24, 0x68, 0x18, 0x89, 0x24,
  0x00, 0x00, 0x99, 0x26, 0x68, 0x18, 0x89, 0x26, 0x00, 0x0b, 0x99, 0x24,
  0x68, 0x18, 0x89, 0x24, 0x00, 0x0d, 0x99, 0x24, 0x68, 0x18, 0x89, 0x24,
  0x00, 0x00, 0x99, 0x26, 0x68, 0x18, 0x89, 0x26, 0x00, 0x0b, 0x99, 0x24,
  0x68, 0x18, 0x89, 0x24, 0x00, 0x0d, 0x99, 0x24, 0x68, 0x18, 0x89, 0x24,
  0x00, 0x00, 0x99, 0x26, 0x68, 0x18, 0x89, 0x26, 0x00, 0x0b, 0x99, 0x24,
  0x68, 0x18, 0x89, 0x24, 0x00, 0x0d, 0x99, 0x24, 0x68, 0x18, 0x89, 0x24,
  0x00, 0x00, 0x99, 0x26, 0x68, 0x18, 0x89, 0x26, 0x00, 0x0b, 0x99, 0x24,
  0x68, 0x18, 0x89, 0x24, 0x00, 0x0d, 0x99, 0x24, 0x68, 0x18, 0x89, 0x24,
  0x00, 0x00, 0xb9, 0x0a, 0x00, 0x00, 0x99, 0x30, 0x68, 0x20, 0x89, 0x30,
  0x00, 0x00, 0x99, 0x30, 0x68, 0x20, 0x89, 0x30, 0x00, 0x00, 0x99, 0x30,
  0x68, 0x20, 0x89, 0x30, 0x00, 0x00, 0xb9, 0x0a, 0x40, 0x00, 0x99, 0x2d,
  0x68, 0x20, 0x89, 0x2d, 0x00, 0x00, 0x99, 0x2d, 0x68, 0x20, 0x89, 0x2d,
  0x00, 0x00, 0x99, 0x2d, 0x68, 0x20, 0x89, 0x2d, 0x00, 0x00, 0xb9, 0x0a,
  0x7f, 0x00, 0x99, 0x2b, 0x68, 0x20, 0x89, 0x2b, 0x00, 0x00, 0x99, 0x2b,
  0x68, 0x20, 0x89, 0x2b, 0x00, 0x00, 0x99, 0x2b, 0x68, 0x20, 0x89, 0x2b,
  0x00, 0x00, 0xb9, 0x0a, 0x40, 0x00, 0x99, 0x24, 0x68, 0x18, 0x89, 0x24,
  0x00, 0x48, 0x99, 0x2a, 0x68, 0x30, 0x89, 0x2a, 0x00, 0x18, 0x99, 0x2a,
  0x68, 0x18, 0x89, 0x2a, 0x00, 0x00, 0x99, 0x26, 0x68, 0x60, 0x89, 0x26,
  0x00, 0x00, 0x99, 0x24, 0x68, 0x18, 0x89, 0x24, 0x00, 0x30, 0x99, 0x2a,
  0x68, 0x18, 0x89, 0x2a, 0x00, 0x00, 0x99, 0x24, 0x68, 0x18, 0x89, 0x24,
  0x00, 0x48, 0x99, 0x2a, 0x68, 0x30, 0x89, 0x2a, 0x00, 0x18, 0x99, 0x2a,
  0x68, 0x18, 0x89, 0x2a, 0x00, 0x00, 0x99, 0x26, 0x68, 0x60, 0x89, 0x26,
  0x00, 0x00, 0x99, 0x2a, 0x68, 0x30, 0x89, 0x2a, 0x00, 0x18, 0x99, 0x24,
  0x68, 0x18, 0x89, 0x24, 0x00, 0x00, 0x99, 0x24, 0x68, 0x18, 0x89, 0x24,
  0x00, 0x48, 0x99, 0x2a, 0x68, 0x30, 0x89, 0x2a, 0x00, 0x18, 0x99, 0x2a,
  0x68, 0x18, 0x89, 0x2a, 0x00, 0x00, 0x99, 0x26, 0x68, 0x60, 0x89, 0x26,
  0x00, 0x00, 0x99, 0x24, 0x68, 0x18, 0x89, 0x24, 0x00, 0x30, 0x99, 0x2a,
  0x68, 0x18, 0x89, 0x2a, 0x00, 0x00, 0x99, 0x24, 0x68, 0x18, 0x89, 0x24,
  0x00, 0x48, 0x99, 0x2a, 0x68, 0x30, 0x89, 0x2a, 0x00, 0x18, 0x99, 0x2a,
  0x68, 0x18, 0x89, 0x2a, 0x00, 0x00, 0x99, 0x26, 0x68, 0x60, 0x89, 0x26,
  0x00, 0x00, 0x99, 0x2a, 0x68, 0x30, 0x89, 0x2a, 0x00, 0x18, 0x99, 0x24,
  0x68, 0x18, 0x89, 0x24, 0x00, 0x00, 0x99, 0x24, 0x68, 0x18, 0x89, 0x24,
  0x00, 0x48, 0x99, 0x2a, 0x68, 0x30, 0x89, 0x2a, 0x00, 0x18, 0x99, 0x2a,
  0x68, 0x18, 0x89, 0x2a, 0x00, 0x00, 0x99, 0x26, 0x68, 0x60, 0x89, 0x26,
  0x00, 0x00, 0x99, 0x24, 0x68, 0x18, 0x89, 0x24, 0x00, 0x30, 0x99, 0x2a,
  0x68, 0x18, 0x89, 0x2a, 0x00, 0x00, 0x99, 0x24, 0x68, 0x18, 0x89, 0x24,
  0x00, 0x48, 0x99, 0x2a, 0x68, 0x30, 0x89, 0x2a, 0x00, 0x18, 0x99, 0x2a,
  0x68, 0x18, 0x89, 0x2a, 0x00, 0x00, 0x99, 0x26, 0x68, 0x60, 0x89, 0x26,
  0x00, 0x00, 0x99, 0x2a, 0x68, 0x30, 0x89, 0x2a, 0x00, 0x18, 0x99, 0x24,
  0x68, 0x18, 0x89, 0x24, 0x00, 0x00, 0x99, 0x24, 0x68, 0x18, 0x89, 0x24,
  0x00, 0x48, 0x99, 0x2a, 0x68, 0x30, 0x89, 0x2a, 0x00, 0x18, 0x99, 0x2a,
  0x68, 0x18, 0x89, 0x2a, 0x00, 0x00, 0x99, 0x26, 0x68, 0x60, 0x89, 0x26,
  0x00, 0x00, 0x99, 0x2a, 0x68, 0x30, 0x89, 0x2a, 0x00, 0x18, 0x99, 0x2a,
  0x68, 0x18, 0x89, 0x2a, 0x00, 0x00, 0xb9, 0x0a, 0x00, 0x00, 0x99, 0x32,
  0x68, 0x20, 0x89, 0x32, 0x00, 0x00, 0x99, 0x32, 0x68, 0x20, 0x89, 0x32,
  0x00, 0x00, 0x99, 0x32, 0x68, 0x1f, 0x89, 0x32, 0x00, 0x00, 0x99, 0x32,
  0x68, 0x20, 0x89, 0x32, 0x00, 0x00, 0x99, 0x30, 0x68, 0x01, 0xb9, 0x0a,
  0x40, 0x1f, 0x89, 0x30, 0x00, 0x00, 0x99, 0x30, 0x68, 0x21, 0x89, 0x30,
  0x00, 0x00, 0x99, 0x30, 0x68, 0x21, 0x89, 0x30, 0x00, 0x00, 0x99, 0x30,
  0x68, 0x1f, 0xb9, 0x0a, 0x7f, 0x01, 0x89, 0x30, 0x00, 0x00, 0x99, 0x2d,
  0x68, 0x00, 0x99, 0x2d, 0x68, 0x1f, 0x89, 0x2d, 0x00, 0x00, 0x89, 0x2d,
  0x00, 0x00, 0x99, 0x2d, 0x68, 0x20, 0x89, 0x2d, 0x00, 0x00, 0x99, 0x2d,
  0x68, 0x20, 0x89, 0x2d, 0x00, 0x00, 0x99, 0x2d, 0x68, 0x20, 0x89, 0x2d,
  0x00, 0x00, 0xb9, 0x0a, 0x40, 0x00, 0x99, 0x24, 0x68, 0x30, 0x89, 0x24,
  0x00, 0x30, 0x99, 0x2a, 0x68, 0x30, 0x89, 0x2a, 0x00, 0x18, 0x99, 0x2a,
  0x68, 0x18, 0x89, 0x2a, 0x00, 0x00, 0x99, 0x26, 0x68, 0x60, 0x89, 0x26,
  0x00, 0x00, 0x99, 0x2a, 0x68, 0x30, 0x89, 0x2a, 0x00, 0x18, 0x99, 0x2a,
  0x68, 0x18, 0x89, 0x2a, 0x00, 0x00, 0x99, 0x24, 0x68, 0x30, 0x89, 0x24,
  0x00, 0x30, 0x99, 0x2a, 0x68, 0x30, 0x89, 0x2a, 0x00, 0x18, 0x99, 0x2a,
  0x68, 0x18, 0x89, 0x2a, 0x00, 0x00, 0x99, 0x26, 0x68, 0x48, 0x99, 0x2a,
  0x68, 0x18, 0x89, 0x26, 0x00, 0x00, 0x89, 0x2a, 0x00, 0x00, 0x99, 0x24,
  0x68, 0x18, 0x89, 0x24, 0x00, 0x30, 0x99, 0x2a, 0x68, 0x18, 0x89, 0x2a,
  0x00, 0x00, 0x99, 0x24, 0x68, 0x30, 0x89, 0x24, 0x00, 0x30, 0x99, 0x2a,
  0x68, 0x30, 0x89, 0x2a, 0x00, 0x18, 0x99, 0x2a, 0x68, 0x18, 0x89, 0x2a,
  0x00, 0x00, 0x99, 0x26, 0x68, 0x60, 0x89, 0x26, 0x00, 0x00, 0x99, 0x2a,
  0x68, 0x30, 0x89, 0x2a, 0x00, 0x18, 0x99, 0x2a, 0x68, 0x18, 0x89, 0x2a,
  0x00, 0x00, 0x99, 0x24, 0x68, 0x30, 0x89, 0x24, 0x00, 0x30, 0x99, 0x2a,
  0x68, 0x30, 0x89, 0x2a, 0x00, 0x18, 0x99, 0x2a, 0x68, 0x18, 0x89, 0x2a,
  0x00, 0x00, 0x99, 0x26, 0x68, 0x48, 0x99, 0x2a, 0x68, 0x18, 0x89, 0x26,
  0x00, 0x00, 0x89, 0x2a, 0x00, 0x00, 0x99, 0x24, 0x68, 0x18, 0x89, 0x24,
  0x00, 0x30, 0x99, 0x2a, 0x68, 0x18, 0x89, 0x2a, 0x00, 0x00, 0x99, 0x24,
  0x68, 0x30, 0x89, 0x24, 0x00, 0x30, 0x99, 0x2a, 0x68, 0x30, 0x89, 0x2a,
  0x00, 0x18, 0x99, 0x2a, 0x68, 0x18, 0x89, 0x2a, 0x00, 0x00, 0x99, 0x26,
  0x68, 0x60, 0x89, 0x26, 0x00, 0x00, 0x99, 0x2a, 0x68, 0x30, 0x89, 0x2a,
  0x00, 0x18, 0x99, 0x2a, 0x68, 0x18, 0x89, 0x2a, 0x00, 0x00, 0x99, 0x24,
  0x68, 0x30, 0x89, 0x24, 0x00, 0x30, 0x99, 0x2a, 0x68, 0x30, 0x89, 0x2a,
  0x00, 0x18, 0x99, 0x2a, 0x68, 0x18, 0x89, 0x2a, 0x00, 0x00, 0x99, 0x26,
  0x68, 0x48, 0x99, 0x2a, 0x68, 0x18, 0x89, 0x26, 0x00, 0x00, 0x89, 0x2a,
  0x00, 0x00, 0x99, 0x24, 0x68, 0x18, 0x89, 0x24, 0x00, 0x30, 0x99, 0x2a,
  0x68, 0x18, 0x89, 0x2a, 0x00, 0x00, 0x99, 0x24, 0x68, 0x30, 0x89, 0x24,
  0x00, 0x30, 0x99, 0x2a, 0x68, 0x30, 0x89, 0x2a, 0x00, 0x18, 0x99, 0x2a,
  0x68, 0x18, 0x89, 0x2a, 0x00, 0x00, 0x99, 0x26, 0x68, 0x60, 0x89, 0x26,
  0x00, 0x00, 0x99, 0x2a, 0x68, 0x30, 0x89, 0x2a, 0x00, 0x18, 0x99, 0x2a,
  0x68, 0x18, 0x89, 0x2a, 0x00, 0x00, 0x99, 0x24, 0x68, 0x30, 0x89, 0x24,
  0x00, 0x30, 0x99, 0x2a, 0x68, 0x30, 0x89, 0x2a, 0x00, 0x18, 0x99, 0x2a,
  0x68, 0x18, 0x89, 0x2a, 0x00, 0x00, 0xb9, 0x0a, 0x00, 0x00, 0x99, 0x30,
  0x68, 0x20, 0x89, 0x30, 0x00, 0x00, 0x99, 0x30, 0x68, 0x20, 0x89, 0x30,
  0x00, 0x00, 0x99, 0x30, 0x68, 0x20, 0x89, 0x30, 0x00, 0x00, 0xb9, 0x0a,
  0x7f, 0x00, 0x99, 0x2d, 0x68, 0x20, 0x89, 0x2d, 0x00, 0x00, 0x99, 0x2d,
  0x68, 0x20, 0x89, 0x2d, 0x00, 0x00, 0x99, 0x2d, 0x68, 0x20, 0x89, 0x2d,
  0x00, 0x00, 0xb9, 0x0a, 0x40, 0x00, 0x99, 0x24, 0x68, 0x30, 0x89, 0x24,
  0x00, 0x30, 0x99, 0x2a, 0x68, 0x30, 0x89, 0x2a, 0x00, 0x18, 0x99, 0x2a,
  0x68, 0x18, 0x89, 0x2a, 0x00, 0x00, 0x99, 0x26, 0x68, 0x60, 0x89, 0x26,
  0x00, 0x00, 0x99, 0x2a, 0x68, 0x30, 0x89, 0x2a, 0x00, 0x18, 0x99, 0x2a,
  0x68, 0x18, 0x89, 0x2a, 0x00, 0x00, 0x99, 0x24, 0x68, 0x30, 0x89, 0x24,
  0x00, 0x30, 0x99, 0x2a, 0x68, 0x30, 0x89, 0x2a, 0x00, 0x18, 0x99, 0x2a,
  0x68, 0x18, 0x89, 0x2a, 0x00, 0x00, 0x99, 0x26, 0x68, 0x48, 0x99, 0x2a,
  0x68, 0x18, 0x89, 0x26, 0x00, 0x00, 0x89, 0x2a, 0x00, 0x00, 0x99, 0x24,
  0x68, 0x18, 0x89, 0x24, 0x00, 0x30, 0x99, 0x2a, 0x68, 0x18, 0x89, 0x2a,
  0x00, 0x00, 0x99, 0x24, 0x68, 0x30, 0x89, 0x24, 0x00, 0x30, 0x99, 0x2a,
  0x68, 0x30, 0x89, 0x2a, 0x00, 0x18, 0x99, 0x2a, 0x68, 0x18, 0x89, 0x2a,
  0x00, 0x00, 0x99, 0x26, 0x68, 0x60, 0x89, 0x26, 0x00, 0x00, 0x99, 0x2a,
  0x68, 0x30, 0x89, 0x2a, 0x00, 0x18, 0x99, 0x2a, 0x68, 0x18, 0x89, 0x2a,
  0x00, 0x00, 0x99, 0x24, 0x68, 0x30, 0x89, 0x24, 0x00, 0x30, 0x99, 0x2a,
  0x68, 0x30, 0x89, 0x2a, 0x00, 0x18, 0x99, 0x2a, 0x68, 0x18, 0x89, 0x2a,
  0x00, 0x00, 0x99, 0x26, 0x68, 0x48, 0x99, 0x2a, 0x68, 0x18, 0x89, 0x26,
  0x00, 0x00, 0x89, 0x2a, 0x00, 0x00, 0x99, 0x24, 0x68, 0x18, 0x89, 0x24,
  0x00, 0x30, 0x99, 0x2a, 0x68, 0x18, 0x89, 0x2a, 0x00, 0x00, 0x99, 0x24,
  0x68, 0x30, 0x89, 0x24, 0x00, 0x30, 0x99, 0x2a, 0x68, 0x30, 0x89, 0x2a,
  0x00, 0x18, 0x99, 0x2a, 0x68, 0x18, 0x89, 0x2a, 0x00, 0x00, 0x99, 0x26,
  0x68, 0x60, 0x89, 0x26, 0x00, 0x00, 0x99, 0x2a, 0x68, 0x30, 0x89, 0x2a,
  0x00, 0x18, 0x99, 0x2a, 0x68, 0x18, 0x89, 0x2a, 0x00, 0x00, 0x99, 0x24,
  0x68, 0x30, 0x89, 0x24, 0x00, 0x30, 0x99, 0x2a, 0x68, 0x30, 0x89, 0x2a,
  0x00, 0x18, 0x99, 0x2a, 0x68, 0x18, 0x89, 0x2a, 0x00, 0x00, 0x99, 0x26,
  0x68, 0x48, 0x99, 0x2a, 0x68, 0x18, 0x89, 0x26, 0x00, 0x00, 0x89, 0x2a,
  0x00, 0x00, 0x99, 0x24, 0x68, 0x18, 0x89, 0x24, 0x00, 0x30, 0x99, 0x2a,
  0x68, 0x18, 0x89, 0x2a, 0x00, 0x00, 0x99, 0x24, 0x68, 0x30, 0x89, 0x24,
  0x00, 0x30, 0x99, 0x2a, 0x68, 0x30, 0x89, 0x2a, 0x00, 0x18, 0x99, 0x2a,
  0x68, 0x18, 0x89, 0x2a, 0x00, 0x00, 0x99, 0x26, 0x68, 0x60, 0x89, 0x26,
  0x00, 0x00, 0x99, 0x2a, 0x68, 0x30, 0x89, 0x2a, 0x00, 0x18, 0x99, 0x2a,
  0x68, 0x18, 0x89, 0x2a, 0x00, 0x00, 0x99, 0x24, 0x68, 0x30, 0x89, 0x24,
  0x00, 0x30, 0x99, 0x2a, 0x68, 0x30, 0x89, 0x2a, 0x00, 0x18, 0x99, 0x2a,
  0x68, 0x18, 0x89, 0x2a, 0x00, 0x00, 0x99, 0x26, 0x68, 0x48, 0x99, 0x2a,
  0x68, 0x18, 0x89, 0x26, 0x00, 0x00, 0x89, 0x2a, 0x00, 0x00, 0x99, 0x24,
  0x68, 0x18, 0x89, 0x24, 0x00, 0x30, 0x99, 0x2a, 0x68, 0x18, 0x89, 0x2a,
  0x00, 0x00, 0x99, 0x24, 0x68, 0x30, 0x89, 0x24, 0x00, 0x30, 0x99, 0x2a,
  0x68, 0x30, 0x89, 0x2a, 0x00, 0x18, 0x99, 0x2a, 0x68, 0x18, 0x89, 0x2a,
  0x00, 0x00, 0x99, 0x26, 0x68, 0x60, 0x89, 0x26, 0x00, 0x00, 0x99, 0x2a,
  0x68, 0x30, 0x89, 0x2a, 0x00, 0x18, 0x99, 0x2a, 0x68, 0x18, 0x89, 0x2a,
  0x00, 0x00, 0x99, 0x24, 0x68, 0x30, 0x89, 0x24, 0x00, 0x30, 0x99, 0x2a,
  0x68, 0x30, 0x89, 0x2a, 0x00, 0x18, 0x99, 0x2a, 0x68, 0x18, 0x89, 0x2a,
  0x00, 0x00, 0x99, 0x26, 0x68, 0x48, 0x99, 0x2a, 0x68, 0x18, 0x89, 0x26,
  0x00, 0x00, 0x89, 0x2a, 0x00, 0x00, 0x99, 0x24, 0x68, 0x18, 0x89, 0x24,
  0x00, 0x30, 0x99, 0x2a, 0x68, 0x18, 0x89, 0x2a, 0x00, 0x00, 0x99, 0x24,
  0x68, 0x30, 0x89, 0x24, 0x00, 0x30, 0x99, 0x2a, 0x68, 0x30, 0x89, 0x2a,
  0x00, 0x18, 0x99, 0x2a, 0x68, 0x18, 0x89, 0x2a, 0x00, 0x00, 0x99, 0x26,
  0x68, 0x60, 0x89, 0x26, 0x00, 0x00, 0x99, 0x2a, 0x68, 0x30, 0x89, 0x2a,
  0x00, 0x18, 0x99, 0x2a, 0x68, 0x18, 0x89, 0x2a, 0x00, 0x00, 0xb9, 0x0a,
  0x00, 0x00, 0x99, 0x32, 0x68, 0x20, 0x89, 0x32, 0x00, 0x00, 0x99, 0x32,
  0x68, 0x20, 0x89, 0x32, 0x00, 0x00, 0x99, 0x32, 0x68, 0x20, 0x89, 0x32,
  0x00, 0x00, 0xb9, 0x0a, 0x40, 0x00, 0x99, 0x30, 0x68, 0x20, 0x89, 0x30,
  0x00, 0x00, 0x99, 0x30, 0x68, 0x20, 0x89, 0x30, 0x00, 0x00, 0x99, 0x30,
  0x68, 0x20, 0x89, 0x30, 0x00, 0x00, 0xb9, 0x0a, 0x7f, 0x00, 0x99, 0x2d,
  0x68, 0x20, 0x89, 0x2d, 0x00, 0x00, 0x99, 0x2d, 0x68, 0x20, 0x89, 0x2d,
  0x00, 0x00, 0x99, 0x2d, 0x68, 0x20, 0x89, 0x2d, 0x00, 0x00, 0xb9, 0x0a,
  0x40, 0x00, 0x99, 0x26, 0x68, 0x20, 0x89, 0x26, 0x00, 0x00, 0x99, 0x26,
  0x68, 0x20, 0x89, 0x26, 0x00, 0x00, 0x99, 0x26, 0x68, 0x20, 0x89, 0x26,
  0x00, 0x83, 0x00, 0xb9, 0x65, 0x00, 0x00, 0xb9, 0x64, 0x00, 0x00, 0xb9,
  0x06, 0x0c, 0x00, 0xb9, 0x0a, 0x40, 0x00, 0xb9, 0x07, 0x76, 0x00, 0xe9,
  0x06, 0x40, 0x00, 0xc9, 0x00, 0x00, 0xb9, 0x01, 0x00, 0x01, 0xb9, 0x65,
  0x00, 0x00, 0xb9, 0x64, 0x00, 0x00, 0xb9, 0x06, 0x0c, 0x00, 0xb9, 0x0a,
  0x40, 0x00, 0xb9, 0x07, 0x76, 0x00, 0xe9, 0x06, 0x40, 0x00, 0xc9, 0x00,
  0x00, 0xb9, 0x01, 0x00, 0x00, 0xb9, 0x65, 0x00, 0x00, 0xb9, 0x64, 0x00,
  0x00, 0xb9, 0x06, 0x0c, 0x00, 0xb9, 0x0a, 0x40, 0x00, 0xb9, 0x07, 0x76,
  0x00, 0xe9, 0x06, 0x40, 0x00, 0xc9, 0x00, 0x00, 0xb9, 0x01, 0x00, 0x00,
  0xff, 0x2f, 0x00
};

static constexpr size_t CAN_CAN_BUNNY_2_SUPERIOR_SELECT_SCENARIO_MID_LEN = 34467;

}  // namespace stackchan::songs

